<svg xmlns="http://www.w3.org/2000/svg" width="184.557" height="171.126" viewBox="0 0 184.557 171.126">
  <g id="Group_243" data-name="Group 243" transform="matrix(-0.966, 0.259, -0.259, -0.966, 229.611, 162.875)">
    <g id="Group_241" data-name="Group 241" transform="translate(39.053 42.295)">
      <path fill="#fff" id="Path_1333" data-name="Path 1333" d="M139.374,166.859h-.045a4.443,4.443,0,0,1-4.368-4.546h0a4.4,4.4,0,0,1,4.5-4.368h0a4.471,4.471,0,0,1,4.413,4.5h0a4.49,4.49,0,0,1-4.457,4.413h-.045Zm10.787-4.636a4.445,4.445,0,0,1,4.1-4.769h0a4.518,4.518,0,0,1,4.814,4.15h0a4.479,4.479,0,0,1-4.145,4.765h-.312A4.473,4.473,0,0,1,150.161,162.224Zm-26.432,3.7h0a4.489,4.489,0,0,1-3.922-4.948h0a4.416,4.416,0,0,1,4.9-3.918h0a4.385,4.385,0,0,1,3.922,4.9h0a4.408,4.408,0,0,1-4.413,3.967h-.49Zm41.587-5.081a4.428,4.428,0,0,1,3.744-5.037h0v-.045h0a4.529,4.529,0,0,1,5.081,3.744h0a4.48,4.48,0,0,1-3.744,5.081h0a3.375,3.375,0,0,1-.669.045h0A4.453,4.453,0,0,1,165.316,160.842Zm-57.053,2.5a4.44,4.44,0,0,1-3.388-5.3h0a4.44,4.44,0,0,1,5.3-3.388h0a4.44,4.44,0,0,1,3.388,5.3h0a4.46,4.46,0,0,1-4.324,3.521h0A3.712,3.712,0,0,1,108.262,163.338Zm-15.155-4.279v-.045a4.44,4.44,0,0,1-2.719-5.661h0a4.507,4.507,0,0,1,5.705-2.719h0a4.489,4.489,0,0,1,2.719,5.705h0a4.459,4.459,0,0,1-4.234,2.946h0A5.613,5.613,0,0,1,93.108,159.059Zm-14.486-6.24A4.462,4.462,0,0,1,76.66,146.8h0a4.39,4.39,0,0,1,5.973-1.912h0a4.444,4.444,0,0,1,1.961,5.968h0a4.471,4.471,0,0,1-3.967,2.451h0A4.589,4.589,0,0,1,78.621,152.819Zm-13.595-8.112a4.441,4.441,0,0,1-1.114-6.2h0a4.445,4.445,0,0,1,6.2-1.114h0a4.434,4.434,0,0,1,1.114,6.2h0a4.388,4.388,0,0,1-3.655,1.917h0A4.506,4.506,0,0,1,65.027,144.707ZM52.68,134.771a4.447,4.447,0,0,1-.223-6.289h0a4.5,4.5,0,0,1,6.329-.223h0a4.484,4.484,0,0,1,.223,6.285h0a4.567,4.567,0,0,1-3.3,1.431h0A4.456,4.456,0,0,1,52.68,134.771ZM41.938,123.089A4.509,4.509,0,0,1,42.7,116.8h0a4.475,4.475,0,0,1,6.285.8h0a4.467,4.467,0,0,1-.8,6.24h0a4.468,4.468,0,0,1-2.719.936h0A4.474,4.474,0,0,1,41.938,123.089ZM33.2,109.717a4.464,4.464,0,0,1,1.827-6.017h0a4.481,4.481,0,0,1,6.062,1.827h0a4.476,4.476,0,0,1-1.827,6.017h0a4.571,4.571,0,0,1-2.095.535h0A4.47,4.47,0,0,1,33.2,109.717Zm-6.2-14.8a4.446,4.446,0,0,1,2.942-5.572h0a4.411,4.411,0,0,1,5.572,2.942h0a4.444,4.444,0,0,1-2.942,5.572h0a4.358,4.358,0,0,1-1.293.178h0A4.439,4.439,0,0,1,27.006,94.919Zm-3.254-15.69h0a4.5,4.5,0,0,1,3.967-4.948h0a4.459,4.459,0,0,1,4.9,3.967h0a4.454,4.454,0,0,1-3.922,4.9h0c-.178,0-.357.045-.49.045h0A4.483,4.483,0,0,1,23.752,79.229ZM27.63,67.952a4.445,4.445,0,0,1-4.1-4.769h0a4.48,4.48,0,0,1,4.814-4.1h0A4.415,4.415,0,0,1,32.4,63.9h0A4.462,4.462,0,0,1,27.987,68h0A.8.8,0,0,1,27.63,67.952Zm1.827-15.066a4.476,4.476,0,0,1-3.076-5.527h0a4.492,4.492,0,0,1,5.527-3.076h0a4.45,4.45,0,0,1,3.031,5.527h0a4.427,4.427,0,0,1-4.279,3.254h0A5.611,5.611,0,0,1,29.458,52.886Zm4.814-14.442a4.461,4.461,0,0,1-1.783-6.062h0A4.513,4.513,0,0,1,38.55,30.6h0a4.525,4.525,0,0,1,1.783,6.062h0a4.5,4.5,0,0,1-3.922,2.318h0A4.61,4.61,0,0,1,34.271,38.445Z" transform="translate(-23.517 -30.069)"/>
    </g>
    <g id="Group_242" data-name="Group 242" transform="translate(37.567 33.87)">
      <path fill="#fff" id="Path_1334" data-name="Path 1334" d="M20.4,29.451l.352,4.862,21.561-1.955.181,24.031,4.391-.045-.225-29.267Z" transform="translate(-20.398 -27.076)"/>
    </g>
  </g>
</svg>
