<svg xmlns="http://www.w3.org/2000/svg" width="273.157" height="417.504" viewBox="0 0 273.157 417.504">
  <g id="undraw_order_delivered_re_v4ab_1_" data-name="undraw_order_delivered_re_v4ab (1)" transform="translate(-80.148 0)">
    <path id="Path_490" data-name="Path 490" d="M657.419,274.122a10.322,10.322,0,0,0-.234,1.606L615.11,300l-10.227-5.887-10.9,14.273,17.091,12.182a7.836,7.836,0,0,0,9.4-.229l43.386-34.227a10.281,10.281,0,1,0-6.441-11.99Z" transform="translate(-387.328 -214.76)" fill="#ffb6b6"/>
    <path id="Path_491" data-name="Path 491" d="M708.658,299.8a4.4,4.4,0,0,0-2.2-2.939l-19.425-10.584a12.24,12.24,0,0,0-14.8,19.5l15.568,15.816a4.407,4.407,0,0,0,6.66-.438l13.4-17.772A4.4,4.4,0,0,0,708.658,299.8Z" transform="translate(-481.459 -217.236)" fill="#3f3d56"/>
    <path id="Path_492" data-name="Path 492" d="M764.179,227.369c-2.795-8.907-9.15-17.076-17.94-20.087s-21.661,1.576-28.269,8.162c-12.088,12.047-15.037,53.432-6.733,66.51,1.652-.087,7.352-.152,9.024-.215l2.365-7.883v7.8c13.049-.4,26.635-.151,40.228.11C764.072,272.512,766.974,236.276,764.179,227.369Z" transform="translate(-571.683 -206.338)" fill="#2f2e41"/>
    <path id="Path_493" data-name="Path 493" d="M392.446,452.055h11.9l5.662-45.909H392.443Z" transform="translate(-196.21 -57.151)" fill="#ffb6b6"/>
    <path id="Path_494" data-name="Path 494" d="M500.881,443.685l11.517,3,17.059-43-17-4.43Z" transform="translate(-408.837 -56.182)" fill="#ffb6b6"/>
    <path id="Path_495" data-name="Path 495" d="M401.589,130.55l-2.7,7.012.54,7.012,52.781,18.281-2.619-30.687-5.932-7.013Z" transform="translate(-243.954 -17.611)" fill="#ffb6b6"/>
    <circle id="Ellipse_54" data-name="Ellipse 54" cx="18.851" cy="18.851" r="18.851" transform="translate(155.472 12.135)" fill="#ffb7b7"/>
    <path id="Path_496" data-name="Path 496" d="M736.776,213.264a23.678,23.678,0,0,0-36,20.664c10.276,2.626,21.226,3.725,32.831.633l2.652-6.492,1.564,6.5q5.325,3.746,10.28-.013A24.176,24.176,0,0,0,736.776,213.264Z" transform="translate(-549.5 -206.825)" fill="#2f2e41"/>
    <path id="Path_497" data-name="Path 497" d="M661.737,687.365h8.446l1.508-7.974,3.861,7.974h22.4a5.035,5.035,0,0,0,2.861-9.179l-17.888-12.354v-8.061l-18.815,1.123Z" transform="translate(-470.826 -269.861)" fill="#2f2e41"/>
    <path id="Path_498" data-name="Path 498" d="M790.524,676.454l8.173,2.13,3.47-7.336,1.725,8.69,21.676,5.65a5.035,5.035,0,0,0,5.084-8.16l-14.193-16.467,2.033-7.8L800,649.5Z" transform="translate(-710.376 -268.698)" fill="#2f2e41"/>
    <path id="Path_499" data-name="Path 499" d="M679.968,588.733l34.888-71.705,10.952-87.274c-7.551-14.024,6.473-42.559,6.473-42.559V375.213l54.324,10.249h0a260.767,260.767,0,0,1,15.89,94.683l-2.189,116.012h.687a4.3,4.3,0,0,1,0,8.593H779.511a4.3,4.3,0,0,1,0-8.593h.554L764.644,448.568,746.712,521.4l-43.334,67.058a4.286,4.286,0,0,1-.344,8.558H681.553a4.292,4.292,0,0,1-1.585-8.282Z" transform="translate(-586.464 -230.101)" fill="#2f2e41"/>
    <path id="Path_500" data-name="Path 500" d="M683.56,380.478h0a3.426,3.426,0,0,1,3.1-2.573c.716-8.187,5.447-60.69,5.627-62.231l.007-.065,1.37-29.265a4.328,4.328,0,0,1,4.041-4.116l7.236-.473a.383.383,0,0,0,.37-.383,6.085,6.085,0,0,1,6.085-6.085h21.423a5.7,5.7,0,0,1,5.65,4.987.378.378,0,0,0,.385.34h0a10.178,10.178,0,0,1,10.239,8.442c2.929,17.04,8.8,55.716,5.9,77.217-1.01,7.485-.551,18.742-.169,25.005a4.61,4.61,0,0,1-1.148,3.342,3.43,3.43,0,0,1,2.377,4.131h0a3.437,3.437,0,0,1-4.173,2.493l-65.824-16.594A3.437,3.437,0,0,1,683.56,380.478Z" transform="translate(-542.654 -216.04)" fill="#3f3d56"/>
    <path id="Path_506" data-name="Path 506" d="M521.354,278.464a6.13,6.13,0,0,1,5.146-6.011l87.955-14.443a6.129,6.129,0,0,1,2.534.113l20.612,5.33,11.827,3.062,21.826,5.642a6.148,6.148,0,0,1,4.6,5.949v72.087a6.176,6.176,0,0,1-4.864,6.006L581.406,375.26a5.964,5.964,0,0,1-1.28.133,6.134,6.134,0,0,1-1.849-.281L525.052,358.3a6.119,6.119,0,0,1-4.3-5.908Z" transform="translate(-322.553 -213.597)" fill="#fff"/>
    <path id="Path_507" data-name="Path 507" d="M616.329,264.184a.739.739,0,0,1,.19.024l54.266,14.034a.767.767,0,0,1,.575.742v72.086a.771.771,0,0,1-.607.75l-89.587,19.061a.773.773,0,0,1-.391-.019l-53.227-16.808a.763.763,0,0,1-.536-.738l.6-73.93a.766.766,0,0,1,.643-.75L616.2,264.194A.791.791,0,0,1,616.329,264.184Z" transform="translate(-323.431 -214.478)" fill="#f2c81f"/>
    <path id="Path_508" data-name="Path 508" d="M521.354,278.464a6.13,6.13,0,0,1,5.146-6.011l87.955-14.443a6.129,6.129,0,0,1,2.534.113l20.612,5.33,11.827,3.062,21.826,5.642a6.148,6.148,0,0,1,4.6,5.949v72.087a6.176,6.176,0,0,1-4.864,6.006L581.406,375.26a5.964,5.964,0,0,1-1.28.133,6.134,6.134,0,0,1-1.849-.281L525.052,358.3a6.119,6.119,0,0,1-4.3-5.908Zm4.157,78.375,53.226,16.808a4.671,4.671,0,0,0,2.345.113L670.675,354.7a4.633,4.633,0,0,0,3.645-4.506V278.106a4.614,4.614,0,0,0-3.021-4.326,3.855,3.855,0,0,0-.43-.133l-23.09-5.97-13.655-3.533-17.52-4.531a4.394,4.394,0,0,0-1.152-.148,4.57,4.57,0,0,0-.748.061l-87.954,14.443a4.584,4.584,0,0,0-3.86,4.505l-.6,73.931a4.592,4.592,0,0,0,3.221,4.434Z" transform="translate(-322.553 -213.597)" fill="#3f3d56"/>
    <path id="Path_509" data-name="Path 509" d="M523.212,278.929a.671.671,0,0,0,.195.087l25.87,6.994,8.054,2.176,22.906,6.19a.887.887,0,0,0,.2.026,1.239,1.239,0,0,0,.138-.01l92.362-16.839.307-.056a.77.77,0,0,0-.277-1.515l-1.858.338-90.641,16.527-19.742-5.335-11.044-2.985-25.471-6.886-.4-.108a.772.772,0,0,0-.9.42.6.6,0,0,0-.046.123.77.77,0,0,0,.348.855Z" transform="translate(-322.362 -216.136)" fill="#3f3d56"/>
    <path id="Path_510" data-name="Path 510" d="M631.454,380.878a.768.768,0,0,0,.768-.761l.768-83.709a.768.768,0,0,0-.761-.775h-.007a.768.768,0,0,0-.768.761l-.768,83.709a.768.768,0,0,0,.761.775Z" transform="translate(-374.147 -218.903)" fill="#3f3d56"/>
    <path id="Path_511" data-name="Path 511" d="M551.513,366.294l8.054,2.176,3.394-82.594,86.613-17.234a1.989,1.989,0,0,0,.251-.061,3.054,3.054,0,0,0,1.649-1.162l-11.827-3.062-3.477.691L553.986,281.4a3.056,3.056,0,0,0-2.068,1.5C551.661,283.337,551.518,365.761,551.513,366.294Z" transform="translate(-324.598 -214.502)" fill="#3f3d56"/>
    <path id="Path_512" data-name="Path 512" d="M715.312,325.676a10.308,10.308,0,0,0-1.147,1.149l-48.246-5.635-4.692-10.827-17.266,4.946,6.444,19.975a7.836,7.836,0,0,0,7.68,5.427l55.239-1.57a10.281,10.281,0,1,0,1.988-13.464Z" transform="translate(-484.789 -220.976)" fill="#ffb6b6"/>
    <path id="Path_513" data-name="Path 513" d="M752.627,314.718a4.4,4.4,0,0,0-.01-3.67l-9.27-20.085a12.24,12.24,0,1,0-23.513,6.816l3.053,21.982a4.407,4.407,0,0,0,5.6,3.623l21.362-6.26A4.4,4.4,0,0,0,752.627,314.718Z" transform="translate(-570.366 -217.002)" fill="#3f3d56"/>
    <path id="Path_516" data-name="Path 516" d="M532.044,339.431a1.305,1.305,0,0,0,.285-.032l26.638-6.015a1.289,1.289,0,1,0-.568-2.515l-26.637,6.015a1.289,1.289,0,0,0,.283,2.547Z" transform="translate(-215.26 -223.857)" fill="#fff"/>
  </g>
</svg>
