<svg xmlns="http://www.w3.org/2000/svg" width="198.353" height="153.864" viewBox="0 0 198.353 153.864">
  <g id="layer1" transform="translate(0.092 -0.001)">
    <g id="g13">
      <g id="g15" transform="translate(10.041 130.701)">
        <path id="XMLID_1775_" d="M2975.42,2921.54v-10.211c0-3.915-2.383-6.468-6.467-6.468a6.716,6.716,0,0,0-5.787,2.893,5.95,5.95,0,0,0-5.445-2.894,5.5,5.5,0,0,0-4.765,2.383V2905.2h-3.574v16.338h3.574v-9.02c0-2.893,1.531-4.255,3.914-4.255s3.574,1.532,3.574,4.255v9.02h3.573v-9.02c0-2.893,1.7-4.255,3.915-4.255,2.383,0,3.574,1.532,3.574,4.255v9.02Zm52.927-16.338h-5.786v-4.936h-3.574v4.936h-3.233v3.234h3.233v7.489c0,3.744,1.533,5.956,5.616,5.956a9.512,9.512,0,0,0,4.425-1.191l-1.02-3.063a5.6,5.6,0,0,1-3.064.852c-1.7,0-2.383-1.022-2.383-2.724v-7.318h5.786Zm30.293-.341a4.8,4.8,0,0,0-4.255,2.383V2905.2h-3.573v16.338h3.573v-9.19c0-2.723,1.191-4.255,3.4-4.255a9.971,9.971,0,0,1,2.212.341l1.021-3.4a11.248,11.248,0,0,0-2.383-.17Zm-45.78,1.7a11.675,11.675,0,0,0-6.636-1.7c-4.085,0-6.808,2.042-6.808,5.276,0,2.723,2.042,4.254,5.616,4.765l1.7.17c1.872.34,2.893.851,2.893,1.7,0,1.191-1.361,2.042-3.744,2.042a9.4,9.4,0,0,1-5.446-1.7l-1.7,2.722a12.036,12.036,0,0,0,6.978,2.043c4.765,0,7.488-2.212,7.488-5.276,0-2.893-2.213-4.425-5.616-4.936l-1.7-.169c-1.531-.17-2.722-.511-2.722-1.532,0-1.191,1.191-1.872,3.063-1.872a12.285,12.285,0,0,1,5.106,1.361Zm94.963-1.7a4.8,4.8,0,0,0-4.255,2.383V2905.2h-3.574v16.338h3.574v-9.19c0-2.723,1.191-4.255,3.4-4.255a9.934,9.934,0,0,1,2.211.341l1.022-3.4a11.248,11.248,0,0,0-2.383-.17Zm-45.61,8.51c0,4.935,3.4,8.509,8.679,8.509a8.465,8.465,0,0,0,5.787-1.873l-1.7-2.892a6.883,6.883,0,0,1-4.255,1.53c-2.893,0-4.936-2.042-4.936-5.275a5.021,5.021,0,0,1,4.936-5.276,6.881,6.881,0,0,1,4.255,1.532l1.7-2.893a8.473,8.473,0,0,0-5.787-1.872c-5.275,0-8.679,3.574-8.679,8.509h0Zm33.017,0V2905.2h-3.574v2.042a6.148,6.148,0,0,0-5.1-2.383,8.517,8.517,0,0,0,0,17.019,5.73,5.73,0,0,0,5.1-2.383v2.042h3.574Zm-13.1,0c0-2.894,1.872-5.277,4.934-5.277,2.894,0,4.936,2.213,4.936,5.277a4.946,4.946,0,1,1-9.869,0Zm-42.716-8.51c-4.765,0-8.169,3.4-8.169,8.51s3.4,8.509,8.338,8.509a10.421,10.421,0,0,0,6.638-2.212l-1.7-2.553a8.138,8.138,0,0,1-4.765,1.7c-2.212,0-4.425-1.021-4.935-3.914H3046.9v-1.362c.171-5.276-2.893-8.68-7.487-8.68Zm0,3.064c2.212,0,3.743,1.361,4.084,3.914h-8.509A4.309,4.309,0,0,1,3039.414,2907.925Zm88.665,5.446v-14.636H3124.5v8.509a6.148,6.148,0,0,0-5.1-2.383,8.516,8.516,0,0,0,0,17.019,5.729,5.729,0,0,0,5.105-2.383v2.042h3.574Zm-13.1,0c0-2.894,1.873-5.277,4.936-5.277,2.894,0,4.936,2.213,4.936,5.277a4.946,4.946,0,1,1-9.871,0Zm-119.469,0V2905.2h-3.574v2.042a6.146,6.146,0,0,0-5.1-2.383,8.517,8.517,0,0,0,0,17.019,5.728,5.728,0,0,0,5.105-2.383v2.042h3.574Zm-13.273,0c0-2.894,1.872-5.277,4.936-5.277,2.893,0,4.935,2.213,4.935,5.277a4.946,4.946,0,1,1-9.87,0Z" transform="translate(-2949.378 -2898.734)" fill="#fff"/>
      </g>
      <g id="XMLID_328_">
        <rect id="rect19" width="53.608" height="96.324" transform="translate(72.328 13.104)" fill="#ff5f00"/>
        <path id="XMLID_330_" d="M2974.47,2300.77a61.421,61.421,0,0,1,23.305-48.154,61.266,61.266,0,1,0,.009,96.316,61.177,61.177,0,0,1-23.315-48.162Z" transform="translate(-2898.734 -2239.502)" fill="#eb001b"/>
        <path id="path22" d="M3498.21,2300.77a61.2,61.2,0,0,1-99.047,48.163,61.4,61.4,0,0,0,0-96.324,61.2,61.2,0,0,1,99.047,48.162Z" transform="translate(-3299.949 -2239.502)" fill="#f79e1b"/>
      </g>
    </g>
  </g>
</svg>
