<svg xmlns="http://www.w3.org/2000/svg" width="300.8" height="275" viewBox="0 0 300.8 275">
  <g id="ontime" transform="translate(0 -0.001)">
    <g id="Ñëîé_1" data-name="Ñëîé 1" transform="translate(0 0.001)">
      <circle id="Ellipse_31" data-name="Ellipse 31" cx="111.975" cy="111.975" r="111.975" transform="translate(17.522 4.685)" fill="#c0d2f2"/>
      <path id="Path_315" data-name="Path 315" d="M636.215,1195.994a31.376,31.376,0,0,1-4.786,2.126,22.366,22.366,0,0,1-6.309,1.237l-.457.017h-1.093c-.3,0-.608-.026-.916-.05-.354-.026-.708-.063-1.067-.109-.149-.02-.295-.039-.437-.063a23.633,23.633,0,0,1-4.987-1.331c-.514-.2-1.034-.415-1.556-.656-.656-.3-1.311-.623-1.987-.988q-.682-.365-1.372-.778.063-1.291.19-2.607a19.339,19.339,0,0,1,.588-3.306c2.756-9.793,12.511-1.661,17.645-.717h0C632.109,1189.215,634.406,1192.469,636.215,1195.994Z" transform="translate(-477.67 -925.806)" fill="#15234c"/>
      <path id="Path_316" data-name="Path 316" d="M574.894,1194.7l-.45,6.53c-.354-.026-.708-.063-1.066-.109-.149-.02-.3-.039-.437-.063a23.641,23.641,0,0,1-4.987-1.331c-.514-.2-1.034-.415-1.556-.656-.656-.3-1.311-.623-1.987-.988q-.682-.365-1.372-.778a53.05,53.05,0,0,1-8.4-6.348q-.924-.835-1.9-1.617c-.437-.343-.861-.68-1.311-1.01-.179-.135-.363-.271-.546-.4a3.523,3.523,0,0,0-.514-.306h0c-.267-.159-.531-.317-.8-.47l3.278.975,10.968,3.278Z" transform="translate(-429.47 -927.716)" fill="#15234c"/>
      <path id="Path_317" data-name="Path 317" d="M698.308,1144.17c-.251.127-.5.258-.752.389h-.015c-1.379.721-2.732,1.517-4.056,2.375q-1.134.734-2.242,1.53h0c-.874.627-1.724,1.285-2.568,1.967l-.083.068q-.736.6-1.466,1.167c-1.543,1.206-3.06,2.325-4.574,3.339l-.437.295c-1.156.758-2.306,1.456-3.455,2.076a31.365,31.365,0,0,1-4.786,2.126,22.353,22.353,0,0,1-6.309,1.237l-.457.017h-1.093l-.465-6.58,6.556-4.023h0l13.984-8.582,6.49-3.986,3.728-2.286Z" transform="translate(-520.104 -887.197)" fill="#15234c"/>
      <path id="Path_437" data-name="Path 437" d="M141.046,168.81a35.725,35.725,0,1,1,35.724-35.724A35.766,35.766,0,0,1,141.046,168.81Zm0-69.544a33.821,33.821,0,1,0,33.821,33.82A33.865,33.865,0,0,0,141.046,99.266Z" transform="translate(-77.304 -83.084)" fill="#fff"/>
      <path id="Path_318" data-name="Path 318" d="M594.513,650.086q-1.134.734-2.242,1.53h0c-.874.627-1.724,1.285-2.568,1.967l-.083.068q-.737.6-1.466,1.167c-1.543,1.206-3.06,2.325-4.574,3.339l-.437.3c-1.156.758-2.306,1.455-3.455,2.076a31.37,31.37,0,0,1-4.786,2.126,22.362,22.362,0,0,1-6.309,1.237l-.457.017h-1.093c-.3,0-.608-.026-.916-.05-.354-.026-.708-.063-1.067-.109-.149-.02-.295-.039-.437-.063a23.636,23.636,0,0,1-4.987-1.331c-.514-.2-1.034-.415-1.556-.656-.656-.3-1.311-.623-1.986-.988q-.682-.365-1.372-.778a53.046,53.046,0,0,1-8.4-6.348q-.924-.835-1.9-1.617c-.437-.343-.861-.68-1.311-1.01-.179-.135-.363-.271-.546-.4a3.525,3.525,0,0,0-.514-.306h0c-.267-.16-.531-.317-.8-.47l-2.354-.69.057-.6,2.078-22.179L552.923,499.5H579.98l11.539,119.58,2.089,21.65Z" transform="translate(-421.131 -390.342)" fill="#e6eeff"/>
      <path id="Path_319" data-name="Path 319" d="M624.8,340.206s-37.828,13.178-30.652-3.8a56.885,56.885,0,0,0,4.255-19.762,57.631,57.631,0,0,0-1.034-14.065s1.311-1.222,3.254-2.882c6.119-5.212,18.562-14.769,16.716-4.436a25.858,25.858,0,0,0-.363,3.669c-.192,5.477.822,12.524,2.174,19.244C621.477,329.67,624.8,340.206,624.8,340.206Z" transform="translate(-463.6 -227.136)" fill="#ffb1a9"/>
      <path id="Path_320" data-name="Path 320" d="M633.911,347.2c-8.341,1.707-16.707-.282-20.748-1.53A57.627,57.627,0,0,0,612.13,331.6s1.311-1.222,3.254-2.882c5.052-.417,12.71-1,15.413-.907a5.354,5.354,0,0,1,.94.14C631.551,333.43,632.559,340.478,633.911,347.2Z" transform="translate(-478.358 -256.167)" fill="#ff7c76"/>
      <path id="Path_321" data-name="Path 321" d="M591.259,507.552c-4.371,0-7.378-.977-9.224-2.948-1.512-1.613-2.861-4.607-.7-9.714l5.26,2.223c-.35.83-1.093,2.841-.391,3.586,1.093,1.152,5.564,1.825,14.642-.066a117.278,117.278,0,0,0,12.828-3.521l1.879,5.393A121.863,121.863,0,0,1,602,506.221,53.7,53.7,0,0,1,591.259,507.552Z" transform="translate(-453.411 -386.739)" fill="#fff"/>
      <path id="Path_322" data-name="Path 322" d="M751.188,519.92c-6.18-1.182-20.949-3.5-28.921-.328a1.812,1.812,0,0,1-2.4-1.139l-5.315-17.092a.14.14,0,0,0-.269.07c2.185,9.76,8.645,38.993,13.6,65.39q.656,3.435,1.25,6.79a136.578,136.578,0,0,0,7.983,26.462q-1.908.037-3.674.159-1.075.076-2.089.179a40.349,40.349,0,0,0-9.788,2.054q-.675.251-1.342.529-1.611.656-3.177,1.458h0c-.251.127-.5.258-.752.389h-.015c-1.379.721-2.732,1.517-4.056,2.375q-1.134.734-2.242,1.53h0c-.874.627-1.724,1.285-2.568,1.967l-.083.068q-.736.6-1.466,1.167l-1.036-10.094-2.371-23.239L696.4,519.149l-.179-1.748-6.206-60.768-.494-4.865a6.917,6.917,0,0,0,.17-1.53,1.707,1.707,0,0,1,.743-1.41l3.894-2.671,1.735-1.189a1.829,1.829,0,0,1,2.841,1.27l.83,6.222.219.094c.337.142,1.051.437,2.054.874,6.893,2.981,27.472,12.19,34.1,18.6a12.023,12.023,0,0,1,.977,1.045,7.192,7.192,0,0,1,.616.861c3.848,6.445,12.861,34.474,15.542,43.707a1.8,1.8,0,0,1-2.059,2.281Z" transform="translate(-538.836 -347.481)" fill="#2e4faa"/>
      <path id="Path_323" data-name="Path 323" d="M402.346,453.932l-.437,4.865-5.4,60.27-.162,1.805-5.831,65.075-2.161,24.107-.109,1.217c-.437-.343-.861-.68-1.311-1.01-.179-.135-.363-.271-.546-.4a3.514,3.514,0,0,0-.514-.306h0c-.267-.16-.531-.317-.8-.47l-2.323-.691.057-.6q-.695-.385-1.39-.754a105.753,105.753,0,0,0-10.208-4.764,110,110,0,0,0-14.594-4.749c1.248-5.682,2.485-11.528,3.566-16.893.061-.3.12-.6.179-.9,6.163-30.813,14.465-69.131,16.2-77.11a.14.14,0,0,0-.264-.083l-8.385,20.127c-6.46-3.875-18.51-2.349-25.228-1.071a3.031,3.031,0,0,1-3.47-3.853c3.239-10.774,11.338-35.621,14.933-41.64a8.814,8.814,0,0,1,1.241-1.558c.31-.321.656-.656,1.042-.986,7.36-6.442,27.229-15.3,33.654-18.064,1.2-.52,1.93-.824,2.026-.874h0l1.785-5.9a1.836,1.836,0,0,1,2.793-.981l2.636,1.807,2.1,1.44a1.72,1.72,0,0,1,.745,1.41A6.915,6.915,0,0,0,402.346,453.932Z" transform="translate(-264.986 -349.645)" fill="#2e4faa"/>
      <path id="Path_324" data-name="Path 324" d="M585.354,782c-.256,2.751-.723,6.233-1.405,9.983-1.206,6.622-3.083,14.071-5.66,19.758-3.715,8.206-9.812,8.348-19.111,8.934-.608.037-1.9.118-3.739.175a138.079,138.079,0,0,1-38.427-4.281,104.386,104.386,0,0,1-11.425-3.728,119.522,119.522,0,0,1-14.08-6.484,51.5,51.5,0,0,1-8.6-5.758c-3.573-3.046-4.119-4.9-4.119-4.9l4.561-.077c4.657-.076,12.365-.2,20.619-.286,16.646-.184,35.516-.254,36.12.363.013.015.028.026.044.041,1.047.778,8.7-.559,12.953.195a3.839,3.839,0,0,1,2.583,1.254,105.982,105.982,0,0,1,1.53-15.142,28.568,28.568,0,0,1,10.549-1.748A96.561,96.561,0,0,1,585.354,782Z" transform="translate(-374.158 -609.771)" fill="#ffb1a9"/>
      <path id="Path_325" data-name="Path 325" d="M587.228,844.174s-.6.4-1.622,1.132c-4.428,3.151-16.827,12.339-23.121,20.826A104.394,104.394,0,0,1,551.06,862.4a119.527,119.527,0,0,1-14.08-6.484,5.208,5.208,0,0,1,.461-1.2c2-3.608,3.562-7.963,12-9.814a37.5,37.5,0,0,1,5.131-.728C567.606,843.152,587.228,844.174,587.228,844.174Z" transform="translate(-419.631 -659.338)" fill="#ff7c76"/>
      <path id="Path_326" data-name="Path 326" d="M454.851,800.33c-2.05-1.025-11.569-3.221-21.379,1.171-6.222,2.786-24.9,10.9-43.115,14.351-10.518,1.991-24.159,1.9-26.729-.282-3.949-3.372-6.047-15.557-7.131-25.6-.321-2.981-.553-5.771-.717-8.086a76.953,76.953,0,0,1,11.869-1.372c4.338-.116,8.713.288,12.019,1.79a68.148,68.148,0,0,1,3.715,10.866c1.132-.267,2.524-.52,4.122-.763,15.12-2.3,48.491-3.54,51.666-3.483,8.348.146,14.5,2.638,16.694,5.564S456.9,801.366,454.851,800.33Z" transform="translate(-278.03 -609.93)" fill="#ffb1a9"/>
      <path id="Path_327" data-name="Path 327" d="M487.609,770.208l-1.53.138a1.587,1.587,0,0,1-.1.138l-.131-.116c-1.379.129-2.716.262-3.995.4a52.121,52.121,0,0,0-2.81-4.559h0a6.219,6.219,0,0,0-2.074-1.77c-1.93-.955-5.2-4.419-7.011-7.133h0c-1.427-2.139-1.949-3.816-.194-3.433C473,754.587,483.767,766.03,487.609,770.208Z" transform="translate(-366.239 -589.084)" fill="#ffb1a9"/>
      <path id="Path_328" data-name="Path 328" d="M470.875,774.475c-1.379.129-2.716.262-3.995.4-.712.076-1.407.157-2.08.236l-.219.028c-.061-.072-.125-.142-.184-.219h0c-1.63-1.991-3.1-5.057-5.634-6.014a15.437,15.437,0,0,1-3.9-2.622c-3.6-3.06-7.2-7.533-4.307-7.192a13.205,13.205,0,0,1,4.441,2.316h0a166.74,166.74,0,0,1,13.715,11.119h0C469.651,773.371,470.405,774.049,470.875,774.475Z" transform="translate(-351.269 -593.191)" fill="#ffb1a9"/>
      <path id="Path_329" data-name="Path 329" d="M534.84,839.592l-.286.042-.133-.063Z" transform="translate(-417.63 -656.095)" fill="#ffb1a9"/>
      <path id="Path_330" data-name="Path 330" d="M459.551,791.995a4.385,4.385,0,0,1-.326.566,1.578,1.578,0,0,1-.1.138l-.131-.116c-1.379.129-2.716.262-3.995.4-.712.076-1.407.157-2.08.236l-.219.028-.616.077c-.459-.361-.927-.752-1.4-1.145-1.512-1.239-3.129-2.474-4.963-2.642a10.81,10.81,0,0,1-2.64-.708c-4.6-1.735-11.185-6.038-7.891-6.556,1.056-.162,3.228.424,5.861,1.383.621.219,1.265.472,1.93.732,2.992,1.182,6.338,2.675,9.22,4.028h0c1.77.828,3.374,1.6,4.629,2.216h0C458.493,791.459,459.551,791.995,459.551,791.995Z" transform="translate(-339.391 -611.299)" fill="#ffb1a9"/>
      <path id="Path_331" data-name="Path 331" d="M454.186,809.075l.413.19-.219.028-.616.076c-1.136.14-2.207.288-3.2.437s-1.868.3-2.677.457h-.013c-.45-.039-1.082.378-1.687.192-4.548-1.4-12.4-6.9-8.844-7.45,1.259-.194,4.119.686,7.452,1.984,2.4.94,3.934-3.147,6.431-2.011.625.284,2.373,5.815,2.968,6.095Z" transform="translate(-341.068 -627.344)" fill="#ffb1a9"/>
      <path id="Path_332" data-name="Path 332" d="M547.441,829.578l-.131-.116.219-.022a1.578,1.578,0,0,1-.087.138Z" transform="translate(-427.704 -648.178)" fill="#ffb1a9"/>
      <path id="Path_333" data-name="Path 333" d="M572.494,160.179s-8.4-14.056-7.225-20.4,9.275-13.265,13.862-11.421,16.95,3.123,24.972,1.268,15.247,5.566,10.953,11.032-13.473,21.086-14.447,24.893S572.494,160.179,572.494,160.179Z" transform="translate(-441.65 -100.069)" fill="#15234c"/>
      <path id="Path_334" data-name="Path 334" d="M446.214,771.13a.4.4,0,0,1-.087,0c-.079-.02-.769-.164-.887-.188a4.292,4.292,0,0,1-1-.258c-.149-.052-.31-.107-.492-.164-3.63-1.112-9.519-4.552-9.4-6.368.026-.363.267-.828,1.254-.981.887-.138,2.483.184,4.845.981-4.218-2.579-6.316-4.1-6.119-5.057.046-.219.219-.511.806-.6,1.036-.157,3.009.3,6.038,1.4l.17.061c-1.967-1.888-4.552-4.753-4-6.014.131-.3.474-.632,1.372-.527a9.212,9.212,0,0,1,3.278,1.51c-.841-1.626-.511-2.111-.387-2.295.247-.363.712-.472,1.381-.326,3.177.7,12.166,10.053,17.24,15.575a.356.356,0,1,1-.524.483C451.3,759.215,444.988,753.474,442.84,753c-.4-.087-.592-.037-.638.031-.131.192-.024,1.01,1.206,2.854a.356.356,0,0,1-.5.492c-2.548-1.748-3.735-2.185-4.281-2.255-.345-.039-.59,0-.636.1-.3.682,1.917,3.652,5.216,6.462a.358.358,0,0,1-.361.605c-.54-.219-1.243-.483-1.921-.728-3.58-1.311-5.068-1.462-5.682-1.368a.7.7,0,0,0-.219.057c.035.129.3.667,2.4,2.115,1.425.986,3.164,2.037,4.434,2.8.514.31.957.579,1.265.774.487.308.754.476.594.8s-.507.186-.736.1c-4.69-1.829-6.541-2.078-7.268-1.967-.19.028-.636.12-.656.326-.079,1.093,4.873,4.406,8.886,5.636.19.059.358.118.514.17a3.624,3.624,0,0,0,.848.219h0c.168.033.972.188,1.049.219a.356.356,0,0,1-.157.677Z" transform="translate(-339.407 -587.851)" fill="#f27a74"/>
      <circle id="Ellipse_32" data-name="Ellipse 32" cx="1.757" cy="1.757" r="1.757" transform="translate(138.195 135.472) rotate(-76.72)" fill="#bdcaff"/>
      <path id="Path_335" data-name="Path 335" d="M620.854,198.839v15a17.585,17.585,0,0,1-17.583,17.583,16.679,16.679,0,0,1-16.681-16.683v-20.8a9.85,9.85,0,0,1,6.654-5.726,14.934,14.934,0,0,1,7.225.282C610.81,191.107,615.93,195.734,620.854,198.839Z" transform="translate(-458.399 -146.828)" fill="#ffb1a9"/>
      <path id="Path_336" data-name="Path 336" d="M738.8,261.06s4.648-4.1,7.59,1.075-5.026,12.592-7.59,10.737S738.8,261.06,738.8,261.06Z" transform="translate(-576.453 -202.805)" fill="#ffb1a9"/>
      <path id="Path_337" data-name="Path 337" d="M559.513,261.06s-4.648-4.1-7.588,1.075,5.026,12.592,7.588,10.737S559.513,261.06,559.513,261.06Z" transform="translate(-430.809 -202.805)" fill="#ffb1a9"/>
      <path id="Path_338" data-name="Path 338" d="M653.538,92.069a8.442,8.442,0,0,0-7.5.1,8.014,8.014,0,0,0-3.778,3.442c-1.659,3.514-3.9,9.178,1.27,9.178s11.128,1.123,14.937-.78c3.754-1.879,12.894-8.3,12.006-12.009s-3.807-4.491-5.761-2.146-8.676,3.715-10.584,2.537C653.94,92.277,653.742,92.17,653.538,92.069Z" transform="translate(-500.391 -69.185)" fill="#243a66"/>
      <circle id="Ellipse_33" data-name="Ellipse 33" cx="1.757" cy="1.757" r="1.757" transform="translate(148.385 153.842) rotate(-22.5)" fill="#bdcaff"/>
      <circle id="Ellipse_34" data-name="Ellipse 34" cx="1.757" cy="1.757" r="1.757" transform="translate(136.071 166.492) rotate(-45)" fill="#bdcaff"/>
      <circle id="Ellipse_35" data-name="Ellipse 35" cx="1.757" cy="1.757" r="1.757" transform="translate(151.623 217.76) rotate(-76.72)" fill="#bdcaff"/>
      <circle id="Ellipse_36" data-name="Ellipse 36" cx="1.757" cy="1.757" r="1.757" transform="translate(131.268 233.568) rotate(-45)" fill="#bdcaff"/>
      <circle id="Ellipse_37" data-name="Ellipse 37" cx="1.757" cy="1.757" r="1.757" transform="translate(151.624 245.024) rotate(-76.72)" fill="#bdcaff"/>
      <circle id="Ellipse_38" data-name="Ellipse 38" cx="1.757" cy="1.757" r="1.757" transform="translate(138.196 263.011) rotate(-76.72)" fill="#bdcaff"/>
      <path id="Path_339" data-name="Path 339" d="M739.853,522.048l-19.047,25.068a.708.708,0,0,1-.5.278l-.179-1.748,18.285-24.061-8.459-13.053a.71.71,0,0,1-.048-.688l3.743-8.031L723.88,480.8c.339.144,1.053.437,2.056.874l9.146,17.787a.73.73,0,0,1,0,.629l-3.73,7.987,8.523,13.138A.721.721,0,0,1,739.853,522.048Z" transform="translate(-562.756 -375.729)" fill="#6694d8"/>
      <path id="Path_340" data-name="Path 340" d="M534.945,544.851l-.162,1.807a.719.719,0,0,1-.518-.295l-17.9-25.217a.712.712,0,0,1-.05-.743l6.576-12.575-3.748-8.025a.717.717,0,0,1,.015-.634l9.355-17.887c1.2-.518,1.93-.824,2.026-.863a.738.738,0,0,1-.07.205l-9.884,18.892,3.75,8.029a.712.712,0,0,1-.013.632l-6.539,12.5Z" transform="translate(-403.422 -375.432)" fill="#6694d8"/>
      <path id="Path_341" data-name="Path 341" d="M852.4,1061.4a.713.713,0,0,1-.688-.525l-7.273-26.362a.715.715,0,0,1,1.377-.378l7.273,26.362a.715.715,0,0,1-.688.9Z" transform="translate(-659.884 -807.752)" fill="#6694d8"/>
      <path id="Path_342" data-name="Path 342" d="M952.861,844.974a.653.653,0,0,1-.581-.948c6.008-11.582,6.512-25.765,6.517-25.907a.656.656,0,1,1,1.311.042c0,.144-.513,14.613-6.663,26.469A.656.656,0,0,1,952.861,844.974Z" transform="translate(-744.119 -638.835)" fill="#ffb1a9"/>
      <path id="Path_343" data-name="Path 343" d="M421.27,954.348h-.686a.715.715,0,0,1,.011-1.429h.013c.219,0,22.452.289,32.234-7.212a.715.715,0,1,1,.874,1.132C444.407,953.97,425.213,954.348,421.27,954.348Z" transform="translate(-328.117 -738.92)" fill="#ffb1a9"/>
      <path id="Path_344" data-name="Path 344" d="M407.894,479.439a.715.715,0,0,1-.485-1.237c6.4-5.959,26.032-13.239,26.862-13.549a.72.72,0,1,1,.494,1.353c-.2.074-20.193,7.487-26.384,13.25a.71.71,0,0,1-.487.184Z" transform="translate(-318.198 -363.076)" fill="#2e4faa"/>
      <path id="Path_345" data-name="Path 345" d="M750.925,280.905a.236.236,0,0,1-.238-.219,1.351,1.351,0,0,1,.747-1.311,2.519,2.519,0,0,0,1.208-2.061c.083-.5.013-.841-.208-1-.581-.413-2.159.284-2.666.559a.238.238,0,0,1-.219-.417c.219-.122,2.24-1.189,3.169-.531a1.387,1.387,0,0,1,.4,1.462,3.006,3.006,0,0,1-1.412,2.38c-.358.243-.555.378-.538.894a.238.238,0,0,1-.232.245Z" transform="translate(-585.671 -215.463)" fill="#ff7c76"/>
      <path id="Path_346" data-name="Path 346" d="M567.016,281.319a.238.238,0,0,1-.232-.184c-.12-.5-.345-.579-.756-.721a3.01,3.01,0,0,1-1.987-1.923,1.391,1.391,0,0,1,0-1.517c.723-.874,2.946-.38,3.2-.321a.238.238,0,1,1-.112.463c-.837-.2-2.314-.332-2.719.16-.173.219-.151.551.061,1.016a2.533,2.533,0,0,0,1.709,1.672,1.343,1.343,0,0,1,1.064,1.062.238.238,0,0,1-.177.286Z" transform="translate(-440.606 -216.045)" fill="#ff7c76"/>
      <path id="Path_347" data-name="Path 347" d="M623.852,253.522c0,1.576-.59,2.854-1.311,2.854s-1.311-1.278-1.311-2.854.59-2.852,1.311-2.852S623.852,251.946,623.852,253.522Z" transform="translate(-485.469 -195.89)" fill="#15234c"/>
      <path id="Path_348" data-name="Path 348" d="M819.294,1153.313a2.992,2.992,0,1,1,2.99-3A2.992,2.992,0,0,1,819.294,1153.313Zm0-4.554a1.565,1.565,0,1,0,1.565,1.563A1.565,1.565,0,0,0,819.294,1148.759Z" transform="translate(-637.91 -896.598)" fill="#6694d8"/>
      <ellipse id="Ellipse_39" data-name="Ellipse 39" cx="1.318" cy="2.854" rx="1.318" ry="2.854" transform="translate(151.106 54.778)" fill="#15234c"/>
      <path id="Path_349" data-name="Path 349" d="M609.3,233.191a.483.483,0,0,1-.319-.122.476.476,0,0,1-.033-.673c1.036-1.147,3.65-2.92,6.119-1.4a.476.476,0,1,1-.5.811c-2.417-1.486-4.889,1.2-4.913,1.23A.472.472,0,0,1,609.3,233.191Z" transform="translate(-475.775 -180.055)" fill="#15234c"/>
      <path id="Path_350" data-name="Path 350" d="M688.6,233.191a.472.472,0,0,1-.354-.157h0c-.1-.109-2.509-2.716-4.913-1.23a.476.476,0,1,1-.5-.811c2.467-1.517,5.079.256,6.119,1.4a.476.476,0,0,1-.352.8Z" transform="translate(-533.418 -180.055)" fill="#15234c"/>
      <path id="Path_351" data-name="Path 351" d="M655.388,269.711l-2.164,8.459c-.031.118.1.219.278.219h3.02c.164,0,.293-.1.282-.208l-.859-8.466C655.921,269.5,655.445,269.486,655.388,269.711Z" transform="translate(-510.468 -210.644)" fill="#ff7c76"/>
      <path id="Path_352" data-name="Path 352" d="M639.321,823.026a.6.6,0,0,1-.476-.238c-1.91-2.544-7.668-5.177-16.228-5.326-2.1-.039-17.293.5-31.456,1.493a.595.595,0,1,1-.085-1.187c14.832-1.04,29.587-1.53,31.561-1.495,7.883.138,14.618,2.415,17.159,5.8a.594.594,0,0,1-.118.833A.588.588,0,0,1,639.321,823.026Z" transform="translate(-461.473 -637.888)" fill="#f27a74"/>
      <path id="Path_353" data-name="Path 353" d="M751.111,284.153a2.115,2.115,0,0,1-1.56,1.556,3.033,3.033,0,0,1-2.867-.686,1.967,1.967,0,0,1,.7-3.407,2.972,2.972,0,0,1,1.613-.111A2.416,2.416,0,0,1,751.111,284.153Z" transform="translate(-582.946 -219.937)" fill="#fff"/>
      <path id="Path_354" data-name="Path 354" d="M754.281,289.061l-2.736,8.35a.789.789,0,0,1-1.517-.437l2.111-8.523a1.114,1.114,0,1,1,2.164.535A.762.762,0,0,0,754.281,289.061Z" transform="translate(-586.097 -224.753)" fill="#fff"/>
      <path id="Path_355" data-name="Path 355" d="M560.875,284.151a2.648,2.648,0,1,0,2.118-2.649A2.418,2.418,0,0,0,560.875,284.151Z" transform="translate(-438.276 -219.935)" fill="#fff"/>
      <path id="Path_356" data-name="Path 356" d="M562.9,288.317l2.109,8.523a.789.789,0,1,1-1.517.437l-2.725-8.346a1.115,1.115,0,1,1,2.118-.693A.358.358,0,0,0,562.9,288.317Z" transform="translate(-438.165 -224.623)" fill="#fff"/>
      <path id="Path_357" data-name="Path 357" d="M422.9,587.493a.715.715,0,0,1-.71.634.47.47,0,0,1-.079,0,.712.712,0,0,1-.632-.784c1.263-11.5-7.671-19.177-7.76-19.253a.494.494,0,0,1-.05-.046c.31-.321.656-.656,1.042-.983C415.656,567.875,424.2,575.67,422.9,587.493Z" transform="translate(-323.269 -443.138)" fill="#6694d8"/>
      <path id="Path_358" data-name="Path 358" d="M866.052,589.951q0,.7.042,1.429a.715.715,0,0,1-.671.754h-.044a.71.71,0,0,1-.71-.673c-.739-12.69,7.824-21.067,8.3-21.521a13.08,13.08,0,0,1,.977,1.045C873.506,571.413,866.052,578.913,866.052,589.951Z" transform="translate(-675.673 -445.388)" fill="#6694d8"/>
      <path id="Path_359" data-name="Path 359" d="M1042.375,1180.031a1.429,1.429,0,0,1-.821-.26,93.616,93.616,0,0,0-30.619-14.231,1.428,1.428,0,1,1,.717-2.764,96.5,96.5,0,0,1,31.548,14.655,1.427,1.427,0,0,1-.824,2.594Z" transform="translate(-789.173 -908.632)" fill="#c0d2f2"/>
      <path id="Path_360" data-name="Path 360" d="M187.6,1143.25c-.219,0-.437,0-.684-.011-.31,0-.632-.026-.983-.052s-.734-.066-1.136-.116c-.168-.024-.326-.044-.49-.07a25.251,25.251,0,0,1-5.271-1.407c-.573-.219-1.123-.452-1.639-.688-.745-.339-1.427-.677-2.08-1.034-.437-.238-.913-.5-1.418-.806a54.819,54.819,0,0,1-8.628-6.515c-.57-.518-1.189-1.045-1.836-1.565-.437-.35-.852-.671-1.261-.977-.162-.122-.323-.243-.485-.358a3.586,3.586,0,0,0-.437-.256l-.063-.039c-.247-.146-.492-.293-.739-.437q-1.18-.691-2.251-1.281c-.459-.254-.916-.5-1.372-.745a105.083,105.083,0,0,0-10.064-4.705,109.2,109.2,0,0,0-14.406-4.688c-1.115-.277-2.233-.542-3.328-.78-20.339-4.462-39.533-2.791-52.053-.6a127.4,127.4,0,0,0-22.468,5.857,1.427,1.427,0,0,1-1.049-2.655,127.881,127.881,0,0,1,23.025-6.014c12.773-2.233,32.365-3.934,53.157.625,1.121.247,2.268.516,3.411.8a111.654,111.654,0,0,1,14.782,4.808,107.6,107.6,0,0,1,10.343,4.834c.47.251.94.5,1.41.765.732.4,1.508.843,2.3,1.311.26.149.531.31.8.472l.022.015c.155.087.306.179.459.273l.048.028.1.066c.19.138.38.28.568.42.437.323.874.656,1.333,1.036.693.555,1.353,1.117,1.967,1.672a52.143,52.143,0,0,0,8.171,6.18c.468.28.9.522,1.311.745.6.33,1.219.638,1.9.946.468.219.966.424,1.482.623a22.161,22.161,0,0,0,4.681,1.25l.422.061c.347.044.671.077.986.1s.586.039.85.046c.363,0,.7.013,1.029,0a4.332,4.332,0,0,0,.437-.015,20.847,20.847,0,0,0,5.9-1.16,29.952,29.952,0,0,0,4.57-2.032c1.069-.577,2.163-1.235,3.352-2.015l.07-.046.356-.238c1.418-.953,2.887-2.024,4.5-3.278.476-.376.962-.76,1.447-1.152l.028-.024.066-.052c.874-.713,1.764-1.385,2.622-2l.042-.028c.756-.542,1.519-1.062,2.266-1.547,1.379-.894,2.784-1.718,4.17-2.441l.055-.028.1-.052.629-.326.046-.022c1.047-.529,2.133-1.027,3.23-1.479.468-.195.933-.378,1.388-.546a41.824,41.824,0,0,1,10.144-2.137c.656-.07,1.383-.131,2.133-.184,1.224-.085,2.483-.14,3.746-.164,1.587-.028,3.245,0,4.932.063a1.427,1.427,0,1,1-.118,2.852c-1.63-.068-3.232-.087-4.76-.059-1.215.022-2.428.074-3.6.155-.717.05-1.405.109-2.041.175a38.361,38.361,0,0,0-9.432,1.967c-.437.159-.874.33-1.3.511-1.047.437-2.083.909-3.079,1.412l-.048.024c-.184.092-.365.188-.546.284l-.144.074-.046.022h0c-1.3.677-2.609,1.449-3.9,2.288-.721.465-1.455.968-2.185,1.493l-.035.024c-.806.583-1.637,1.222-2.474,1.895l-.028.022-.061.052q-.743.6-1.475,1.173c-1.663,1.311-3.186,2.4-4.659,3.4l-.378.251-.074.048c-1.259.828-2.424,1.53-3.564,2.142a32.453,32.453,0,0,1-5,2.223,23.6,23.6,0,0,1-6.709,1.311l-.476.02Z" transform="translate(-41.071 -868.25)" fill="#c0d2f2"/>
      <path id="Path_361" data-name="Path 361" d="M919.424,301.409a16.629,16.629,0,0,1-1.239,9.908.656.656,0,0,1-1.007.234,14.5,14.5,0,0,1-4.224-18.274.656.656,0,0,1,1.007-.232A16.629,16.629,0,0,1,919.424,301.409Z" transform="translate(-712.224 -228.89)" fill="#fff"/>
      <path id="Path_362" data-name="Path 362" d="M929.933,300.737a1.438,1.438,0,0,1-.219-.015,1.574,1.574,0,0,1-1.182-.8,15.452,15.452,0,0,1,2.622-19.718,1.6,1.6,0,0,1,2.535.337,15.455,15.455,0,0,1-2.62,19.718A1.587,1.587,0,0,1,929.933,300.737Zm2.292-18.905a13.445,13.445,0,0,0-2.233,16.79,13.444,13.444,0,0,0,2.233-16.79Z" transform="translate(-723.743 -218.59)" fill="#2e4faa"/>
      <path id="Path_363" data-name="Path 363" d="M199.923,646.157c2.913,4.428,2.955,9.814,2.823,12.019a.8.8,0,0,1-1.069.7c-2.083-.756-7.013-2.926-9.926-7.354s-2.952-9.812-2.821-12.019a.793.793,0,0,1,1.077-.7C192.082,639.562,197.013,641.732,199.923,646.157Z" transform="translate(-147.613 -499.167)" fill="#fff"/>
      <path id="Path_364" data-name="Path 364" d="M224.107,641.007a1.967,1.967,0,0,1-1.5-.7c-1.46-1.72-4.891-6.338-5.245-12s2.474-10.671,3.715-12.559a1.967,1.967,0,0,1,3.16-.2c1.458,1.72,4.889,6.337,5.245,12h0c.354,5.664-2.476,10.669-3.715,12.557a1.952,1.952,0,0,1-1.53.894Zm-1.346-23.53c-1.2,1.943-3.337,6.1-3.059,10.684s2.928,8.444,4.36,10.223c1.2-1.943,3.339-6.106,3.06-10.686h0C226.835,623.118,224.193,619.254,222.761,617.477Z" transform="translate(-169.836 -480.484)" fill="#2e4faa"/>
      <path id="Path_365" data-name="Path 365" d="M1066.328,365.361a1.409,1.409,0,0,1-.636-.151,1.427,1.427,0,0,1-.643-1.914,110.7,110.7,0,0,0-5.553-108.383,1.427,1.427,0,1,1,2.4-1.53,113.564,113.564,0,0,1,5.7,111.182A1.432,1.432,0,0,1,1066.328,365.361Z" transform="translate(-827.749 -197.439)" fill="#c0d2f2"/>
      <path id="Path_366" data-name="Path 366" d="M929.949,4.536,935.074.23a.977.977,0,0,1,1.6.623l.857,6.639a.97.97,0,0,0,.219.5l4.32,5.129a.977.977,0,0,1-.623,1.6l-6.639.859a.971.971,0,0,0-.5.219l-5.129,4.31a.975.975,0,0,1-1.6-.623l-.859-6.639a.979.979,0,0,0-.219-.5l-4.32-5.129a.977.977,0,0,1,.623-1.6l6.639-.857a.979.979,0,0,0,.507-.223Z" transform="translate(-720.472 -0.001)" fill="#c0d2f2"/>
      <path id="Path_367" data-name="Path 367" d="M29.806,540.267H5.533A5.533,5.533,0,0,1,0,534.733H0A5.533,5.533,0,0,1,5.533,529.2H29.806a5.533,5.533,0,0,1,5.531,5.533h0A5.531,5.531,0,0,1,29.806,540.267Z" transform="translate(0 -413.551)" fill="#ffd166"/>
      <path id="Path_368" data-name="Path 368" d="M998.092,461.45H936.4a9.294,9.294,0,0,0-9.29,9.3v6.993L913.989,469a1.311,1.311,0,0,0-1.342,2.126l14.465,24.426v3.715a9.294,9.294,0,0,0,9.292,9.292h61.688a9.292,9.292,0,0,0,9.292-9.292V470.749A9.292,9.292,0,0,0,998.092,461.45Z" transform="translate(-712.947 -360.607)" fill="#fff"/>
      <path id="Path_369" data-name="Path 369" d="M1020.12,501.486a10.345,10.345,0,0,1-2.08-.219l-60.432-12.4a10.256,10.256,0,0,1-7.979-12.087l.7-3.392-9.146-26.5a2.251,2.251,0,0,1,3.075-3.038.873.873,0,0,1,.219.16l9.847,9.937,1.051-5.116a10.256,10.256,0,0,1,12.094-7.977l60.434,12.4a10.245,10.245,0,0,1,7.977,12.1l-5.737,27.948a10.251,10.251,0,0,1-10.013,8.189Zm-76.97-56.026a.345.345,0,0,0-.24.114.324.324,0,0,0-.046.424.931.931,0,0,1,.087.184l9.259,26.834a.93.93,0,0,1,.033.5l-.747,3.647a8.35,8.35,0,0,0,6.495,9.847l60.432,12.4a8.341,8.341,0,0,0,9.847-6.495L1034,464.966a8.342,8.342,0,0,0-6.493-9.849l-60.434-12.4a8.352,8.352,0,0,0-9.847,6.495l-1.407,6.858a.951.951,0,0,1-1.609.479l-10.977-11.075a.315.315,0,0,0-.088-.013Z" transform="translate(-735.287 -344.348)" fill="#2e4faa"/>
      <path id="Path_370" data-name="Path 370" d="M1078.707,489.172a.978.978,0,0,1-.219-.022l-16.292-3.66a.953.953,0,1,1,.417-1.858l16.3,3.66a.951.951,0,0,1-.219,1.879Z" transform="translate(-829.456 -377.916)" fill="#ffd166"/>
      <path id="Path_371" data-name="Path 371" d="M1079.221,535.038a.86.86,0,0,1-.219-.024l-27.341-6.141a.953.953,0,0,1,.417-1.858l27.341,6.141a.953.953,0,0,1-.219,1.882Z" transform="translate(-795.67 -416.353)" fill="#ffd166"/>
      <circle id="Ellipse_40" data-name="Ellipse 40" cx="1.611" cy="1.611" r="1.611" transform="translate(5.153 253.393)" fill="#c0d2f2"/>
      <path id="Path_374" data-name="Path 374" d="M141.046,168.81a35.725,35.725,0,1,1,35.724-35.724A35.766,35.766,0,0,1,141.046,168.81Zm0-69.544a33.821,33.821,0,1,0,33.821,33.82A33.865,33.865,0,0,0,141.046,99.266Z" transform="translate(-82.304 -76.084)" fill="#2e4faa"/>
      <path id="Path_375" data-name="Path 375" d="M262.057,170.206a.937.937,0,0,1-.343-.066.951.951,0,0,1-.608-.887V135.77a.953.953,0,1,1,1.9,0V166.8l10.87-11.965a.953.953,0,0,1,1.407,1.27l-12.529,13.787A.949.949,0,0,1,262.057,170.206Z" transform="translate(-204.044 -105.319)" fill="#fff"/>
      <path id="Path_376" data-name="Path 376" d="M151.272,846.06a.951.951,0,0,1-.581-1.7L174.9,825.683a.953.953,0,0,1,1.163,1.508l-24.209,18.669A.951.951,0,0,1,151.272,846.06Z" transform="translate(-117.469 -645.106)" fill="#92addd"/>
      <path id="Path_377" data-name="Path 377" d="M85.837,943.405a.953.953,0,0,1-.581-1.707l7.212-5.555a.953.953,0,0,1,1.163,1.508l-7.212,5.555A.951.951,0,0,1,85.837,943.405Z" transform="translate(-66.335 -731.426)" fill="#92addd"/>
      <path id="Path_378" data-name="Path 378" d="M203.73,477.607h-.035a.754.754,0,0,1-.577-.313l-5.87-8.125a.756.756,0,1,1,1.226-.885l5.313,7.356,13.182-15.059a.756.756,0,1,1,1.136,1l-13.811,15.772A.761.761,0,0,1,203.73,477.607Z" transform="translate(-154.031 -359.712)" fill="#dbecfc"/>
      <path id="Path_379" data-name="Path 379" d="M789.274,368.124a8.372,8.372,0,1,1,8.37-8.371A8.372,8.372,0,0,1,789.274,368.124Zm0-15.23a6.86,6.86,0,1,0,6.858,6.859,6.86,6.86,0,0,0-6.858-6.859Z" transform="translate(-610.246 -274.591)" fill="#dbecfc"/>
      <circle id="Ellipse_41" data-name="Ellipse 41" cx="6.436" cy="6.436" r="6.436" transform="translate(103.674 21.903) rotate(-51.56)" fill="#ffd166"/>
      <path id="Path_381" data-name="Path 381" d="M673.205,152.624a13.476,13.476,0,0,1-6.753-1.923,18.447,18.447,0,0,1-4.589-3.754.833.833,0,1,1,1.283-1.064h0a17.026,17.026,0,0,0,4.192,3.4,10.745,10.745,0,0,0,9.887.854c8.857-3.715,11.788-.4,11.908-.256a.833.833,0,1,1-1.272,1.073c-.011,0-2.4-2.456-9.994.719A11.959,11.959,0,0,1,673.205,152.624Z" transform="translate(-517.073 -113.767)" fill="#243a66"/>
      <path id="Path_382" data-name="Path 382" d="M577.856,128.378h-.044a.83.83,0,0,1-.787-.874c.129-2.548,1.659-7.561,6.515-8.3a.833.833,0,1,1,.249,1.646c-4.718.717-5.088,6.493-5.1,6.737A.835.835,0,0,1,577.856,128.378Z" transform="translate(-450.924 -93.14)" fill="#15234c"/>
      <path id="Path_383" data-name="Path 383" d="M644.65,198.855v1.772c-4.194-4.795-20.446-10.195-27.61-12.4a14.934,14.934,0,0,1,7.225.282C634.606,191.123,639.726,195.749,644.65,198.855Z" transform="translate(-482.195 -146.844)" fill="#ff7c76"/>
      <path id="Path_384" data-name="Path 384" d="M624.477,181.824a.831.831,0,0,1-.754-.476c-.621-1.311-2.126-1.464-7.255-1.79l-1.208-.079c-5.337-.347-6.873-5.654-6.941-8.411a.833.833,0,0,1,1.665-.042c0,.267.24,6.456,5.382,6.792l1.206.076c5.367.341,7.59.481,8.656,2.74a.833.833,0,0,1-.4,1.11A.818.818,0,0,1,624.477,181.824Z" transform="translate(-475.38 -133.016)" fill="#15234c"/>
      <path id="Path_385" data-name="Path 385" d="M677.729,355.723a5.16,5.16,0,0,1-1.222-.135.357.357,0,0,1,.181-.691h0a4.242,4.242,0,0,0,4.172-1.3.357.357,0,1,1,.553.452A4.624,4.624,0,0,1,677.729,355.723Z" transform="translate(-528.458 -276.225)" fill="#ff7c76"/>
      <path id="Path_386" data-name="Path 386" d="M652.376,332.706a14.7,14.7,0,0,1-4.589-.771.476.476,0,1,1,.326-.894c.066.022,6.556,2.321,9.915-1.576a.477.477,0,0,1,.723.621A8.126,8.126,0,0,1,652.376,332.706Z" transform="translate(-505.958 -257.336)" fill="#15234c"/>
      <path id="Path_387" data-name="Path 387" d="M729.824,677.213a2.992,2.992,0,1,1,2.99-2.992A2.992,2.992,0,0,1,729.824,677.213Zm0-4.554a1.565,1.565,0,1,0,1.563,1.563A1.565,1.565,0,0,0,729.824,672.659Z" transform="translate(-567.992 -524.543)" fill="#6694d8"/>
      <path id="Path_388" data-name="Path 388" d="M568.522,677.213a2.992,2.992,0,1,1,2.992-2.992A2.992,2.992,0,0,1,568.522,677.213Zm0-4.554a1.565,1.565,0,1,0,1.565,1.563A1.565,1.565,0,0,0,568.522,672.659Z" transform="translate(-441.942 -524.543)" fill="#6694d8"/>
      <path id="Path_389" data-name="Path 389" d="M1065.114,902.378a14.714,14.714,0,1,1,14.714-14.714A14.714,14.714,0,0,1,1065.114,902.378Zm0-27.535a12.805,12.805,0,1,1,0,.011Z" transform="translate(-820.851 -682.18)" fill="#ffd166"/>
      <path id="Path_410" data-name="Path 410" d="M9.094-9.656,8.813-5.609v.141a8.633,8.633,0,0,0-.2,1.922A5.642,5.642,0,0,1,8.25-1.555,4.777,4.777,0,0,1,7.156.148,2.229,2.229,0,0,1,5.547.891,2.443,2.443,0,0,1,3.953.3,4.668,4.668,0,0,1,2.766-1.227a12.272,12.272,0,0,1-.828-2.219,22.62,22.62,0,0,1-.555-2.516q-.2-1.227-.32-2.586-.187-2.078-.18-3.227T.875-13.742q-.016-.82-.031-1.477,0-.328,0-.727t0-.852q.016-.922.055-1.656t.141-1.586a13.076,13.076,0,0,1,.258-1.5,8.106,8.106,0,0,1,.422-1.273,4.278,4.278,0,0,1,.625-1.047,2.323,2.323,0,0,1,1.8-.906,3.775,3.775,0,0,1,1.734.367,3.05,3.05,0,0,1,1.211,1.18q.492.813.859,1.578a7.844,7.844,0,0,1,.578,2.133q.211,1.367.336,2.211a22.9,22.9,0,0,1,.172,2.453q.062,2.141.063,3.344ZM6.258-21.367a3.39,3.39,0,0,0-.8-1.266,1.405,1.405,0,0,0-.945-.445,1.01,1.01,0,0,0-.773.328,2.639,2.639,0,0,0-.516.93,13.058,13.058,0,0,0-.375,1.289,11.685,11.685,0,0,0-.25,1.586q-.086.9-.148,1.633-.047.719-.078,1.594-.031,1.453-.047,2.266v.141A35.285,35.285,0,0,0,2.656-8.7q.328,2.477.68,4.055a10.439,10.439,0,0,0,.945,2.68q.594,1.1,1.328,1.1.641,0,1.078-1.2a13.021,13.021,0,0,0,.625-3q.312-3.187.32-4.477t0-1.883q-.008-.594-.047-1.727t-.133-2.125q-.094-.992-.242-2.2a16.885,16.885,0,0,0-.391-2.141A15.471,15.471,0,0,0,6.258-21.367Zm4.9,8.414.188-5.969a2.793,2.793,0,0,1,1.172-2.359v.2a.447.447,0,0,1,.234-.078q.75,0,1.875,2.586a48.251,48.251,0,0,1,2.031,5.68q.906,3.094,1.8,6.242t1.117,3.7q.641-6.7.641-16.234l-.047-.859q0-.953.8-.953a.743.743,0,0,1,.68.375,1.659,1.659,0,0,1,.227.875v2.422q-.031,3.766-.336,10.055t-.82,7.1a5.063,5.063,0,0,1-1.211.266.619.619,0,0,1-.516-.227,1.785,1.785,0,0,1-.289-.7,3.366,3.366,0,0,0-.187-.625l.016-.141q0-1.187-2.3-7.547t-3.328-8.75V-1.781q.031.063.125.219a1.273,1.273,0,0,1,.2.641.864.864,0,0,1-.289.594.918.918,0,0,1-.68.3q-1.047,0-1.047-1.953Zm20.578-5.625-.062,4.125.281,7.359.266,5.75q0,1.563-.922,1.563a.822.822,0,0,1-.781-.5,2.446,2.446,0,0,1-.25-1.109l.25-5.109q0-1.656-.219-4.984t-.219-4.984l.047-2.8a9.276,9.276,0,0,0-.3-2.984l-1.734.172a1.174,1.174,0,0,1-.727-.242.75.75,0,0,1-.32-.625q0-.383.766-.648A8.393,8.393,0,0,1,29.688-24a29.414,29.414,0,0,1,3.234-.219,1.107,1.107,0,0,1,.711.258.8.8,0,0,1,.32.648.75.75,0,0,1-.281.617,1.061,1.061,0,0,1-.687.227l-1.141-.062a2.525,2.525,0,0,0-.328.016A33.475,33.475,0,0,1,31.734-18.578Zm7.141,7.938.156,6.8v.953L39.016-2h.422l.922-.031q1.313,0,1.313.8a.9.9,0,0,1-.32.7,1.074,1.074,0,0,1-.742.289H39.2a16.344,16.344,0,0,1-1.859-.062,3.357,3.357,0,0,1-.391.031q-1.141,0-1.141-.719A.959.959,0,0,1,36-1.562a.562.562,0,0,1,.375-.281h.906l.063-.422-.219-6.8.172-7.125q0-1.828-.156-3.437h-.609l-.734.031a1.3,1.3,0,0,1-.734-.18.765.765,0,0,1-.266-.68q0-.734,1.578-.734h3.813q1.3,0,1.3.672a.727.727,0,0,1-.281.547.937.937,0,0,1-.641.25H38.922q.125,1.313.125,2.969ZM55.078-.328l.016-4.094q0-1.422-.234-4.172t-.234-3.7q0-.953.063-2.273t.063-1.977q-.141.422-1.078,4.422Q51.234-1.781,50.188-1.781a1.273,1.273,0,0,1-.977-.375,1.4,1.4,0,0,1-.352-1,33.007,33.007,0,0,0-1.2-6.242q-1.2-4.727-2.023-7.242-.609,11.281-.609,15.25l.047.953a1.238,1.238,0,0,1-.219.789.828.828,0,0,1-.687.273A1.227,1.227,0,0,1,43.406.4a.664.664,0,0,1-.3-.539q0-3.266.492-9.781t.492-9.781a1.218,1.218,0,0,1-.187-.664.6.6,0,0,1,.391-.555,1.924,1.924,0,0,1,.844-.187q.687,0,2.719,6.43t2.5,8.9q.141-.469.586-2.367t.945-3.945q.5-2.062,1.094-4.156,1.344-4.812,2.281-4.812a1.479,1.479,0,0,1,.8.234.722.722,0,0,1,.375.641q0,2.313.2,6.906t.2,6.672l-.078,3.375v.016q0,.359.188,2.281l.063.625a1.9,1.9,0,0,1,.141.727,1.482,1.482,0,0,1-.3.82.906.906,0,0,1-.781.438Q55.078,1.672,55.078-.328Zm4.3-15.828-.172-2.7q0-2.266,1.344-2.266a9.646,9.646,0,0,1,2.344.4q1.484.4,1.484,1.023,0,.656-.937,1a12.541,12.541,0,0,0-2.422-.609q.047.688.047,1.375l-.141,4.594q0,.031.094.5l1.141-.047q1.547,0,1.547.875a.793.793,0,0,1-.281.6,1.012,1.012,0,0,1-.711.258,7.526,7.526,0,0,1-.93-.062h-.812Q61.063-10,61.063-8.8L60.922-3a9.745,9.745,0,0,0,.063,1.8l2.359-.078q1.219,0,1.219.781a.737.737,0,0,1-.422.7,2.04,2.04,0,0,1-.953.219h-2.7a1.161,1.161,0,0,1-.766-.289.93.93,0,0,1-.359-.7v-.844l-.2-5.406Z" transform="matrix(0.978, 0.208, -0.208, 0.978, 223.03, 136.048)" fill="#2e4faa"/>
      <g id="Ellipse_42" data-name="Ellipse 42" transform="translate(152.308 175.607)" fill="#b7b7b7" stroke="#303030" stroke-width="1">
        <ellipse cx="6.5" cy="2.5" rx="6.5" ry="2.5" stroke="none"/>
        <ellipse cx="6.5" cy="2.5" rx="6" ry="2" fill="none"/>
      </g>
      <ellipse id="Ellipse_43" data-name="Ellipse 43" cx="6.5" cy="2.5" rx="6.5" ry="2.5" transform="translate(152.308 173.607)" fill="#303030"/>
      <path id="Path_390" data-name="Path 390" d="M210.094,239.746a19.31,19.31,0,0,0,3.512,0,7.752,7.752,0,0,0,2.563-.7,38.125,38.125,0,0,1,2.455,5.957,11.9,11.9,0,0,1,0,4.077l-6.258,3.034a17.958,17.958,0,0,0,.716-5.5C212.9,244.05,210.094,239.746,210.094,239.746Z" transform="translate(-52.313 -60.742)" fill="#303030"/>
      <path id="Path_391" data-name="Path 391" d="M204.622,236.865v2.1l.925-.656Z" transform="translate(-52.313 -60.742)" fill="#303030"/>
      <path id="Path_392" data-name="Path 392" d="M205.56,236.865V239l-.939-.666Z" transform="translate(-40.252 -60.757)" fill="#303030"/>
      <path id="Path_438" data-name="Path 438" d="M472.875,71.593a7.386,7.386,0,1,1,6.862-4.624h0a7.4,7.4,0,0,1-6.862,4.624Zm.017-12.872a5.485,5.485,0,1,0,5.079,7.535h0a5.483,5.483,0,0,0-5.079-7.535Zm5.962,7.891Z" transform="translate(-363.772 -44.403)" fill="#fff"/>
    </g>
  </g>
</svg>
