<svg xmlns="http://www.w3.org/2000/svg" width="253.532" height="82.052" viewBox="0 0 253.532 82.052">
  <g id="g4158" transform="translate(0.004 0.002)">
    <path id="polygon9" d="M454.044,190.155H433.507l12.846-79.428h20.536Z" transform="translate(-344.183 -109.287)" fill="#00579f"/>
    <path id="path11" d="M626.786,108.429a50.612,50.612,0,0,0-18.421-3.382c-20.281,0-34.564,10.815-34.651,26.278-.168,11.408,10.226,17.744,18,21.548,7.946,3.887,10.647,6.424,10.647,9.889-.081,5.321-6.421,7.774-12.334,7.774-8.2,0-12.593-1.265-19.27-4.225l-2.7-1.269-2.874,17.83c4.817,2.194,13.691,4.142,22.905,4.227,21.549,0,35.579-10.648,35.745-27.125.082-9.042-5.406-15.97-17.239-21.631-7.183-3.634-11.582-6.085-11.582-9.8.084-3.38,3.721-6.843,11.829-6.843a34.9,34.9,0,0,1,15.3,3.041l1.857.843,2.793-17.151Z" transform="translate(-442.473 -105.048)" fill="#00579f"/>
    <path id="path13" d="M822.3,162.016c1.691-4.563,8.2-22.223,8.2-22.223-.085.17,1.688-4.647,2.7-7.6l1.435,6.844s3.889,19.012,4.734,22.984Zm25.351-51.289H831.762c-4.9,0-8.621,1.435-10.734,6.59l-30.506,72.837h21.55s3.548-9.8,4.31-11.915H842.75c.59,2.789,2.45,11.915,2.45,11.915h19.016l-16.569-79.427Z" transform="translate(-610.688 -109.287)" fill="#00579f"/>
    <path id="path15" d="M216.541,110.727l-20.113,54.162-2.2-10.985c-3.718-12.675-15.38-26.446-28.4-33.293l18.423,69.46h21.718l32.282-79.344Z" transform="translate(-144.37 -109.287)" fill="#00579f"/>
    <path id="path17" d="M114.547,110.727H81.5l-.338,1.6c25.776,6.591,42.846,22.479,49.86,41.576l-7.183-36.5c-1.183-5.073-4.817-6.509-9.3-6.677Z" transform="translate(-81.166 -109.287)" fill="#faa61a"/>
  </g>
</svg>
