<svg xmlns="http://www.w3.org/2000/svg" width="335.35" height="322.144" viewBox="0 0 335.35 322.144">
  <g id="Group_1" data-name="Group 1" transform="translate(-724 -424)">
    <g id="Symbols" transform="translate(736.039 512.015)">
      <g id="Scene_Plants" data-name="Scene/Plants" transform="translate(-12.002 -1.002)">
        <path id="Leaf-Bottom" d="M95.291,129.232c2.611,1.128,5.926-.513,4.336-3.775-1.7-3.492-7.31-3.243-10.471-3.006.318,0,1.509,3.222,1.885,3.7a10.745,10.745,0,0,0,4.25,3.081Zm-32.674-62.5c-.671-.519-.055-.053,0,0ZM96.9,112.948a3.024,3.024,0,0,0,.1-4.526c-1.533-1.544-4.175-1.346-6.141-1.085-.889.118-5.638.75-4.467,1.471a3.854,3.854,0,0,1-.474-.2q-.187-.565-.389-1.125c.027-.018.05-.037.079-.054-.032.016-.054.032-.081.048a43.817,43.817,0,0,0-5.481-10.513,10.334,10.334,0,0,0,2.5.53c2.5.185,7.636-2.023,4.68-5.19-2.834-3.035-6.81.589-9.813,1.218A141.746,141.746,0,0,0,67.229,82.2a.809.809,0,0,0,.473-.439A19.951,19.951,0,0,0,71.845,83.5c1.839.29,5.579.329,6.868-1.371,1.586-2.09-.312-3.62-2.328-3.9-2.925-.4-6.641,1.208-9.377,2.31a.922.922,0,0,0-.859.338l-.18.069c-3.635-3.6-7.4-7.066-11.128-10.454h.115A9.654,9.654,0,0,0,58.019,71.7c2.52.476,5.447.326,7.372-1.581s2.466-5.07.279-6.974c-4.376-3.811-10.032,5.7-12.112,6.191-3.793-3.4-7.779-6.563-11.823-9.65a6.918,6.918,0,0,0,1.371.205c3.815.164,12.48-4.956,7.582-9.29-4.269-3.777-8.564,4.148-11.695,7.005-3.808-2.875-7.635-5.728-11.366-8.706a10.388,10.388,0,0,0,5.905-.347c2.122-.766,5.517-2.577,4-5.417-1.542-2.888-5.65-1.322-7.777-.267-1.161.575-3.45,2.43-5.5,3.268a71.668,71.668,0,0,1-15.3-17.5,62.721,62.721,0,0,1-6.061-13.5C1.94,12.134.107,7.1.213,3.11c-1.076,8.022,2.123,17.421,5.4,24.369A59.778,59.778,0,0,0,17.888,44.3c-.988,3.6-10.621,9.223-4.532,12.2,3.233,1.573,6.3-1.479,6.828-4.568.362-2.123-.5-4.722-1.365-6.718q2.335,2.243,4.825,4.326c2.289,1.919,4.627,3.777,6.985,5.609C27.095,58.835,24.1,69,29.17,70.375c7.487,2.019,3.229-11.415,2.581-13.94a.4.4,0,0,0-.336.148c.03-.236.064-.488.109-.743,4.512,3.486,9.085,6.9,13.522,10.476a19.471,19.471,0,0,0-1.364,2.011,21.8,21.8,0,0,0-2.641,4.309c-1.064,2.454-2.011,6.33,1.215,7.571,3.508,1.353,4.911-3.047,4.8-5.623a34.192,34.192,0,0,0-.994-5.178c-.107-.54.068-3.009-.618-1.915a5.2,5.2,0,0,0-.023-.872q1.2.969,2.375,1.959a.925.925,0,0,0-.051.3.891.891,0,0,0,1.318.771q1.559,1.333,3.083,2.711c2.148,1.951,4.329,3.959,6.5,6.013-.426.406-.221.928-.616,1.357a19.785,19.785,0,0,1-1.674,1.1,11.862,11.862,0,0,0-2.8,3.848c-1.1,2.311-2.43,7.109,1.188,7.993,3.73.914,5.356-3.722,5.443-6.572a72.467,72.467,0,0,0-1.064-7.266c4.014,3.819,7.974,7.791,11.585,11.854-1.027.063-3.83,2.322-4.389,2.927-1.363,1.477-3.486,4.693-.88,6.2,2.317,1.336,4.967-.914,5.818-3.01a28.751,28.751,0,0,0,.5-4.919c1.5,1.725,2.93,3.464,4.27,5.213q1.34,1.745,2.526,3.587a1.684,1.684,0,0,0-.469.513c-3.7.83-8.161,6.909-3.666,8.708,2.14.855,4.3-1.255,5.24-2.939a21.746,21.746,0,0,0,.651-3.375A70.023,70.023,0,0,1,85.9,116.5a.817.817,0,0,0-.6.79,11.142,11.142,0,0,0-4.31,4.12c-.722,1.276-1.991,4.173.357,4.737,3.055.734,4.7-3.959,4.832-6.235.015-.264-.026-1.028-.073-1.728a1.012,1.012,0,0,0,.314-.022c.838,2.78,1.54,5.6,2.128,8.438-1.615.615-1.447,9.253-.289,10.423,2.588,2.621,4.1-1.44,3.863-3.533a13.874,13.874,0,0,0-2.963-6.588c-.154-.2-.113-.2-.134.1a.6.6,0,0,0-.159-.324,37.573,37.573,0,0,0-.06-3.8,88.032,88.032,0,0,0-1.646-9.821q-.266-1.178-.589-2.334a19.135,19.135,0,0,0,3.923,2.237C92.342,113.685,95.173,114.414,96.9,112.948ZM0,3.11A9.307,9.307,0,0,1,.518,0,24.269,24.269,0,0,0,0,3.11Z" transform="matrix(-0.999, -0.052, 0.052, -0.999, 99.904, 142.928)" fill="#feefb1" fill-rule="evenodd"/>
        <g id="Plant-Right" transform="translate(47.104 27.156)" opacity="0.91">
          <path id="Leaf-Me-Alone_" data-name="Leaf-Me-Alone!" d="M34.68,122.828c-7.076-.375-15.349-5.4-15.3-13.127.039-5.616.79-11.141.53-16.78a45.186,45.186,0,0,0-2.71-13.16c-1.464-4.083-5-7.8-5.573-12.055a17.9,17.9,0,0,1,1.545-8.889c1.41-3.032.81-2.844-1.064-5.709A72.026,72.026,0,0,1,3.166,35.331C.235,26.027-1.207,15.36,1.252,5.771c.313-1.218,1-5.633,2.731-5.765,1.939-.147.782,2.3.6,3.107-1.2,5.164-2.253,9.677-2.031,15.073C3.4,39.005,16.693,54.059,24.441,72.466c.432.953,1.319,3.206,1.944,4.7.986,2.354,1.768,6.718,3.246,8.541,2.784,3.436.581-3.115.1-4.371-.608-1.59-1.282-3.283-1.928-4.688-2.949-6.508-6.256-13.621-9.3-20.33,16.434-1.97,25.709,18.513,28.683,31.651,2.45,10.824,4.128,35.705-12.5,34.862" transform="translate(61.299 178.338) rotate(173.976)" fill="#a1871d" fill-rule="evenodd"/>
          <path id="Leaf-Me-Alone_2" data-name="Leaf-Me-Alone!" d="M161.77,78.063c-11.83.939-19.425,8.745-22.96,19.663-1.9,5.884-2.124,11.928-3.183,17.975-1.592,9.1-5.02,15.992-11.718,22.473a22.608,22.608,0,0,0-4.69,6.273,26.723,26.723,0,0,0-5.415,7.738c-1.762,3.89-2.261,8.557-.227,12.435a12.745,12.745,0,0,0,3.327,4.086,80.086,80.086,0,0,0-7.88,35.97c.2,7.447.562,14.9.986,22.336.114,2,.765,5.3,1.741,1.946.894-3.064-.227-7.874-.331-11.074-.5-15.592-.936-29.77,5.482-44.337.673-1.527,1.387-3.042,2.13-4.544a1.476,1.476,0,0,0,.125-.086l.082.067c.047-.085.112-.186.188-.3a4.054,4.054,0,0,0,.576-.808,5.866,5.866,0,0,0,1.217-2.224v-.014a209.95,209.95,0,0,1,13.173-18.624c-.035.044,5.042-6.869,4.258-3.046-.378,1.843-4.113,5.351-5.621,7.3a181.842,181.842,0,0,0-10.511,15.162,7.657,7.657,0,0,0-1.5,2.409c-.247.467-.478.937-.7,1.347,11.537,3.811,20.511-3.866,26.631-12.8l.021-.032a38.812,38.812,0,0,1,6.153-6.868c3.976-3.255,8.234-3.83,12.922-5.431,12.785-4.368,18.22-20.937,19.946-33.23,1.948-13.869-7.579-35.137-24.213-33.77" transform="translate(-52.951 -37.769)" fill="#f2c81f" fill-rule="evenodd"/>
          <path id="Leaf-Me-Alone_3" data-name="Leaf-Me-Alone!" d="M50.843,1.183C37.061,12.007,28.813,28.547,21.92,44.218,14.22,61.718,8.228,79.75,5.435,98.679,3.6,111.116,1.5,123.6.479,136.132a133.62,133.62,0,0,0-.458,13.4c.007.367.2,10.342,2.02,8.279,1.034-1.173-.183-10.344-.162-11.841a191.821,191.821,0,0,1,2.272-25.134C6.164,107.116,7.68,93.4,10.994,79.914a46.779,46.779,0,0,1,1.726-6.066c.814-2.052.027-1.217,1.824-1.822,1.745-.589,3.744-.189,5.58-.977,7.282-3.126,12.184-13.1,15.819-19.578a132.643,132.643,0,0,0,9.834-23.558,174.294,174.294,0,0,0,4.871-17.907A47.872,47.872,0,0,1,52,4.223a13.356,13.356,0,0,0,.861-1.792c.1-.968-.4-1.615-.339-2.431q-.851.573-1.677,1.183" transform="translate(34.938 7.358) rotate(-8)" fill="#f2c81f" fill-rule="evenodd"/>
          <path id="Base" d="M38,328a37.84,37.84,0,1,0,75.679,0" transform="translate(-18.754 -158.182)" fill="#f2811f" fill-rule="evenodd"/>
          <path id="Leaf-Me-Alone_4" data-name="Leaf-Me-Alone!" d="M115,297.3h-2a67.124,67.124,0,0,1,.741-7.493c1.6-9.487,6.619-23.422,17.619-24.962a28.416,28.416,0,0,1,3.707.039,6.678,6.678,0,0,1,2.829-.835c9.365-.69,19.823,6.865,24.341,14.727,3.642,6.339,3.028,14.663.779,21.4-1.506,4.509-4.794,10.937-10.276,11-6.859.078-7.189-8.4-7.322-13.354-.176-6.589-1.009-12.328-6.2-16.819-1.21-1.046-2.532-1.967-3.754-3-1.914-1.615-4.029-3.268-4.275-5.94-.34-3.685,1.74-4.349,4.917-3.664.542.117,6,2.564,5.189.63a3.6,3.6,0,0,0-2.284-1.41c-2.941-.32-6.449-.691-7.458-.469-10.883,2.388-15.12,17.463-16.246,27.041C115.183,295.219,115.085,296.256,115,297.3Z" transform="translate(-54.878 -127.357)" fill="#a1871d" fill-rule="evenodd"/>
        </g>
      </g>
    </g>
    <g id="Washing_Machines" data-name="Washing Machines" transform="translate(883 424)">
      <rect id="Rectangle_15" data-name="Rectangle 15" width="134.634" height="321.9" rx="5" fill="#fcfcfc"/>
      <path id="Path_2" data-name="Path 2" d="M134.422,395.407c0,.106-30,.2-67,.2S.41,395.513.41,395.407s30-.2,67.014-.2S134.422,395.293,134.422,395.407Z" transform="translate(-0.099 -95.612)" fill="#263238"/>
      <path id="Path_3" data-name="Path 3" d="M134.422,212.687c0,.114-30,.2-67,.2S.41,212.8.41,212.687s30-.2,67.014-.2S134.422,212.581,134.422,212.687Z" transform="translate(-0.099 -51.407)" fill="#263238"/>
      <path id="Path_4" data-name="Path 4" d="M150.629,406.752v3.586c0,2.373.045,5.754.076,9.923v.144h-.136l-30.975.053c.174.182-.243-.235-.2-.2h0V406.57h.19l22.3.083,6.406.053h-.09l-6.451.046-22.174.091.182-.19v13.5h0l-.2-.2,30.975.061-.144.136c0-4.132.061-7.49.076-9.855,0-1.152,0-2.054.038-2.7v-.713a1.04,1.04,0,0,1,.127-.13Z" transform="translate(-28.883 -98.36)" fill="#263238"/>
      <circle id="Ellipse_5" data-name="Ellipse 5" cx="48.987" cy="48.987" r="48.987" transform="translate(21.499 43.854)" fill="#455a64"/>
      <path id="Path_5" data-name="Path 5" d="M126.274,106.78v-.758a20.045,20.045,0,0,0-.114-2.327,48.979,48.979,0,0,0-19.293-35.781,48.169,48.169,0,0,0-9.332-5.572A47.676,47.676,0,0,0,86.3,58.8a48.373,48.373,0,0,0-12.592-.69,49.007,49.007,0,0,0-6.542.917,53.256,53.256,0,0,0-6.542,1.857A48.956,48.956,0,0,0,37.959,77.912a48.432,48.432,0,0,0-3.98,6.406,45.644,45.644,0,0,0-2.987,7.05,48.82,48.82,0,0,0,0,30.808,46.135,46.135,0,0,0,2.987,7.065,47.607,47.607,0,0,0,3.972,6.406,49.025,49.025,0,0,0,22.674,17.019,51.953,51.953,0,0,0,6.527,1.857,47.755,47.755,0,0,0,6.55.917,48.87,48.87,0,0,0,33.158-9.787,49.638,49.638,0,0,0,12.425-13.88,48.782,48.782,0,0,0,6.823-21.855c.1-1.023.076-1.8.114-2.327a3.712,3.712,0,0,0,0-.758s0,1.076-.068,3.123a48.213,48.213,0,0,1-6.717,21.984,49.6,49.6,0,0,1-12.394,13.9,48.342,48.342,0,0,1-9.377,5.625A47.372,47.372,0,0,1,86.4,155.076a49.684,49.684,0,0,1-19.263-.2,53.316,53.316,0,0,1-6.58-1.865,49.328,49.328,0,0,1-22.879-17.14,48.719,48.719,0,0,1-4.01-6.459,45.682,45.682,0,0,1-3.032-7.111,49.169,49.169,0,0,1,0-31.081,46.424,46.424,0,0,1,3.032-7.111,47.912,47.912,0,0,1,4.018-6.451A49.275,49.275,0,0,1,60.519,60.545a53.324,53.324,0,0,1,6.58-1.88,49.668,49.668,0,0,1,6.588-.917,49.1,49.1,0,0,1,33.355,9.931,49.646,49.646,0,0,1,12.44,13.986,48.176,48.176,0,0,1,6.724,21.984C126.3,105.7,126.274,106.78,126.274,106.78Z" transform="translate(-6.802 -13.938)" fill="#263238"/>
      <circle id="Ellipse_6" data-name="Ellipse 6" cx="48.987" cy="48.987" r="48.987" transform="translate(21.499 189.655)" fill="#ebebeb"/>
      <path id="Path_6" data-name="Path 6" d="M126.274,299.112v-.758a20.162,20.162,0,0,0-.114-2.335A48.961,48.961,0,0,0,86.3,251.156a49.623,49.623,0,0,0-19.134.227,53.3,53.3,0,0,0-6.542,1.842,48.941,48.941,0,0,0-22.666,17.019,48.434,48.434,0,0,0-3.98,6.406,45.734,45.734,0,0,0-2.987,7.058,48.82,48.82,0,0,0,0,30.808,45.736,45.736,0,0,0,2.987,7.058,47.61,47.61,0,0,0,3.972,6.406,48.971,48.971,0,0,0,22.674,17.026,53.305,53.305,0,0,0,6.527,1.865,49.333,49.333,0,0,0,39.708-8.877,49.639,49.639,0,0,0,12.425-13.88,48.835,48.835,0,0,0,6.823-21.863c.1-1.023.076-1.8.114-2.327a4.231,4.231,0,0,0,0-.8s0,1.076-.068,3.131a48.282,48.282,0,0,1-6.717,21.984,49.684,49.684,0,0,1-12.448,13.986,48.8,48.8,0,0,1-33.264,9.9,49.653,49.653,0,0,1-6.588-.91,52.063,52.063,0,0,1-6.58-1.872,49.275,49.275,0,0,1-26.889-23.591,45.766,45.766,0,0,1-3.032-7.118,49.169,49.169,0,0,1,0-31.081,46.745,46.745,0,0,1,3.032-7.111,48.387,48.387,0,0,1,4.018-6.451,49.207,49.207,0,0,1,22.871-17.132,52.064,52.064,0,0,1,6.58-1.872,50.116,50.116,0,0,1,19.263-.2A49.027,49.027,0,0,1,119.52,274a48.123,48.123,0,0,1,6.724,21.984C126.3,298.036,126.274,299.112,126.274,299.112Z" transform="translate(-6.802 -60.471)" fill="#263238"/>
      <circle id="Ellipse_7" data-name="Ellipse 7" cx="39.162" cy="39.162" r="39.162" transform="translate(31.324 199.479)" fill="#455a64"/>
      <path id="Path_7" data-name="Path 7" d="M119.614,302.268s0-.212-.045-.629-.068-1.054-.114-1.865c0-.409-.053-.864-.083-1.365s-.159-1.046-.243-1.637-.2-1.228-.3-1.91a6.512,6.512,0,0,0-.22-1.039c-.091-.356-.19-.758-.288-1.1a37.578,37.578,0,0,0-4.329-10.4,39.072,39.072,0,0,0-9.923-11.075c-.561-.409-1.122-.834-1.691-1.258a19.416,19.416,0,0,0-1.835-1.122,20.366,20.366,0,0,0-1.9-1.1l-2.024-.978-1.031-.493-1.076-.394-2.2-.8c-.758-.243-1.516-.4-2.274-.614a20.416,20.416,0,0,0-2.358-.531,36.264,36.264,0,0,0-4.935-.576c-.841,0-1.691-.106-2.54-.1l-2.585.136a6.781,6.781,0,0,0-1.3.083l-1.3.2c-.864.144-1.751.25-2.623.425a40.994,40.994,0,0,0-5.2,1.516l-1.289.47c-.22.083-.44.152-.652.243l-.622.3-2.517,1.213c-.826.447-1.615.97-2.433,1.448-.394.258-.819.478-1.2.758l-1.152.857a43.922,43.922,0,0,0-4.42,3.79L50.9,276.9l-.5.546-.447.591-.9,1.2-.887,1.2-.758,1.281-.758,1.289-.394.652c-.121.22-.22.447-.334.675l-1.319,2.752c-.356.955-.705,1.918-1.061,2.888a38.662,38.662,0,0,0,0,24.592l1.054,2.888c.447.917.887,1.835,1.327,2.744l.334.682.394.652.758,1.289.758,1.281.9,1.2.887,1.19.447.591.5.553,1.986,2.183a43.838,43.838,0,0,0,4.42,3.79l1.167.826c.379.288.811.5,1.205.758.819.485,1.607,1.008,2.433,1.448l2.517,1.22.622.3.652.243,1.289.47a40.95,40.95,0,0,0,5.2,1.516c.872.182,1.759.28,2.623.424l1.3.2c.432.053.872.053,1.3.083l2.577.129c.857,0,1.7-.068,2.54-.1a36.263,36.263,0,0,0,4.935-.569,18.953,18.953,0,0,0,2.358-.538c.758-.2,1.516-.364,2.274-.614l2.2-.8,1.084-.394,1.023-.485,2.032-.97c.675-.311,1.266-.758,1.9-1.107s1.236-.758,1.835-1.122l1.683-1.258A38.95,38.95,0,0,0,114,322.2a37.352,37.352,0,0,0,4.329-10.4l.288-1.092a6.824,6.824,0,0,0,.22-1.046c.106-.675.212-1.311.3-1.9s.19-1.137.243-1.637l.083-1.372c.045-.811.083-1.425.114-1.857s.045-.637.045-.637v.637c0,.417-.045,1.054-.076,1.865,0,.409-.038.872-.061,1.372s-.144,1.054-.227,1.645-.182,1.236-.28,1.918a6.821,6.821,0,0,1-.22,1.046c-.083.356-.182.72-.273,1.1a37.34,37.34,0,0,1-4.291,10.477,39,39,0,0,1-9.961,11.182c-.553.424-1.122.849-1.691,1.274s-1.228.758-1.85,1.137a19.722,19.722,0,0,1-1.91,1.122l-2.039,1.016-1.039.5-1.084.4-2.214.811c-.758.25-1.516.409-2.274.622a19.349,19.349,0,0,1-2.38.546,36.828,36.828,0,0,1-4.973.591c-.849,0-1.706.114-2.562.106l-2.608-.129a6.936,6.936,0,0,1-1.311-.083l-1.311-.2c-.879-.144-1.766-.243-2.653-.425a41.7,41.7,0,0,1-5.246-1.516l-1.3-.478c-.22-.083-.44-.152-.66-.243l-.629-.3-2.547-1.22c-.826-.455-1.622-.978-2.449-1.463-.4-.258-.834-.478-1.22-.758l-1.16-.872a42.8,42.8,0,0,1-4.465-3.79l-2-2.2-.508-.553-.447-.6-.9-1.2-.91-1.213-.758-1.3-.758-1.3-.4-.652-.334-.69c-.447-.917-.887-1.842-1.334-2.775s-.713-1.941-1.076-2.919a39.056,39.056,0,0,1,0-24.842l1.069-2.911,1.334-2.775c.114-.235.22-.462.341-.69l.394-.652.758-1.3.758-1.3.91-1.213.9-1.2.455-.591.5-.561,2-2.2a44.807,44.807,0,0,1,4.473-3.79l1.13-.887c.379-.288.811-.508,1.213-.758.826-.493,1.622-1.016,2.456-1.463l2.54-1.22.629-.3.66-.25,1.3-.478a42.965,42.965,0,0,1,5.246-1.516c.887-.174,1.774-.281,2.653-.425l1.311-.2c.432-.053.879-.053,1.311-.083l2.6-.129c.864,0,1.721.076,2.57.106a36.714,36.714,0,0,1,4.965.584,20.151,20.151,0,0,1,2.38.546c.758.212,1.569.379,2.32.629l2.206.811,1.092.4c.349.152.69.326,1.039.493l2.039.985c.675.311,1.281.758,1.91,1.114s1.251.758,1.842,1.137l1.7,1.274a38.927,38.927,0,0,1,9.946,11.189,37.3,37.3,0,0,1,4.291,10.469c.091.379.19.758.273,1.107a6.6,6.6,0,0,1,.22,1.046c.1.682.2,1.319.28,1.918s.182,1.137.227,1.637.045.97.061,1.38c0,.811.061,1.433.076,1.865S119.614,302.268,119.614,302.268Z" transform="translate(-9.966 -63.627)" fill="#263238"/>
      <circle id="Ellipse_8" data-name="Ellipse 8" cx="2.979" cy="2.979" r="2.979" transform="translate(119.472 30.118)" fill="#06d6a0"/>
      <path id="Path_8" data-name="Path 8" d="M163.49,42.656a5.616,5.616,0,0,0-.167-.705,2.972,2.972,0,0,0-1.092-1.516,2.866,2.866,0,0,0-2.676-.364,2.812,2.812,0,1,0,2.676,4.882,2.956,2.956,0,0,0,1.092-1.516c.129-.447.136-.713.167-.713a1.417,1.417,0,0,1,0,.758,2.926,2.926,0,0,1-1.107,1.653,3.093,3.093,0,0,1-2.964.493,3.146,3.146,0,0,1,0-5.936,3.093,3.093,0,0,1,2.964.485,2.964,2.964,0,0,1,1.076,1.736,1.372,1.372,0,0,1,.031.743Z" transform="translate(-38.059 -9.559)" fill="#263238"/>
      <circle id="Ellipse_9" data-name="Ellipse 9" cx="2.979" cy="2.979" r="2.979" transform="translate(119.472 193.468)" fill="#06d6a0"/>
      <path id="Path_9" data-name="Path 9" d="M163.5,258.16a5.621,5.621,0,0,0-.167-.705,2.972,2.972,0,0,0-1.092-1.516,2.866,2.866,0,0,0-2.676-.364,2.812,2.812,0,1,0,2.676,4.882,2.957,2.957,0,0,0,1.092-1.516c.129-.447.136-.713.167-.713a1.417,1.417,0,0,1,0,.758,2.926,2.926,0,0,1-1.076,1.728,3.093,3.093,0,0,1-2.964.493,3.146,3.146,0,0,1,0-5.936,3.093,3.093,0,0,1,2.964.485,2.964,2.964,0,0,1,1.076,1.736A1.372,1.372,0,0,1,163.5,258.16Z" transform="translate(-38.069 -61.713)" fill="#263238"/>
      <g id="Group_28" data-name="Group 28" transform="translate(65.092 221.516)" opacity="0.3">
        <path id="Path_10" data-name="Path 10" d="M127.661,302.664a17.474,17.474,0,0,0-3.389-7.634c-2-2.54-4.8-3.98-7.717-1.63v.045a3.919,3.919,0,0,0-.174,4.147,25.873,25.873,0,0,1-24.418,38.54c-1.781-.129-3.715-.409-5.087,1.039a4.071,4.071,0,0,0-.19,5.14c2.009,2.812,5.572,3.078,8.763,2.79a36.039,36.039,0,0,0,32.211-42.437Z" transform="translate(-85.865 -292.21)" fill="#fff"/>
      </g>
      <g id="Group_29" data-name="Group 29" transform="translate(35 205.144)" opacity="0.3">
        <path id="Path_11" data-name="Path 11" d="M70.747,270.686a32.339,32.339,0,0,0-24.258,25.092,12.008,12.008,0,0,0,.053,5.708,5.473,5.473,0,0,0,3.874,3.881c3.169.637,5.89-2.464,6.936-5.519,1.683-4.92,1.357-10.984,5.261-14.4,1.888-1.66,4.42-2.327,6.77-3.222s5.572-2.721,6.512-5.056a4.7,4.7,0,0,0-5.147-6.482Z" transform="translate(-46.17 -270.613)" fill="#fff"/>
      </g>
      <path id="Path_12" data-name="Path 12" d="M110.853,307.179V306.8c0-.25-.045-.644-.076-1.13a4.609,4.609,0,0,0-.053-.826c-.053-.3-.1-.637-.152-.993a16.349,16.349,0,0,0-.5-2.449,22.461,22.461,0,0,0-2.631-6.292,23.735,23.735,0,0,0-15.92-11.1,22.641,22.641,0,0,0-2.987-.341c-.508,0-1.016-.068-1.516-.061l-1.562.083a3.465,3.465,0,0,0-.758.053l-.758.121c-.523.083-1.054.144-1.584.258a23.861,23.861,0,0,0-3.138.925A23.408,23.408,0,0,0,76.14,286.4c-.493.273-.97.584-1.463.879a11.06,11.06,0,0,0-1.425.978,26.812,26.812,0,0,0-2.668,2.274,26,26,0,0,0-2.274,2.729,22.855,22.855,0,0,0-3.54,6.489,23.356,23.356,0,0,0,0,14.858,22.894,22.894,0,0,0,3.366,6.5,26.641,26.641,0,0,0,2.274,2.729,26.959,26.959,0,0,0,2.668,2.274,12.821,12.821,0,0,0,1.425.978c.493.3.97.606,1.463.879a25.608,25.608,0,0,0,3.116,1.349,26.428,26.428,0,0,0,3.138.925c.531.106,1.061.167,1.584.258l.758.121a3.5,3.5,0,0,1,.758.053l1.562.076c.515,0,1.023-.038,1.516-.053a22.664,22.664,0,0,0,2.979-.349,23.667,23.667,0,0,0,15.92-11.1,22.432,22.432,0,0,0,2.631-6.284,16.549,16.549,0,0,0,.5-2.449c.053-.364.121-.69.152-.993s0-.584.053-.826c0-.485.061-.857.076-1.13a2.371,2.371,0,0,0,0-.387v2.35a7.652,7.652,0,0,1-.136,1A16.448,16.448,0,0,1,110.11,313a22.513,22.513,0,0,1-2.593,6.36,23.9,23.9,0,0,1-16.071,11.31,21.835,21.835,0,0,1-3.032.356c-.515,0-1.031.068-1.562.061l-1.577-.076a4.762,4.762,0,0,1-.8-.046l-.758-.121c-.531-.091-1.076-.152-1.607-.258a26,26,0,0,1-3.154-.932,25.66,25.66,0,0,1-3.123-1.365c-.508-.273-.993-.591-1.516-.887a12.465,12.465,0,0,1-1.44-.993,26.863,26.863,0,0,1-2.721-2.274,28.56,28.56,0,0,1-2.35-2.775,23.319,23.319,0,0,1-3.426-6.6,23.735,23.735,0,0,1,0-15.116,23.173,23.173,0,0,1,3.426-6.588,21.8,21.8,0,0,1,5.072-5.079,12.174,12.174,0,0,1,1.44-.993c.508-.3.993-.614,1.516-.887a24.531,24.531,0,0,1,3.123-1.365,25.01,25.01,0,0,1,3.191-.932c.538-.114,1.084-.174,1.615-.258l.758-.121c.265-.038.538,0,.8-.053L86.9,283.3c.523,0,1.046.045,1.562.068a21.981,21.981,0,0,1,3.032.356,23.917,23.917,0,0,1,16.071,11.3,22.552,22.552,0,0,1,2.593,6.368,16.282,16.282,0,0,1,.462,2.471c.053.356.114.69.136.993s0,.584,0,.834v1.137C110.755,307.1,110.853,307.179,110.853,307.179Z" transform="translate(-15.275 -68.538)" fill="#263238"/>
      <path id="Path_13" data-name="Path 13" d="M110.853,115.74v-.379c0-.25-.045-.644-.076-1.13a4.609,4.609,0,0,0-.053-.826c-.053-.3-.1-.637-.152-.993a16.55,16.55,0,0,0-.5-2.449,22.462,22.462,0,0,0-2.631-6.292,23.644,23.644,0,0,0-6.012-6.694,23.356,23.356,0,0,0-9.931-4.4,21.43,21.43,0,0,0-2.987-.349c-.508,0-1.016-.068-1.516-.061l-1.562.083a3.47,3.47,0,0,0-.758.053l-.758.121c-.523.083-1.054.152-1.584.258a23.865,23.865,0,0,0-3.138.925A23.409,23.409,0,0,0,76,94.991c-.493.273-.97.584-1.463.879a12.825,12.825,0,0,0-1.425.978,21.871,21.871,0,0,0-4.981,5,22.856,22.856,0,0,0-3.366,6.489,23.356,23.356,0,0,0,0,14.858,22.894,22.894,0,0,0,3.366,6.5,26.639,26.639,0,0,0,2.274,2.729,25.968,25.968,0,0,0,2.668,2.274,12.827,12.827,0,0,0,1.425.978c.493.3.97.606,1.463.879a25.616,25.616,0,0,0,3.078,1.349,25.076,25.076,0,0,0,3.138.925c.531.106,1.061.167,1.584.258l.758.121a3.5,3.5,0,0,1,.758.053l1.562.076c.515,0,1.023-.038,1.516-.053a22.671,22.671,0,0,0,2.979-.349,23.7,23.7,0,0,0,15.92-11.091,22.56,22.56,0,0,0,2.775-6.322,16.549,16.549,0,0,0,.5-2.449c.053-.356.121-.69.152-.993s0-.576.053-.826c0-.485.061-.857.076-1.13a2.372,2.372,0,0,0,0-.387v2.35a7.649,7.649,0,0,1-.136,1,16.45,16.45,0,0,1-.462,2.471,22.424,22.424,0,0,1-2.593,6.36,23.894,23.894,0,0,1-16.071,11.31,21.844,21.844,0,0,1-3.032.356c-.515,0-1.031.068-1.562.068l-1.577-.083a4.762,4.762,0,0,1-.8-.045l-.758-.121c-.531-.091-1.076-.152-1.607-.258a25.992,25.992,0,0,1-3.26-.948,25.657,25.657,0,0,1-3.123-1.365c-.508-.273-.993-.591-1.516-.887a12.464,12.464,0,0,1-1.44-.993,26.86,26.86,0,0,1-2.721-2.274A28.557,28.557,0,0,1,67.8,129.9a23.318,23.318,0,0,1-3.426-6.6,23.735,23.735,0,0,1,0-15.116A23.174,23.174,0,0,1,67.8,101.6a21.794,21.794,0,0,1,5.087-5.1,12.174,12.174,0,0,1,1.44-.993c.508-.3.993-.614,1.516-.887a24.53,24.53,0,0,1,3.108-1.357,26.273,26.273,0,0,1,3.191-.932c.538-.106,1.084-.174,1.615-.258l.758-.121a4.763,4.763,0,0,0,.8-.045L86.9,91.83c.523,0,1.046.045,1.562.068a21.984,21.984,0,0,1,3.032.356,23.917,23.917,0,0,1,16.071,11.3,22.552,22.552,0,0,1,2.593,6.368,16.284,16.284,0,0,1,.462,2.471c.053.356.114.69.136.993s0,.584,0,.834v1.137a.575.575,0,0,0,.1.383Z" transform="translate(-15.275 -22.216)" fill="#263238"/>
      <path id="Path_14" data-name="Path 14" d="M134.012,27.857c0,.114-30,.2-67,.2S0,27.971,0,27.857s30-.2,67.014-.2S134.012,27.751,134.012,27.857Z" transform="translate(0 -6.692)" fill="#263238"/>
      <rect id="Rectangle_16" data-name="Rectangle 16" width="21.12" height="9.468" transform="translate(9.067 7.573)" fill="#455a64"/>
      <path id="Path_15" data-name="Path 15" d="M33.029,19.4a6.465,6.465,0,0,1,0-.682c0-.478,0-1.107-.038-1.9,0-1.668-.045-4.01-.076-6.883l.144.144-21.12.053.2-.2h0V19.4l-.2-.19,15.108.091,4.4.053h1.615a2.2,2.2,0,0,1-.379,0H31.528l-4.359.053-15.23.182h-.19V9.935h0l.19-.2,21.12.053h.106V9.94c0,2.911-.061,5.307-.076,6.967v1.872A4.685,4.685,0,0,1,33.029,19.4Z" transform="translate(-2.843 -2.354)" fill="#263238"/>
      <path id="Path_16" data-name="Path 16" d="M117.447,21.046c-.114,0-.2-4.238-.2-9.453s.083-9.453.2-9.453.2,4.23.2,9.453S117.553,21.046,117.447,21.046Z" transform="translate(-28.366 -0.518)" fill="#263238"/>
      <circle id="Ellipse_10" data-name="Ellipse 10" cx="5.526" cy="5.526" r="5.526" transform="translate(36.554 6.777)" fill="#fff"/>
      <path id="Path_17" data-name="Path 17" d="M59.186,14.4a10.09,10.09,0,0,0-.25-1.327,5.481,5.481,0,0,0-2.016-2.949,5.344,5.344,0,1,0,0,8.559,5.511,5.511,0,0,0,2.016-2.941c.227-.841.2-1.334.25-1.334a1.084,1.084,0,0,1,0,.356,4.169,4.169,0,0,1-.1.978,5.511,5.511,0,0,1-2.024,3.169,5.719,5.719,0,1,1,0-9.016,5.511,5.511,0,0,1,2,3.138,4.169,4.169,0,0,1,.121,1.016,1.046,1.046,0,0,1,0,.351Z" transform="translate(-11.579 -2.102)" fill="#263238"/>
      <path id="Path_18" data-name="Path 18" d="M134.422,238.467c0,.114-30,.2-67,.2S.41,238.581.41,238.467s30-.2,67.014-.2S134.422,238.361,134.422,238.467Z" transform="translate(-0.099 -57.644)" fill="#263238"/>
      <rect id="Rectangle_17" data-name="Rectangle 17" width="21.12" height="9.468" transform="translate(9.377 167.231)" fill="#455a64"/>
      <path id="Path_19" data-name="Path 19" d="M33.429,230.008a6.285,6.285,0,0,1,0-.682v-1.9c0-1.66-.045-4-.076-6.883l.144.144-21.12.053c-.174.182.243-.235.2-.2h0V230l-.19-.19,15.033.129,4.4.053h1.615a2.2,2.2,0,0,1-.379,0H31.9l-4.359.053-15.23.091h-.19v-9.59h0l.2-.2,21.12.053h.144v.136c0,2.919-.061,5.307-.076,6.974v1.865a4.686,4.686,0,0,1-.076.629Z" transform="translate(-2.932 -53.309)" fill="#263238"/>
      <path id="Path_20" data-name="Path 20" d="M117.857,231.656c-.114,0-.2-4.23-.2-9.453s.083-9.453.2-9.453.2,4.238.2,9.453S117.963,231.656,117.857,231.656Z" transform="translate(-28.465 -51.47)" fill="#263238"/>
      <circle id="Ellipse_11" data-name="Ellipse 11" cx="5.526" cy="5.526" r="5.526" transform="translate(36.865 166.442)" fill="#fff"/>
      <path id="Path_21" data-name="Path 21" d="M59.606,225.032a10.3,10.3,0,0,0-.25-1.334,5.511,5.511,0,0,0-2.016-2.949,5.36,5.36,0,0,0-2.274-.985,5.443,5.443,0,0,0-2.8.243,5.356,5.356,0,0,0,2.8,10.3,5.458,5.458,0,0,0,2.274-.985,5.526,5.526,0,0,0,2.016-2.956c.227-.834.2-1.334.25-1.327a1.046,1.046,0,0,1,0,.349,4.169,4.169,0,0,1-.121,1.016,5.587,5.587,0,0,1-4.382,4.222,5.693,5.693,0,0,1-2.994-10.954,5.761,5.761,0,0,1,2.994-.227,5.564,5.564,0,0,1,2.38,1.092,5.473,5.473,0,0,1,2.024,3.1,4.17,4.17,0,0,1,.121,1.016,1.084,1.084,0,0,1-.023.387Z" transform="translate(-11.688 -53.063)" fill="#263238"/>
      <path id="Path_22" data-name="Path 22" d="M180.346,51.55c-17.549,0-31.786,23.227-31.786,51.875S162.8,155.3,180.346,155.3s31.786-23.227,31.786-51.875S197.9,51.55,180.346,51.55Zm-3.79,87.512c-11.227,0-20.332-16.079-20.332-35.91s9.1-35.91,20.332-35.91,20.324,16.079,20.324,35.91-9.082,35.917-20.3,35.917Z" transform="translate(-35.941 -12.471)" fill="#fcfcfc"/>
      <path id="Path_23" data-name="Path 23" d="M180.346,51.55c-17.549,0-31.786,23.227-31.786,51.875S162.8,155.3,180.346,155.3s31.786-23.227,31.786-51.875S197.9,51.55,180.346,51.55Zm-3.79,87.512c-11.227,0-20.332-16.079-20.332-35.91s9.1-35.91,20.332-35.91,20.324,16.079,20.324,35.91-9.082,35.917-20.3,35.917Z" transform="translate(-35.941 -12.471)" fill="none"/>
      <path id="Path_24" data-name="Path 24" d="M178.971,144.011l.462-.038.569-.038.758-.114a13.077,13.077,0,0,0,4.837-1.872,20.612,20.612,0,0,0,5.86-5.746,37.464,37.464,0,0,0,4.829-9.794A60.448,60.448,0,0,0,198.3,98.2a52.753,52.753,0,0,0-1.918-8.013,40.279,40.279,0,0,0-3.472-7.831,24.63,24.63,0,0,0-5.64-6.823,12.4,12.4,0,0,0-16.6,0,24.524,24.524,0,0,0-5.64,6.823,39.662,39.662,0,0,0-3.48,7.831,51.832,51.832,0,0,0-1.926,8.005,60.448,60.448,0,0,0,2.009,28.208,37.7,37.7,0,0,0,4.814,9.794,20.8,20.8,0,0,0,5.86,5.746,13.123,13.123,0,0,0,4.837,1.872l.758.114.569.038.47.038H177.9l-.758-.091a12.887,12.887,0,0,1-4.9-1.827,20.725,20.725,0,0,1-5.966-5.746,37.9,37.9,0,0,1-4.912-9.855,60.448,60.448,0,0,1-2.107-28.352,52.588,52.588,0,0,1,1.941-8.066,39.951,39.951,0,0,1,3.5-7.914,25.1,25.1,0,0,1,5.723-6.9,12.789,12.789,0,0,1,17.1,0,25.069,25.069,0,0,1,5.723,6.891,40.854,40.854,0,0,1,3.525,7.929A52.552,52.552,0,0,1,198.7,98.14a60.418,60.418,0,0,1-2.107,28.344,37.206,37.206,0,0,1-4.912,9.855,25.017,25.017,0,0,1-2.949,3.434,18.952,18.952,0,0,1-3.032,2.32,12.933,12.933,0,0,1-4.9,1.827l-.758.091h-1.069Z" transform="translate(-38.334 -17.413)" fill="#263238"/>
      <path id="Path_25" data-name="Path 25" d="M180.288,51.55h1.539c.341,0,.758.083,1.167.129a21.082,21.082,0,0,1,7.361,2.486,30.823,30.823,0,0,1,9.271,7.937,51.352,51.352,0,0,1,7.9,14.206,74.707,74.707,0,0,1,4.336,19.232,84.145,84.145,0,0,1-.925,22.606,63.258,63.258,0,0,1-8.824,23.318,36.1,36.1,0,0,1-9.021,9.681,21.037,21.037,0,0,1-25.623,0,35.759,35.759,0,0,1-9.021-9.681,63.194,63.194,0,0,1-8.839-23.318,84.456,84.456,0,0,1-.917-22.606,74.633,74.633,0,0,1,4.336-19.232A51.436,51.436,0,0,1,160.965,62.1a30.846,30.846,0,0,1,9.271-7.937,21,21,0,0,1,7.353-2.418c.44-.045.826-.106,1.167-.129h1.531l-.682.045-.849.045a11.451,11.451,0,0,0-1.16.144,21.416,21.416,0,0,0-7.293,2.479,31.028,31.028,0,0,0-9.2,7.975,51.5,51.5,0,0,0-7.8,14.1,74.519,74.519,0,0,0-4.276,19.164,84.085,84.085,0,0,0,.955,22.507,63.038,63.038,0,0,0,8.794,23.174,35.63,35.63,0,0,0,8.93,9.574,20.642,20.642,0,0,0,25.168,0,35.545,35.545,0,0,0,8.923-9.567,63.088,63.088,0,0,0,8.794-23.174,84.4,84.4,0,0,0,.955-22.507,74.912,74.912,0,0,0-4.268-19.164A51.336,51.336,0,0,0,199.47,62.25a30.952,30.952,0,0,0-9.2-7.982,21.416,21.416,0,0,0-7.293-2.479c-.44-.053-.826-.114-1.16-.144l-.849-.045Z" transform="translate(-35.883 -12.471)" fill="#263238"/>
      <path id="Path_26" data-name="Path 26" d="M167.94,119.377c-.091-.061,4.313-6.2,9.855-13.706S187.847,92.132,187.938,92.2s-4.313,6.2-9.855,13.706S168.023,119.445,167.94,119.377Z" transform="translate(-40.629 -22.306)" fill="#263238"/>
      <path id="Path_27" data-name="Path 27" d="M167.839,135.558c-.091-.061,3.358-4.912,7.71-10.825s7.945-10.666,8.028-10.613-3.366,4.912-7.71,10.833S167.961,135.626,167.839,135.558Z" transform="translate(-40.605 -27.609)" fill="#263238"/>
      <g id="Group_30" data-name="Group 30" transform="translate(143.48 47.433)" opacity="0.3">
        <path id="Path_28" data-name="Path 28" d="M190.786,62.57a14.833,14.833,0,0,0-1.516.076c13.645,1.327,24.418,20.15,24.418,43.21s-10.8,41.846-24.418,43.21c.508.045,1.023.076,1.516.076,14.343,0,25.964-19.369,25.964-43.256S205.129,62.57,190.786,62.57Z" transform="translate(-189.27 -62.57)"/>
      </g>
      <path id="Path_29" data-name="Path 29" d="M204.807,105.774v-.569c0-.379,0-.948-.045-1.675-.076-1.463-.167-3.631-.523-6.406a65.847,65.847,0,0,0-2.047-9.946,50.192,50.192,0,0,0-5.306-12.3,33.841,33.841,0,0,0-4.8-6.133,27.132,27.132,0,0,0-3.161-2.676,21.652,21.652,0,0,0-3.745-2.085,16.238,16.238,0,0,0-8.832-1.076,18.853,18.853,0,0,0-8.566,4,30.822,30.822,0,0,0-6.58,7.581,40.294,40.294,0,0,0-2.509,4.548,47.465,47.465,0,0,0-2.016,4.92,68.742,68.742,0,0,0,0,43.6,46.921,46.921,0,0,0,2.017,4.927,40.3,40.3,0,0,0,2.509,4.548,30.7,30.7,0,0,0,6.58,7.581,18.906,18.906,0,0,0,8.574,4,16.139,16.139,0,0,0,8.824-1.076,20.892,20.892,0,0,0,3.745-2.085,27.079,27.079,0,0,0,3.161-2.668,33.544,33.544,0,0,0,4.8-6.14,50.192,50.192,0,0,0,5.307-12.3,65.664,65.664,0,0,0,2.016-9.931c.356-2.767.447-4.935.523-6.406,0-.758.038-1.281.045-1.675s0-.569,0-.569V108c-.053,1.471-.121,3.646-.455,6.421a64.38,64.38,0,0,1-1.971,9.991,50.237,50.237,0,0,1-5.306,12.394,34.183,34.183,0,0,1-4.814,6.2,26.531,26.531,0,0,1-3.2,2.714,21.553,21.553,0,0,1-3.79,2.13,16.518,16.518,0,0,1-9.013,1.122,19.187,19.187,0,0,1-8.741-4.063,31.081,31.081,0,0,1-6.671-7.657,40.483,40.483,0,0,1-2.54-4.617,50.33,50.33,0,0,1-2.039-4.958,68.886,68.886,0,0,1,0-43.847,46.878,46.878,0,0,1,2.039-4.958,39.808,39.808,0,0,1,2.532-4.609,31.128,31.128,0,0,1,6.7-7.619,19.255,19.255,0,0,1,8.741-4.056,16.549,16.549,0,0,1,9.006,1.114,21.839,21.839,0,0,1,3.79,2.13,27.117,27.117,0,0,1,3.191,2.714,33.688,33.688,0,0,1,4.821,6.209,50.192,50.192,0,0,1,5.307,12.387,65.287,65.287,0,0,1,1.971,9.991c.334,2.775.4,4.95.455,6.421v1.675C204.791,105.615,204.807,105.774,204.807,105.774Z" transform="translate(-36.931 -15.094)" fill="#263238"/>
      <path id="Path_30" data-name="Path 30" d="M91.688,179.466a3.9,3.9,0,0,1,.068-.97c.076-.7.182-1.577.3-2.623.265-2.214.614-5.307.932-8.665s.531-6.459.682-8.688c.068-1.054.129-1.933.174-2.638a4.193,4.193,0,0,1,.114-.963,4.458,4.458,0,0,1,0,.97c0,.622,0,1.516-.053,2.646-.076,2.229-.25,5.307-.561,8.71s-.713,6.451-1.046,8.665c-.167,1.1-.318,1.994-.432,2.608a5.7,5.7,0,0,1-.182.948Z" transform="translate(-22.18 -37.479)" fill="#263238"/>
      <path id="Path_31" data-name="Path 31" d="M124.079,170.11h0a.228.228,0,0,1-.083-.045,2.351,2.351,0,0,1-.227-.212l-.341-.364-.22-.235-.121-.121-.061-.061h.061c.061,0,0-.068.038-.061l-.167.083c-1.228-1.607-3.54-4.753-6.269-8.3l-5.231-6.686-1.577-2.039a4.124,4.124,0,0,1-.531-.758,5.056,5.056,0,0,1,.652.682c.4.455.978,1.122,1.668,1.956,1.395,1.675,3.29,4,5.307,6.633,2.737,3.555,4.988,6.754,6.11,8.43l-.167.083a.1.1,0,0,1,0-.045.136.136,0,0,1,0-.076.1.1,0,0,1,.076,0h.068l.045.045.068.068.114.136.2.25.3.4C124,170.027,124.1,170.156,124.079,170.11Z" transform="translate(-26.455 -36.606)" fill="#263238"/>
      <path id="Path_32" data-name="Path 32" d="M108.942,60.63c.106,0-1.251,5.5-3.032,12.243S102.6,85.047,102.5,85s1.251-5.511,3.032-12.25S108.8,60.6,108.942,60.63Z" transform="translate(-24.796 -14.668)" fill="#263238"/>
      <path id="Path_33" data-name="Path 33" d="M72.71,62.1a5.692,5.692,0,0,1,.349.932c.227.682.508,1.516.841,2.57.705,2.176,1.691,5.178,2.835,8.468s2.259,6.262,3.017,8.422c.371,1.016.682,1.872.932,2.547a5.012,5.012,0,0,1,.3.948,4.777,4.777,0,0,1-.447-.9c-.258-.584-.622-1.433-1.054-2.494-.864-2.123-1.994-5.072-3.138-8.339s-2.092-6.315-2.729-8.513c-.318-1.1-.561-1.994-.758-2.608A4.306,4.306,0,0,1,72.71,62.1Z" transform="translate(-17.591 -15.024)" fill="#263238"/>
      <path id="Path_34" data-name="Path 34" d="M59.609,137c.061.091-4.768,3.426-10.78,7.452s-10.939,7.209-11,7.118,4.768-3.426,10.78-7.444S59.549,136.939,59.609,137Z" transform="translate(-9.152 -33.144)" fill="#263238"/>
      <path id="Path_35" data-name="Path 35" d="M55.265,121.66a4.807,4.807,0,0,1-1.008-.2l-2.721-.644c-2.274-.546-5.481-1.258-9.013-1.971s-6.747-1.311-9.1-1.759l-2.744-.538a4.783,4.783,0,0,1-1-.25,5.308,5.308,0,0,1,1.023.1c.66.091,1.6.227,2.767.417,2.335.371,5.557.932,9.1,1.645s6.717,1.471,9.006,2.085c1.137.3,2.062.569,2.691.758a5.824,5.824,0,0,1,1,.356Z" transform="translate(-7.18 -28.136)" fill="#263238"/>
      <path id="Path_36" data-name="Path 36" d="M127.955,130.237c2.32-5.42,4.685-11.2,3.79-17.026a17.034,17.034,0,0,0-11.409-13.357,18.254,18.254,0,0,0-17.33,3.79,19.71,19.71,0,0,0-6.3,16.678A16.511,16.511,0,0,0,77.52,132.284L91.878,152.13l22.484-7.581Z" transform="translate(-18.754 -23.97)" fill="#e0e0e0"/>
      <path id="Path_37" data-name="Path 37" d="M117.032,124.938a21.45,21.45,0,0,0-14.525,7.141c-3.608,4.276-5.8,9.544-7.929,14.722a19.445,19.445,0,0,0-35.326-4.958A15.518,15.518,0,0,0,34,134.383s1.865,18.565,22.924,30.1,39.321,4.018,49.714-4.222a52.034,52.034,0,0,0,14.82-19.771S121.292,124.536,117.032,124.938Z" transform="translate(-8.226 -30.224)" fill="#fafafa"/>
      <path id="Path_38" data-name="Path 38" d="M59.63,159.633l12.41,9.741,7.422-8.93,11.545,8.741s5.67-12.19-2.615-19.293S65.43,146.86,65.43,146.86Z" transform="translate(-14.426 -35.248)" fill="#ef476f"/>
      <path id="Path_39" data-name="Path 39" d="M91.617,164.006a3.175,3.175,0,0,1,.076-.493,12.935,12.935,0,0,0,.22-1.4,14.176,14.176,0,0,0-.349-5.147,14.585,14.585,0,0,0-3.737-6.618,15.5,15.5,0,0,0-3.616-2.706,18.1,18.1,0,0,0-4.548-1.69,22.447,22.447,0,0,0-8.164-.265l-6.93,1.013h-.083l-.053-.061a7.058,7.058,0,0,0-3.214-1.766,10.189,10.189,0,0,0-2.828-.3,24.025,24.025,0,0,0-2.441.25,3.525,3.525,0,0,1,.622-.174,11.25,11.25,0,0,1,1.819-.25,10.067,10.067,0,0,1,2.881.243,7.2,7.2,0,0,1,3.373,1.789l-.129-.045,6.936-1.084a22.522,22.522,0,0,1,8.3.25A18.194,18.194,0,0,1,84.4,147.29a15.76,15.76,0,0,1,3.684,2.79,14.509,14.509,0,0,1,3.73,6.823,13.554,13.554,0,0,1,.235,5.238,10.528,10.528,0,0,1-.3,1.4A2.054,2.054,0,0,1,91.617,164.006Z" transform="translate(-13.536 -34.929)" fill="#263238"/>
      <path id="Path_40" data-name="Path 40" d="M100.457,176.53a20.364,20.364,0,0,1-2.153-1.7c-1.311-1.076-3.123-2.555-5.155-4.147s-3.9-3.032-5.261-4.01A22.612,22.612,0,0,1,85.72,165a2.654,2.654,0,0,1,.652.356c.4.25.978.629,1.675,1.107,1.4.955,3.305,2.327,5.307,3.927s3.79,3.116,5.094,4.245c.629.569,1.137,1.031,1.471,1.365a5.163,5.163,0,0,1,.538.53Z" transform="translate(-20.738 -39.918)" fill="#263238"/>
      <path id="Path_41" data-name="Path 41" d="M126.583,124.09l-.167.053-.508.1c-.447.091-1.1.227-1.941.44a29.74,29.74,0,0,0-6.823,2.608,25.539,25.539,0,0,0-4.222,2.85,24.9,24.9,0,0,0-3.98,4.313,38.017,38.017,0,0,0-3.442,5.587,32.164,32.164,0,0,0-2.547,6.6l-.25.985-.136-1.008a13.183,13.183,0,0,0-1.455-4.344,18.459,18.459,0,0,0-11.689-9.1,20.354,20.354,0,0,0-12.235.963,25.653,25.653,0,0,0-7.164,4.374c-.758.644-1.319,1.183-1.691,1.554l-.432.417c-.091.091-.144.144-.152.136s0-.061.121-.159l.4-.455a22.532,22.532,0,0,1,1.653-1.615,24.8,24.8,0,0,1,7.111-4.48,20.514,20.514,0,0,1,12.417-1.061,18.777,18.777,0,0,1,11.955,9.241,13.41,13.41,0,0,1,1.516,4.48h-.387c2.706-9.521,8.725-16.8,14.456-19.49a28.548,28.548,0,0,1,6.936-2.524c.849-.19,1.516-.3,1.956-.364l.515-.068a.606.606,0,0,1,.182-.038Z" transform="translate(-16.39 -30.021)" fill="#263238"/>
    </g>
  </g>
</svg>
