<svg xmlns="http://www.w3.org/2000/svg" width="869.127" height="401.965" viewBox="0 0 869.127 401.965">
  <g id="Group_734" data-name="Group 734" transform="translate(81.325 -3325.258)">
    <g id="Group_732" data-name="Group 732" transform="translate(-175.247 3111.856)">
      <g id="Group_709" data-name="Group 709" transform="translate(490.649 237.419)">
        <g id="Group_706" data-name="Group 706" transform="translate(13.755 9.946)">
          <path id="Path_3558" data-name="Path 3558" d="M302.95,288.876c-6.453,0-12.1-6.429-15.127-14.443,2.927-4.449,5.326-21.517,4.884-28.966l17.536,14.081c-.011.2-.021.419-.021.661a34.6,34.6,0,0,0,.85,7.127,64.5,64.5,0,0,0,2.557,7.4C314.464,281.162,309.4,288.876,302.95,288.876Z" transform="translate(-283.112 -210.771)" fill="#fc916d"/>
          <path id="Path_3559" data-name="Path 3559" d="M305.908,264.483a26.518,26.518,0,0,1-13.555-16.517,69.313,69.313,0,0,0,12.707,9.392,34.609,34.609,0,0,0,.849,7.125Z" transform="translate(-277.943 -207.919)" fill="#221f28"/>
          <path id="Path_3560" data-name="Path 3560" d="M292.307,236.516a29.915,29.915,0,0,1,15.507-2.871,30.39,30.39,0,0,1,14.781,5.824,116.966,116.966,0,0,1,1.929,26.241,13.688,13.688,0,0,1-2.171,8.119,8.9,8.9,0,0,1-4.95,2.981,16.222,16.222,0,0,1-5.85.154c-8.084-1.052-16.819-7.5-21.134-14.413l-.089-7.365.351-5.147Z" transform="translate(-280.255 -224.381)" fill="#fc916d"/>
          <path id="Path_3561" data-name="Path 3561" d="M300.39,248.311a6.92,6.92,0,1,1-6.92-6.92,6.92,6.92,0,0,1,6.92,6.92Z" transform="translate(-284.565 -215.422)" fill="#fc916d"/>
          <path id="Path_3562" data-name="Path 3562" d="M301.686,242.222a12.644,12.644,0,0,0,1.452,5.345,1.312,1.312,0,0,1,1.5.147,1.578,1.578,0,0,1,.388,1.436,2.333,2.333,0,0,1-.821,1.282,4.672,4.672,0,0,1-1.35.743" transform="translate(-267.292 -214.473)" fill="none" stroke="#221f28" stroke-linecap="round" stroke-linejoin="round" stroke-width="0.5"/>
          <path id="Path_3563" data-name="Path 3563" d="M299.688,242.4a28.429,28.429,0,0,1,3.281-.3,1.015,1.015,0,0,0,1.189-1.128,2.093,2.093,0,0,0-.13-1.052,1.441,1.441,0,0,0-1.14-.715,3.3,3.3,0,0,0-1.375.207,10.2,10.2,0,0,0-3.751,2.19,4.413,4.413,0,0,0-1.077,1.368,1.216,1.216,0,0,0-.133.537c0,.107.051.365.175.4s.263-.175.351-.254a4,4,0,0,1,.773-.579,5.913,5.913,0,0,1,1.836-.668Z" transform="translate(-273.15 -217.931)" fill="#231f20"/>
          <path id="Path_3564" data-name="Path 3564" d="M306.947,242.4a28.462,28.462,0,0,0-3.283-.3,1.015,1.015,0,0,1-1.185-1.128,2.072,2.072,0,0,1,.13-1.052,1.434,1.434,0,0,1,1.136-.715,3.292,3.292,0,0,1,1.375.207,10.2,10.2,0,0,1,3.754,2.19,4.442,4.442,0,0,1,1.075,1.368,1.188,1.188,0,0,1,.135.537c0,.107-.051.365-.175.4s-.263-.175-.351-.254a4.017,4.017,0,0,0-.775-.579,5.9,5.9,0,0,0-1.836-.668Z" transform="translate(-266.407 -217.931)" fill="#231f20"/>
          <g id="Group_705" data-name="Group 705" transform="translate(25.297 28.781)">
            <path id="Path_3565" data-name="Path 3565" d="M298.155,250.009a2.7,2.7,0,0,1-.251-2.118,1.44,1.44,0,0,1,1.743-.921c.9.351,1.11,1.754,2.052,1.989.71.175,1.363-.414,2.066-.614a2.239,2.239,0,0,1,2.643,1.606,2.662,2.662,0,0,1-1.373,2.89,4.7,4.7,0,0,1-3.805-.279,5.235,5.235,0,0,1-3.074-2.553Z" transform="translate(-297.033 -237.9)" fill="#fff"/>
            <path id="Path_3566" data-name="Path 3566" d="M297.437,244.207a3.958,3.958,0,0,1,5.612-.224" transform="translate(-297.437 -242.454)" fill="none" stroke="#221f28" stroke-linecap="round" stroke-linejoin="round" stroke-width="0.5"/>
            <path id="Path_3567" data-name="Path 3567" d="M302.968,244.047a3.314,3.314,0,0,1,5.457.189" transform="translate(-291.124 -242.705)" fill="none" stroke="#221f28" stroke-linecap="round" stroke-linejoin="round" stroke-width="0.5"/>
          </g>
          <path id="Path_3568" data-name="Path 3568" d="M328.439,243.69c-.957,2.167,4.409,1.033,2.239,2.017a32.377,32.377,0,0,1-21.589,2.069,23.4,23.4,0,0,1-8.75,10.616,6.937,6.937,0,0,0-5.8-3.156,7.014,7.014,0,0,0-4.337,1.512,31.29,31.29,0,0,1-4.559-13.061c-.1-1.615.175-3.556,1.638-4.263,1.615-.807,3.481.479,4.717,1.815a13.279,13.279,0,0,1-.554-6.027,4.673,4.673,0,0,1,4.06-3.933,4.964,4.964,0,0,1,4.312,3.683,3.507,3.507,0,0,1,1.689-3.605,4.242,4.242,0,0,1,4.559.428,5.787,5.787,0,0,1,2.169,4.209,13.624,13.624,0,0,1,2.723-5.221,4.608,4.608,0,0,1,5.4-1.052c2.018,1.259,2.12,4.135,1.54,6.43a12.336,12.336,0,0,1,3.96-3.379,3.7,3.7,0,0,1,5.373,4.589,12.151,12.151,0,0,1-1.968,3.456c2.269-1.741.384.607,3.183,0,.7-.175-2.4.126-1.754.428C328.081,241.824,329.072,242.3,328.439,243.69Z" transform="translate(-285.624 -229.267)" fill="#221f28"/>
        </g>
        <g id="Group_707" data-name="Group 707" transform="translate(14.509 69.386)">
          <path id="Path_3569" data-name="Path 3569" d="M289.739,293.513c-.665-5.992-2.981-11.554-3.616-17.548s.7-12.785,5.591-16.309a16.2,16.2,0,0,1,10.087-2.59c9.04.321,17.471,5.306,23.486,12.063s12.779,15.839,15.753,24.375Z" transform="translate(-285.976 -257.019)" fill="#d14264"/>
          <path id="Path_3570" data-name="Path 3570" d="M291.908,270.392l19.376-10.7,40.333,17.361-7.4,13.406H324.732Z" transform="translate(-279.205 -253.972)" fill="#d14264"/>
          <path id="Path_3571" data-name="Path 3571" d="M320.9,268.768l57.445-1.887-7.365,15.384H316.341Z" transform="translate(-251.323 -245.772)" fill="#d14264"/>
        </g>
        <g id="Group_708" data-name="Group 708" transform="translate(0 42.182)">
          <path id="Path_3572" data-name="Path 3572" d="M343.05,301.29h0a4.105,4.105,0,0,0,5.475-1.887l19.242-39.474a4.11,4.11,0,0,0-1.887-5.477h0a4.107,4.107,0,0,0-5.475,1.889L341.165,295.81a4.105,4.105,0,0,0,1.885,5.48Z" transform="translate(-208.953 -233.219)" fill="#221f28"/>
          <path id="Path_3573" data-name="Path 3573" d="M279.2,244.322l2.818,63.691h19.055l-3.137-6.885a8.31,8.31,0,0,0-5.143-4.505h0l1.769-11.991a21.479,21.479,0,0,0,.077-5.669l-2.052-17.229A21.473,21.473,0,0,0,279.2,244.318Z" transform="translate(-279.2 -244.318)" fill="#221f28"/>
        </g>
        <g id="Group_733" data-name="Group 733" transform="translate(11.276 0)">
          <path id="Path_1501" data-name="Path 1501" d="M32.511,32.036s19.137,7.483,25.173-9.294a15.2,15.2,0,0,0,1.228-6.681,83.141,83.141,0,0,0-1.1-11.276,108.973,108.973,0,0,0-21.089,1.54C10.957,9.82,9.242-2.133,2.757.34s.5,4.559.5,4.559,8.817,4.351,8.768,7.872S12.341,26.081,32.511,32.036Z" transform="translate(62.594 33.448) rotate(173)" fill="#f2c81f"/>
        </g>
      </g>
      <g id="Group_710" data-name="Group 710" transform="translate(93.922 213.402)">
        <path id="Path_3574" data-name="Path 3574" d="M952.553,365.918v5.287A19.933,19.933,0,0,1,932.6,391.131H120.172a17.05,17.05,0,0,1-17.056-17.056V358.43H945.065a7.483,7.483,0,0,1,7.488,7.488Z" transform="translate(-83.427 -47.887)" fill="#4d4d4d"/>
        <path id="Path_3575" data-name="Path 3575" d="M955.3,464.024l.263.836H113.61c-.119-.288-.238-.551-.333-.836-16.887-41-21.027-73.476-18.8-99.007a119.58,119.58,0,0,1,16.435-51.789,111.117,111.117,0,0,1,6.913-10.285l36.5-12.654H693.464l23.179-15.907,21.767-9.119c20.021-2.176,144.718,34.563,186.461,47.959,7.965,2.56,12.893,4.259,13.513,4.689,3.923,2.655,7.655,24.024,6.1,29.469l5.764,2.655a62.921,62.921,0,0,1,5.838,14.974c9.713,36.885-3.349,90.486-3.349,90.486Z" transform="translate(-93.922 -154.318)" fill="#7d7d7d"/>
        <path id="Path_3576" data-name="Path 3576" d="M574.257,232.378c-54.276-15.907-363.161-38.369-441.786,12.175,3.276,9.831,19.183,16.835,19.183,16.835-10.764,6.1-51.477,84.7-46.334,100.634l33.56-11.626,2.944-1.028H680.964l23.179-15.907,21.768-9.119S628.547,248.285,574.257,232.378ZM658.168,343.3h-177.2l-4.5-101.542c29.327,2.345,56.452,5.573,75.468,8.873,42.339,7.391,110.009,64.8,110.009,64.8l15.981,13.922Z" transform="translate(-81.423 -213.402)" fill="#7d7d7d"/>
      </g>
      <g id="Group_711" data-name="Group 711" transform="translate(93.943 372.31)">
        <path id="Path_3577" data-name="Path 3577" d="M952.726,402.288l2.821,9.354H113.6c-16.887-41-21.361-74.321-19.137-99.845H956.075C965.788,348.689,952.726,402.288,952.726,402.288Z" transform="translate(-93.931 -260.013)" fill="#ccc" opacity="0"/>
        <path id="Path_3578" data-name="Path 3578" d="M955.792,339.4H94.179a119.578,119.578,0,0,1,16.435-51.789H924.576c7.965,2.56,12.892,4.26,13.513,4.689,3.923,2.655,7.655,24.024,6.1,29.469l5.764,2.655a62.921,62.921,0,0,1,5.838,14.976Z" transform="translate(-93.647 -287.614)" fill="#ccc" opacity="0"/>
        <path id="Path_3579" data-name="Path 3579" d="M952.554,365.262v5.424A20.2,20.2,0,0,1,932.6,391.128H120.172a17.275,17.275,0,0,1-17.056-17.5v-15.2H945.066C949.2,358.43,952.554,361.017,952.554,365.262Z" transform="translate(-83.45 -206.796)" fill="#ccc" opacity="0"/>
        <g id="Component_2_8" data-name="Component 2 – 8" transform="translate(374.589 110.453)">
          <text id="laundryforclinics" transform="translate(0 22)" fill="#fff" font-size="25" font-family="HelveticaNowDisplay-ExtLt, Helvetica Now Display" letter-spacing="-0.048em"><tspan x="0" y="0">laundry</tspan><tspan y="0" fill="#f2c81f" font-family="HelveticaNowDisplay-ExtraBold, Helvetica Now Display" font-weight="800">forclinics</tspan></text>
        </g>
      </g>
      <g id="Group_715" data-name="Group 715" transform="translate(196.273 229.179)">
        <path id="Path_3580" data-name="Path 3580" d="M654.868,318.93l-11.53-9.783s-79.3-65.515-128.907-73.944c-66.355-11.265-217.149-21.529-269.1-7.965S173.733,255.32,149.86,279.29c-18.634,18.706-.647,45.759,8.182,56.762a13.171,13.171,0,0,0,10.285,4.91H633.172a18.525,18.525,0,0,0,10.5-3.253l10.62-7.3a7.242,7.242,0,0,0,.575-11.484Zm-38.755,15.958H438.92l-4.5-101.534c29.327,2.345,56.452,5.573,75.468,8.873,42.339,7.391,110.009,64.8,110.009,64.8l15.981,13.922Z" transform="translate(-141.721 -220.769)" fill="#f2f2f2"/>
        <path id="Path_3581" data-name="Path 3581" d="M392.172,227.5l-3.039,102.691H194.658a24.426,24.426,0,0,1-20.594-11.341c-.887-1.363-1.754-2.846-2.608-4.384a53.042,53.042,0,0,1-5.694-14.974c-1.578-7.989-.477-16.338,6.29-23.346,14.73-15.19,27.605-26.05,50.378-35.377a239.26,239.26,0,0,1,25.834-8.756c1.7-.5,3.467-.98,5.261-1.459a161.717,161.717,0,0,1,27.532-4.209c13.611-1.149,29.613-1.578,46.742-1.434h.023q9.22.074,18.8.359c13.61.351,27.626,1.052,41.429,1.961C389.427,227.308,390.816,227.4,392.172,227.5Z" transform="translate(-115.007 -216.073)" fill="#303030"/>
        <g id="Group_712" data-name="Group 712" transform="translate(423.65 80.583)">
          <path id="Path_3582" data-name="Path 3582" d="M415.609,276.424l-11.43,12.582a8.955,8.955,0,0,1-6.625,2.934h-40.94a14.258,14.258,0,0,1-8.013-2.464l-2.821-1.937a14.171,14.171,0,0,1,1.578-24.375l6.353-3.225a14.178,14.178,0,0,1,6.422-1.534h17.939a14.251,14.251,0,0,1,6.194,1.434c.216.1.43.214.647.333l13.969,7.679a13.557,13.557,0,0,0,3.253,1.291l12.259,3.2a2.49,2.49,0,0,1,1.214,4.086Z" transform="translate(-339.571 -258.404)" fill="#434343"/>
          <path id="Path_3583" data-name="Path 3583" d="M414.262,275.484l-11.43,12.582A8.956,8.956,0,0,1,396.207,291H355.269a14.257,14.257,0,0,1-8.013-2.464l-2.821-1.937a14.14,14.14,0,0,1-3.683-3.683,68.478,68.478,0,0,0,20.379-.623A37.376,37.376,0,0,0,374.17,277.7a19.539,19.539,0,0,0,8.659-10.478,14.173,14.173,0,0,0,.284-7.63l.456-.36,13.969,7.679a13.56,13.56,0,0,0,3.253,1.291l12.259,3.2a2.49,2.49,0,0,1,1.212,4.084Z" transform="translate(-338.226 -257.458)" fill="#434343" opacity="0.3"/>
        </g>
        <g id="Group_714" data-name="Group 714" transform="translate(50.766 8.813)" opacity="0.3">
          <g id="Group_713" data-name="Group 713" transform="translate(0 0)">
            <path id="Path_3584" data-name="Path 3584" d="M318.538,224.911,262.277,330.185H185.4a24.254,24.254,0,0,1-12.152-3.255L271.8,226.345C285.412,225.2,301.414,224.772,318.538,224.911Z" transform="translate(-156.505 -224.886)" fill="#ccc"/>
            <path id="Path_3585" data-name="Path 3585" d="M321.118,227.026,292.869,329.987H223.788l55.9-104.915C293.3,225.423,307.316,226.117,321.118,227.026Z" transform="translate(-98.826 -224.675)" fill="#ccc"/>
            <path id="Path_3586" data-name="Path 3586" d="M247.931,228.218l-76.808,82.453a53.044,53.044,0,0,1-5.694-14.974L222.1,236.972a239.251,239.251,0,0,1,25.834-8.754Z" transform="translate(-165.429 -221.082)" fill="#ccc"/>
          </g>
        </g>
        <path id="Path_3587" data-name="Path 3587" d="M269.718,331.588h23.2l-4.749-106.7H272.88Z" transform="translate(4.357 -216.071)" fill="#f2f2f2"/>
      </g>
      <g id="Group_718" data-name="Group 718" transform="translate(94.106 261.383)">
        <g id="Group_716" data-name="Group 716" transform="translate(790.283 110.921)">
          <path id="Path_3588" data-name="Path 3588" d="M523.179,321.777a149.915,149.915,0,0,1-27.749-.933,172.893,172.893,0,0,1-18.13-3.181,6,6,0,0,1-3.756-2.806L463.9,298.4a6,6,0,0,1,1.1-7.418l3.635-3.372h34.925c7.965,2.56,12.892,4.259,13.513,4.689C521,294.956,524.732,316.322,523.179,321.777Z" transform="translate(-463.081 -287.61)" fill="#797979"/>
          <path id="Path_3589" data-name="Path 3589" d="M495.429,320.844a172.869,172.869,0,0,1-18.13-3.181,6,6,0,0,1-3.756-2.806L463.9,298.4a6,6,0,0,1,1.1-7.418l3.635-3.372C473.781,302.161,483.231,312.161,495.429,320.844Z" transform="translate(-463.081 -287.611)" fill="#f2c81f"/>
        </g>
        <g id="Group_717" data-name="Group 717" transform="translate(0 0)">
          <path id="Path_3590" data-name="Path 3590" d="M170.908,260.24,147.873,312.5a35.774,35.774,0,0,1-9,12.319c-.288.263-.573.5-.877.766l-3.779,3.132a35.747,35.747,0,0,1-28.9,7.728c-5.143-15.931,35.57-94.535,46.334-100.634L163.45,241A14.609,14.609,0,0,1,170.908,260.24Z" transform="translate(-81.603 -235.809)" fill="#f2f2f2"/>
          <path id="Path_3591" data-name="Path 3591" d="M111.627,291.612l6.9,8.444a4.444,4.444,0,0,1,.565,4.717l-10.22,21.382a4.431,4.431,0,0,1-4,2.522H98.44a4.435,4.435,0,0,1-4.166-2.917h0a4.437,4.437,0,0,1-.175-2.4l5.4-26.425a4.426,4.426,0,0,1,1.612-2.606l4.352-3.4a4.431,4.431,0,0,1,6.166.689Z" transform="translate(-94.008 -173.987)" fill="#f2c81f"/>
        </g>
      </g>
      <g id="Group_729" data-name="Group 729" transform="translate(131.095 381.27)">
        <g id="Group_723" data-name="Group 723" transform="translate(0 0)">
          <path id="Path_3592" data-name="Path 3592" d="M343.717,408.015v58.94H111.282v-58.94a116.218,116.218,0,1,1,232.436,0Z" transform="translate(-111.282 -291.797)" fill="#404040"/>
          <path id="Path_3593" data-name="Path 3593" d="M317.168,405.322v41.385H119.37V405.322c0-52.889,44.277-95.778,98.9-95.778S317.168,352.43,317.168,405.322Z" transform="translate(-102.051 -271.547)" fill="#2c2c2c"/>
          <g id="Group_722" data-name="Group 722" transform="translate(25.88 51.263)">
            <circle id="Ellipse_173" data-name="Ellipse 173" cx="91.417" cy="91.417" r="91.417" transform="translate(0 0)" fill="#221f28"/>
            <path id="Path_3594" data-name="Path 3594" d="M271.284,395.012a68.428,68.428,0,0,1-4.714,25.02,63.832,63.832,0,0,1-4.281,8.922,68.721,68.721,0,0,1-27.079,26.5,66.13,66.13,0,0,1-9.089,4.089,68.741,68.741,0,0,1-48.008-.43,66.417,66.417,0,0,1-8.97-4.186,68.872,68.872,0,0,1-26.553-26.669,64.537,64.537,0,0,1-4.186-9.043,68.715,68.715,0,0,1,.407-49.452,63.972,63.972,0,0,1,4.307-8.922,68.845,68.845,0,0,1,27.268-26.432,64.762,64.762,0,0,1,9.119-4.019,68.72,68.72,0,0,1,47.986.622,64.609,64.609,0,0,1,8.921,4.256h.026a68.566,68.566,0,0,1,26.408,26.742,65.488,65.488,0,0,1,4.137,9.019,68.141,68.141,0,0,1,4.3,23.979Z" transform="translate(-111.231 -303.6)" fill="#505050"/>
            <circle id="Ellipse_174" data-name="Ellipse 174" cx="51.481" cy="51.481" r="51.481" transform="translate(39.937 39.937)" fill="#353535"/>
            <circle id="Ellipse_175" data-name="Ellipse 175" cx="14.976" cy="14.976" r="14.976" transform="translate(76.441 76.441)"/>
            <g id="Group_721" data-name="Group 721" transform="translate(27.17 26.802)">
              <g id="Group_719" data-name="Group 719" transform="translate(63.978 0.616)">
                <path id="Path_3595" data-name="Path 3595" d="M229.59,368.567c-14.949,11.435-45.639,31.958-58.653,18.939-13.084-13.108,7.751-44.11,19.162-58.963a64.605,64.605,0,0,1,8.921,4.256c-9.52,12.416-30.187,41.334-22.46,49.061s36.382-12.726,48.894-22.318a65.5,65.5,0,0,1,4.137,9.026Z" transform="translate(-164.992 -328.543)" fill="#8f8f8f"/>
                <path id="Path_3596" data-name="Path 3596" d="M175.733,368.636c-7.891,7.891,13.78,37.818,23.035,49.778a66.116,66.116,0,0,1-9.089,4.089c-11.291-14.637-32.819-46.236-19.567-59.489,13.419-13.419,45.639,8.8,60.015,19.974a63.838,63.838,0,0,1-4.282,8.929C214.1,382.821,183.7,360.669,175.733,368.636Z" transform="translate(-165.936 -293.973)" fill="#8f8f8f"/>
              </g>
              <g id="Group_720" data-name="Group 720" transform="translate(0)">
                <path id="Path_3597" data-name="Path 3597" d="M175.764,422.077a66.414,66.414,0,0,1-8.97-4.186c9.45-12.319,30.378-41.476,22.606-49.252s-36.815,13.085-49.157,22.581a64.539,64.539,0,0,1-4.186-9.043c14.853-11.388,45.878-32.266,58.988-19.16S187.162,407.265,175.764,422.077Z" transform="translate(-136.057 -293.356)" fill="#8f8f8f"/>
                <path id="Path_3598" data-name="Path 3598" d="M196.576,387.843c-13.515,13.513-46.1-9.138-60.324-20.214a63.973,63.973,0,0,1,4.307-8.922c11.505,8.922,42.362,31.551,50.4,23.49,7.918-7.916-13.967-38.08-23.13-49.922a64.765,64.765,0,0,1,9.119-4.019C188.227,342.849,209.875,374.541,196.576,387.843Z" transform="translate(-135.836 -328.256)" fill="#8f8f8f"/>
              </g>
            </g>
          </g>
        </g>
        <g id="Group_728" data-name="Group 728" transform="translate(563.636 0.002)">
          <path id="Path_3599" data-name="Path 3599" d="M606.942,408.015v58.94H374.509v-58.94a116.217,116.217,0,1,1,232.433,0Z" transform="translate(-374.509 -291.798)" fill="#404040"/>
          <path id="Path_3600" data-name="Path 3600" d="M580.391,405.322v41.385H382.6V405.322c0-52.889,44.277-95.778,98.9-95.778S580.391,352.43,580.391,405.322Z" transform="translate(-365.276 -271.549)" fill="#2c2c2c"/>
          <g id="Group_727" data-name="Group 727" transform="translate(25.878 51.261)">
            <circle id="Ellipse_176" data-name="Ellipse 176" cx="91.417" cy="91.417" r="91.417" transform="translate(0 0)" fill="#221f28"/>
            <path id="Path_3601" data-name="Path 3601" d="M534.508,395.012a68.427,68.427,0,0,1-4.71,25.02,63.837,63.837,0,0,1-4.282,8.922,68.692,68.692,0,0,1-27.077,26.5,65.875,65.875,0,0,1-9.089,4.089,68.731,68.731,0,0,1-48.007-.43,66.343,66.343,0,0,1-8.971-4.186,68.9,68.9,0,0,1-26.551-26.669,65.031,65.031,0,0,1-4.186-9.043,68.713,68.713,0,0,1,.407-49.452,63.98,63.98,0,0,1,4.307-8.922,68.844,68.844,0,0,1,27.269-26.432,64.672,64.672,0,0,1,9.119-4.019,68.714,68.714,0,0,1,47.984.623,64.759,64.759,0,0,1,8.922,4.256h.023a68.567,68.567,0,0,1,26.4,26.746,65.526,65.526,0,0,1,4.138,9.019,68.142,68.142,0,0,1,4.3,23.975Z" transform="translate(-374.455 -303.6)" fill="#505050"/>
            <circle id="Ellipse_177" data-name="Ellipse 177" cx="51.481" cy="51.481" r="51.481" transform="translate(39.937 39.937)" fill="#353535"/>
            <circle id="Ellipse_178" data-name="Ellipse 178" cx="14.976" cy="14.976" r="14.976" transform="translate(76.441 76.441)"/>
            <g id="Group_726" data-name="Group 726" transform="translate(27.177 26.802)">
              <g id="Group_724" data-name="Group 724" transform="translate(63.971 0.616)">
                <path id="Path_3602" data-name="Path 3602" d="M492.818,368.567c-14.949,11.435-45.641,31.958-58.653,18.939-13.085-13.108,7.749-44.11,19.16-58.963a64.752,64.752,0,0,1,8.922,4.256c-9.52,12.416-30.187,41.334-22.462,49.061s36.384-12.726,48.894-22.318A65.5,65.5,0,0,1,492.818,368.567Z" transform="translate(-428.218 -328.543)" fill="#8f8f8f"/>
                <path id="Path_3603" data-name="Path 3603" d="M438.959,368.636c-7.891,7.891,13.78,37.818,23.035,49.778a65.9,65.9,0,0,1-9.089,4.089c-11.291-14.637-32.819-46.235-19.567-59.489,13.419-13.419,45.641,8.8,60.017,19.974a63.837,63.837,0,0,1-4.282,8.922C477.33,382.821,446.926,360.669,438.959,368.636Z" transform="translate(-429.162 -293.973)" fill="#8f8f8f"/>
              </g>
              <g id="Group_725" data-name="Group 725" transform="translate(0 0)">
                <path id="Path_3604" data-name="Path 3604" d="M439,422.077a66.3,66.3,0,0,1-8.971-4.186c9.448-12.319,30.379-41.476,22.606-49.252s-36.812,13.085-49.157,22.581a65.036,65.036,0,0,1-4.186-9.043c14.857-11.388,45.881-32.266,58.989-19.16S450.38,407.265,439,422.077Z" transform="translate(-399.287 -293.356)" fill="#8f8f8f"/>
                <path id="Path_3605" data-name="Path 3605" d="M459.8,387.843c-13.515,13.513-46.1-9.138-60.324-20.214a63.988,63.988,0,0,1,4.305-8.922c11.507,8.922,42.362,31.551,50.4,23.49,7.918-7.916-13.969-38.08-23.132-49.922a64.689,64.689,0,0,1,9.119-4.019C451.453,342.85,473.1,374.541,459.8,387.843Z" transform="translate(-399.069 -328.256)" fill="#8f8f8f"/>
              </g>
            </g>
          </g>
        </g>
      </g>
      <g id="Group_730" data-name="Group 730" transform="translate(123.068 373.292)" opacity="0.4">
        <path id="Path_3606" data-name="Path 3606" d="M554.643,329.988a108.589,108.589,0,0,0-163.9,14.259c22.783-18.662,51.054-31.546,80.3-34.97S531.343,311.98,554.643,329.988Z" transform="translate(215.678 -275.433)" fill="#ffebeb"/>
        <path id="Path_3607" data-name="Path 3607" d="M290.614,328.693A109.318,109.318,0,0,0,127.3,341.037a141.787,141.787,0,0,1,79.088-31.354C235.2,307.527,265.8,313.9,290.614,328.693Z" transform="translate(-84.973 -277.014)" fill="#ffebeb"/>
        <path id="Path_3608" data-name="Path 3608" d="M758.685,288.489q-127.152-.366-254.3-.391h-253c-23.788,0-47.574-.075-71.359.037s-47.589,1.182-71.361,1.929a1.015,1.015,0,1,0,0,2.018c10.813.351,21.62.758,32.442.991,10.383.224,20.754.8,31.139.877,21.191.175,42.385.1,63.575.1h380.15c47.577,0,95.145-.254,142.721-.391a2.6,2.6,0,1,0,0-5.17Z" transform="translate(-107.532 -288.073)" fill="#ffebeb"/>
      </g>
      <g id="Group_731" data-name="Group 731" transform="translate(94.473 233.581)">
        <line id="Line_240" data-name="Line 240" x1="62.5" transform="translate(0 190.519)" fill="none" stroke="#221f28" stroke-linecap="round" stroke-linejoin="round" stroke-width="0.5"/>
        <line id="Line_241" data-name="Line 241" x1="383.415" transform="translate(242.95 190.519)" fill="none" stroke="#221f28" stroke-linecap="round" stroke-linejoin="round" stroke-width="0.5"/>
        <line id="Line_242" data-name="Line 242" x1="55.028" transform="translate(806.584 190.519)" fill="none" stroke="#221f28" stroke-linecap="round" stroke-linejoin="round" stroke-width="0.5"/>
        <path id="Path_3609" data-name="Path 3609" d="M111.282,466.954V408.015a116.218,116.218,0,1,1,232.436,0v58.94" transform="translate(-74.66 -144.11)" fill="none" stroke="#221f28" stroke-linecap="round" stroke-linejoin="round" stroke-width="0.5"/>
        <path id="Path_3610" data-name="Path 3610" d="M111.282,373.6" transform="translate(-74.66 -50.754)" fill="none" stroke="#221f28" stroke-linecap="round" stroke-linejoin="round" stroke-width="0.5"/>
        <path id="Path_3611" data-name="Path 3611" d="M219.833,373.6" transform="translate(49.224 -50.754)" fill="none" stroke="#221f28" stroke-linecap="round" stroke-linejoin="round" stroke-width="0.5"/>
        <path id="Path_3612" data-name="Path 3612" d="M374.509,466.953V408.015a116.217,116.217,0,1,1,232.433,0v58.94" transform="translate(225.748 -144.109)" fill="none" stroke="#221f28" stroke-linecap="round" stroke-linejoin="round" stroke-width="0.5"/>
        <line id="Line_243" data-name="Line 243" y2="290.362" transform="translate(387.473)" fill="none" stroke="#221f28" stroke-linecap="round" stroke-linejoin="round" stroke-width="0.5"/>
        <path id="Path_3613" data-name="Path 3613" d="M577.806,274.587l-8.87,179.529-276.9.868c0-74.177-58.658-152.5-98.595-152.5,0,.628-11.856-22.928-11.856-22.928" transform="translate(5.569 -163.754)" fill="none" stroke="#221f28" stroke-linecap="round" stroke-linejoin="round" stroke-width="0.5"/>
        <line id="Line_244" data-name="Line 244" x2="392.851" transform="translate(239.314 323.065)" fill="none" stroke="#221f28" stroke-linecap="round" stroke-linejoin="round" stroke-width="0.5"/>
        <path id="Path_3614" data-name="Path 3614" d="M101.854,313.181H880.886L699.78,279.687l29.569-14.474" transform="translate(-85.421 -174.45)" fill="none" stroke="#221f28" stroke-linecap="round" stroke-linejoin="round" stroke-width="0.5"/>
      </g>
    </g>
  </g>
</svg>
