<svg id="Layer_2" data-name="Layer 2" xmlns="http://www.w3.org/2000/svg" width="724.273" height="718.111" viewBox="0 0 724.273 718.111">
  <g id="Layer_1" data-name="Layer 1">
    <path id="Path_1140" data-name="Path 1140" d="M73.91,414.492,200.732,341.5V9.68L73.91,82.715Z" transform="translate(262.417 34.369)" fill="#f2f2f2"/>
    <path id="Path_1141" data-name="Path 1141" d="M73.91,151.758l126.822-72.99V42.41L73.91,115.4Z" transform="translate(262.417 150.576)" fill="#ef476f"/>
    <path id="Path_1142" data-name="Path 1142" d="M57.24,16.1,133.1,59.921V391.7l-75.857-43.5Z" transform="translate(203.23 57.163)" fill="#9fbae2"/>
    <path id="Path_1143" data-name="Path 1143" d="M259.919,44.049,184.062,0,57.24,73.263,133.1,117.084Z" transform="translate(203.23)" fill="#fff"/>
    <path id="Path_1144" data-name="Path 1144" d="M96.31,54.52,79.2,64.349v25.3l17.11-9.875Z" transform="translate(281.199 193.573)" fill="#06d6a0"/>
    <path id="Path_1145" data-name="Path 1145" d="M75.07,67.465v25.3L93.863,81.981V56.68Z" transform="translate(266.535 201.242)" fill="#262626"/>
    <path id="Path_1146" data-name="Path 1146" d="M79.279,60.7,77.14,61.929v7.918l2.139-1.229Z" transform="translate(273.885 215.515)" fill="#262626"/>
    <path id="Path_1147" data-name="Path 1147" d="M89.532,57.63,75.79,65.593V67.55l13.742-7.963Z" transform="translate(269.092 204.615)" fill="#373738"/>
    <path id="Path_1148" data-name="Path 1148" d="M89.532,58.59,75.79,66.553v4.733l13.742-7.963Z" transform="translate(269.092 208.023)" fill="#373738"/>
    <path id="Path_1149" data-name="Path 1149" d="M92.512,55.36,79.68,62.732v8.782L92.512,64.1Z" transform="translate(282.903 196.555)" fill="#262626"/>
    <path id="Path_1150" data-name="Path 1150" d="M81.952,60.149a2.457,2.457,0,0,1-1,1.957c-.546.319-1,0-1-.774a2.412,2.412,0,0,1,1-1.911C81.5,59.057,81.952,59.421,81.952,60.149Z" transform="translate(283.862 210.468)" fill="#fff"/>
    <path id="Path_1151" data-name="Path 1151" d="M82.892,59.6a2.5,2.5,0,0,1-1,1.957c-.546.319-1,0-1-.774a2.412,2.412,0,0,1,1-1.911C82.437,58.507,82.892,58.871,82.892,59.6Z" transform="translate(287.199 208.515)" fill="#fff"/>
    <path id="Path_1152" data-name="Path 1152" d="M83.8,59.094a2.5,2.5,0,0,1-1,1.957c-.546.319-1,0-1-.774a2.5,2.5,0,0,1,1-1.957C83.347,58,83.8,58.366,83.8,59.094Z" transform="translate(290.43 206.655)" fill="#fff"/>
    <path id="Path_1153" data-name="Path 1153" d="M81.952,61.339a2.412,2.412,0,0,1-1,1.911c-.546.319-1,0-1-.774a2.412,2.412,0,0,1,1-1.911C81.5,60.247,81.952,60.566,81.952,61.339Z" transform="translate(283.862 214.603)" fill="#fff"/>
    <path id="Path_1154" data-name="Path 1154" d="M82.892,60.789a2.412,2.412,0,0,1-1,1.911c-.546.319-1,0-1-.774a2.412,2.412,0,0,1,1-1.911C82.437,59.7,82.892,60.016,82.892,60.789Z" transform="translate(287.199 212.65)" fill="#fff"/>
    <path id="Path_1155" data-name="Path 1155" d="M83.873,60.269a2.412,2.412,0,0,1-1.092,1.957c-.546.319-1,0-1-.774a2.412,2.412,0,0,1,1-1.957C83.418,59.177,83.873,59.5,83.873,60.269Z" transform="translate(290.359 210.804)" fill="#fff"/>
    <path id="Path_1156" data-name="Path 1156" d="M113.744,44.43,96.68,54.259v25.3l17.064-9.875Z" transform="translate(343.261 157.748)" fill="#06d6a0"/>
    <path id="Path_1157" data-name="Path 1157" d="M92.55,57.375v25.3l18.794-10.785V46.59Z" transform="translate(328.598 165.417)" fill="#262626"/>
    <path id="Path_1158" data-name="Path 1158" d="M96.713,50.61,94.62,51.839v7.918l2.093-1.229Z" transform="translate(335.947 179.69)" fill="#262626"/>
    <path id="Path_1159" data-name="Path 1159" d="M107.048,47.54,93.26,55.458v2L107.048,49.5Z" transform="translate(331.119 168.79)" fill="#373738"/>
    <path id="Path_1160" data-name="Path 1160" d="M107.048,48.5,93.26,56.418V61.2l13.788-7.963Z" transform="translate(331.119 172.199)" fill="#373738"/>
    <path id="Path_1161" data-name="Path 1161" d="M109.947,45.27,97.16,52.642v8.737l12.787-7.372Z" transform="translate(344.966 160.731)" fill="#262626"/>
    <path id="Path_1162" data-name="Path 1162" d="M99.432,50.074a2.412,2.412,0,0,1-1,1.911c-.546.319-1,0-1-.728a2.457,2.457,0,0,1,1-1.957C98.977,48.982,99.432,49.346,99.432,50.074Z" transform="translate(345.924 174.629)" fill="#fff"/>
    <path id="Path_1163" data-name="Path 1163" d="M100.372,49.524a2.412,2.412,0,0,1-1,1.911c-.546.319-1,0-1-.728a2.457,2.457,0,0,1,1-1.957C99.917,48.432,100.372,48.8,100.372,49.524Z" transform="translate(349.262 172.676)" fill="#fff"/>
    <path id="Path_1164" data-name="Path 1164" d="M101.283,49a2.412,2.412,0,0,1-1,1.911c-.592.319-1,0-1-.728a2.321,2.321,0,0,1,1-1.957C100.828,47.912,101.283,48.276,101.283,49Z" transform="translate(352.492 170.83)" fill="#fff"/>
    <path id="Path_1165" data-name="Path 1165" d="M99.432,51.2a2.457,2.457,0,0,1-1,1.957c-.546.319-1,0-1-.774a2.412,2.412,0,0,1,1-1.911C98.977,50.158,99.432,50.476,99.432,51.2Z" transform="translate(345.924 178.778)" fill="#fff"/>
    <path id="Path_1166" data-name="Path 1166" d="M100.372,50.685a2.457,2.457,0,0,1-1,1.957c-.546.319-1,0-1-.774a2.412,2.412,0,0,1,1-1.911C99.917,49.593,100.372,49.912,100.372,50.685Z" transform="translate(349.262 176.839)" fill="#fff"/>
    <path id="Path_1167" data-name="Path 1167" d="M101.282,50.134a2.457,2.457,0,0,1-1,1.957c-.592.319-1,0-1-.774a2.321,2.321,0,0,1,1-1.911C100.827,49.088,101.282,49.406,101.282,50.134Z" transform="translate(352.493 174.979)" fill="#fff"/>
    <ellipse id="Ellipse_67" data-name="Ellipse 67" cx="63.434" cy="35.858" rx="63.434" ry="35.858" transform="matrix(0.392, -0.92, 0.92, 0.392, 348.364, 378.171)" fill="#262626"/>
    <path id="Path_1168" data-name="Path 1168" d="M138.972,62.258l-3.049-1.638L83.32,175.884l4.459,2.366Z" transform="translate(295.827 215.231)" fill="#262626"/>
    <ellipse id="Ellipse_68" data-name="Ellipse 68" cx="63.434" cy="35.858" rx="63.434" ry="35.858" transform="matrix(0.392, -0.92, 0.92, 0.392, 351.07, 379.702)" fill="#373738"/>
    <path id="Path_1169" data-name="Path 1169" d="M122,63.16c7.6,3.686,12.468,13.333,12.468,27.3,0,24.436-14.835,52.831-33.173,63.388a24.163,24.163,0,0,1-15.972,3.731,21.66,21.66,0,0,0,20.659-2.23c18.2-10.6,33.173-38.952,33.173-63.388C139.152,75.264,132.236,64.753,122,63.16Z" transform="translate(302.928 224.249)" fill="#262626"/>
    <path id="Path_1170" data-name="Path 1170" d="M116.274,66.593,84.056,116.648A71.26,71.26,0,0,0,82.6,130.3v.774L126.467,63.18A27.3,27.3,0,0,0,116.274,66.593Z" transform="translate(293.271 224.32)" fill="none"/>
    <path id="Path_1171" data-name="Path 1171" d="M133.268,63.55l-50.328,78A22.024,22.024,0,0,0,93.77,156.2a24.163,24.163,0,0,0,15.972-3.731c18.2-10.557,33.173-38.952,33.173-63.388C142.915,76.928,139.23,68.1,133.268,63.55Z" transform="translate(294.478 225.634)" fill="#f2c81f"/>
    <path id="Path_1172" data-name="Path 1172" d="M131.725,63.306a18.659,18.659,0,0,0-5.279,0L82.58,131.2a46.188,46.188,0,0,0,1.638,11.877l50.328-78a15.746,15.746,0,0,0-2.821-1.775Z" transform="translate(293.199 224.103)" fill="none"/>
    <path id="Path_1173" data-name="Path 1173" d="M114.713,64.32C99.788,72.965,87.137,93.443,82.86,113.965L115.077,63.91Z" transform="translate(294.194 226.912)" fill="none"/>
    <path id="Path_1174" data-name="Path 1174" d="M77.37,105.15,102.807,90.5l7.235-21.888L77.37,87.449Z" transform="translate(274.701 243.599)" fill="#373738"/>
    <path id="Path_1175" data-name="Path 1175" d="M79.465,73.993,76.78,72.4V90.1l2.685,1.593Z" transform="translate(272.607 257.056)" fill="#262626"/>
    <path id="Path_1176" data-name="Path 1176" d="M105.858,70.617l-2.73-1.547L76.78,84.223l2.685,1.593Z" transform="translate(272.607 245.232)" fill="#817680"/>
    <path id="Path_1177" data-name="Path 1177" d="M77.37,109.447,102.807,94.84,95.663,81.28,77.37,91.746Z" transform="translate(274.701 288.584)" fill="#373738"/>
    <path id="Path_1178" data-name="Path 1178" d="M79.465,84.823,76.78,83.23v17.747l2.685,1.547Z" transform="translate(272.607 295.507)" fill="#262626"/>
    <path id="Path_1179" data-name="Path 1179" d="M95.983,82.707,93.344,81.16,76.78,90.579l2.685,1.593Z" transform="translate(272.607 288.158)" fill="#817680"/>
    <path id="Path_1180" data-name="Path 1180" d="M84.23,68.755V88.868l32.081-18.384V50.28Z" transform="translate(299.058 178.519)" fill="#fff"/>
    <path id="Path_1181" data-name="Path 1181" d="M84.53,62.935v11.74l18.794-10.739V52.15Z" transform="translate(300.123 185.158)" fill="#373738"/>
    <path id="Path_1182" data-name="Path 1182" d="M89.14,55.369V71.615l7.736-4.459V50.91Z" transform="translate(316.491 180.755)" fill="#373738"/>
    <path id="Path_1183" data-name="Path 1183" d="M113.8,54.08V71.417l-17.61,10.1V84.34l19.931-11.422V52.76Z" transform="translate(341.522 187.324)" fill="#373738"/>
    <path id="Path_1184" data-name="Path 1184" d="M113.8,53.05,96.19,63.2V80.489l17.61-10.1Z" transform="translate(341.522 188.354)" fill="#262626"/>
    <path id="Path_1185" data-name="Path 1185" d="M116.121,58.362l-2.321-1.5-17.61,10.1v2.821Z" transform="translate(341.522 201.881)" fill="#776973"/>
    <path id="Path_1186" data-name="Path 1186" d="M102.392,57.378a5.6,5.6,0,0,1-2.366,4.55c-1.32.774-2.366,0-2.366-1.775a5.734,5.734,0,0,1,2.366-4.55C101.346,54.83,102.392,55.6,102.392,57.378Z" transform="translate(346.741 196.357)" fill="#373738"/>
    <path id="Path_1187" data-name="Path 1187" d="M91.839,64.06,77.55,72.342V88.86l14.289-8.191Z" transform="translate(275.341 227.444)" fill="#fff"/>
    <path id="Path_1188" data-name="Path 1188" d="M78.7,77.905l2.73-6.143a7.645,7.645,0,0,0,.956-3.185c0-1.047-.5-1.274-1.138-.91a3.187,3.187,0,0,0-.819.637.819.819,0,0,0-.273.774V70.4l-1.411.683V68.122a12.058,12.058,0,0,1,2.776-2.457c1.684-.956,2.594,0,2.594,1.775a10.376,10.376,0,0,1-1.138,4.141l-2.23,4.55,3.413-1.957v1.82L78.7,79.134Z" transform="translate(279.424 231.801)" fill="#262626"/>
    <ellipse id="Ellipse_69" data-name="Ellipse 69" cx="63.434" cy="35.858" rx="63.434" ry="35.858" transform="matrix(0.392, -0.92, 0.92, 0.392, 348.408, 196.372)" fill="#262626"/>
    <path id="Path_1189" data-name="Path 1189" d="M138.972,22.3l-3.049-1.638L83.32,135.924l4.459,2.412Z" transform="translate(295.827 73.353)" fill="#262626"/>
    <ellipse id="Ellipse_70" data-name="Ellipse 70" cx="63.434" cy="35.858" rx="63.434" ry="35.858" transform="matrix(0.392, -0.92, 0.92, 0.392, 351.072, 197.885)" fill="#373738"/>
    <path id="Path_1190" data-name="Path 1190" d="M122,23.2c7.6,3.731,12.468,13.333,12.468,27.3,0,24.436-14.835,52.786-33.173,63.388a24.709,24.709,0,0,1-15.972,3.731,21.569,21.569,0,0,0,20.659-2.275c18.2-10.557,33.173-38.952,33.173-63.388C139.152,35.35,132.236,24.838,122,23.2Z" transform="translate(302.928 82.371)" fill="#262626"/>
    <path id="Path_1191" data-name="Path 1191" d="M116.274,26.84,84.056,76.9A71.625,71.625,0,0,0,82.6,90.547v.819L126.376,23.2A28.259,28.259,0,0,0,116.274,26.84Z" transform="translate(293.271 82.371)" fill="none"/>
    <path id="Path_1192" data-name="Path 1192" d="M133.268,23.59,82.94,101.631a22.115,22.115,0,0,0,10.83,14.835,24.709,24.709,0,0,0,15.972-3.731c18.2-10.6,33.173-38.952,33.173-63.388C142.915,37.014,139.23,28.14,133.268,23.59Z" transform="translate(294.478 83.756)" fill="#f2c81f"/>
    <path id="Path_1193" data-name="Path 1193" d="M131.725,23.333a20.477,20.477,0,0,0-5.279,0L82.58,91.272a46.78,46.78,0,0,0,1.638,11.877l50.328-78.041a18.748,18.748,0,0,0-2.821-1.775Z" transform="translate(293.199 82.238)" fill="none"/>
    <path id="Path_1194" data-name="Path 1194" d="M114.713,24C99.788,32.646,87.137,53.123,82.86,73.646L115.35,24Z" transform="translate(294.194 85.212)" fill="none"/>
    <path id="Path_1195" data-name="Path 1195" d="M77.37,65.155l25.437-14.607,7.235-21.888L77.37,47.454Z" transform="translate(274.701 101.757)" fill="#373738"/>
    <path id="Path_1196" data-name="Path 1196" d="M79.465,34.033,76.78,32.44V50.187l2.685,1.547Z" transform="translate(272.607 115.178)" fill="#262626"/>
    <path id="Path_1197" data-name="Path 1197" d="M105.858,30.657l-2.73-1.547L76.78,44.263l2.685,1.593Z" transform="translate(272.607 103.355)" fill="#817680"/>
    <path id="Path_1198" data-name="Path 1198" d="M77.37,69.533,102.807,54.88,95.663,41.32,77.37,51.786Z" transform="translate(274.701 146.706)" fill="#373738"/>
    <path id="Path_1199" data-name="Path 1199" d="M79.465,44.827,76.78,43.28v17.7l2.685,1.593Z" transform="translate(272.607 153.665)" fill="#262626"/>
    <path id="Path_1200" data-name="Path 1200" d="M95.983,42.793,93.344,41.2,76.78,50.665l2.685,1.547Z" transform="translate(272.607 146.28)" fill="#817680"/>
    <path id="Path_1201" data-name="Path 1201" d="M113.8,14.165V31.457l-17.61,10.1v2.867l19.931-11.467V12.8Z" transform="translate(341.522 45.446)" fill="#373738"/>
    <path id="Path_1202" data-name="Path 1202" d="M113.8,13.1,96.19,23.248V40.494l17.61-10.1Z" transform="translate(341.522 46.511)" fill="#262626"/>
    <path id="Path_1203" data-name="Path 1203" d="M116.121,18.4,113.8,16.9,96.19,27v2.867Z" transform="translate(341.522 60.003)" fill="#776973"/>
    <path id="Path_1204" data-name="Path 1204" d="M102.392,17.428a5.688,5.688,0,0,1-2.366,4.55c-1.32.728-2.366,0-2.366-1.82a5.6,5.6,0,0,1,2.366-4.55C101.346,14.879,102.392,15.7,102.392,17.428Z" transform="translate(346.741 54.47)" fill="#373738"/>
    <path id="Path_1205" data-name="Path 1205" d="M91.839,24.11,77.55,32.346V48.865l14.289-8.191Z" transform="translate(275.341 85.602)" fill="#fff"/>
    <path id="Path_1206" data-name="Path 1206" d="M80.844,28.692l-1.593,2-.592-1.047,2.5-3.5,1.32-.774v10.1l1.411-.728v1.547l-4.551,2.776v-1.5l1.274-.865a.91.91,0,0,0,.409-.865Z" transform="translate(279.282 90.076)" fill="#262626"/>
    <path id="Path_1207" data-name="Path 1207" d="M65.55,62.64v45.232l30.079,17.292V79.977Z" transform="translate(232.735 222.403)" fill="#fff"/>
    <path id="Path_1208" data-name="Path 1208" d="M91.872,78.51,65.98,63.63v2.275L91.872,80.74Z" transform="translate(234.261 225.918)" fill="#262626"/>
    <path id="Path_1209" data-name="Path 1209" d="M91.872,79.616,65.98,64.69v34.4l25.892,14.835Z" transform="translate(234.261 229.681)" fill="#9fbae2"/>
    <path id="Path_1210" data-name="Path 1210" d="M59.81,63.55v39.5l21.114,12.1V75.7Z" transform="translate(212.355 225.634)" fill="#fff"/>
    <path id="Path_1211" data-name="Path 1211" d="M69.457,69.744,60.22,64.42V82.895l9.237,5.324Z" transform="translate(213.811 228.723)" fill="#9fbae2"/>
    <path id="Path_1212" data-name="Path 1212" d="M74.563,77.34,61.23,69.65V82.983l13.333,7.69Z" transform="translate(217.397 247.292)" fill="#9fbae2"/>
    <path id="Path_1213" data-name="Path 1213" d="M45.3,430.957l126.777-72.99V26.1L45.3,99.135Z" transform="translate(160.837 92.668)" fill="#f2f2f2"/>
    <path id="Path_1214" data-name="Path 1214" d="M45.3,168.188,172.077,95.153V58.84L45.3,131.784Z" transform="translate(160.837 208.911)" fill="#ef476f"/>
    <path id="Path_1215" data-name="Path 1215" d="M28.63,32.53l75.857,43.776V408.127L28.63,364.579Z" transform="translate(101.651 115.497)" fill="#9fbae2"/>
    <path id="Path_1216" data-name="Path 1216" d="M231.263,60.469,155.407,16.42,28.63,89.728l75.857,43.821Z" transform="translate(101.651 58.299)" fill="#fff"/>
    <path id="Path_1217" data-name="Path 1217" d="M67.654,70.94,50.59,80.815V106.07l17.064-9.829Z" transform="translate(179.619 251.872)" fill="#06d6a0"/>
    <path id="Path_1218" data-name="Path 1218" d="M46.46,83.895v25.3l18.794-10.83V73.11Z" transform="translate(164.956 259.576)" fill="#262626"/>
    <path id="Path_1219" data-name="Path 1219" d="M50.659,77.12,48.52,78.349v7.918l2.139-1.229Z" transform="translate(172.27 273.814)" fill="#262626"/>
    <path id="Path_1220" data-name="Path 1220" d="M60.958,74.06,47.17,81.978v1.957l13.788-7.918Z" transform="translate(167.477 262.949)" fill="#373738"/>
    <path id="Path_1221" data-name="Path 1221" d="M60.958,75.02,47.17,82.938V87.67l13.788-7.918Z" transform="translate(167.477 266.358)" fill="#373738"/>
    <path id="Path_1222" data-name="Path 1222" d="M63.892,71.78,51.06,79.152v8.782l12.832-7.372Z" transform="translate(181.288 254.854)" fill="#262626"/>
    <path id="Path_1223" data-name="Path 1223" d="M53.378,76.6a2.412,2.412,0,0,1-1,1.911c-.592.319-1.047,0-1.047-.774a2.366,2.366,0,0,1,1.047-1.911C52.923,75.507,53.378,75.826,53.378,76.6Z" transform="translate(182.247 268.783)" fill="#fff"/>
    <path id="Path_1224" data-name="Path 1224" d="M54.282,76.049a2.412,2.412,0,0,1-1,1.911c-.546.319-1,0-1-.774a2.412,2.412,0,0,1,1-1.911C53.827,74.957,54.282,75.275,54.282,76.049Z" transform="translate(185.62 266.83)" fill="#fff"/>
    <path id="Path_1225" data-name="Path 1225" d="M55.228,75.529a2.366,2.366,0,0,1-1.047,1.911c-.546.319-1,0-1-.774a2.412,2.412,0,0,1,1-1.911C54.773,74.437,55.228,74.756,55.228,75.529Z" transform="translate(188.815 264.984)" fill="#fff"/>
    <path id="Path_1226" data-name="Path 1226" d="M53.378,77.754a2.412,2.412,0,0,1-1,1.911c-.592.319-1.047,0-1.047-.728a2.366,2.366,0,0,1,1.047-1.957C52.923,76.662,53.378,77.026,53.378,77.754Z" transform="translate(182.247 272.907)" fill="#fff"/>
    <path id="Path_1227" data-name="Path 1227" d="M54.282,77.2a2.412,2.412,0,0,1-1,1.911c-.546.319-1,0-1-.728a2.457,2.457,0,0,1,1-1.957C53.827,76.112,54.282,76.476,54.282,77.2Z" transform="translate(185.62 270.954)" fill="#fff"/>
    <path id="Path_1228" data-name="Path 1228" d="M55.228,76.714a2.366,2.366,0,0,1-1.047,1.911c-.546.319-1,0-1-.728a2.457,2.457,0,0,1,1-1.957C54.773,75.577,55.228,75.941,55.228,76.714Z" transform="translate(188.815 269.123)" fill="#fff"/>
    <path id="Path_1229" data-name="Path 1229" d="M85.17,60.85,68.06,70.679v25.3l17.11-9.829Z" transform="translate(241.646 216.047)" fill="#6387ce"/>
    <path id="Path_1230" data-name="Path 1230" d="M63.94,73.84V99.1L82.688,88.311V63.01Z" transform="translate(227.018 223.716)" fill="#262626"/>
    <path id="Path_1231" data-name="Path 1231" d="M68.139,67.03,66,68.259v7.918l2.139-1.229Z" transform="translate(234.332 237.989)" fill="#262626"/>
    <path id="Path_1232" data-name="Path 1232" d="M78.438,63.97,64.65,71.888v1.957l13.788-7.918Z" transform="translate(229.539 227.125)" fill="#373738"/>
    <path id="Path_1233" data-name="Path 1233" d="M78.438,64.93,64.65,72.848V77.58l13.788-7.918Z" transform="translate(229.539 230.533)" fill="#373738"/>
    <path id="Path_1234" data-name="Path 1234" d="M81.372,61.69,68.54,69.062v8.782l12.832-7.372Z" transform="translate(243.351 219.03)" fill="#262626"/>
    <path id="Path_1235" data-name="Path 1235" d="M70.858,66.509a2.366,2.366,0,0,1-1.047,1.911c-.546.319-1,0-1-.774a2.412,2.412,0,0,1,1-1.911C70.4,65.417,70.858,65.736,70.858,66.509Z" transform="translate(244.309 232.959)" fill="#fff"/>
    <path id="Path_1236" data-name="Path 1236" d="M71.8,65.99a2.412,2.412,0,0,1-1,1.911c-.592.319-1.047,0-1.047-.774A2.366,2.366,0,0,1,70.8,65.216C71.343,64.807,71.8,65.216,71.8,65.99Z" transform="translate(247.647 230.975)" fill="#fff"/>
    <path id="Path_1237" data-name="Path 1237" d="M72.662,65.394a2.457,2.457,0,0,1-1,1.957c-.546.319-1,0-1-.774a2.412,2.412,0,0,1,1-1.911C72.207,64.348,72.662,64.666,72.662,65.394Z" transform="translate(250.878 229.159)" fill="#fff"/>
    <path id="Path_1238" data-name="Path 1238" d="M70.864,67.8a2.366,2.366,0,0,1-1.047,1.911c-.546.319-1,0-1-.774a2.411,2.411,0,0,1,.865-2.048C70.409,66.57,70.864,66.934,70.864,67.8Z" transform="translate(244.303 237.084)" fill="#fff"/>
    <path id="Path_1239" data-name="Path 1239" d="M71.8,67.114a2.412,2.412,0,0,1-1,1.911c-.592.319-1.047,0-1.047-.774A2.366,2.366,0,0,1,70.8,66.34C71.343,66.022,71.8,66.386,71.8,67.114Z" transform="translate(247.647 235.13)" fill="#fff"/>
    <path id="Path_1240" data-name="Path 1240" d="M72.662,66.594a2.412,2.412,0,0,1-1,1.911c-.546.319-1,0-1-.774a2.412,2.412,0,0,1,1-1.911C72.207,65.5,72.662,65.866,72.662,66.594Z" transform="translate(250.878 233.283)" fill="#fff"/>
    <path id="Path_1241" data-name="Path 1241" d="M134.171,112.826c0,30.4-18.475,65.755-41.318,78.905s-41.273-.819-41.273-31.216S70.055,94.761,92.853,81.564,134.171,82.384,134.171,112.826Z" transform="translate(183.134 271.963)" fill="#262626"/>
    <path id="Path_1242" data-name="Path 1242" d="M110.317,78.678l-3-1.638L54.71,192.3l4.414,2.412Z" transform="translate(194.247 273.53)" fill="#262626"/>
    <path id="Path_1243" data-name="Path 1243" d="M134.807,113.186c0,30.443-18.52,65.755-41.318,78.951s-41.318-.819-41.318-31.262,18.521-65.755,41.318-79S134.807,82.789,134.807,113.186Z" transform="translate(185.229 273.06)" fill="#373738"/>
    <path id="Path_1244" data-name="Path 1244" d="M93.377,79.58c7.6,3.731,12.514,13.333,12.514,27.3,0,24.436-14.835,52.786-33.173,63.388A24.846,24.846,0,0,1,56.7,174a21.66,21.66,0,0,0,20.7-2.275c18.2-10.557,33.173-38.952,33.173-63.388C110.578,91.73,103.57,81.218,93.377,79.58Z" transform="translate(201.313 282.548)" fill="#262626"/>
    <path id="Path_1245" data-name="Path 1245" d="M87.588,83.084,55.416,133.139a68.26,68.26,0,0,0-1.456,13.651v.819L97.827,79.58A28.259,28.259,0,0,0,87.588,83.084Z" transform="translate(191.584 282.548)" fill="none"/>
    <path id="Path_1246" data-name="Path 1246" d="M104.694,80,54.32,157.9a22.252,22.252,0,0,0,10.83,14.653,24.845,24.845,0,0,0,16.018-3.731c18.2-10.6,33.173-38.952,33.173-63.388C114.341,93.287,110.655,84.55,104.694,80Z" transform="translate(192.863 284.039)" fill="#f2c81f"/>
    <path id="Path_1247" data-name="Path 1247" d="M102.963,79.713a20.475,20.475,0,0,0-5.279,0L54,147.652a46.869,46.869,0,0,0,1.593,11.877l50.237-77.9A18.745,18.745,0,0,0,102.963,79.713Z" transform="translate(191.726 282.415)" fill="none"/>
    <path id="Path_1248" data-name="Path 1248" d="M86.1,80.72c-14.971,8.646-27.576,29.123-31.853,49.646L86.422,80.31Z" transform="translate(192.614 285.14)" fill="none"/>
    <path id="Path_1249" data-name="Path 1249" d="M48.76,121.535,74.2,106.928,81.432,85.04,48.76,103.833Z" transform="translate(173.122 301.934)" fill="#373738"/>
    <path id="Path_1250" data-name="Path 1250" d="M50.855,90.413,48.17,88.82v17.747l2.685,1.547Z" transform="translate(171.027 315.355)" fill="#262626"/>
    <path id="Path_1251" data-name="Path 1251" d="M77.248,87.037,74.472,85.49l-26.3,15.153,2.685,1.593Z" transform="translate(171.027 303.531)" fill="#817680"/>
    <path id="Path_1252" data-name="Path 1252" d="M48.76,125.913,74.2,111.26,67.007,97.7,48.76,108.166Z" transform="translate(173.122 346.883)" fill="#373738"/>
    <path id="Path_1253" data-name="Path 1253" d="M50.855,101.207,48.17,99.66v17.7l2.685,1.593Z" transform="translate(171.027 353.842)" fill="#262626"/>
    <path id="Path_1254" data-name="Path 1254" d="M67.373,99.173,64.688,97.58,48.17,107.045l2.685,1.547Z" transform="translate(171.027 346.457)" fill="#817680"/>
    <path id="Path_1255" data-name="Path 1255" d="M55.61,85.22v20.113L87.691,86.9V66.7Z" transform="translate(197.443 236.818)" fill="#fff"/>
    <path id="Path_1256" data-name="Path 1256" d="M55.92,79.4V91.14L74.668,80.356V68.57Z" transform="translate(198.543 243.457)" fill="#373738"/>
    <path id="Path_1257" data-name="Path 1257" d="M60.52,71.835V88.08L68.3,83.621V67.33Z" transform="translate(214.876 239.054)" fill="#373738"/>
    <path id="Path_1258" data-name="Path 1258" d="M85.19,70.545V87.837l-17.61,10.1v2.867L87.511,89.339V69.18Z" transform="translate(239.942 245.623)" fill="#373738"/>
    <path id="Path_1259" data-name="Path 1259" d="M85.19,69.48,67.58,79.628V96.874l17.61-10.1Z" transform="translate(239.942 246.688)" fill="#262626"/>
    <path id="Path_1260" data-name="Path 1260" d="M87.511,74.782l-2.321-1.5-17.61,10.1v2.867Z" transform="translate(239.942 260.18)" fill="#776973"/>
    <path id="Path_1261" data-name="Path 1261" d="M73.782,73.808a5.779,5.779,0,0,1-2.366,4.551c-1.32.774-2.366,0-2.366-1.82a5.643,5.643,0,0,1,2.366-4.55C72.69,71.259,73.782,72.078,73.782,73.808Z" transform="translate(245.161 254.647)" fill="#373738"/>
    <path id="Path_1262" data-name="Path 1262" d="M63.219,80.49,48.93,88.726v16.518l14.289-8.191Z" transform="translate(173.725 285.779)" fill="#fff"/>
    <path id="Path_1263" data-name="Path 1263" d="M50.09,94.291l2.73-6.143a7.462,7.462,0,0,0,.956-3.185c0-1.047-.5-1.274-1.183-.865a4.234,4.234,0,0,0-.819.592,1.047,1.047,0,0,0-.273.819v1.274l-1.365.683V84.553a10.1,10.1,0,0,1,2.73-2.457c1.729-.956,2.639,0,2.639,1.729a10.33,10.33,0,0,1-1.183,4.141l-2.184,4.55,3.413-2v1.82l-5.461,3.14Z" transform="translate(177.844 290.135)" fill="#262626"/>
    <path id="Path_1264" data-name="Path 1264" d="M134.171,72.822c0,30.4-18.475,65.755-41.318,78.905s-41.273-.774-41.273-31.216S70.055,54.756,92.853,41.605,134.171,42.379,134.171,72.822Z" transform="translate(183.134 130.13)" fill="#262626"/>
    <path id="Path_1265" data-name="Path 1265" d="M110.317,38.728l-3-1.638L54.71,152.354l4.414,2.366Z" transform="translate(194.247 131.688)" fill="#262626"/>
    <path id="Path_1266" data-name="Path 1266" d="M134.807,73.257c0,30.4-18.52,65.755-41.318,78.905s-41.318-.819-41.318-31.216S70.69,55.373,93.488,41.995,134.807,42.814,134.807,73.257Z" transform="translate(185.229 131.197)" fill="#373738"/>
    <path id="Path_1267" data-name="Path 1267" d="M93.377,39.62c7.6,3.731,12.514,13.378,12.514,27.3,0,24.436-14.835,52.831-33.173,63.388A24.3,24.3,0,0,1,56.7,134.043a21.751,21.751,0,0,0,20.7-2.23c18.2-10.6,33.173-38.952,33.173-63.388C110.578,51.77,103.57,41.349,93.377,39.62Z" transform="translate(201.313 140.67)" fill="#262626"/>
    <path id="Path_1268" data-name="Path 1268" d="M87.588,43.134,55.416,93.189a67.849,67.849,0,0,0-1.456,13.651v.774L97.827,39.63A27.3,27.3,0,0,0,87.588,43.134Z" transform="translate(191.584 140.706)" fill="none"/>
    <path id="Path_1269" data-name="Path 1269" d="M104.694,40,54.32,118.086a22.161,22.161,0,0,0,10.83,14.653,24.3,24.3,0,0,0,16.018-3.731c18.2-10.557,33.173-38.952,33.173-63.388C114.341,53.651,110.655,44.55,104.694,40Z" transform="translate(192.863 142.02)" fill="#f2c81f"/>
    <path id="Path_1270" data-name="Path 1270" d="M102.963,39.753a20.568,20.568,0,0,0-5.279,0L54,107.691a46.28,46.28,0,0,0,1.593,11.877L105.83,41.482A19.024,19.024,0,0,0,102.963,39.753Z" transform="translate(191.726 140.538)" fill="none"/>
    <path id="Path_1271" data-name="Path 1271" d="M86.1,40.77C71.132,49.37,58.527,69.893,54.25,90.415L86.422,40.36Z" transform="translate(192.614 143.298)" fill="none"/>
    <path id="Path_1272" data-name="Path 1272" d="M48.76,81.62,74.2,66.968,81.432,45.08,48.76,63.873Z" transform="translate(173.122 160.056)" fill="#373738"/>
    <path id="Path_1273" data-name="Path 1273" d="M50.855,50.417,48.17,48.87v17.7l2.685,1.593Z" transform="translate(171.027 173.512)" fill="#262626"/>
    <path id="Path_1274" data-name="Path 1274" d="M77.248,47.087,74.472,45.54,48.17,60.693l2.685,1.547Z" transform="translate(171.027 161.689)" fill="#817680"/>
    <path id="Path_1275" data-name="Path 1275" d="M48.76,85.953,74.2,71.346,67.007,57.74,48.76,68.252Z" transform="translate(173.122 205.005)" fill="#373738"/>
    <path id="Path_1276" data-name="Path 1276" d="M50.855,61.293,48.17,59.7V77.447l2.685,1.547Z" transform="translate(171.027 211.964)" fill="#262626"/>
    <path id="Path_1277" data-name="Path 1277" d="M67.373,59.213,64.688,57.62,48.17,67.085l2.685,1.593Z" transform="translate(171.027 204.579)" fill="#817680"/>
    <path id="Path_1278" data-name="Path 1278" d="M85.19,30.55V47.887l-17.61,10.1V60.81L87.511,49.389V29.23Z" transform="translate(239.942 103.781)" fill="#373738"/>
    <path id="Path_1279" data-name="Path 1279" d="M85.19,29.52,67.58,39.668V56.959l17.61-10.1Z" transform="translate(239.942 104.81)" fill="#262626"/>
    <path id="Path_1280" data-name="Path 1280" d="M87.511,34.832l-2.321-1.5-17.61,10.1v2.821Z" transform="translate(239.942 118.338)" fill="#776973"/>
    <path id="Path_1281" data-name="Path 1281" d="M73.782,33.848a5.688,5.688,0,0,1-2.366,4.55c-1.32.774-2.366,0-2.366-1.775a5.734,5.734,0,0,1,2.366-4.55C72.69,31.3,73.782,32.073,73.782,33.848Z" transform="translate(245.161 112.814)" fill="#373738"/>
    <path id="Path_1282" data-name="Path 1282" d="M63.219,40.53,48.93,48.766V65.33l14.289-8.236Z" transform="translate(173.725 143.901)" fill="#fff"/>
    <path id="Path_1283" data-name="Path 1283" d="M52.412,45.112l-1.638,2L50,46.067l2.5-3.5,1.365-.774V51.847l1.411-.774v1.593L50.5,55.4v-1.5l1.32-.865a.819.819,0,0,0,.41-.819Z" transform="translate(177.525 148.375)" fill="#262626"/>
    <path id="Path_1284" data-name="Path 1284" d="M36.93,79.06v45.232l30.124,17.292V96.443Z" transform="translate(131.12 280.702)" fill="#fff"/>
    <path id="Path_1285" data-name="Path 1285" d="M63.217,94.976,37.37,80.05v2.275L63.217,97.16Z" transform="translate(132.682 284.217)" fill="#262626"/>
    <path id="Path_1286" data-name="Path 1286" d="M63.217,96.036,37.37,81.11v34.4l25.847,14.835Z" transform="translate(132.682 287.98)" fill="#9fbae2"/>
    <path id="Path_1287" data-name="Path 1287" d="M31.19,79.97v39.5l21.114,12.1V92.165Z" transform="translate(110.74 283.933)" fill="#fff"/>
    <path id="Path_1288" data-name="Path 1288" d="M40.883,86.164,31.6,80.84V99.361l9.283,5.324Z" transform="translate(112.196 287.022)" fill="#9fbae2"/>
    <path id="Path_1289" data-name="Path 1289" d="M45.953,93.77,32.62,86.08V99.413l13.333,7.645Z" transform="translate(115.817 305.626)" fill="#9fbae2"/>
    <path id="Path_1290" data-name="Path 1290" d="M16.67,447.577l126.822-72.99V42.72L16.67,115.755Z" transform="translate(59.187 151.677)" fill="#f2f2f2"/>
    <path id="Path_1291" data-name="Path 1291" d="M16.67,184.808l126.822-73.035V75.46L16.67,148.45Z" transform="translate(59.187 267.92)" fill="#ef476f"/>
    <path id="Path_1292" data-name="Path 1292" d="M0,49.15,75.857,92.926V424.747L0,381.245Z" transform="translate(0 174.507)" fill="#f2f2f2"/>
    <path id="Path_1293" data-name="Path 1293" d="M202.679,77.053l-75.857-44L0,106.313l75.857,43.821Z" transform="translate(0 117.344)" fill="#fff"/>
    <path id="Path_1294" data-name="Path 1294" d="M39.024,87.56,21.96,97.435V122.69l17.064-9.829Z" transform="translate(77.969 310.881)" fill="#06d6a0"/>
    <path id="Path_1295" data-name="Path 1295" d="M17.83,100.515v25.3l18.794-10.83V89.73Z" transform="translate(63.305 318.586)" fill="#262626"/>
    <path id="Path_1296" data-name="Path 1296" d="M21.993,93.74,19.9,94.969v7.918l2.093-1.229Z" transform="translate(70.655 332.823)" fill="#262626"/>
    <path id="Path_1297" data-name="Path 1297" d="M32.292,90.68,18.55,98.6v1.957l13.742-7.918Z" transform="translate(65.862 321.958)" fill="#373738"/>
    <path id="Path_1298" data-name="Path 1298" d="M32.292,91.64,18.55,99.558v4.733l13.742-7.918Z" transform="translate(65.862 325.367)" fill="#373738"/>
    <path id="Path_1299" data-name="Path 1299" d="M35.272,88.4,22.44,95.817v8.737l12.832-7.372Z" transform="translate(79.673 313.863)" fill="#262626"/>
    <path id="Path_1300" data-name="Path 1300" d="M24.712,93.214a2.412,2.412,0,0,1-1,1.911c-.546.319-1,0-1-.774a2.412,2.412,0,0,1,1-1.911C24.257,92.122,24.712,92.486,24.712,93.214Z" transform="translate(80.632 327.797)" fill="#fff"/>
    <path id="Path_1301" data-name="Path 1301" d="M25.652,92.757a2.412,2.412,0,0,1-1,1.911c-.546.319-1,0-1-.774a2.412,2.412,0,0,1,1-1.911C25.243,91.529,25.652,91.893,25.652,92.757Z" transform="translate(83.969 325.888)" fill="#fff"/>
    <path id="Path_1302" data-name="Path 1302" d="M26.562,92.149a2.412,2.412,0,0,1-1,1.911c-.546.319-1,0-1-.774a2.412,2.412,0,0,1,1-1.911C26.107,91.057,26.562,91.376,26.562,92.149Z" transform="translate(87.2 323.993)" fill="#fff"/>
    <path id="Path_1303" data-name="Path 1303" d="M24.712,94.374a2.5,2.5,0,0,1-1,1.957c-.546.319-1,0-1-.774a2.5,2.5,0,0,1,1-1.957C24.257,93.282,24.712,93.646,24.712,94.374Z" transform="translate(80.632 331.916)" fill="#fff"/>
    <path id="Path_1304" data-name="Path 1304" d="M25.652,93.811a2.412,2.412,0,0,1-1,1.911c-.546.364-1,0-1-.728a2.5,2.5,0,0,1,1-1.957C25.243,92.719,25.652,93.219,25.652,93.811Z" transform="translate(83.969 329.976)" fill="#fff"/>
    <path id="Path_1305" data-name="Path 1305" d="M26.562,93.3a2.412,2.412,0,0,1-1,1.911c-.546.364-1,0-1-.728a2.457,2.457,0,0,1,1-1.957C26.107,92.212,26.562,92.576,26.562,93.3Z" transform="translate(87.2 328.117)" fill="#fff"/>
    <path id="Path_1306" data-name="Path 1306" d="M56.5,77.47,39.44,87.345V112.6L56.5,102.771Z" transform="translate(140.031 275.056)" fill="#06d6a0"/>
    <path id="Path_1307" data-name="Path 1307" d="M35.31,90.425V115.68L54.1,104.9V79.64Z" transform="translate(125.368 282.761)" fill="#262626"/>
    <path id="Path_1308" data-name="Path 1308" d="M39.473,83.65,37.38,84.879V92.8l2.093-1.229Z" transform="translate(132.717 296.999)" fill="#262626"/>
    <path id="Path_1309" data-name="Path 1309" d="M49.808,80.59,36.02,88.508v1.957l13.788-7.918Z" transform="translate(127.889 286.134)" fill="#373738"/>
    <path id="Path_1310" data-name="Path 1310" d="M49.808,81.55,36.02,89.468V94.2l13.788-7.918Z" transform="translate(127.889 289.542)" fill="#373738"/>
    <path id="Path_1311" data-name="Path 1311" d="M52.707,78.31,39.92,85.682v8.782l12.787-7.372Z" transform="translate(141.736 278.039)" fill="#262626"/>
    <path id="Path_1312" data-name="Path 1312" d="M42.192,83.129a2.412,2.412,0,0,1-1,1.911c-.546.319-1,0-1-.774a2.412,2.412,0,0,1,1-1.911C41.737,82.037,42.192,82.356,42.192,83.129Z" transform="translate(142.694 291.968)" fill="#fff"/>
    <path id="Path_1313" data-name="Path 1313" d="M43.132,82.579a2.412,2.412,0,0,1-1,1.911c-.546.319-1,0-1-.774a2.412,2.412,0,0,1,1-1.911C42.677,81.487,43.132,81.805,43.132,82.579Z" transform="translate(146.032 290.015)" fill="#fff"/>
    <path id="Path_1314" data-name="Path 1314" d="M44.042,82.059a2.412,2.412,0,0,1-1,1.911c-.592.319-1,0-1-.774a2.321,2.321,0,0,1,1-1.911C43.587,80.967,44.042,81.286,44.042,82.059Z" transform="translate(149.263 288.169)" fill="#fff"/>
    <path id="Path_1315" data-name="Path 1315" d="M42.192,84.284a2.412,2.412,0,0,1-1,1.911c-.546.319-1,0-1-.728a2.457,2.457,0,0,1,1-1.957C41.737,83.192,42.192,83.556,42.192,84.284Z" transform="translate(142.694 296.091)" fill="#fff"/>
    <path id="Path_1316" data-name="Path 1316" d="M43.132,83.626a2.412,2.412,0,0,1-1,1.911c-.546.319-1,0-1-.728a2.457,2.457,0,0,1,1-1.957A.774.774,0,0,1,43.132,83.626Z" transform="translate(146.032 294.065)" fill="#fff"/>
    <path id="Path_1317" data-name="Path 1317" d="M44.043,83.214a2.412,2.412,0,0,1-1,1.911c-.592.319-1,0-1-.728a2.321,2.321,0,0,1,1-1.957C43.588,82.122,44.043,82.486,44.043,83.214Z" transform="translate(149.262 292.292)" fill="#fff"/>
    <path id="Path_1318" data-name="Path 1318" d="M105.364,129.446c0,30.4-18.475,65.755-41.273,78.905S23,207.533,23,177.135s18.2-65.755,40.954-78.951S105.364,99,105.364,129.446Z" transform="translate(81.661 330.972)" fill="#262626"/>
    <path id="Path_1319" data-name="Path 1319" d="M81.732,95.344,78.684,93.66,26.08,208.969l4.414,2.366Z" transform="translate(92.597 332.539)" fill="#262626"/>
    <ellipse id="Ellipse_71" data-name="Ellipse 71" cx="63.434" cy="35.858" rx="63.434" ry="35.858" transform="matrix(0.392, -0.92, 0.92, 0.392, 90.604, 530.078)" fill="#373738"/>
    <path id="Path_1320" data-name="Path 1320" d="M64.757,96.2c7.6,3.731,12.468,13.333,12.468,27.3,0,24.436-14.835,52.786-33.173,63.388a24.436,24.436,0,0,1-15.972,3.731,21.569,21.569,0,0,0,20.659-2.275C66.941,177.79,81.912,149.4,81.912,125,81.912,108.35,75,97.838,64.757,96.2Z" transform="translate(99.698 341.557)" fill="#262626"/>
    <path id="Path_1321" data-name="Path 1321" d="M59,99.8,26.786,149.86a72.033,72.033,0,0,0-1.456,13.651q0,.41,0,.819l44-68.121A27.029,27.029,0,0,0,59,99.8Z" transform="translate(89.934 341.593)" fill="none"/>
    <path id="Path_1322" data-name="Path 1322" d="M76.074,96.6,25.7,174.6A22.116,22.116,0,0,0,36.53,189.43,24.437,24.437,0,0,0,52.5,185.7c18.2-10.6,33.173-38.952,33.173-63.388C85.675,109.978,81.99,101.15,76.074,96.6Z" transform="translate(91.248 342.977)" fill="#f2c81f"/>
    <path id="Path_1323" data-name="Path 1323" d="M74.485,96.346a18.7,18.7,0,0,0-5.279,0L25.34,164.239a44.822,44.822,0,0,0,1.638,11.877l50.374-77.95a16.022,16.022,0,0,0-2.867-1.82Z" transform="translate(89.969 341.411)" fill="none"/>
    <path id="Path_1324" data-name="Path 1324" d="M57.473,97.355c-14.926,8.6-27.576,29.078-31.853,49.6L57.837,96.9Z" transform="translate(90.964 344.043)" fill="none"/>
    <path id="Path_1325" data-name="Path 1325" d="M20.13,138.2l25.437-14.653L52.8,101.66,20.13,120.454Z" transform="translate(71.471 360.943)" fill="#373738"/>
    <path id="Path_1326" data-name="Path 1326" d="M22.225,107.033,19.54,105.44v17.747l2.685,1.593Z" transform="translate(69.377 374.364)" fill="#262626"/>
    <path id="Path_1327" data-name="Path 1327" d="M48.618,103.657l-2.73-1.547L19.54,117.263l2.685,1.593Z" transform="translate(69.377 362.541)" fill="#817680"/>
    <path id="Path_1328" data-name="Path 1328" d="M20.13,142.533,45.567,127.88l-7.144-13.56L20.13,124.832Z" transform="translate(71.471 405.892)" fill="#373738"/>
    <path id="Path_1329" data-name="Path 1329" d="M22.225,117.873,19.54,116.28v17.7l2.685,1.593Z" transform="translate(69.377 412.851)" fill="#262626"/>
    <path id="Path_1330" data-name="Path 1330" d="M38.743,115.793,36.1,114.2,19.54,123.665l2.685,1.593Z" transform="translate(69.377 405.466)" fill="#817680"/>
    <path id="Path_1331" data-name="Path 1331" d="M26.99,101.84v20.113l32.081-18.429V83.32Z" transform="translate(95.828 295.827)" fill="#fff"/>
    <path id="Path_1332" data-name="Path 1332" d="M27.29,96.02v11.74L46.083,96.976V85.19Z" transform="translate(96.893 302.466)" fill="#373738"/>
    <path id="Path_1333" data-name="Path 1333" d="M31.9,88.419v16.245l7.736-4.46V83.96Z" transform="translate(113.261 298.099)" fill="#373738"/>
    <path id="Path_1334" data-name="Path 1334" d="M56.56,87.165v17.292l-17.61,10.1v2.867l19.931-11.467V85.8Z" transform="translate(138.292 304.632)" fill="#373738"/>
    <path id="Path_1335" data-name="Path 1335" d="M56.56,86.1,38.95,96.248v17.246l17.61-10.1Z" transform="translate(138.292 305.697)" fill="#262626"/>
    <path id="Path_1336" data-name="Path 1336" d="M58.881,91.4,56.56,89.9,38.95,100v2.867Z" transform="translate(138.292 319.189)" fill="#776973"/>
    <path id="Path_1337" data-name="Path 1337" d="M45.152,90.413a5.688,5.688,0,0,1-2.366,4.551c-1.32.774-2.366,0-2.366-1.775a5.688,5.688,0,0,1,2.366-4.55C44.106,87.865,45.152,88.684,45.152,90.413Z" transform="translate(143.511 313.671)" fill="#373738"/>
    <path id="Path_1338" data-name="Path 1338" d="M34.589,97.11,20.3,105.346v16.518l14.289-8.191Z" transform="translate(72.075 344.788)" fill="#fff"/>
    <path id="Path_1339" data-name="Path 1339" d="M21.46,110.814l2.73-6.189a7.462,7.462,0,0,0,.956-3.14c0-1.092-.5-1.32-1.138-.91a3.459,3.459,0,0,0-.819.592.91.91,0,0,0-.273.819v1.274l-1.411.683v-2.73a11.1,11.1,0,0,1,2.776-2.457c1.684-.956,2.594,0,2.594,1.729a10.376,10.376,0,0,1-1.138,4.186l-2.23,4.551,3.413-2v1.82l-5.461,3.185Z" transform="translate(76.194 349.286)" fill="#262626"/>
    <ellipse id="Ellipse_72" data-name="Ellipse 72" cx="63.434" cy="35.858" rx="63.434" ry="35.858" transform="matrix(0.392, -0.92, 0.92, 0.392, 87.896, 346.748)" fill="#262626"/>
    <path id="Path_1340" data-name="Path 1340" d="M81.732,55.348,78.684,53.71,26.08,168.974l4.414,2.366Z" transform="translate(92.597 190.697)" fill="#262626"/>
    <ellipse id="Ellipse_73" data-name="Ellipse 73" cx="63.434" cy="35.858" rx="63.434" ry="35.858" transform="matrix(0.392, -0.92, 0.92, 0.392, 90.602, 348.278)" fill="#373738"/>
    <path id="Path_1341" data-name="Path 1341" d="M64.757,56.25c7.6,3.686,12.468,13.333,12.468,27.3,0,24.436-14.835,52.831-33.173,63.388a24.163,24.163,0,0,1-15.972,3.731,21.66,21.66,0,0,0,20.659-2.23c18.2-10.6,33.173-38.952,33.173-63.388C81.912,68.354,75,57.843,64.757,56.25Z" transform="translate(99.698 199.715)" fill="#262626"/>
    <path id="Path_1342" data-name="Path 1342" d="M59,59.663,26.786,109.718A71.258,71.258,0,0,0,25.33,123.37c0,.273,0,.5,0,.774l44-67.893A27.3,27.3,0,0,0,59,59.663Z" transform="translate(89.934 199.715)" fill="none"/>
    <path id="Path_1343" data-name="Path 1343" d="M76.074,56.64l-50.374,78a22.025,22.025,0,0,0,10.83,14.653A24.163,24.163,0,0,0,52.5,145.557C70.7,135,85.675,106.6,85.675,82.168,85.675,70.018,81.99,61.19,76.074,56.64Z" transform="translate(91.248 201.1)" fill="#f2c81f"/>
    <path id="Path_1344" data-name="Path 1344" d="M74.485,56.4a18.656,18.656,0,0,0-5.279,0L25.34,124.29a44.322,44.322,0,0,0,1.638,11.877l50.374-78A15.744,15.744,0,0,0,74.485,56.4Z" transform="translate(89.969 199.569)" fill="none"/>
    <path id="Path_1345" data-name="Path 1345" d="M57.473,57.39C42.548,66.035,29.9,86.513,25.62,107.035L57.837,56.98Z" transform="translate(90.964 202.307)" fill="none"/>
    <path id="Path_1346" data-name="Path 1346" d="M20.13,98.24,45.567,83.588,52.8,61.7,20.13,80.539Z" transform="translate(71.471 219.065)" fill="#373738"/>
    <path id="Path_1347" data-name="Path 1347" d="M22.225,67.083,19.54,65.49v17.7l2.685,1.593Z" transform="translate(69.377 232.522)" fill="#262626"/>
    <path id="Path_1348" data-name="Path 1348" d="M48.618,63.707l-2.73-1.547L19.54,77.313l2.685,1.593Z" transform="translate(69.377 220.698)" fill="#817680"/>
    <path id="Path_1349" data-name="Path 1349" d="M20.13,102.537,45.567,87.93,38.423,74.37,20.13,84.836Z" transform="translate(71.471 264.05)" fill="#373738"/>
    <path id="Path_1350" data-name="Path 1350" d="M22.225,77.913,19.54,76.32V94.067l2.685,1.547Z" transform="translate(69.377 270.973)" fill="#262626"/>
    <path id="Path_1351" data-name="Path 1351" d="M38.743,75.8,36.1,74.25,19.54,83.669l2.685,1.593Z" transform="translate(69.377 263.624)" fill="#817680"/>
    <path id="Path_1352" data-name="Path 1352" d="M56.56,47.17V64.507l-17.61,10.1V77.43L58.881,66.009V45.85Z" transform="translate(138.292 162.79)" fill="#373738"/>
    <path id="Path_1353" data-name="Path 1353" d="M56.56,46.14,38.95,56.288V73.579l17.61-10.1Z" transform="translate(138.292 163.82)" fill="#262626"/>
    <path id="Path_1354" data-name="Path 1354" d="M58.881,51.452l-2.321-1.5-17.61,10.1v2.821Z" transform="translate(138.292 177.347)" fill="#776973"/>
    <path id="Path_1355" data-name="Path 1355" d="M45.152,50.468a5.6,5.6,0,0,1-2.366,4.55c-1.32.774-2.366,0-2.366-1.775a5.734,5.734,0,0,1,2.366-4.55C44.106,47.92,45.152,48.693,45.152,50.468Z" transform="translate(143.511 171.823)" fill="#373738"/>
    <path id="Path_1356" data-name="Path 1356" d="M34.589,57.15,20.3,65.432V81.95l14.289-8.191Z" transform="translate(72.075 202.911)" fill="#fff"/>
    <path id="Path_1357" data-name="Path 1357" d="M23.6,61.732,22.012,63.78l-.592-1.092,2.457-3.5,1.365-.774V68.558l1.411-.728v1.547l-4.778,2.73v-1.5l1.32-.865c.273,0,.41-.364.41-.819Z" transform="translate(76.052 207.384)" fill="#262626"/>
    <path id="Path_1358" data-name="Path 1358" d="M8.31,95.69v45.232l30.079,17.246V113.027Z" transform="translate(29.505 339.746)" fill="#fff"/>
    <path id="Path_1359" data-name="Path 1359" d="M34.632,111.6,8.74,96.67v2.275L34.632,113.78Z" transform="translate(31.031 343.226)" fill="#262626"/>
    <path id="Path_1360" data-name="Path 1360" d="M34.632,112.656,8.74,97.73v34.4l25.892,14.88Z" transform="translate(31.031 346.989)" fill="#ccc"/>
    <path id="Path_1361" data-name="Path 1361" d="M2.57,96.59v39.5l21.114,12.1V108.785Z" transform="translate(9.125 342.942)" fill="#fff"/>
    <path id="Path_1362" data-name="Path 1362" d="M12.217,102.83,2.98,97.46v18.52l9.237,5.324Z" transform="translate(10.58 346.031)" fill="#ccc"/>
    <path id="Path_1363" data-name="Path 1363" d="M17.323,110.39,3.99,102.7v13.333l13.333,7.645Z" transform="translate(14.166 364.635)" fill="#ccc"/>
    <path id="Path_1364" data-name="Path 1364" d="M89,67.794c0-3.185-7.144-9.738-9.374-11.558-1.138-.91-2.093-1-1.638.364s2.139,2.321,1.638,2.912-2.639-1.183-6.28-2.685c-5.324-2.184-8.145,1.047-5.1,5.461A94.741,94.741,0,0,0,82.992,72.8S89.044,70.206,89,67.794Z" transform="translate(237.863 197.272)" fill="#ffc2b0"/>
    <path id="Path_1365" data-name="Path 1365" d="M77.435,57.46c-6.189,0-7.235,8.191-7.235,8.191s7.235,9.374,14.744,17.929a345.813,345.813,0,0,1,19.613,29.942l8.555-15.745A152.029,152.029,0,0,0,93.953,72.75C85.808,65.651,81.121,60.736,77.435,57.46Z" transform="translate(249.244 204.011)" fill="#ffb8b8"/>
    <path id="Path_1366" data-name="Path 1366" d="M101.236,80.8a65.486,65.486,0,0,1,7.1-12.332L100.69,62.14l2.776-1.274,8.737,3.458a45.5,45.5,0,0,0-2.776-4.551,15.017,15.017,0,0,0-17.792-4.05,59.157,59.157,0,0,0-18.2,9.1c-6.1,5.188-8.282,27.3-9.1,35.084s-3.731,33.4-3.731,33.4,2.275,4.55,10.466,0l3.777-2.139c0-9.465.364-29.624.319-34.766a47.6,47.6,0,0,1,6.325-21.3,31.854,31.854,0,0,1,11.6-6.6l-2.048,3.276A16.246,16.246,0,0,0,88.722,77.2a131.552,131.552,0,0,0-3.959,28.35c.956,9.42,1.82,37.405,1.82,37.405s5.552,4.55,7.6,3.458c1.092-.592,5.779-3.5,10.057-6.189-.637-12.65-1.138-34.265-1.82-34.857s-4.55,5.87-5.415,4.915-.319-5.415,3.231-9.693.364-4.55-1.638-3.322S95.32,98.68,97,95.768,99.734,84.573,101.236,80.8Z" transform="translate(215.16 193.006)" fill="#3d62ad"/>
    <path id="Path_1367" data-name="Path 1367" d="M81.937,57.46a31.853,31.853,0,0,0-11.6,6.6,47.6,47.6,0,0,0-6.325,21.3c0,5.142,0,25.3-.319,34.766,5.1-2.912,6.644-3.731,6.644-3.731S66.966,77.664,71.653,71.7a42.778,42.778,0,0,1,5.916-5.552,16.244,16.244,0,0,1,2.321-5.415Z" transform="translate(226.131 204.011)" fill="#31599b"/>
    <path id="Path_1368" data-name="Path 1368" d="M78.814,80.954a28.486,28.486,0,0,1,3.367-12.423,5.642,5.642,0,0,1,4.232-3s.819-1.684-1.638-6.28L75.947,55.79l-2.776,1.274,7.645,6.325a65.485,65.485,0,0,0-7.1,12.332c-1.5,3.868-2.73,12.059-4.551,14.926s-.41,2.912,1.593,1.5,5.233-1,1.638,3.322-4.05,8.737-3.231,9.693,4.55-5.779,5.415-4.915,1.183,22.206,1.82,34.857l7.645-4.55S78.723,87.78,78.814,80.954Z" transform="translate(242.588 198.082)" fill="#31599b"/>
    <path id="Path_1369" data-name="Path 1369" d="M105.491,126.555c-1.411,3.367-4.55,3.049-11.285.683a55.971,55.971,0,0,1-14.926-7.6c-4.186-3.094-4.232-3.5-4.55-5.6-.774-2.912,3.5-4.55,10.6-2.366l1.957.637a4.277,4.277,0,0,0-3.231,1.775c-1.32,2.457,2.73,5.051,7.008,7.19a11.877,11.877,0,0,0,9.829,1.138l4.55-2.048C105.764,123.188,106.356,124.507,105.491,126.555Z" transform="translate(265.009 392.929)" fill="#373738"/>
    <path id="Path_1370" data-name="Path 1370" d="M93.94,116.255h0c0,.592,0-5.233-.319-12.6a59.658,59.658,0,0,1-15.608,4.55c.455,3.322.956,6.553,1.456,9.647,1.183,14.107,2.23,32.445,2.23,32.445a58.1,58.1,0,0,0-5.87-2.184,4.141,4.141,0,0,0-3.231,1.82c-1.32,2.412,2.73,5.006,6.962,7.144a11.968,11.968,0,0,0,9.875,1.138l4.55-2.048a33.125,33.125,0,0,1,0-8.327,313.455,313.455,0,0,0-.045-31.58Z" transform="translate(256.857 368.008)" fill="#ffb8b8"/>
    <path id="Path_1371" data-name="Path 1371" d="M98.973,108.474a33.142,33.142,0,0,1,.546-5.734,40.272,40.272,0,0,1-15.472,1.82c.319,5.643.592,10.83.774,13.97.683,10.557,1.138,24.209,1.138,24.209a58.109,58.109,0,0,0-5.87-2.184,4.277,4.277,0,0,0-3.231,1.775c-1.32,2.457,2.73,5.051,7.008,7.19a11.877,11.877,0,0,0,9.829,1.138l4.55-2.048a33.4,33.4,0,0,1,0-8.373C98.746,133.865,98.518,114.435,98.973,108.474Z" transform="translate(271.983 364.777)" fill="#ffb8b8"/>
    <path id="Path_1372" data-name="Path 1372" d="M101.409,128.87c-1.411,3.413-4.55,3.094-11.331.683A56.335,56.335,0,0,1,75.2,122c-4.186-3.094-4.232-3.5-4.778-5.6-.774-2.912,3.5-4.55,10.6-2.366l1.957.637a4.141,4.141,0,0,0-3.231,1.82c-1.32,2.412,2.73,5.006,6.962,7.144a11.968,11.968,0,0,0,9.875,1.138l4.55-2.048C101.682,125.5,102.274,126.822,101.409,128.87Z" transform="translate(249.707 401.308)" fill="#373738"/>
    <path id="Path_1373" data-name="Path 1373" d="M116.467,159.768c-.774,10.785-1.82,47.78-3,54.606a14.425,14.425,0,0,1-16.882-2.5c0-10.466,1.411-33.856,1.138-43.275-.319-10.284,2.093-34.447,1.775-39.453a85.822,85.822,0,0,0-5.688,30.716c-1.32,26.256.819,61.068.546,66.847-7.963,2.139-11.922,1-14.789-2.457,0-2.093-6.962-52.467-6.962-55.652,0-13.2,2.412-58.565,4.55-68.257,1.365-6.371,2.184-14.106,2.184-14.106l31.489-3.822s0-3.14,5.688,9.875a58.519,58.519,0,0,1,2.366,31.853C118.15,128.824,116.6,155.718,116.467,159.768Z" transform="translate(257.766 291.413)" fill="#373738"/>
    <path id="Path_1374" data-name="Path 1374" d="M84.793,62.977c-1.638,1.138-8.373.91-10.057,14.425-1.547,12.013,1.957,13.105,4.55,14.107,1.365.546,6.234,2.184,6.234,2.184l-.546,12.1a17.429,17.429,0,0,0,11.649,0l5.688-2.366a19.977,19.977,0,0,1-1.866-10.466c.455-8.191,3.367-19.931,1.32-24.254a11.786,11.786,0,0,0-16.973-5.734Z" transform="translate(264.002 217.697)" fill="#ffb8b8"/>
    <path id="Path_1375" data-name="Path 1375" d="M117.548,146.659A32.308,32.308,0,0,1,94.2,156.715c-6.462,0-18.2-3.185-21.114-7.872a91.009,91.009,0,0,0,3.595-35.767c-.819-5.87-5.051-16.336-.956-24.527S82.737,77.582,86.65,76.263,104.534,68.8,104.534,68.8s12.6,3.231,12.15,22.752c0,10.512-1.593,22.115-1.957,28.122C114.408,124.316,117.457,142.108,117.548,146.659Z" transform="translate(259.505 244.274)" fill="#3f3d56"/>
    <path id="Path_1376" data-name="Path 1376" d="M74.19,76.579a39.9,39.9,0,0,0,7.281,3.913c-1.274,21.615-5.6,26.074,3.094,31.307a14.288,14.288,0,0,1,9.1,12.423c1.5,13.652,10.057,16.427,10.057,16.427s9.1-8.555,9.1-29.26c0-10.83-.728-39-4.869-44.049a16.427,16.427,0,0,0-20.978-5.415C81.471,60.652,75.6,63.064,74.19,76.579Z" transform="translate(263.411 213.606)" fill="#373738"/>
    <path id="Path_1377" data-name="Path 1377" d="M72.75,83.75A57.517,57.517,0,0,1,62.284,70.1c-2-5.233-.41-11.012,2.23-12.1S69.064,59.359,70.2,63c.364,1.092,2.321,4.277,3.458,4.55s1.229-2.639,1.411-3.5c.41-2.048,2.048-2.548,2.048-1.229a28.671,28.671,0,0,0,0,5.87c0,1.729,5.1,13.287,5.1,13.287Z" transform="translate(217.936 204.979)" fill="#ffb8b8"/>
    <path id="Path_1378" data-name="Path 1378" d="M73.362,62.317a8.236,8.236,0,0,0-9.6,6.325S67.9,76.605,76.137,90.257a251.872,251.872,0,0,0,33.674,39.908c4.55,3.731,11.968,0,13.651-7.69.865-4.277.819-11.467-3.549-15.017-9.966-8.009-19.476-13.2-22.752-16.154C88.833,83.522,81.416,70.508,73.362,62.317Z" transform="translate(226.379 220.724)" fill="#3f3d56"/>
    <path id="Path_1379" data-name="Path 1379" d="M137.362,141.13l-45.5-26.393a7.781,7.781,0,0,0-6.917.319l-26.666,15.2a3.458,3.458,0,0,0-1.365,1.32c-.683-1.047,0-2.321,1.365-3.231l26.393-15.2a7.781,7.781,0,0,1,6.917-.319l45.5,26.393c1.229.683,1.229,1.456.637,2.457C137.817,141.357,137.771,141.357,137.362,141.13Z" transform="translate(201.104 398.24)" fill="#ef476f"/>
    <path id="Path_1380" data-name="Path 1380" d="M136.439,141.742l-26.347,15.244a7.69,7.69,0,0,1-6.962.273l-45.5-26.393a2.412,2.412,0,0,1-.865-.774,3.459,3.459,0,0,1,1.365-1.32l26.393-15.2a7.781,7.781,0,0,1,6.917-.319l45.5,26.393a2.685,2.685,0,0,1,.91.819,3.55,3.55,0,0,1-1.411,1.274Z" transform="translate(201.526 399.767)" fill="#d0274f"/>
    <path id="Path_1381" data-name="Path 1381" d="M57.6,117.159l46.187,26.666a7.781,7.781,0,0,0,7.008-.273l26.666-15.426a3.731,3.731,0,0,0,1.365-1.274c.683,1,0,2.275-1.365,3.231L110.8,145.463a7.782,7.782,0,0,1-7.008.273L57.6,119.07a1.866,1.866,0,0,1-.91-2.73,2.321,2.321,0,0,0,.91.819Z" transform="translate(200.275 413.064)" fill="#ef476f"/>
    <path id="Path_1382" data-name="Path 1382" d="M58.011,128.32,84.859,112.8a8.236,8.236,0,0,1,7.281-.319l45.915,26.438a3.231,3.231,0,0,1-.319,5.461l-26.62,15.381a8.1,8.1,0,0,1-7.281.273L57.783,133.553a3.049,3.049,0,0,1,.227-5.233Zm2.366,4.551,43.639,25.392a7.19,7.19,0,0,0,6.507-.273l24.664-14.243c1.957-1.092,2.139-2.821.5-3.777L92.049,114.714a7.144,7.144,0,0,0-6.507,0L60.832,129c-1.729,1.138-2.139,2.821-.455,3.777Z" transform="translate(200.275 396.897)" fill="#ef476f"/>
    <path id="Path_1383" data-name="Path 1383" d="M61.11,107.11l1,28.668,1.729,1.138-1-30.716Z" transform="translate(216.97 377.062)" fill="#d0274f"/>
    <path id="Path_1384" data-name="Path 1384" d="M64.21,105.77l.91,31.9-2.639,1.183L61.48,107Z" transform="translate(218.284 375.535)" fill="#ef476f"/>
    <path id="Path_1385" data-name="Path 1385" d="M59.54,108.116l1.047,28.668,1.729,1.092-1-30.716Z" transform="translate(211.396 380.471)" fill="#d0274f"/>
    <path id="Path_1386" data-name="Path 1386" d="M62.6,106.73l.956,31.944-2.685,1.138-.956-31.853Z" transform="translate(212.745 378.944)" fill="#ef476f"/>
    <path id="Path_1387" data-name="Path 1387" d="M57.72,109.206l1.047,28.668,1.729,1.092-1-30.716Z" transform="translate(204.934 384.341)" fill="#d0274f"/>
    <path id="Path_1388" data-name="Path 1388" d="M60.83,107.82l.91,31.944L59.1,140.9l-1-31.853Z" transform="translate(206.283 382.814)" fill="#ef476f"/>
    <path id="Path_1389" data-name="Path 1389" d="M68.426,107.406l-1.047,28.668-1.729,1.092,1-30.716Z" transform="translate(233.09 377.95)" fill="#d0274f"/>
    <path id="Path_1390" data-name="Path 1390" d="M70.19,108.42l-1,28.714-1.729,1.092,1-30.716Z" transform="translate(239.516 381.713)" fill="#d0274f"/>
    <path id="Path_1391" data-name="Path 1391" d="M72.066,109.5l-1.047,28.668-1.729,1.092,1-30.716Z" transform="translate(246.013 385.37)" fill="#d0274f"/>
    <path id="Path_1392" data-name="Path 1392" d="M73.936,110.55l-1.047,28.668-1.729,1.138,1-30.716Z" transform="translate(252.653 389.276)" fill="#d0274f"/>
    <path id="Path_1393" data-name="Path 1393" d="M75.626,111.576l-1.047,28.668-1.729,1.092,1-30.716Z" transform="translate(258.653 392.755)" fill="#d0274f"/>
    <path id="Path_1394" data-name="Path 1394" d="M65.99,106.02l-.91,31.944,2.685,1.183.956-31.853Z" transform="translate(231.066 376.423)" fill="#ef476f"/>
    <path id="Path_1395" data-name="Path 1395" d="M67.79,107.09l-.91,31.535,2.639,1.593,1-31.853Z" transform="translate(237.457 380.222)" fill="#ef476f"/>
    <path id="Path_1396" data-name="Path 1396" d="M69.63,108.21,68.72,139.2l2.639,2.139,1-31.853Z" transform="translate(243.99 384.199)" fill="#ef476f"/>
    <path id="Path_1397" data-name="Path 1397" d="M71.465,109.3,70.6,140.289l2.639,2.139.956-31.853Z" transform="translate(250.665 388.069)" fill="#ef476f"/>
    <path id="Path_1398" data-name="Path 1398" d="M73.175,110.26l-.865,30.989,2.639,2.093.956-31.853Z" transform="translate(256.736 391.477)" fill="#ef476f"/>
    <path id="Path_1399" data-name="Path 1399" d="M63.15,137.319h3.185v-31.9H63.15v31.9Z" transform="translate(224.213 374.293)" fill="#ef476f"/>
    <path id="Path_1400" data-name="Path 1400" d="M71.155,117.354c3.549-2.548,7.827-10.284,14.243-10.193,3.64,0,7.19,4.55,8.873,6.28s10.011,8.509,10.011,10.6,3.5,16.109,3.5,16.109-23.708,17.565-26.666,18.2-16.973-6.1-21.114-10.6-1.456-16.564-.273-21.342S63.784,122.632,71.155,117.354Z" transform="translate(205.15 380.47)" fill="#fff"/>
    <path id="Path_1401" data-name="Path 1401" d="M62.619,117.834c4.915.637,10.011,9.1,14.289,4S82.1,109.779,85.6,110.28s2.867,6.507,6.28,7.235,9.647,12.969,9.647,12.969-12.286,10.057-18.2,14.789S59.752,139.995,59.3,131.121,57.7,117.2,62.619,117.834Z" transform="translate(208.954 391.457)" fill="#9fbae2"/>
    <path id="Path_1402" data-name="Path 1402" d="M91.994,111.06A29.351,29.351,0,0,1,114.155,121.3c5.279,7.326,9.1,21.933,3.094,26.12a125.829,125.829,0,0,1-15.108,8.873c-4.55,2.093-7.053,2.821-9.329,2.048a57.928,57.928,0,0,1-12.423-4c-12.013-5.734-20.25-11.6-20.068-15.108.319-7.417,10.6-12.559,18.612-13.651S83.257,111.015,91.994,111.06Z" transform="translate(214.163 394.317)" fill="#6387ce"/>
    <path id="Path_1403" data-name="Path 1403" d="M72.54,112.434c3.049,0,7.963,9.1,7.963,9.1L66.26,118.942S66.943,112.207,72.54,112.434Z" transform="translate(235.256 399.177)" fill="#5278b5"/>
    <path id="Path_1404" data-name="Path 1404" d="M109.879,115.876s3.822,10.148,0,14.471a28.577,28.577,0,0,1-18.2,7.963c-6.052,0-9.829-2.321-17.838-6.416s-13.651-5.6-11.831-9.1,5.825.5,9.738,1,7.008-3.094,3-5.1,1.183-3.913,6.052-2.867,9.1,11.6,14.926,10.557S102.416,113.647,109.879,115.876Z" transform="translate(218.94 410.206)" fill="#5278b5"/>
    <path id="Path_1405" data-name="Path 1405" d="M79.131,112.456,76.4,143.581l-2.321,1.183,2.457-32.855Z" transform="translate(263.02 397.335)" fill="#ef476f"/>
    <path id="Path_1406" data-name="Path 1406" d="M78.155,114.754l-2.548,28.8-1.957-1.138,2.685-30.261Z" transform="translate(261.494 398.223)" fill="#d0274f"/>
    <path id="Path_1407" data-name="Path 1407" d="M55.77,109.9l2.958,32.308,2.639.728L58.5,109.49Z" transform="translate(198.011 388.743)" fill="#ef476f"/>
    <path id="Path_1408" data-name="Path 1408" d="M56.42,111.17l2.639,30.079,1.957-1.138L58.331,109.85Z" transform="translate(200.319 390.021)" fill="#d0274f"/>
    <path id="Path_1409" data-name="Path 1409" d="M67.28,145.783h3.231V116.25H67.28v29.533Z" transform="translate(238.877 412.745)" fill="#ef476f"/>
    <path id="Path_1410" data-name="Path 1410" d="M76.345,115.449l-2.548,28.8-1.957-1.138,1.411-29.806Z" transform="translate(255.067 402.306)" fill="#d0274f"/>
    <path id="Path_1411" data-name="Path 1411" d="M74.675,116.4l-2.5,28.8-2-1.138,1.456-29.806Z" transform="translate(249.138 405.679)" fill="#d0274f"/>
    <path id="Path_1412" data-name="Path 1412" d="M73.07,117.359l-2.548,28.8-2-1.138,1.456-29.806Z" transform="translate(243.28 409.087)" fill="#d0274f"/>
    <path id="Path_1413" data-name="Path 1413" d="M76.31,113.4l-1.32,29.442-2.73,1.638,1.183-29.988Z" transform="translate(256.558 402.626)" fill="#ef476f"/>
    <path id="Path_1414" data-name="Path 1414" d="M74.65,114.3l-1.32,29.442L70.6,145.38l1.183-29.988Z" transform="translate(250.665 405.821)" fill="#ef476f"/>
    <path id="Path_1415" data-name="Path 1415" d="M73,115.38l-1.32,29.4-2.73,1.684,1.183-29.988Z" transform="translate(244.806 409.656)" fill="#ef476f"/>
    <path id="Path_1416" data-name="Path 1416" d="M65.54,117.359l2.5,28.8,2-1.138L68.589,115.22Z" transform="translate(232.699 409.087)" fill="#d0274f"/>
    <path id="Path_1417" data-name="Path 1417" d="M65.2,115.14l1.365,30.488,2.776,1.684-1.229-29.988Z" transform="translate(231.492 408.803)" fill="#ef476f"/>
    <path id="Path_1418" data-name="Path 1418" d="M63.74,116.384l2.548,28.8,1.957-1.138L66.789,114.2Z" transform="translate(226.308 405.466)" fill="#d0274f"/>
    <path id="Path_1419" data-name="Path 1419" d="M63.4,114.13l1.365,30.488,2.776,1.684-1.229-29.988Z" transform="translate(225.101 405.217)" fill="#ef476f"/>
    <path id="Path_1420" data-name="Path 1420" d="M61.87,115.259l2.5,28.8,2-1.138L64.919,113.12Z" transform="translate(219.669 401.631)" fill="#d0274f"/>
    <path id="Path_1421" data-name="Path 1421" d="M61.53,113.04,62.9,143.574l2.776,1.638-1.229-29.988Z" transform="translate(218.462 401.347)" fill="#ef476f"/>
    <path id="Path_1422" data-name="Path 1422" d="M60.09,114.2l2.5,28.8,2-1.092L63.139,112.06Z" transform="translate(213.349 397.868)" fill="#d0274f"/>
    <path id="Path_1423" data-name="Path 1423" d="M59.68,111.92l1.684,30.807,2.73,1.638-1.5-30.261Z" transform="translate(211.893 397.371)" fill="#ef476f"/>
    <path id="Path_1424" data-name="Path 1424" d="M58.16,112.7l2.548,28.8,1.957-1.138L60.936,111.06Z" transform="translate(206.497 394.317)" fill="#d0274f"/>
    <path id="Path_1425" data-name="Path 1425" d="M57.71,110.81l1.866,30.807,2.776,1.638-1.729-30.261Z" transform="translate(204.899 393.43)" fill="#ef476f"/>
    <rect id="Rectangle_145" data-name="Rectangle 145" width="0.865" height="1.684" transform="translate(254.645 498.415) rotate(180)" fill="#ce4949"/>
    <rect id="Rectangle_146" data-name="Rectangle 146" width="1.547" height="1.547" transform="translate(342.197 509.2) rotate(180)" fill="#ce4949"/>
    <path id="Path_1426" data-name="Path 1426" d="M57.5,122.637l28.577-16.564a8.646,8.646,0,0,1,7.736-.319l48.918,28.168a3.458,3.458,0,0,1-.319,5.825l-28.35,16.382a8.737,8.737,0,0,1-7.781.319L57.277,128.234a3.231,3.231,0,0,1,.228-5.6Zm2.5,4.551,46.461,26.939a7.827,7.827,0,0,0,6.962-.273l26.3-15.2c2.048-1.183,2.275-3,.5-4L93.726,107.712a7.6,7.6,0,0,0-6.917.273L60.462,123.229c-2,1.365-2.23,3.14-.455,4.186Z" transform="translate(198.006 372.775)" fill="#ef476f"/>
    <path id="Path_1427" data-name="Path 1427" d="M57.509,122.277l28.577-16.564a8.646,8.646,0,0,1,7.736-.319l48.918,28.213a3.5,3.5,0,0,1-.319,5.87l-28.35,16.382a8.737,8.737,0,0,1-7.781.319l-49.009-28.35a3.185,3.185,0,0,1,.228-5.552Zm2.5,4.551,46.461,26.984a7.872,7.872,0,0,0,6.962-.318l26.3-15.2c2.048-1.183,2.275-2.958.5-4L93.731,107.352a7.918,7.918,0,0,0-6.917.273l-26.347,15.2c-2,1.365-2.23,3.185-.455,4.186Z" transform="translate(198.001 371.497)" fill="#ef476f"/>
    <g id="Group_319" data-name="Group 319" transform="translate(364.904 332.084)">
      <path id="Path_1017" data-name="Path 1017" d="M64.24,284.373l8.084-4.673V168.96l-8.084,4.673Z" transform="translate(145.887 67.848)" fill="#f2f2f2"/>
      <path id="Path_1018" data-name="Path 1018" d="M62.52,279.7l8.037,4.673V173.633L62.52,168.96Z" transform="translate(139.57 67.848)" fill="#fff"/>
      <path id="Path_1019" data-name="Path 1019" d="M21.86,259.926l8.084-4.626.467-110.741-8.084,4.626Z" transform="translate(-9.758 -21.764)" fill="#f2f2f2"/>
      <path id="Path_1020" data-name="Path 1020" d="M20.13,255.291l8.084,4.673.467-110.741L20.6,144.55Z" transform="translate(-16.112 -21.801)" fill="#fff"/>
      <path id="Path_1021" data-name="Path 1021" d="M93.67,267.453l8.037-4.673V152.04l-8.037,4.626Z" transform="translate(253.971 5.707)" fill="#f2f2f2"/>
      <path id="Path_1022" data-name="Path 1022" d="M91.94,262.781l8.084,4.673V156.666L91.94,152.04Z" transform="translate(247.618 5.707)" fill="#fff"/>
      <path id="Path_1023" data-name="Path 1023" d="M20.18,155.165,226.055,274.223V262.588L20.18,143.53Z" transform="translate(-15.928 -25.546)" fill="#fff"/>
      <path id="Path_1024" data-name="Path 1024" d="M64.24,246.641l145.551-83.967V151.04L64.24,235.007Z" transform="translate(145.887 2.034)" fill="#f2f2f2"/>
      <path id="Path_1025" data-name="Path 1025" d="M19.27,209.932,229.443,331.467l149.2-86.069L168.7,123.91Z" transform="translate(-19.27 -97.603)" fill="#f2f2f2"/>
      <path id="Path_1026" data-name="Path 1026" d="M19.27,146.665,229.4,268.153v-4.345L19.27,142.32Z" transform="translate(-19.27 -29.991)" fill="#ccc"/>
      <path id="Path_1027" data-name="Path 1027" d="M64.24,240.278l149.243-86.023V149.91L64.24,235.932Z" transform="translate(145.887 -2.115)" fill="#ccc"/>
      <path id="Path_1028" data-name="Path 1028" d="M57,159.35v61.211l32.147-18.69V140.8Z" transform="translate(119.297 -35.573)" fill="#3d62ad"/>
      <path id="Path_1029" data-name="Path 1029" d="M63.9,210.241l-8.738-5.373V143.61l8.738,5.42Z" transform="translate(112.54 -25.253)" fill="#6387ce"/>
      <path id="Path_1030" data-name="Path 1030" d="M87.307,139.64l8.738,5.42L63.9,163.61l-8.738-5.42Z" transform="translate(112.54 -39.833)" fill="#729bdd"/>
      <path id="Path_1031" data-name="Path 1031" d="M61.588,152.1,55.42,148.55v10.934l6.168,3.551Z" transform="translate(113.494 -7.11)" fill="#373738"/>
      <path id="Path_1032" data-name="Path 1032" d="M61.588,147.371,55.42,143.82v3.691a4.345,4.345,0,0,0,2.243,3.832l1.308.794a1.776,1.776,0,0,0,2.617-1.542Z" transform="translate(113.494 -24.482)" fill="#3d62ad"/>
      <path id="Path_1033" data-name="Path 1033" d="M61.588,158.891,55.42,155.34v3.878l6.168,3.551Z" transform="translate(113.494 17.827)" fill="#fff"/>
      <path id="Path_1034" data-name="Path 1034" d="M61.628,155.011,55.46,151.46v16.4l6.168,3.551Z" transform="translate(113.641 3.577)" fill="#fff"/>
      <path id="Path_1035" data-name="Path 1035" d="M78.414,157.784a9.766,9.766,0,0,0,3.411-9.626c-1.916-6.822-12.149-1.028-15.279,1.589-4.673,4.065-9.626,11.775-8.13,18.69a3.913,3.913,0,0,0,.421,1.308c-1.729,6.028-1.589,17.382,7.056,16.354A21.4,21.4,0,0,0,81.5,165.073a11.121,11.121,0,0,0-3.084-7.289Zm-12.009.748a23.922,23.922,0,0,0-5.841,6.962,15.606,15.606,0,0,1,4.673-11.214c3.878-4.018,12.242-9.345,13.083-3.131a6.074,6.074,0,0,1-2.85,5.28h0C73.04,153.579,68.648,156.8,66.405,158.532Z" transform="translate(122.835 -20.316)" fill="#fff"/>
      <path id="Path_1036" data-name="Path 1036" d="M80.145,151.428a6.215,6.215,0,0,0-5.373,0,5.14,5.14,0,0,0-4.673-.794A15.233,15.233,0,0,0,65.94,152.6a13.737,13.737,0,0,0-4.065,3.691,15.374,15.374,0,0,0-3.084,5.841,11.681,11.681,0,0,0-.421,7.383c2.663,7.616,11.868,1.215,15.747-2.99a14.023,14.023,0,0,0,1.5-.42,12.008,12.008,0,0,0,7.149-7.429A6.308,6.308,0,0,0,80.145,151.428Zm-.327,8.878a10.887,10.887,0,0,1-3.318,3.037,10.7,10.7,0,0,0,.654-8.551,8.316,8.316,0,0,0-1.028-1.916,4.3,4.3,0,0,1,3.131.327C81.874,154.745,81.5,158.25,79.818,160.306Z" transform="translate(122.832 -0.363)" fill="#e05959"/>
      <path id="Path_1037" data-name="Path 1037" d="M59.559,146.71a1.879,1.879,0,0,0-1.682,2.056c0,1.729,2.009.7,2.383,0a1.308,1.308,0,0,0-.7-2.056Z" transform="translate(122.485 -13.868)" fill="#fff"/>
      <path id="Path_1038" data-name="Path 1038" d="M62.042,152.67a1.869,1.869,0,0,0-1.635,2.056c0,1.776,1.962.7,2.383,0a1.355,1.355,0,0,0-.748-2.056Z" transform="translate(131.777 8.021)" fill="#fff"/>
      <path id="Path_1039" data-name="Path 1039" d="M59.2,145.794a1.542,1.542,0,0,0-.421,2.29c.467.7,1.682,0,1.869-.794a1.262,1.262,0,0,0-1.448-1.5Z" transform="translate(124.578 -17.298)" fill="#fff"/>
      <path id="Path_1040" data-name="Path 1040" d="M61.194,150.942a1.5,1.5,0,0,0-.421,2.243c.467.7,1.729,0,1.869-.794a1.215,1.215,0,0,0-1.449-1.448Z" transform="translate(131.924 1.571)" fill="#fff"/>
      <path id="Path_1041" data-name="Path 1041" d="M58.514,146.083a1.5,1.5,0,0,0-.421,2.243c.467.748,1.682,0,1.869-.794a1.215,1.215,0,0,0-1.449-1.448Z" transform="translate(122.082 -16.277)" fill="#fff"/>
      <path id="Path_1042" data-name="Path 1042" d="M63.7,147.536a1.5,1.5,0,0,0-.467,2.29c.467.7,1.729,0,1.869-.794a1.215,1.215,0,0,0-1.4-1.5Z" transform="translate(140.913 -10.91)" fill="#fff"/>
      <path id="Path_1043" data-name="Path 1043" d="M64.1,151.764a2.9,2.9,0,0,0-3.084.841c-2.43,2.2-2.1,3.925-1.449,4.673a2.1,2.1,0,0,0,2.99,0C64.01,156.624,66.674,152.979,64.1,151.764Z" transform="translate(127.005 4.16)" fill="#fff"/>
      <path id="Path_1044" data-name="Path 1044" d="M57.5,157.477,84.928,141.59v2.944L57.5,160.421Z" transform="translate(121.133 -32.672)" fill="#fff"/>
      <path id="Path_1045" data-name="Path 1045" d="M67.987,145.435a7.009,7.009,0,0,1-2.944,5.607c-1.635.981-2.944,0-2.944-2.2a7.009,7.009,0,0,1,2.944-5.654C66.679,142.257,67.987,143.285,67.987,145.435Z" transform="translate(138.027 -28.059)" fill="#373738"/>
      <path id="Path_1046" data-name="Path 1046" d="M70.577,148.9a4.674,4.674,0,0,0-2.149.467,2.57,2.57,0,0,0-3.037-1.028A7.663,7.663,0,0,0,59.41,154.7a3.084,3.084,0,0,0,4.673,3.224,7.1,7.1,0,0,0,2.336-1.729,5.145,5.145,0,0,0,1.168,0,6.449,6.449,0,0,0,4.065-1.963C73.194,152.733,73.708,148.995,70.577,148.9Zm-9.345,6.028c1.449-5.28,5.794-5,5.934-4.673-1.822,1.542-2.149,1.682-2.523,2.757a2.243,2.243,0,0,0-.374,1.869,1.777,1.777,0,0,0,.421.7h0c-1.215,1.075-4.252,1.729-3.551-.654Z" transform="translate(127.915 -8.444)" fill="#e05959"/>
      <path id="Path_1047" data-name="Path 1047" d="M61.73,163.23v61.211l32.1-18.69V144.54Z" transform="translate(136.668 -21.837)" fill="#9fbae2"/>
      <path id="Path_1048" data-name="Path 1048" d="M82.779,179.626a67.048,67.048,0,0,0,6.168-11.635V145.75L62.36,160.936v36.4l.561-.514C70.3,191.214,76.284,188.317,82.779,179.626Z" transform="translate(138.982 -17.393)" fill="#fff"/>
      <path id="Path_1049" data-name="Path 1049" d="M88.947,162.872V150.49a67.053,67.053,0,0,1-6.168,11.728C76.284,171,70.3,173.9,62.921,179.6l-.561.514v9.906A39.111,39.111,0,0,0,79.7,179.507,40.839,40.839,0,0,0,88.947,162.872Z" transform="translate(138.982 0.015)" fill="#e05959"/>
      <path id="Path_1050" data-name="Path 1050" d="M89.021,172.625V153.14a40.839,40.839,0,0,1-9.345,16.541A39.111,39.111,0,0,1,62.34,180.194V188Z" transform="translate(138.909 9.746)" fill="#fff"/>
      <path id="Path_1051" data-name="Path 1051" d="M68.6,214.011l-8.738-5.373V147.38L68.6,152.8Z" transform="translate(129.801 -11.408)" fill="#b1c9ef"/>
      <path id="Path_1052" data-name="Path 1052" d="M91.961,143.41l8.738,5.42L68.6,167.38l-8.738-5.42Z" transform="translate(129.801 -25.988)" fill="#fff"/>
      <path id="Path_1053" data-name="Path 1053" d="M69.869,143.92l1.168.748-4.3,2.476L65.57,146.4Z" transform="translate(150.771 -24.115)" fill="#9fbae2"/>
      <path id="Path_1054" data-name="Path 1054" d="M70.662,144.44l1.168.748-4.252,2.477-1.168-.748Z" transform="translate(153.856 -22.205)" fill="#9fbae2"/>
      <path id="Path_1055" data-name="Path 1055" d="M70.279,144.18l1.168.748-4.3,2.477-1.168-.748Z" transform="translate(152.277 -23.16)" fill="#9fbae2"/>
      <path id="Path_1056" data-name="Path 1056" d="M66.241,155.871,60.12,152.32v10.934l6.121,3.551Z" transform="translate(130.755 6.735)" fill="#fff"/>
      <path id="Path_1057" data-name="Path 1057" d="M66.18,150.111,72.3,146.56v1.262l-6.121,3.551Z" transform="translate(153.011 -14.419)" fill="#6387ce"/>
      <path id="Path_1058" data-name="Path 1058" d="M66.18,150.621,72.3,147.07v1.308l-6.121,3.551Z" transform="translate(153.011 -12.546)" fill="#6387ce"/>
      <path id="Path_1059" data-name="Path 1059" d="M66.18,151.141,72.3,147.59v1.262L66.18,152.4Z" transform="translate(153.011 -10.636)" fill="#6387ce"/>
      <path id="Path_1060" data-name="Path 1060" d="M66.241,151.141,60.12,147.59v3.691a4.673,4.673,0,0,0,2.2,3.832l1.308.794a1.776,1.776,0,0,0,2.617-1.542Z" transform="translate(130.755 -10.636)" fill="#373738"/>
      <path id="Path_1061" data-name="Path 1061" d="M66.241,162.661,60.12,159.11v3.878l6.121,3.551Z" transform="translate(130.755 31.673)" fill="#373738"/>
      <path id="Path_1062" data-name="Path 1062" d="M66.318,158.781,60.15,155.23v16.4l6.168,3.551Z" transform="translate(130.866 17.423)" fill="#373738"/>
      <path id="Path_1063" data-name="Path 1063" d="M63.647,150.919a1.215,1.215,0,0,0,0,.514V154.1c0,.047,0,0,.28,0l.935-.561v.981l-1.075.607a.747.747,0,0,1-.421,0h-.327a1.028,1.028,0,0,1,0-.374,1.262,1.262,0,0,1,0-.607v-2.29a1.824,1.824,0,0,1,0-.7,4.109,4.109,0,0,1,0-.7,3.5,3.5,0,0,1,.327-.561l.421-.374,1.075-.608v1.121l-.935.561A2.794,2.794,0,0,0,63.647,150.919Z" transform="translate(141.34 -5.788)" fill="#e05959"/>
      <path id="Path_1064" data-name="Path 1064" d="M65.391,148.646a.421.421,0,0,1,.327,0,1.215,1.215,0,0,1,0,.421,2.381,2.381,0,0,1,0,.608v2.43a3.6,3.6,0,0,1,0,.7,2.707,2.707,0,0,1,0,.654,1.635,1.635,0,0,1-.327.561,1.028,1.028,0,0,1-.421.374l-.42.234H63.8a1.028,1.028,0,0,1-.234-.374,1.262,1.262,0,0,1,0-.607v-2.43a1.822,1.822,0,0,1,0-.7,4.118,4.118,0,0,1,.234-.7,3.512,3.512,0,0,1,.327-.561l.421-.374.421-.234a.7.7,0,0,1,.421,0Zm0,1.308h-.7a1.028,1.028,0,0,0-.28.327,1.074,1.074,0,0,0,0,.514v2.477a.514.514,0,0,0,0,.374h.28l.421-.234a1.026,1.026,0,0,0,.28-.327,1.215,1.215,0,0,0,0-.514v-2.149s-.047-.374-.047-.467Z" transform="translate(143.287 -6.879)" fill="#e05959"/>
      <path id="Path_1065" data-name="Path 1065" d="M66.094,153.176l-1.075.607a.7.7,0,0,1-.421,0,.421.421,0,0,1-.327,0,.887.887,0,0,1,0-.421,1.168,1.168,0,0,1,0-.607v-3.972l.654-.374v3.972a.467.467,0,0,0,0,.374h.28l1.075-.654Z" transform="translate(145.855 -7.625)" fill="#e05959"/>
      <path id="Path_1066" data-name="Path 1066" d="M66.562,147.94h.327a1.028,1.028,0,0,1,0,.374,2.382,2.382,0,0,1,0,.607V151.4a3.6,3.6,0,0,1,0,.7,2.709,2.709,0,0,1,0,.654,3.5,3.5,0,0,1-.327.561l-.42.374h-.421a.7.7,0,0,1-.421,0,.42.42,0,0,1-.327,0,.888.888,0,0,1-.234-.42,1.074,1.074,0,0,1,0-.561V150.23a1.822,1.822,0,0,1,0-.7,2.708,2.708,0,0,1,.234-.654,1.635,1.635,0,0,1,.327-.561,1.028,1.028,0,0,1,.421-.374l.374.28A.748.748,0,0,1,66.562,147.94Zm0,1.355h-.467l-.421.234a.841.841,0,0,0-.28.374.935.935,0,0,0,0,.514v2.85h.7a1.308,1.308,0,0,0,.28-.374,1.076,1.076,0,0,0,0-.514v-2.43a2.012,2.012,0,0,0,.14-.654Z" transform="translate(147.583 -9.351)" fill="#e05959"/>
      <path id="Path_1067" data-name="Path 1067" d="M67.226,147.713a.607.607,0,0,1,.374,0,2.615,2.615,0,0,1,0,.374,2.478,2.478,0,0,1,0,.607,3.55,3.55,0,0,1,0,.7,3.642,3.642,0,0,1,0,.654,2.616,2.616,0,0,1,0,.374,2.478,2.478,0,0,1,0,.607v1.682l-.654.374V151.4a.467.467,0,0,0,0-.374h-.28l-.654.374v2.29l-.7.421v-5.654l.7-.421.654-.374a.467.467,0,0,1,.561.047Zm0,2.056a1.216,1.216,0,0,0,0-.514s0-.327,0-.374,0,0-.28,0l-.654.42v1.262l.654-.421a.514.514,0,0,0,.14-.374Z" transform="translate(149.816 -10.62)" fill="#e05959"/>
      <path id="Path_1068" data-name="Path 1068" d="M80.987,174.425a38.879,38.879,0,0,1-2.757,4.065c-2.29,2.944-9.345,6.495-7.336-2.617a13.55,13.55,0,0,0,9.345-6.215c2.29-3.037,6.261-8.551,3.084-12.336a3.551,3.551,0,0,0-1.916-1.262,5.374,5.374,0,0,0,0-4.252c-2.056-3.972-8.411,0-10.654,1.822a19.111,19.111,0,0,0-7.616,12.663,8.972,8.972,0,0,0,2.383,8.037l-.28,1.215c-.748,4.673.28,10.934,6.355,10.42a12.569,12.569,0,0,0,10.84-10.887.841.841,0,0,0-1.448-.654Zm-14.438-12.8c2.336-4.205,8.785-9.719,12.009-8.971,2.2.514,1.308,3.224,1.262,3.318a14.672,14.672,0,0,0-7.9,4.953A27.428,27.428,0,0,0,65.941,172.7c-2.57-2.944-1.121-7.99.607-11.074Z" transform="translate(141.195 -1.398)" fill="#6387ce"/>
      <path id="Path_1069" data-name="Path 1069" d="M74.842,151.963h-.607a4.346,4.346,0,0,0-2.57.374,17.85,17.85,0,0,0-5.514,6.261c-.654,1.121-2.43,4.3-1.355,5.654,2.149,2.663,8.084-4.673,9.018-6.028S76.664,153.131,74.842,151.963Z" transform="translate(146.686 5.223)" fill="#fff"/>
      <path id="Path_1070" data-name="Path 1070" d="M69.119,149.508c-1.028-.374-2.149,1.5-2.149,2.663s1.215,1.121,2.1.327S70.194,149.882,69.119,149.508Z" transform="translate(155.913 -3.77)" fill="#6387ce"/>
      <path id="Path_1071" data-name="Path 1071" d="M67.261,149.523c-.467,0-.841.561-.841,1.262s1.075,0,1.308,0a.673.673,0,1,0-.467-1.262Z" transform="translate(153.893 -3.691)" fill="#6387ce"/>
      <path id="Path_1072" data-name="Path 1072" d="M63.491,152.8c-.467,0-.841.561-.841,1.262s1.075,0,1.308,0a.673.673,0,0,0-.467-1.262Z" transform="translate(140.047 8.355)" fill="#6387ce"/>
      <path id="Path_1073" data-name="Path 1073" d="M63.741,155.42c-.467,0-.841.514-.841,1.262s1.075,0,1.308-.234a.654.654,0,0,0-.467-1.028Z" transform="translate(140.965 18.12)" fill="#6387ce"/>
      <path id="Path_1074" data-name="Path 1074" d="M64.731,151.87c-1.028-.374-2.009,1.4-1.916,1.916a1.3,1.3,0,0,0,1.962.421C65.385,153.552,65.665,152.2,64.731,151.87Z" transform="translate(140.63 4.896)" fill="#6387ce"/>
      <path id="Path_1075" data-name="Path 1075" d="M80.956,155.188c-.514-9.345-7.616-21.073-8.177-28.643a58.231,58.231,0,0,0-.607-6.495,270.356,270.356,0,0,1-28.69,26.26,37.754,37.754,0,0,0,.981,9.018c1.121,3.551,3.972,17.849,6.028,28.6h0c2.476-1.215,0,1.448,2.29,0a258.493,258.493,0,0,0,28.036-17.849A95.445,95.445,0,0,0,80.956,155.188Z" transform="translate(69.641 -111.78)" fill="#e05959"/>
      <path id="Path_1076" data-name="Path 1076" d="M72.214,126.55c-.421-3.972-.748-6.448-.748-6.448L68.9,118.28s.234,1.168.421,3.037L43.852,135.662s-.561,9.345-.327,17.008a270.369,270.369,0,0,0,28.69-26.12Z" transform="translate(69.599 -118.28)" fill="#3d62ad"/>
      <path id="Path_1077" data-name="Path 1077" d="M62.439,143.377A128.035,128.035,0,0,0,74.4,132.256V129.92a258.5,258.5,0,0,1-28.036,17.849c-2.477,1.308,0,12.336,0,12.336l27.522-15.793v-3.5a175.783,175.783,0,0,1-24.952,14.018,175.645,175.645,0,0,1,13.5-11.448Z" transform="translate(76.197 -75.531)" fill="#3d62ad"/>
      <path id="Path_1078" data-name="Path 1078" d="M59.407,141.5A175.62,175.62,0,0,0,46.09,153.092a175.786,175.786,0,0,0,24.952-14.018,86.437,86.437,0,0,1,.327-8.644A128.023,128.023,0,0,1,59.407,141.5Z" transform="translate(79.229 -73.658)" fill="#e05959"/>
      <path id="Path_1079" data-name="Path 1079" d="M50.882,143.788a47.426,47.426,0,0,0,3.271-14.672c-.374-3.5-.654-5.654-.654-5.654l-2.617-1.822a40.652,40.652,0,0,1,0,14.765c-1.822,7.99-7.009,15.326-8.364,19.765a74.248,74.248,0,0,0-1.4,21.868l1.682.981s.514-14.018,1.262-18.69A51.867,51.867,0,0,1,50.882,143.788Z" transform="translate(59.999 -105.94)" fill="#ce4949"/>
      <path id="Path_1080" data-name="Path 1080" d="M61.446,159.172c-.467-9.345-7.57-21.073-8.177-28.643a71.455,71.455,0,0,0-.654-7.289,47.428,47.428,0,0,1-3.271,14.672,51.867,51.867,0,0,0-6.822,16.541c-.748,4.673-1.262,18.69-1.262,18.69l19.718,11.495S61.96,168.845,61.446,159.172Z" transform="translate(61.49 -100.064)" fill="#bc3c3c"/>
      <path id="Path_1081" data-name="Path 1081" d="M42.99,133.98l2.617,1.822,27.662-15.7-2.617-1.822Z" transform="translate(67.844 -118.28)" fill="#f56d6d"/>
      <path id="Path_1082" data-name="Path 1082" d="M66.567,131.821a5.934,5.934,0,0,0-4.018-7.149c-5.28-1.916-10.84,2.336-14.018,6.4-2.243,2.85-4.953,8.224-1.4,11.027a4.3,4.3,0,0,0,3.691.841c-.421,5.187.841,10.326,5.934,11.541a10.887,10.887,0,0,0,11.495-7.1C69,144.811,70.071,136.26,66.567,131.821Zm-16.588.514a15.373,15.373,0,0,1,7.9-5.56c4.112-1.121,8.084,0,7.99,4.3a5.044,5.044,0,0,0-1.121-.841c-3.411-2.149-10.607.7-12.569,6.635a23.036,23.036,0,0,0-.981,3.738C45.12,142.615,48.157,135.045,49.979,132.335ZM58.2,152.474a5.888,5.888,0,0,1-4.392-6.869,6.869,6.869,0,0,0,5.467,4.112,7.944,7.944,0,0,0,7.2-4.673c-.467,3.645-3.785,8.457-8.27,7.429Z" transform="translate(76.742 -96.543)" fill="#fff"/>
      <path id="Path_1083" data-name="Path 1083" d="M49.157,131.265c-1.449-.467-2.617,2.056-2.383,2.99a1.635,1.635,0,0,0,3.037.561C50.512,133.741,50.465,131.732,49.157,131.265Z" transform="translate(81.629 -70.802)" fill="#fff"/>
      <path id="Path_1084" data-name="Path 1084" d="M46.852,128.607a.888.888,0,0,0-.935.514,1.075,1.075,0,0,0,0,.841,1.028,1.028,0,0,0,1.729.327,1.075,1.075,0,0,0-.794-1.682Z" transform="translate(78.28 -80.386)" fill="#fff"/>
      <path id="Path_1085" data-name="Path 1085" d="M45.729,122.587a.888.888,0,0,0-.935.514,1.168,1.168,0,0,0,0,.794,1.028,1.028,0,1,0,1.075-1.308Z" transform="translate(74.216 -102.494)" fill="#fff"/>
      <path id="Path_1086" data-name="Path 1086" d="M52.313,128.73a1.542,1.542,0,0,0-1.4,1.028,1.776,1.776,0,0,0,0,2.1c.748.981,2.009,0,2.476-.794A1.552,1.552,0,0,0,52.313,128.73Z" transform="translate(95.668 -79.901)" fill="#fff"/>
      <path id="Path_1087" data-name="Path 1087" d="M47.275,122.28a1.589,1.589,0,0,0-1.448,1.028,1.916,1.916,0,0,0,0,2.1c.794.981,2.009,0,2.476-.794A1.533,1.533,0,0,0,47.275,122.28Z" transform="translate(77.109 -103.589)" fill="#fff"/>
      <path id="Path_1088" data-name="Path 1088" d="M49.519,131.285c-.514-.374-1.729,0-1.729,1.589s1.168.748,1.682,0A1.215,1.215,0,0,0,49.519,131.285Z" transform="translate(85.472 -71.008)" fill="#fff"/>
      <path id="Path_1089" data-name="Path 1089" d="M46.152,123.75c-.514-.327-1.682,0-1.682,1.635,0,.794,1.168.7,1.682,0a1.262,1.262,0,0,0,0-1.635Z" transform="translate(73.279 -98.611)" fill="#fff"/>
      <path id="Path_1090" data-name="Path 1090" d="M63.753,120.39a58.323,58.323,0,0,1-7.99,9.345c-2.29,2.056-9.953,10.794-9.953,10.794s7.056-5.56,10.233-7.943a39.343,39.343,0,0,0,8.037-7.943Z" transform="translate(78.201 -110.531)" fill="#3d62ad"/>
      <path id="Path_1091" data-name="Path 1091" d="M49.978,136.141,43.81,132.59v11.027l6.168,3.551Z" transform="translate(70.855 -65.725)" fill="#fff"/>
      <path id="Path_1092" data-name="Path 1092" d="M50.374,138.366,41.59,133.32v1.589l8.784,5.046Z" transform="translate(62.702 -63.044)" fill="#fff"/>
      <path id="Path_1093" data-name="Path 1093" d="M50.374,137.646,41.59,132.6v1.635l8.784,5.046Z" transform="translate(62.702 -65.688)" fill="#fff"/>
      <path id="Path_1094" data-name="Path 1094" d="M40.268,187.569a38.921,38.921,0,0,0,2.009-5.467,67.8,67.8,0,0,0,2.57-17.849,60.74,60.74,0,0,0-1.215-10.093l-11.822.28a86.912,86.912,0,0,0-5.981,18.083,16.167,16.167,0,0,0,3.645,15.093C31.437,189.952,36.671,188.784,40.268,187.569Z" transform="translate(2.766 13.493)" fill="#ffb8b8"/>
      <path id="Path_1095" data-name="Path 1095" d="M46.046,201.88a77.708,77.708,0,0,1,18.924-5.934c6.261-.28,6.869,7.1,0,12.8a53.222,53.222,0,0,1-17.756,8.784c-5.093,2.056-6.915,2.243-10.934-.374-5.42-3.5-1.075-12.756-1.075-12.756Z" transform="translate(33.201 166.928)" fill="#373738"/>
      <path id="Path_1096" data-name="Path 1096" d="M38.284,196.241a63.823,63.823,0,0,1,16.307-4.673c6.261-.28,8.5,5.14,1.635,10.84a50.7,50.7,0,0,1-16.775,9.345c-5.093,2.1-6.869,2.2-10.934-.374-5.56-3.5-1.215-12.756-1.075-12.756Z" transform="translate(4.329 150.84)" fill="#373738"/>
      <path id="Path_1097" data-name="Path 1097" d="M59.487,163.09c-14.532,0-26.307,6.635-26.307,14.812s11.728,15.934,26.213,15.934,26.4-7.8,26.4-15.934S74.018,163.09,59.487,163.09Z" transform="translate(31.816 46.289)" fill="#3d62ad"/>
      <path id="Path_1098" data-name="Path 1098" d="M60.415,164.791c12.242,0,22.615,4.392,26.54,10.56h.794c-.28-3.364-1.682-7.99-11.728-12.055s-17.429-2.99-29.531-.42S32.8,174.089,32.8,174.089l1.589.374C38.687,168.809,48.734,164.791,60.415,164.791Z" transform="translate(30.42 37.112)" fill="#3d62ad"/>
      <path id="Path_1099" data-name="Path 1099" d="M60.532,162.633c13.223,0,23.97,5.7,24.484,12.85H88.24c-.374-8.411-12.616-15.233-27.708-15.233s-27.195,6.729-27.662,15.139l3.224-.374C36.888,168.427,47.5,162.633,60.532,162.633Z" transform="translate(30.677 35.859)" fill="#fcca97"/>
      <path id="Path_1100" data-name="Path 1100" d="M60.9,161.655c12.429,0,22.989,4.673,26.961,10.654h.794c-.28-3.364-1.682-8.084-11.915-12.2s-17.662-3.037-29.951-.421-14.018,11.4-14.018,11.4l1.635.374C38.891,165.673,49.077,161.655,60.9,161.655Z" transform="translate(30.31 25.296)" fill="#e2a069"/>
      <path id="Path_1101" data-name="Path 1101" d="M62.094,159.4c14.018,0,25.512,6.028,26.167,13.6l3.5.654c0-9.345-13.317-16.634-29.671-16.634S32.47,164.5,32.47,173.7h0l3.411-.841C36.488,165.477,47.983,159.4,62.094,159.4Z" transform="translate(29.208 23.997)" fill="#fcca97"/>
      <path id="Path_1102" data-name="Path 1102" d="M41.75,155.7l.7,10.887,2.336-1.776.467-8.411Z" transform="translate(63.29 19.149)" fill="#efb47f"/>
      <path id="Path_1103" data-name="Path 1103" d="M38.911,155.62l-.7,10.887-2.383-1.822-.467-8.411Z" transform="translate(39.822 18.855)" fill="#efb47f"/>
      <path id="Path_1104" data-name="Path 1104" d="M38.467,158.61v12.1l-2.383-1.822-.514-9.345a14.655,14.655,0,0,1,1.869-.561Z" transform="translate(40.593 29.836)" fill="#efb47f"/>
      <path id="Path_1105" data-name="Path 1105" d="M41.75,158.777v12.055l2.383-1.822.514-9.345a17.464,17.464,0,0,0-2.476-.888.654.654,0,0,0-.421,0Z" transform="translate(63.29 30.323)" fill="#5278b5"/>
      <path id="Path_1106" data-name="Path 1106" d="M35.89,156.068s.7,36.072,1.028,39.3c0,.654,4.159,0,4.159,0l-.514-40.184Z" transform="translate(41.768 17.239)" fill="#e2a069"/>
      <path id="Path_1107" data-name="Path 1107" d="M45.6,156.068s-.374,39.063-.981,39.3a15.979,15.979,0,0,1-3.691-.28v-39.9Z" transform="translate(60.278 17.239)" fill="#e2a069"/>
      <path id="Path_1108" data-name="Path 1108" d="M58.351,159.893c-3.832,3.037-9.345,6.355-15.513,11.775-5.28,4.673-4.673,10.513-7.476,14.018s-3.037,15.934,1.355,23.036,15.887,9.953,25.559,8.785,17.9-.748,19.017-9.345,4.673-21.915,3.5-26.494a58.688,58.688,0,0,0-9.065-20.232,11.635,11.635,0,0,0-17.382-1.542Z" transform="translate(32.344 22.806)" fill="#e05959"/>
      <path id="Path_1109" data-name="Path 1109" d="M37.88,172.768a34.624,34.624,0,0,0,16.588,4.345,15.607,15.607,0,0,0,12.009-7.9l2.009-5.467s-8.271,8.971-14.018,9.018a29.671,29.671,0,0,1-12.242-3.645Z" transform="translate(49.077 48.713)" fill="#ce4949"/>
      <path id="Path_1110" data-name="Path 1110" d="M41.086,160.45s-6.915,14.018-6.448,20.793,10.56,9.812,10.56,9.812l2.29-4.018A11.261,11.261,0,0,1,39.871,179,81.211,81.211,0,0,1,41.086,160.45Z" transform="translate(37.086 36.594)" fill="#ce4949"/>
      <path id="Path_1111" data-name="Path 1111" d="M63.708,158.94a66.026,66.026,0,0,1-4.673,15.046c-2.71,5.28-14.952,9.018-20.466,16.447a11.868,11.868,0,0,0-.935,11.495s.888-7.009,12.476-14.018,17.569-10.84,16.728-17.943a29.345,29.345,0,0,0-3.131-11.027Z" transform="translate(44.276 31.048)" fill="#ce4949"/>
      <path id="Path_1112" data-name="Path 1112" d="M33.44,166.1s3.131,7.57,7.99,7.243,4.205-4.392,7.523-6.448a2.8,2.8,0,0,1,4.392,1.635s-.467,4.673,7.009,5.607a27.474,27.474,0,0,0,18.317-3.177,19.951,19.951,0,0,0,3.318-3.551,9.345,9.345,0,0,1-3.318,9.345,26.634,26.634,0,0,1-21.728,6.261c-11.775-1.262-20.419-4.392-21.354-7.9S33.44,166.1,33.44,166.1Z" transform="translate(32.771 57.344)" fill="#ce4949"/>
      <path id="Path_1113" data-name="Path 1113" d="M84.839,164.167c-1.262,6.729-11.681,12.009-24.391,12.009s-23.363-5.42-24.391-12.336l-3.177.327c1.262,7.99,13.13,14.251,27.568,14.251S86.662,172.2,88.017,164.4Z" transform="translate(30.714 49.044)" fill="#fcca97"/>
      <path id="Path_1114" data-name="Path 1114" d="M87.994,160.84c-1.121,7.336-12.382,13.083-26.12,13.083S37.016,168.269,35.8,160.98c-1.121.28-2.2.514-3.271.841,1.869,8.177,14.3,14.532,29.344,14.532s28.036-6.542,29.484-14.859Z" transform="translate(29.429 38.026)" fill="#fcca97"/>
      <path id="Path_1115" data-name="Path 1115" d="M34.172,167.763l1.682-.888a30.563,30.563,0,0,0-.841-5.607c-.28,0-2.009-1.308-1.962-.654S34.172,167.763,34.172,167.763Z" transform="translate(31.337 36.523)" fill="#e2a069"/>
      <path id="Path_1116" data-name="Path 1116" d="M45.662,167.763l-1.682-.888a35.181,35.181,0,0,1,.841-5.607c.28,0,2.009-1.308,1.962-.654S45.662,167.763,45.662,167.763Z" transform="translate(71.48 36.523)" fill="#e2a069"/>
      <path id="Path_1117" data-name="Path 1117" d="M62.341,159.028c14.3,0,26.26,5.514,29.671,12.99a4.159,4.159,0,0,0,0-1.075c0-3.645-1.308-8.925-12.709-13.5s-18.69-3.318-32.054-.467S32.39,169.121,32.39,169.121l1.729.421C38.791,163.374,49.679,159.028,62.341,159.028Z" transform="translate(28.914 14.418)" fill="#e2a069"/>
      <path id="Path_1118" data-name="Path 1118" d="M59.6,181.613c-9.859,0-19.765-4.065-22.242-7.616a23.644,23.644,0,0,1-4.205-7.476l.748,5.28h0c1.075,7.476,12.149,13.364,25.7,13.364s24.858-6.028,25.7-13.6h0l.748-5.467a14.485,14.485,0,0,1-4.159,7.243A30.7,30.7,0,0,1,59.6,181.613Z" transform="translate(31.706 57.344)" fill="#efb47f"/>
      <path id="Path_1119" data-name="Path 1119" d="M35.063,173.286l1.589-.841s-.607-7.336-.981-8.784c0-.327-2.476-1.449-2.43-.841S35.063,173.286,35.063,173.286Z" transform="translate(32.036 44.644)" fill="#e2a069"/>
      <path id="Path_1120" data-name="Path 1120" d="M45.249,173.7l-1.589-.841s1.308-9.345,1.308-9.626c0-1.448,2.056-.327,2.009.28S45.249,173.7,45.249,173.7Z" transform="translate(70.304 44.226)" fill="#e2a069"/>
      <path id="Path_1121" data-name="Path 1121" d="M81.865,166.86a8.785,8.785,0,0,1-1.589,4.252c-3.224,3.925-11.962,6.962-21.214,6.962s-17.2-2.336-20.933-6.495a9.345,9.345,0,0,1-1.869-5,10.827,10.827,0,0,0-2.99.28c0,1.168,1.822,2.617,2.43,3.691,3.411,5.794,11.915,9.626,23.363,9.626s19.485-3.411,23.363-8.925A13.456,13.456,0,0,0,85,167Z" transform="translate(32.146 59.107)" fill="#fcca97"/>
      <path id="Path_1122" data-name="Path 1122" d="M35.7,176.366l1.215-.654s-.7-7.943-1.028-9.345c0-.28-2.336-1.308-2.29-.748S35.7,176.366,35.7,176.366Z" transform="translate(33.358 54.974)" fill="#e2a069"/>
      <path id="Path_1123" data-name="Path 1123" d="M44.745,176.9l-1.5-.794s1.5-9.812,1.5-10.093c0-1.355,1.916-.28,1.869,0S44.745,176.9,44.745,176.9Z" transform="translate(68.799 54.577)" fill="#e2a069"/>
      <path id="Path_1124" data-name="Path 1124" d="M61.507,177.411c-12.429,0-21.728-3.271-25.793-9.813a26.213,26.213,0,0,1-3.084-6.728l.794,5.794v-.841c1.168,8.13,13.41,15.42,28.036,15.42s27.288-7.289,28.036-15.606v.748l.841-5.934a28.971,28.971,0,0,1-3.131,7.149C83.374,173.486,73.8,177.411,61.507,177.411Z" transform="translate(29.796 36.594)" fill="#efb47f"/>
      <path id="Path_1125" data-name="Path 1125" d="M60.018,179.477c-11.635,0-20.466-3.645-24.111-9.345a22.243,22.243,0,0,1-2.9-6.261l.748,5.373v-.794c1.028,7.663,12.523,14.438,26.353,14.438s25.512-6.822,26.4-14.578v.7l.748-5.56a25.231,25.231,0,0,1-2.9,6.682C80.484,175.832,71.512,179.477,60.018,179.477Z" transform="translate(31.191 47.611)" fill="#efb47f"/>
      <path id="Path_1126" data-name="Path 1126" d="M31.99,158.317l6.121,43.408,3.832,5.046-6.4-48.922Z" transform="translate(27.445 27.045)" fill="#efb47f"/>
      <path id="Path_1127" data-name="Path 1127" d="M53.489,158.317l-6.121,43.549L43.49,207.1l6.448-49.249Z" transform="translate(69.68 27.045)" fill="#efb47f"/>
      <path id="Path_1128" data-name="Path 1128" d="M95.033,161.158a13.226,13.226,0,0,0-1.262-3.6,20.56,20.56,0,0,1-5.42,11.4c-4.673,5.56-12.943,6.168-19.905,6.775-11.448,1.028-31.867-2.1-35.605-15.326H32l.748,4.673h0c2.009,8.644,15.092,15.326,31.026,15.326S91.809,174.1,94.566,165.83h0v-1.168a.607.607,0,0,0,0-.28l.561-3.364Z" transform="translate(27.482 25.979)" fill="#efb47f"/>
      <path id="Path_1129" data-name="Path 1129" d="M63.82,154.11c-17.8,0-31.82,8.037-31.82,18.176s14.251,17.943,31.867,17.943,31.867-8.037,31.867-17.943S81.436,154.11,63.82,154.11Zm0,33.316c-15.56,0-28.036-6.915-28.036-15.373S48.448,156.68,63.82,156.68s28.036,6.869,28.036,15.373S79.38,187.426,63.82,187.426Z" transform="translate(27.482 13.31)" fill="#fcca97"/>
      <path id="Path_1130" data-name="Path 1130" d="M36.02,161.79l1.075,35.652,3.738.748-.28-35.372Z" transform="translate(42.246 41.515)" fill="#efb47f"/>
      <path id="Path_1131" data-name="Path 1131" d="M45.613,161.79l-1.075,35.652-3.738.748.28-35.372Z" transform="translate(59.801 41.515)" fill="#efb47f"/>
      <path id="Path_1132" data-name="Path 1132" d="M75.734,169.29s11.074,59.762,11.074,78.546c0,33.082-.327,67.893-.327,67.893a19.064,19.064,0,0,1-10.794,5.794c-12.009,0-13.223-6.028-13.223-6.028s0-39.437-1.215-57.333c-.748-12.476-1.449-30-6.495-44.483a340.723,340.723,0,0,1-1.308,35.839c-.888,11.915-5.887,43.969-6.168,46.072-3.785,4.673-15.606,7.8-21.587,1.075.467-5.28,3.785-42.334,3.364-61.538-.374-17.662-4.906-59.435,5.187-67.566C42.979,160.693,75.734,169.29,75.734,169.29Z" transform="translate(4.308 52.938)" fill="#222"/>
      <path id="Path_1133" data-name="Path 1133" d="M45.8,184.447a80.416,80.416,0,0,0-1.916-14.018l5.887-18.69a11.682,11.682,0,0,0-14.018,2.477,130.036,130.036,0,0,0-10.233,18.69A23.877,23.877,0,0,0,45.8,184.447Z" transform="translate(3.684 -0.253)" fill="#ef476f"/>
      <path id="Path_1134" data-name="Path 1134" d="M46.928,144.08a11.588,11.588,0,0,0-16.541,5.7c-2.009,4.3.841,15.84,1.308,23.97a19.718,19.718,0,0,1-1.822,10.326l5.607,2.336a17.055,17.055,0,0,0,11.448,0v-10a26.3,26.3,0,0,0,7.1-1.869c2.523-2.336,3.878-9.345,2.71-18.27C54.825,142.959,48.564,145.248,46.928,144.08Z" transform="translate(18.955 -29.228)" fill="#ffb8b8"/>
      <path id="Path_1135" data-name="Path 1135" d="M75.146,185.708c3.318-7.056-4.205-19.905-6.308-24.531a19.017,19.017,0,0,0-8.878-7.429L39.54,150.71a95.275,95.275,0,0,0-10.186,24.718,336.427,336.427,0,0,0,0,35.044,66.4,66.4,0,0,1-3.224,23.363A44.623,44.623,0,0,0,60.66,243.6,40.091,40.091,0,0,0,78,232.854C76.5,224.864,68.37,200.193,75.146,185.708Z" transform="translate(5.924 0.822)" fill="#ef476f"/>
      <path id="Path_1136" data-name="Path 1136" d="M49.509,153.33a16.821,16.821,0,0,1-12.99-1.355c-6.822-5.327-7.57,2.149-7.57,2.149a18.037,18.037,0,0,0,8.6,5.841A20.7,20.7,0,0,0,54,158.657C54.042,154.966,49.509,153.33,49.509,153.33Z" transform="translate(16.28 -1.564)" fill="#ef476f"/>
      <path id="Path_1137" data-name="Path 1137" d="M58.078,163.615c.654-2.243,2.2-7.429,2.57-9.345a10,10,0,0,0-2.757-9.345,21.541,21.541,0,0,0-18.971-2.149,17.1,17.1,0,0,0-9.953,21.167c2.523,11.588,4.953,12.9,8.457,15.653a19.625,19.625,0,0,0,8.457,2.944A9.953,9.953,0,0,0,49.434,176V170.39s-3.084-6.074-.7-8.224,5.14,1.355,5.7,2.85C56.536,169.876,58.592,172.306,58.078,163.615Z" transform="translate(13.272 -33.016)" fill="#373738"/>
      <path id="Path_1138" data-name="Path 1138" d="M86.06,182.478c-1.308-.748-2.757.7-3.972,1.5s-2.149,1.4-2.523.888,1.308-3.318.467-3.785-1.121,1.028-2.2,2.243a10.608,10.608,0,0,1-3.5,2.71,99.105,99.105,0,0,1-12.616-5.467,65.416,65.416,0,0,1-7.383-6.215h0a40.286,40.286,0,0,0-1.308-4.673c-.981-2.99-3.832-12.055-3.832-12.055L33.82,163.928a115.733,115.733,0,0,0,6.121,15.093,28.037,28.037,0,0,0,6.915,9.345,42.708,42.708,0,0,0,16.12,6.028c11.261,2.71,18.69-.374,21.073-2.944S89.05,184.207,86.06,182.478Z" transform="translate(34.166 26.201)" fill="#ffb8b8"/>
      <path id="Path_1139" data-name="Path 1139" d="M36.627,188.648a19.064,19.064,0,0,0,19.251-6.261c-2.99-13.457-7.71-28.036-14.018-30.185-3.5-1.168-9.719,10.887-8.691,19.438C33.356,174.07,34.8,180.8,36.627,188.648Z" transform="translate(31.359 6.012)" fill="#ef476f"/>
    </g>
  </g>
</svg>
