<svg xmlns="http://www.w3.org/2000/svg" width="248.108" height="34.732" viewBox="0 0 248.108 34.732">
  <g id="Group_85" data-name="Group 85" transform="translate(-76.28 -125.792)">
    <path id="Path_436" data-name="Path 436" d="M3.838,0V-27.056H2.28V0ZM22.686-1.254q-1.634,0-1.634-1.748v-11.78a4.681,4.681,0,0,0-1.767-3.876,8.265,8.265,0,0,0-5.225-1.406q-3.876,0-5.738,1.558a5.95,5.95,0,0,0-1.938,4.674H7.9a4.78,4.78,0,0,1,1.539-3.724A7.419,7.419,0,0,1,14.06-18.7q5.472,0,5.472,3.914a3.11,3.11,0,0,1-.855,2.413,5.944,5.944,0,0,1-3.135,1.083l-3.154.38q-6.84.874-6.84,5.814A5.139,5.139,0,0,0,7.239-1.045,6.885,6.885,0,0,0,11.97.456q5.586,0,7.6-4.332v.95a3.229,3.229,0,0,0,.684,2.28A2.864,2.864,0,0,0,22.42.076Q22.762.076,23.6,0V-1.292q-.076,0-.437.019T22.686-1.254Zm-10.64.38a5.26,5.26,0,0,1-3.629-1.14A3.971,3.971,0,0,1,7.144-5.13,3.69,3.69,0,0,1,8.455-8.17a8.414,8.414,0,0,1,4.161-1.444l3.154-.418a6.155,6.155,0,0,0,3.762-1.482v3.42A6.866,6.866,0,0,1,17.48-2.736,7.776,7.776,0,0,1,12.046-.874ZM37.734-8.7q-.076,3.914-1.9,5.814A6.08,6.08,0,0,1,31.274-.95a5.545,5.545,0,0,1-4.218-1.558A6.316,6.316,0,0,1,25.574-7.03V-19.608H24.016v12.73A7.537,7.537,0,0,0,25.84-1.444a6.828,6.828,0,0,0,5.168,1.9,7.006,7.006,0,0,0,4.1-1.216,7.589,7.589,0,0,0,2.66-3.382V0h1.52V-19.608H37.734ZM50.312-20.064a7.089,7.089,0,0,0-4.18,1.254,7.238,7.238,0,0,0-2.622,3.458v-4.256H42.028V0h1.558V-10.906q.038-3.876,1.938-5.814a6.116,6.116,0,0,1,4.522-1.938A5.545,5.545,0,0,1,54.264-17.1a6.316,6.316,0,0,1,1.482,4.522V0H57.3V-12.73a7.537,7.537,0,0,0-1.824-5.434A6.828,6.828,0,0,0,50.312-20.064Zm24.966,4.75a7.965,7.965,0,0,0-2.926-3.515,7.906,7.906,0,0,0-4.408-1.235A7.851,7.851,0,0,0,61.6-17.252,11.19,11.19,0,0,0,59.2-9.8,10.949,10.949,0,0,0,61.6-2.394,7.806,7.806,0,0,0,67.944.456a7.457,7.457,0,0,0,7.41-4.94V0h1.482V-27.056H75.278ZM62.814-3.344a9.622,9.622,0,0,1-1.976-6.384,10,10,0,0,1,1.976-6.5A6.391,6.391,0,0,1,68.1-18.658a6.5,6.5,0,0,1,5.32,2.432A10.1,10.1,0,0,1,75.354-9.8a10.1,10.1,0,0,1-1.938,6.422A6.5,6.5,0,0,1,68.1-.95,6.432,6.432,0,0,1,62.814-3.344ZM88.122-19.836a7.416,7.416,0,0,0-4.446,1.311,7.258,7.258,0,0,0-2.622,3.515v-4.6H79.572V0H81.13V-10.868a7.746,7.746,0,0,1,1.862-5.472,6.787,6.787,0,0,1,5.244-2.014,9.341,9.341,0,0,1,1.064.038V-19.8A11.614,11.614,0,0,0,88.122-19.836ZM100.472-9.2Q97.964-2.2,97.66-1.33q-2.2-5.966-2.964-7.9L90.668-19.608h-1.71l7.9,20.1q-.38,1.026-.684,1.786Q94.734,6.156,92,6.156H90.516v1.33q.38.038,1.52.038A4.858,4.858,0,0,0,95.38,6.346a9.2,9.2,0,0,0,2.28-3.724l8.36-22.23h-1.71Z" transform="translate(74 153)" fill="#fff"/>
    <path id="Path_435" data-name="Path 435" d="M13.224-22.648v-4.408a27.612,27.612,0,0,0-2.812-.152,7.248,7.248,0,0,0-5.3,1.748,6.329,6.329,0,0,0-1.767,4.712v1.14H.418v4.332H3.344V0H9.272V-15.276h3.876v-4.332H9.272v-.95q0-2.09,2.356-2.09ZM22.458.456a10.118,10.118,0,0,0,7.486-2.812A10.065,10.065,0,0,0,32.718-9.8a10.116,10.116,0,0,0-2.774-7.486,10.116,10.116,0,0,0-7.486-2.774,10.116,10.116,0,0,0-7.486,2.774A10.118,10.118,0,0,0,12.16-9.8a10.068,10.068,0,0,0,2.812,7.448A10.118,10.118,0,0,0,22.458.456Zm0-4.75A3.813,3.813,0,0,1,19.266-5.7a6.549,6.549,0,0,1-1.1-4.1,6.549,6.549,0,0,1,1.1-4.1,3.813,3.813,0,0,1,3.192-1.406,3.771,3.771,0,0,1,3.154,1.406,6.549,6.549,0,0,1,1.1,4.1,6.549,6.549,0,0,1-1.1,4.1A3.771,3.771,0,0,1,22.458-4.294Zm22.42-15.618a5.414,5.414,0,0,0-5.586,3.952v-3.648H33.516V0h5.928V-9.12q0-5.32,5.206-5.32h1.52v-5.4Q45.03-19.912,44.878-19.912ZM55.29.456a10.247,10.247,0,0,0,6.764-2.2A8.226,8.226,0,0,0,64.98-7.714H59.09q-.38,3.306-3.8,3.306-4.066,0-4.066-5.4,0-5.434,4.066-5.434a3.306,3.306,0,0,1,3.686,3h5.89a8.328,8.328,0,0,0-2.983-5.719,10.041,10.041,0,0,0-6.593-2.109,9.835,9.835,0,0,0-7.334,2.774A10.2,10.2,0,0,0,45.22-9.8a10.224,10.224,0,0,0,2.736,7.448A9.763,9.763,0,0,0,55.29.456ZM71.326,0V-27.056H65.4V0Zm7.448-21.85v-5.016H73.112v5.016ZM78.888,0V-19.608H72.96V0ZM92.454-20.064a7.159,7.159,0,0,0-6.156,3.23v-2.774H80.522V0H86.45V-10.944a4.059,4.059,0,0,1,1.064-3,3.609,3.609,0,0,1,2.66-1.064q3.154,0,3.154,3.344V0h5.928V-12.844a7.31,7.31,0,0,0-1.843-5.339A6.626,6.626,0,0,0,92.454-20.064Zm14.212-1.786v-5.016H101v5.016ZM106.78,0V-19.608h-5.928V0Zm10.906.456a10.247,10.247,0,0,0,6.764-2.2,8.226,8.226,0,0,0,2.926-5.966h-5.89q-.38,3.306-3.8,3.306-4.066,0-4.066-5.4,0-5.434,4.066-5.434a3.306,3.306,0,0,1,3.686,3h5.89a8.328,8.328,0,0,0-2.983-5.719,10.041,10.041,0,0,0-6.593-2.109,9.835,9.835,0,0,0-7.334,2.774A10.2,10.2,0,0,0,107.616-9.8a10.224,10.224,0,0,0,2.736,7.448A9.763,9.763,0,0,0,117.686.456ZM136.04.57a12.255,12.255,0,0,0,6.9-1.653,5.331,5.331,0,0,0,2.451-4.693,5.154,5.154,0,0,0-1.672-4.066,10.046,10.046,0,0,0-5.206-2.014l-2.926-.418a5.565,5.565,0,0,1-2.166-.684,1.464,1.464,0,0,1-.684-1.292q0-1.862,3-1.862,3.572,0,3.61,2.774h5.51q-.342-6.726-9.12-6.726a11.218,11.218,0,0,0-6.536,1.615,5.28,5.28,0,0,0-2.28,4.579q0,4.978,6.612,6l2.546.418a7.353,7.353,0,0,1,2.66.779,1.556,1.556,0,0,1,.722,1.387q0,1.9-3.306,1.9a4.62,4.62,0,0,1-2.755-.646,2.978,2.978,0,0,1-1.007-2.2h-5.776a6.578,6.578,0,0,0,2.527,5.187Q131.4.57,136.04.57Z" transform="translate(179 153)" fill="#f2c81f"/>
  </g>
</svg>
