<svg xmlns="http://www.w3.org/2000/svg" width="319.079" height="275" viewBox="0 0 319.079 275">
  <g id="Layer_2" data-name="Layer 2" transform="translate(0.001 0.04)">
    <g id="Ñëîé_1" data-name="Ñëîé 1" transform="translate(-0.001 -0.04)">
      <circle id="Ellipse_24" data-name="Ellipse 24" cx="112.995" cy="112.995" r="112.995" transform="translate(27.241 4.494)" fill="#06d6a0"/>
      <path id="Path_241" data-name="Path 241" d="M1212.661,671.008a17.079,17.079,0,1,1,17.077-17.078A17.079,17.079,0,0,1,1212.661,671.008Zm0-32.464a15.388,15.388,0,1,0,15.386,15.386A15.388,15.388,0,0,0,1212.661,638.543Z" transform="translate(-942.836 -502.212)" fill="#afdcff"/>
      <path id="Path_242" data-name="Path 242" d="M10.064,737.322a.867.867,0,0,1-.18-.019c-5.742-1.249-9.251-2.344-9.293-2.357a.846.846,0,1,1,.507-1.613c.034,0,3.486,1.087,9.145,2.325a.846.846,0,0,1-.18,1.67Z" transform="translate(0.001 -578.268)" fill="#fff"/>
      <path id="Path_243" data-name="Path 243" d="M145.264,327.283a154.475,154.475,0,0,1-16.574-.928.846.846,0,1,1,.182-1.681,153.292,153.292,0,0,0,16.381.909h1.573a.846.846,0,0,1,.021,1.691C146.321,327.278,145.782,327.283,145.264,327.283Zm19.59-1.516a.848.848,0,1,1-.135-1.691,91.143,91.143,0,0,0,17.305-4.53.846.846,0,1,1,.594,1.583,93.022,93.022,0,0,1-17.626,4.617,1.025,1.025,0,0,1-.148.021Zm33.471-12.9a.846.846,0,0,1-.482-1.539,64.952,64.952,0,0,0,13.077-12.06.846.846,0,1,1,1.306,1.076,66.618,66.618,0,0,1-13.42,12.373A.845.845,0,0,1,198.325,312.872Zm22.831-27.484a.83.83,0,0,1-.383-.093.846.846,0,0,1-.37-1.135c2.96-5.824,5.816-11.022,8.737-15.9a.846.846,0,1,1,1.45.871c-2.9,4.837-5.742,10-8.68,15.789A.846.846,0,0,1,221.156,285.388Zm18.753-30.864a.846.846,0,0,1-.674-1.353,124.826,124.826,0,0,1,11.914-13.741.846.846,0,0,1,1.188,1.2,123.351,123.351,0,0,0-11.752,13.549.845.845,0,0,1-.674.342Zm25.74-25.139a.846.846,0,0,1-.478-1.545,97.21,97.21,0,0,1,15.942-8.781.846.846,0,1,1,.674,1.552,95.524,95.524,0,0,0-15.665,8.627A.846.846,0,0,1,265.649,229.384Zm32.9-14.485a.846.846,0,0,1-.211-1.666,145.982,145.982,0,0,1,17.869-3.281.846.846,0,1,1,.211,1.678,144.178,144.178,0,0,0-17.66,3.243A.869.869,0,0,1,298.549,214.9Zm53.868-4.494h-.032c-3.636-.135-7.213-.211-10.635-.211h0c-2.5,0-4.985.036-7.38.108a.846.846,0,0,1-.051-1.691c2.412-.074,4.913-.11,7.431-.11h0c3.444,0,7.042.068,10.7.211a.846.846,0,0,1-.032,1.691Z" transform="translate(-100.87 -164.415)" fill="#fff"/>
      <path id="Path_244" data-name="Path 244" d="M1282.372,217.553h-.091c-3.207-.347-6.386-.657-9.452-.924a.849.849,0,0,1,.148-1.691c3.076.268,6.266.579,9.485.926a.847.847,0,0,1-.091,1.691Z" transform="translate(-1003.144 -169.489)" fill="#fff"/>
      <path id="Path_245" data-name="Path 245" d="M681.892,108.348c-.154,5.8-3.488,10.659-4.991,12.561a.869.869,0,0,1-1.4-.038c-1.4-1.983-4.469-7.018-4.315-12.817s3.488-10.663,4.991-12.57a.869.869,0,0,1,1.4.038C678.977,97.514,682.047,102.549,681.892,108.348Z" transform="translate(-529.296 -75.027)" fill="#fff"/>
      <path id="Path_246" data-name="Path 246" d="M693.268,116.9a1.725,1.725,0,0,1-1.664-1.287c-.611-2.347-1.789-8.412.5-14.047s7.367-9.166,9.437-10.42a1.717,1.717,0,0,1,2.552,1.042c.613,2.347,1.788,8.412-.5,14.047s-7.361,9.164-9.437,10.418A1.7,1.7,0,0,1,693.268,116.9Zm9.164-24.313a.032.032,0,0,0-.015,0c-1.93,1.167-6.646,4.439-8.745,9.608s-1,10.8-.423,12.984a.027.027,0,0,0,.04.017c1.93-1.169,6.649-4.439,8.746-9.608s1-10.8.423-12.984a.023.023,0,0,0-.015-.019Z" transform="translate(-544.729 -71.673)" fill="#3c3372"/>
      <path id="Path_247" data-name="Path 247" d="M1060.034,4.742,1065.44.209a1.027,1.027,0,0,1,1.691.655l.9,6.991a1.021,1.021,0,0,0,.233.528l4.53,5.4a1.028,1.028,0,0,1-.655,1.691l-6.989.9a1.023,1.023,0,0,0-.529.233l-5.4,4.53a1.025,1.025,0,0,1-1.679-.655l-.9-6.989a1.02,1.02,0,0,0-.23-.528l-4.552-5.408a1.028,1.028,0,0,1,.655-1.681l6.989-.9a1.023,1.023,0,0,0,.531-.233Z" transform="translate(-829.308 0.04)" fill="#06d6a0"/>
      <path id="Path_248" data-name="Path 248" d="M167.846,123.187l-64.46-10.86a12.124,12.124,0,0,0-13.927,9.912l-5.583,33.132a12.122,12.122,0,0,0,9.91,13.927l39.532,6.661,11.09,15.732a4.15,4.15,0,0,0,7.534-2.131l.649-10.359,5.653.951a12.122,12.122,0,0,0,13.927-9.91l5.581-33.132A12.124,12.124,0,0,0,167.846,123.187Z" transform="translate(-66.015 -88.444)" fill="#fff"/>
      <path id="Path_249" data-name="Path 249" d="M1101.407,293.712l-55.526-18.138a11.158,11.158,0,0,0-14.069,7.143l-9.09,27.841a11.158,11.158,0,0,0,7.143,14.071l2.469.805-5.031,7.249a3.714,3.714,0,0,0,4.251,5.634l19.66-6.714,34.175,11.162a11.158,11.158,0,0,0,14.071-7.141l9.09-27.841A11.158,11.158,0,0,0,1101.407,293.712Z" transform="translate(-806.083 -216.873)" fill="#fff"/>
      <path id="Path_250" data-name="Path 250" d="M1060.638,328.68a4.577,4.577,0,0,1-4.055-6.619l3.444-6.87-1.44-.254a12.005,12.005,0,0,1-9.754-13.893l5.055-28.85a12.018,12.018,0,0,1,13.893-9.754l57.536,10.079a12,12,0,0,1,9.752,13.893l-5.052,28.854a12,12,0,0,1-13.9,9.752l-35.134-6.158-18.256,9.3A4.583,4.583,0,0,1,1060.638,328.68Zm5.073-64.728a10.327,10.327,0,0,0-10.147,8.534l-5.065,28.85a10.314,10.314,0,0,0,8.374,11.936l2.558.448a.846.846,0,0,1,.611,1.213l-3.953,7.887a2.869,2.869,0,0,0,3.869,3.841l18.508-9.435a.833.833,0,0,1,.528-.08l35.416,6.2a10.312,10.312,0,0,0,11.936-8.378l5.053-28.85a10.31,10.31,0,0,0-8.378-11.936h0l-57.53-10.077a10.466,10.466,0,0,0-1.784-.156Z" transform="translate(-826.968 -206.811)" fill="#ef476f"/>
      <path id="Path_251" data-name="Path 251" d="M16.783,5.171a.627.627,0,0,1-.126-.013L.6,1.74A.876.876,0,0,1,.011.726.747.747,0,0,1,.845.013L16.909,3.431a.861.861,0,0,1,.592.939A.8.8,0,0,1,16.783,5.171Z" transform="matrix(0.999, -0.035, 0.035, 0.999, 233.524, 63.465)" fill="#ffd166"/>
      <path id="Path_314" data-name="Path 314" d="M9.309,5.171a.2.2,0,0,1-.07-.013L.33,1.74C.113,1.657-.032,1.2.006.726S.251-.07.468.013l8.91,3.418c.2.078.347.486.329.939S9.516,5.171,9.309,5.171Z" transform="translate(231.844 71.291) rotate(-11)" fill="#ffd166"/>
      <path id="Path_253" data-name="Path 253" d="M1.812,1.087A.915.915,0,0,1,.755,1.84.925.925,0,0,1,.014.768.908.908,0,0,1,1.66.394.939.939,0,0,1,1.812,1.087Z" transform="matrix(0.999, -0.035, 0.035, 0.999, 253.906, 66.998)" fill="#ffd166"/>
      <path id="Path_258" data-name="Path 258" d="M122.714,201.406a4.951,4.951,0,0,1-3.571-1.537l-13.128-13.582-39.743-.509a12.946,12.946,0,0,1-12.766-13.1l.423-33.6a12.963,12.963,0,0,1,13.107-12.766l65.362.846a12.963,12.963,0,0,1,12.766,13.1l-.423,33.6a12.967,12.967,0,0,1-13.107,12.766l-4.79-.061.86,9.4a4.938,4.938,0,0,1-2.894,5A5.031,5.031,0,0,1,122.714,201.406ZM66.873,128a11.278,11.278,0,0,0-11.238,11.1l-.423,33.6a11.253,11.253,0,0,0,11.082,11.384l40.1.516a.845.845,0,0,1,.6.258L120.359,198.7a3.306,3.306,0,0,0,5.67-2.6l-.947-10.331a.833.833,0,0,1,.846-.924l5.731.074a11.276,11.276,0,0,0,11.39-11.1l.423-33.6a11.276,11.276,0,0,0-11.1-11.384l-65.362-.846Z" transform="translate(-42.194 -99.605)" fill="#ef476f"/>
      <path id="Path_259" data-name="Path 259" d="M131.421,184.362a19.062,19.062,0,0,0-4.942-1.315v-1.8a1.076,1.076,0,1,0-2.152,0V183a6.18,6.18,0,0,0-2.721.831,5.4,5.4,0,0,0-2.427,4.623c-.226,4.082,2.566,5.748,5.148,6.815v8.056a26.5,26.5,0,0,1-5.042-.833,1.076,1.076,0,1,0-.52,2.089,27.827,27.827,0,0,0,5.562.89v2.355a1.076,1.076,0,0,0,2.152,0V205.39a6.386,6.386,0,0,0,3.139-1.222c1.4-1.1,2.114-2.848,2.114-5.2,0-3.116-2.767-4.209-5.253-5.154v-8.6a16.762,16.762,0,0,1,4.082,1.127,1.077,1.077,0,0,0,.86-1.974Zm-10.092,4.228a3.35,3.35,0,0,1,1.4-2.909,3.959,3.959,0,0,1,1.6-.5v7.75C122.329,191.972,121.2,190.877,121.329,188.59Zm8.245,10.38a4.167,4.167,0,0,1-1.287,3.509,4.091,4.091,0,0,1-1.814.748v-7.1c1.949.767,3.114,1.442,3.114,2.839Z" transform="translate(-93.014 -142.074)" fill="#ef476f"/>
      <circle id="Ellipse_25" data-name="Ellipse 25" cx="9.98" cy="9.98" r="9.98" transform="matrix(0.883, -0.47, 0.47, 0.883, 61.922, 40.248)" fill="#ffd166"/>
      <rect id="Rectangle_51" data-name="Rectangle 51" width="35.113" height="2.85" rx="1.425" transform="translate(55.101 67.127)" fill="#ffd166"/>
      <rect id="Rectangle_52" data-name="Rectangle 52" width="21.522" height="2.85" rx="1.425" transform="translate(61.896 71.67)" fill="#ef476f"/>
      <path id="Path_260" data-name="Path 260" d="M134.619,751.2a1.785,1.785,0,0,1-.966-.285,114.879,114.879,0,0,1-50.913-75.078,1.8,1.8,0,1,1,3.528-.674,111.619,111.619,0,0,0,49.323,72.721,1.8,1.8,0,0,1-.972,3.311Z" transform="translate(-65.214 -531.234)" fill="#06d6a0"/>
      <path id="Path_261" data-name="Path 261" d="M298.49,859.482h-.114a.846.846,0,0,1-.725-.951c1.691-12.707,17.643-50.228,18.322-51.818a.846.846,0,1,1,1.556.662c-.165.389-16.538,38.9-18.2,51.37A.846.846,0,0,1,298.49,859.482Z" transform="translate(-234.722 -635.747)" fill="#042946"/>
      <path id="Path_262" data-name="Path 262" d="M293.546,562.222a9.371,9.371,0,1,1,8.538-5.475A9.371,9.371,0,0,1,293.546,562.222Zm.025-17.051a7.68,7.68,0,1,0,6.976,10.872h0a7.678,7.678,0,0,0-6.976-10.872Z" transform="translate(-224.112 -428.58)" fill="#fff"/>
      <circle id="Ellipse_26" data-name="Ellipse 26" cx="2.695" cy="2.695" r="2.695" transform="translate(204.029 131.444) rotate(-2.8)" fill="#fff"/>
      <path id="Path_263" data-name="Path 263" d="M320.716,26.558a2.7,2.7,0,1,1-1.332-3.571A2.7,2.7,0,0,1,320.716,26.558Z" transform="translate(-248.857 -17.927)" fill="#06d6a0"/>
      <circle id="Ellipse_27" data-name="Ellipse 27" cx="6.854" cy="6.854" r="6.854" transform="matrix(0.449, -0.894, 0.894, 0.449, 41.096, 236.788)" fill="#06d6a0"/>
      <path id="Path_264" data-name="Path 264" d="M275.9,637.3a.83.83,0,0,1-.351-.076.846.846,0,0,1-.423-1.121l6.909-15.115a.846.846,0,0,1,1.539.7l-6.909,15.115A.846.846,0,0,1,275.9,637.3Z" transform="translate(-216.907 -489.317)" fill="#fff"/>
      <path id="Path_265" data-name="Path 265" d="M85.533,933c-4.71-4.228-8.479.387-9.686,2.188a1.436,1.436,0,0,1-1.182.634c-2.169,0-8.1.55-7.221,6.813.89,6.376,12.422,9.724,16.229,10.674a1.427,1.427,0,0,0,1.655-.882C86.672,948.738,90.323,937.3,85.533,933Z" transform="translate(-53.117 -734.388)" fill="#ffd166"/>
      <path id="Path_266" data-name="Path 266" d="M71.222,969.683a2.238,2.238,0,0,1-.524-.063c-4.756-1.173-15.92-4.634-16.863-11.375a6.42,6.42,0,0,1,1.29-5.329c1.865-2.139,5.038-2.454,6.765-2.448h0a.586.586,0,0,0,.476-.254c.962-1.437,3-3.9,5.811-4.251a6.459,6.459,0,0,1,5.141,1.9h0c5.074,4.545,1.706,15.739.025,20.341A2.283,2.283,0,0,1,71.222,969.683ZM61.87,952.158c-1.173,0-4,.186-5.471,1.869a4.813,4.813,0,0,0-.888,3.983c.82,5.881,12.143,9.116,15.593,9.967a.575.575,0,0,0,.657-.349c1.22-3.338,4.862-14.54.435-18.5h0a4.787,4.787,0,0,0-3.805-1.48c-2.228.279-3.97,2.549-4.617,3.513a2.287,2.287,0,0,1-1.879,1Z" transform="translate(-42.378 -745.947)" fill="#ef476f"/>
      <path id="Path_267" data-name="Path 267" d="M633.079,776.487l-42.673-84.137H583.24c3.023-3.234,3.763-6.082-.345-7.6a24.794,24.794,0,0,0-7.312-1.108h-.028c-24.334-.9-35.483-.159-39.073.186-.846.085-1.268.144-1.355.156h-.015l-2.875,8.361H521.9s-3.522.907-11.39,8.473-8.171,23-7.264,42.673c.524,11.354-1.457,35.092-2.826,53.528-.423,5.651-.782,10.8-1,14.952H624.2a6.137,6.137,0,0,0,1.617-5.53C623.092,793.437,633.079,776.487,633.079,776.487Z" transform="translate(-393.843 -538.778)" fill="#ef476f"/>
      <path id="Path_268" data-name="Path 268" d="M712.684,516.18s-46.759,7.49-38.474-7.037c2.651-4.651,4.175-10.583,5.023-16.489a111.635,111.635,0,0,0,.922-18.392c-.114-4.034-.374-6.646-.374-6.646s20.429-18.392,19.066-1.361a39.017,39.017,0,0,0,.33,8.061c.144,1.076.317,2.182.522,3.3a126.277,126.277,0,0,0,4.319,16.352c.044.14.091.281.137.423C708.073,506.2,712.684,516.18,712.684,516.18Z" transform="translate(-530.907 -361.977)" fill="#ffb1a9"/>
      <path id="Path_269" data-name="Path 269" d="M726.393,548.99a48.686,48.686,0,0,1-24.793-1.323,111.649,111.649,0,0,0,.922-18.392c5.547-.846,13.242-.412,19.026.053.144,1.076.317,2.182.522,3.3A126.722,126.722,0,0,0,726.393,548.99Z" transform="translate(-553.283 -416.999)" fill="#ff7c76"/>
      <path id="Path_270" data-name="Path 270" d="M613.516,257.6s-13.379-8.8-9.513-22.292c5.3-18.563,14.164-21.842,23.381-22.831a1.116,1.116,0,0,1,1.076,1.691c-1.167,1.939-2.518,4.917-1.249,6.82a1.885,1.885,0,0,0,3.27-.33c1.748-3.894,6.976-12.352,18.971-10.716a1.114,1.114,0,0,1,.708,1.805c-1.178,1.448-2.767,3.738-2.96,5.737a1.888,1.888,0,0,0,2.735,1.839c2.892-1.457,9.162-3.738,14.352.478,4.387,3.564,4.029,6.741,3.156,8.614a.772.772,0,0,1-1.455-.192c-.309-1.617-1.029-3.556-2.687-2.96-2.731.983,10.054,22.072-8.086,38.026-9.3,8.171-32.133-3.059-32.133-3.059Z" transform="translate(-475.765 -165.392)" fill="#1d1238"/>
      <path id="Path_271" data-name="Path 271" d="M695.016,357.071v24.283a21.334,21.334,0,0,1-21.33,21.334h-.723a21.334,21.334,0,0,1-21.343-21.334V356.885a8.141,8.141,0,0,1,6.676-7.822,7.385,7.385,0,0,1,2.2-.04c3.33.408,17.153,1.949,24.085.452a6.553,6.553,0,0,1,4.786.8,20.946,20.946,0,0,1,2.818,2.025C693.735,353.637,695.016,355.286,695.016,357.071Z" transform="translate(-513.868 -275.181)" fill="#ffb1a9"/>
      <path id="Path_272" data-name="Path 272" d="M836.495,418.128s4.528-5.792,8.033-1.748-.328,16.172-9.724,19.449S836.495,418.128,836.495,418.128Z" transform="translate(-655.347 -327.218)" fill="#ffb1a9"/>
      <path id="Path_273" data-name="Path 273" d="M615.835,418.128s-4.528-5.792-8.033-1.748.328,16.172,9.724,19.449S615.835,418.128,615.835,418.128Z" transform="translate(-478.303 -327.218)" fill="#ffb1a9"/>
      <path id="Path_274" data-name="Path 274" d="M880.856,799.268h-23s-26.027-61.739-32.978-81.714c-3.048-8.741-8.817-14.064-14.343-17.692-.917-.6-1.829-1.156-2.719-1.67s-1.763-1-2.6-1.444c-.994-.531-1.941-1.019-2.816-1.48s-1.725-.9-2.45-1.321c-1.979-1.146-3.22-2.158-3.22-3.33,0-4.843,7.57-5.285,7.57-5.285s2.235-.087,5.725-.093h.028c1.524,0,3.285,0,5.2.044q1.167.022,2.406.059c.761.023,1.539.051,2.325.089,9.784.423,21.563,1.653,27.271,5.033,10.743,6.342,25.118,60.982,26.33,66.578S880.856,799.268,880.856,799.268Z" transform="translate(-628.302 -540.373)" fill="#ef476f"/>
      <path id="Path_275" data-name="Path 275" d="M803.506,743.6h-.391a.846.846,0,0,1,.066-1.691,30.84,30.84,0,0,0,8.828-1.306A25.233,25.233,0,0,0,826.735,729.9a.846.846,0,1,1,1.427.907,27.48,27.48,0,0,1-15.732,11.443A33.141,33.141,0,0,1,803.506,743.6Z" transform="translate(-632.696 -575.267)" fill="#c4b9ed"/>
      <path id="Path_276" data-name="Path 276" d="M993.491,792.724H890.58a7.209,7.209,0,0,1-7.2-7.2V718.54a.846.846,0,1,1,1.691,0v66.984a5.515,5.515,0,0,0,5.509,5.509H993.491A5.517,5.517,0,0,0,999,785.524V718.54a5.518,5.518,0,0,0-5.511-5.509H890.58a.846.846,0,0,1,0-1.691H993.491a7.209,7.209,0,0,1,7.2,7.2v66.984A7.209,7.209,0,0,1,993.491,792.724Z" transform="translate(-696.635 -560.955)" fill="#f0eeff"/>
      <path id="Path_277" data-name="Path 277" d="M456.415,892.8s-.41,58.526,39.555,61.593-53.014,2.845-53.014,2.845L422.12,943.233a44.672,44.672,0,0,1,6.594-20.518C435.077,912.555,456.415,892.8,456.415,892.8Z" transform="translate(-332.884 -704.055)" fill="#b2304f"/>
      <path id="Path_278" data-name="Path 278" d="M546.722,1211.906h-47.3c.211-4.148.577-9.3,1-14.952l51.484-6.6S545.5,1201.541,546.722,1211.906Z" transform="translate(-393.843 -938.703)" fill="#b2304f"/>
      <rect id="Rectangle_53" data-name="Rectangle 53" width="115.622" height="79.693" rx="25.85" transform="translate(194.743 156.401)" fill="#042946"/>
      <path id="Path_279" data-name="Path 279" d="M1101.8,1142.983h-24.08l11.067-40.033h24.078Z" transform="translate(-849.891 -869.779)" fill="#042946"/>
      <rect id="Rectangle_54" data-name="Rectangle 54" width="55.384" height="8.365" rx="4.183" transform="translate(212.299 264.838)" fill="#042946"/>
      <path id="Path_280" data-name="Path 280" d="M866.034,1224.64h5.035a9.135,9.135,0,0,1,9.135,9.134v5.173H856.9v-5.173A9.135,9.135,0,0,1,866.034,1224.64Z" transform="translate(-675.752 -965.745)" fill="#1d1238"/>
      <path id="Path_281" data-name="Path 281" d="M423.733,784.681v17.7c-2.869-.452-14.375-4.765-43.8,5.9A101.027,101.027,0,0,1,350,813.871c-20.258.845-37.84-3.788-39.838-9.441-2.957-8.4,24.288-98.964,33.141-104.866,5.3-3.537,19.85-7.8,30.653-10.648l2.268-.584c.814-.211,1.6-.41,2.349-.6,3.215-.814,5.761-1.421,7.116-1.74h.015l1.057-.249a2.546,2.546,0,0,1,.3.093c.867.328,3.49,1.712,5.727,6.93a2.115,2.115,0,0,1-.013,1.59,6.033,6.033,0,0,1-1.008,1.706,17.593,17.593,0,0,1-1.778,1.9c-.6.573-1.283,1.171-2.021,1.786-1.368,1.148-2.938,2.37-4.608,3.657-9.384,7.236-21.668,56.993-25.981,66.755s-9.534,12.029,11.122,9.987S423.733,784.681,423.733,784.681Z" transform="translate(-244.414 -540.767)" fill="#ef476f"/>
      <path id="Path_282" data-name="Path 282" d="M842.979,1181.1c-4.063-.178-9.02-9.724-19.449-7.777a14.489,14.489,0,0,1-4.978.036,15.392,15.392,0,0,1-1.96-.452c-4.6-1.379-7.832-4.7-6.5-7.367a64.567,64.567,0,0,1,3.547-5.974c.211-.315.408-.62.6-.905l.025-.044a4.545,4.545,0,0,1,4.651-1.934c6.23,1.215,20.622,4.752,26.9,12.4C853.944,1178.98,847.04,1181.28,842.979,1181.1Z" transform="translate(-638.601 -912.087)" fill="#ffb1a9"/>
      <path id="Path_283" data-name="Path 283" d="M91.873,1287.414H73.587a1.8,1.8,0,0,1,0-3.594H91.873a1.8,1.8,0,0,1,0,3.594Z" transform="translate(-56.613 -1012.414)" fill="#06d6a0"/>
      <path id="Path_284" data-name="Path 284" d="M490.713,1287.414H235.3a1.8,1.8,0,0,1,0-3.594H490.713a1.8,1.8,0,0,1,0,3.594Z" transform="translate(-184.138 -1012.414)" fill="#06d6a0"/>
      <ellipse id="Ellipse_28" data-name="Ellipse 28" cx="2.106" cy="3.746" rx="2.106" ry="3.746" transform="translate(147.552 89.405)" fill="#1d1238"/>
      <ellipse id="Ellipse_29" data-name="Ellipse 29" cx="2.106" cy="3.746" rx="2.106" ry="3.746" transform="translate(168.314 89.405)" fill="#1d1238"/>
      <path id="Path_285" data-name="Path 285" d="M749.612,449.477l2.636,10.314c.036.146-.125.277-.338.277H747.4c-.2,0-.355-.116-.34-.252l1.877-10.318C748.961,449.221,749.54,449.2,749.612,449.477Z" transform="translate(-589.129 -354.294)" fill="#ff7c76"/>
      <path id="Path_286" data-name="Path 286" d="M613.581,444.089c.342,1.679,2.253,2.706,4.268,2.3s3.372-2.114,3.029-3.786-2.256-2.708-4.27-2.3S613.236,442.408,613.581,444.089Z" transform="translate(-483.828 -347.143)" fill="#fff"/>
      <path id="Path_287" data-name="Path 287" d="M617.883,452.676l3.171,12.149a.763.763,0,0,1-1.465.423l-3.776-11.978a1.078,1.078,0,0,1,2.057-.647A.491.491,0,0,1,617.883,452.676Z" transform="translate(-485.592 -356.336)" fill="#fff"/>
      <path id="Path_288" data-name="Path 288" d="M692.205,352.3a4.535,4.535,0,0,1-3.129,1.681c-6.638,1.038-15.409-2.1-26.306-2.431-7.052-.211-9.921,3.04-11.13,5.34a8.141,8.141,0,0,1,6.676-7.822,7.382,7.382,0,0,1,2.2-.04c3.329.408,17.153,1.949,24.085.452a6.553,6.553,0,0,1,4.786.8A20.938,20.938,0,0,1,692.205,352.3Z" transform="translate(-513.884 -275.181)" fill="#ff7c76"/>
      <path id="Path_289" data-name="Path 289" d="M681.033,673.613a9.58,9.58,0,0,1-.3,1c-1,2.869-3.327,5.469-6.6,7.6a30.5,30.5,0,0,1-5.547,2.8,46.85,46.85,0,0,1-16.825,2.96,48.235,48.235,0,0,1-14.51-2.135,32.886,32.886,0,0,1-7.3-3.258c-.192-.118-.378-.235-.562-.355a17.084,17.084,0,0,1-5.9-6.019c4.313-1.116,7.325-1.949,9.316-2.429a52.032,52.032,0,0,1,18.956-3.418C657.7,670.356,678.177,673.527,681.033,673.613Z" transform="translate(-491.685 -528.638)" fill="#ffb1a9"/>
      <path id="Path_290" data-name="Path 290" d="M688.181,397.535a.518.518,0,0,1-.323-.112.528.528,0,0,1-.093-.742c.032-.04,3.148-3.949,7.422-1.48a.528.528,0,0,1-.529.915,4.677,4.677,0,0,0-6.059,1.218A.527.527,0,0,1,688.181,397.535Z" transform="translate(-542.284 -311.003)" fill="#1d1238"/>
      <path id="Path_291" data-name="Path 291" d="M794.956,397.493a.527.527,0,0,1-.423-.211c-.106-.133-2.59-3.22-6.061-1.22a.528.528,0,1,1-.529-.915c4.277-2.467,7.4,1.444,7.422,1.48a.529.529,0,0,1-.093.742A.517.517,0,0,1,794.956,397.493Z" transform="translate(-621.165 -310.961)" fill="#1d1238"/>
      <path id="Path_292" data-name="Path 292" d="M739.8,529.289a23.035,23.035,0,0,0,12.113-.5c.579-.211,1.084.307.746.748-1.268,1.657-3.708,4.179-7.05,4.577-3.613.423-5.708-2.41-6.61-4.053C738.768,529.64,739.261,529.171,739.8,529.289Z" transform="translate(-582.728 -416.956)" fill="#fff"/>
      <path id="Path_293" data-name="Path 293" d="M710.8,343.759a.742.742,0,0,1-.721-.571c-.042-.175-1.177-4.4-8.061-2.96-3.192.666-6.04-.592-8.245-3.634a16.653,16.653,0,0,1-2.3-4.676.74.74,0,0,1,1.425-.4h0c.1.351,2.513,8.574,8.807,7.262,8.342-1.74,9.792,4.017,9.8,4.08a.742.742,0,0,1-.552.89A.78.78,0,0,1,710.8,343.759Z" transform="translate(-545.276 -261.001)" fill="#1d1238"/>
      <path id="Path_294" data-name="Path 294" d="M612.455,254.665a.74.74,0,0,1-.706-.52,35.3,35.3,0,0,1-1.359-9.513c-.019-6.934,2.325-12.282,6.765-15.464a.74.74,0,1,1,.86,1.2c-9.822,7.044-4.9,23.163-4.854,23.332a.74.74,0,0,1-.706.962Z" transform="translate(-481.354 -180.593)" fill="#1d1238"/>
      <path id="Path_295" data-name="Path 295" d="M884.191,316.689a.825.825,0,0,1-.144-.013.74.74,0,0,1-.583-.869c1.258-6.431-5.672-13.694-5.742-13.768a.74.74,0,1,1,1.057-1.027c.309.319,7.534,7.9,6.13,15.079A.742.742,0,0,1,884.191,316.689Z" transform="translate(-691.97 -237.155)" fill="#1d1238"/>
      <ellipse id="Ellipse_30" data-name="Ellipse 30" cx="3.103" cy="3.725" rx="3.103" ry="3.725" transform="matrix(0.2, -0.98, 0.98, 0.2, 181.359, 98.493)" fill="#fff"/>
      <path id="Path_296" data-name="Path 296" d="M873.562,453.267,869.8,465.242a.763.763,0,0,1-1.465-.423L871.5,452.67a1.078,1.078,0,1,1,2.087.543Z" transform="translate(-684.75 -356.332)" fill="#fff"/>
      <path id="Path_297" data-name="Path 297" d="M674.858,685a2.465,2.465,0,0,1-.059.44,11.353,11.353,0,0,1-.37,1.268c-1.148,3.283-3.754,6.321-7.53,8.775a31.651,31.651,0,0,1-4.228,2.283c-.566.256-1.152.5-1.75.733a49.208,49.208,0,0,1-17.673,3.108,50.967,50.967,0,0,1-15.221-2.245c-.444-.14-.882-.288-1.315-.44a33.921,33.921,0,0,1-6.5-3.055c-.211-.129-.423-.258-.617-.391a19.2,19.2,0,0,1-6.684-6.868,2.29,2.29,0,0,1-.211-.514l2.281-.594c.814-.211,1.6-.41,2.349-.6a15.371,15.371,0,0,0,4.826,4.651c.173.114.345.222.516.328a30.527,30.527,0,0,0,6.777,3.023q.531.167,1.072.319a46.823,46.823,0,0,0,12.732,1.706,45.816,45.816,0,0,0,14.009-2.091c.67-.211,1.328-.45,1.966-.7a28.276,28.276,0,0,0,5.116-2.581c2.9-1.888,4.862-4.1,5.672-6.412.034-.1.114-.362.142-.459.778.015,1.535.211,2.359.226C673.285,684.929,674.069,684.959,674.858,685Z" transform="translate(-483.176 -539.931)" fill="#f0eeff"/>
      <path id="Path_298" data-name="Path 298" d="M632.8,1131.983a.76.76,0,0,1-.137,0c-11.838-1.924-33.9-4.932-48.814-3.456a.85.85,0,0,1-.165-1.691c15.109-1.495,37.341,1.533,49.256,3.471a.846.846,0,0,1-.133,1.678Z" transform="translate(-459.692 -888.299)" fill="#c4b9ed"/>
      <path id="Path_299" data-name="Path 299" d="M843.99,554.218a.634.634,0,0,1-.283-1.2c9.156-4.532,7.915-12.016,7.858-12.333a.634.634,0,1,1,1.247-.23,11.25,11.25,0,0,1-.471,5.008c-.8,2.537-2.845,6.105-8.071,8.691A.633.633,0,0,1,843.99,554.218Z" transform="translate(-665.073 -425.785)" fill="#ffb1a9"/>
      <path id="Path_300" data-name="Path 300" d="M884.226,719.386a.846.846,0,0,1-.846-.846,7.425,7.425,0,0,1,7.447-7.2.846.846,0,1,1,0,1.691,5.712,5.712,0,0,0-5.756,5.509A.845.845,0,0,1,884.226,719.386Z" transform="translate(-696.635 -560.955)" fill="#f0eeff"/>
      <path id="Path_301" data-name="Path 301" d="M1502.216,865.71a.846.846,0,0,1-.846-.846V822.5a.846.846,0,1,1,1.691,0v42.368a.846.846,0,0,1-.846.846Z" transform="translate(-1183.983 -647.946)" fill="#042946"/>
      <path id="Path_302" data-name="Path 302" d="M1161.48,904a8.9,8.9,0,1,1,8.9-8.9A8.9,8.9,0,0,1,1161.48,904Zm0-16.525a7.629,7.629,0,1,0,7.627,7.628A7.629,7.629,0,0,0,1161.48,887.47Z" transform="translate(-908.926 -698.85)" fill="#ffd166"/>
      <path id="Path_303" data-name="Path 303" d="M693.992,857.476,691.438,855l2.053-2.9a.615.615,0,1,0-1-.71l-1.943,2.748-2.416-2.338a.615.615,0,1,0-.846.884l2.554,2.469-2.051,2.9a.615.615,0,1,0,1,.71l1.941-2.748,2.419,2.338a.607.607,0,0,0,.423.173.615.615,0,0,0,.423-1.057Z" transform="translate(-541.802 -671.187)" fill="#b2304f"/>
      <path id="Path_304" data-name="Path 304" d="M847.225,936.128l-2.554-2.469,2.051-2.9a.615.615,0,0,0-1-.71l-1.941,2.748-2.418-2.34a.615.615,0,0,0-.846.884l2.554,2.471-2.053,2.9a.617.617,0,0,0,.148.858.608.608,0,0,0,.353.112.615.615,0,0,0,.5-.26l1.943-2.748,2.416,2.338a.615.615,0,1,0,.846-.884Z" transform="translate(-662.716 -733.232)" fill="#b2304f"/>
      <path id="Path_305" data-name="Path 305" d="M489.544,899.188l-2.556-2.469,2.053-2.9a.615.615,0,0,0-1-.71l-1.943,2.742-2.416-2.325a.615.615,0,0,0-.856.884l2.556,2.471-2.053,2.9a.615.615,0,0,0,.148.858.608.608,0,0,0,.353.112.617.617,0,0,0,.5-.26l1.943-2.748,2.416,2.336a.615.615,0,0,0,.856-.884Z" transform="translate(-380.606 -704.101)" fill="#b2304f"/>
      <path id="Path_306" data-name="Path 306" d="M1030.994,1164.146l-2.554-2.471,2.053-2.9a.615.615,0,1,0-1-.71l-1.943,2.748-2.418-2.342a.615.615,0,1,0-.846.884l2.554,2.469-2.051,2.9a.615.615,0,1,0,1,.71l1.943-2.748,2.418,2.338a.607.607,0,0,0,.423.173.615.615,0,0,0,.423-1.057Z" transform="translate(-807.561 -913.028)" fill="#b2304f"/>
      <path id="Path_307" data-name="Path 307" d="M712,1032.938l-2.556-2.471,2.053-2.9a.615.615,0,0,0-1-.71l-1.941,2.748-2.418-2.338a.615.615,0,1,0-.846.884l2.554,2.471-2.053,2.9a.617.617,0,0,0,.148.858.608.608,0,0,0,.353.112.617.617,0,0,0,.5-.26l1.943-2.748,2.416,2.338a.615.615,0,1,0,.856-.884Z" transform="translate(-556.004 -809.576)" fill="#b2304f"/>
      <path id="Path_308" data-name="Path 308" d="M481.746,769.969h-.027a.846.846,0,0,1-.818-.871c.18-5.813-2.537-10.993-8.065-15.381a34.705,34.705,0,0,0-8.562-4.949.846.846,0,0,1,.579-1.59,35.889,35.889,0,0,1,9,5.183c5.921,4.674,8.953,10.488,8.741,16.787A.846.846,0,0,1,481.746,769.969Z" transform="translate(-365.688 -589.177)" fill="#c4b9ed"/>
      <path id="Path_309" data-name="Path 309" d="M818.562,1184.434a15.393,15.393,0,0,1-1.96-.452c-4.6-1.378-7.832-4.7-6.5-7.367a64.6,64.6,0,0,1,3.545-5.974C814.129,1173.938,815.433,1180.358,818.562,1184.434Z" transform="translate(-638.609 -923.16)" fill="#ff7c76"/>
      <path id="Path_310" data-name="Path 310" d="M888.56,1169.677a.846.846,0,0,1-.653-.309c-5.306-6.458-16.848-9.936-23.254-11.416a.846.846,0,0,1,.385-1.647c8.082,1.886,18.838,5.5,24.178,12a.846.846,0,0,1-.653,1.382Z" transform="translate(-681.351 -911.839)" fill="#ff7c76"/>
      <path id="Path_409" data-name="Path 409" d="M.738-.328q0-.752.629-.752A2.273,2.273,0,0,1,2.2-.868a2.217,2.217,0,0,0,.738.212,1.692,1.692,0,0,0,.438-.055q-.068-2.215-.3-9.871L2.625-11.2q-.383-.526-.636-.882t-.731-1.121a9.643,9.643,0,0,1-.7-1.285,6.735,6.735,0,0,1-.574-2.536,4.068,4.068,0,0,1,.725-2.249,4.7,4.7,0,0,1,2.051-1.709q0-.574-.027-.93a1.316,1.316,0,0,1,.109-.656.254.254,0,0,1,.232-.164.542.542,0,0,1,.287.109,1.075,1.075,0,0,1,.355.943v.369a6.722,6.722,0,0,1,1.538-.205,2.248,2.248,0,0,1,1.155.28,1.543,1.543,0,0,1,.67.731l-.479.6A6.761,6.761,0,0,1,5.715-20q-.6-.089-.971-.116H4.607a4.49,4.49,0,0,0-.834.1l.4,8.777a13.941,13.941,0,0,1,2.625,4.7,8.935,8.935,0,0,1,.219,2.092,6.7,6.7,0,0,1-.567,2.557A4.071,4.071,0,0,1,4.771.137V2.3q0,1.23-.807,1.23-.492,0-.492-.861V2.447L3.418.588A3.506,3.506,0,0,1,2.9.615,5.444,5.444,0,0,1,2.092.547a2.924,2.924,0,0,1-.9-.3Q.738.014.738-.328Zm2.27-12.482q-.055-1.477-.205-6.781a3.027,3.027,0,0,0-1.094,1.135,3.071,3.071,0,0,0-.369,1.531A7.741,7.741,0,0,0,3.008-12.811Zm1.6,11.266a4.761,4.761,0,0,0,.827-1.586,5.415,5.415,0,0,0,.294-1.586A7.906,7.906,0,0,0,4.279-8.846ZM10.391.109,9.557.123a1.2,1.2,0,0,1-.67-.144.617.617,0,0,1-.205-.54q0-.4.13-.506a1.242,1.242,0,0,1,.67-.109q.54,0,.54-.465,0-2.748-.424-8.189t-.424-8.053l.041-1.025q0-1.312-.971-1.312l-.643.027q-.793,0-.793-.6,0-.738,2.256-.738,1.176,0,1.436.465a6.732,6.732,0,0,0-.164,1.4,22.938,22.938,0,0,0,.212,2.345,26.38,26.38,0,0,1,.212,3.24q0,1.531.3,5.954t.3,6.638v.178a8.812,8.812,0,0,1,1.025-.082v-.014q1.189,0,1.189.7Q13.576.109,10.391.109Zm5.9.328A.92.92,0,0,1,15.579.13a1.024,1.024,0,0,1-.28-.711,1.034,1.034,0,0,1,.314-.731.976.976,0,0,1,.725-.328.934.934,0,0,1,.711.328,1.089,1.089,0,0,1,.3.759.911.911,0,0,1-.314.711A1.083,1.083,0,0,1,16.29.438Zm6.1-12.018q-.861,0-.861-.574a1.823,1.823,0,0,1,.615-1.094,3.727,3.727,0,0,0,1.176-2.475,13.55,13.55,0,0,0-.191-2.229q-.369-2.242-1.271-2.242a.728.728,0,0,0-.567.253,1.531,1.531,0,0,0-.321.547,1.446,1.446,0,0,1-.335.547.778.778,0,0,1-.588.253.8.8,0,0,1-.581-.226.966.966,0,0,1-.287-.54A3.938,3.938,0,0,1,20.269-20.9a2.287,2.287,0,0,1,1.511-.6,2.03,2.03,0,0,1,1.326.424,2.921,2.921,0,0,1,.813,1.066,7.575,7.575,0,0,1,.485,1.5,11.724,11.724,0,0,1,.314,2.488,5.459,5.459,0,0,1-.13,1.463,2.979,2.979,0,0,1-.26.608q-.13.212-.444.663t-.424.615q1.723,1.025,2.229,5.811A17.456,17.456,0,0,1,25.8-5.072q0,.752-.027,1.237t-.116,1.142a4.8,4.8,0,0,1-.28,1.135,5.782,5.782,0,0,1-.52.93,2.218,2.218,0,0,1-1.955.9,2.366,2.366,0,0,1-1.559-.431,1.152,1.152,0,0,1-.506-.793.867.867,0,0,1,.075-.458q.075-.1.349-.1a.546.546,0,0,1,.424.164,2.4,2.4,0,0,0,1,.465q1.709,0,1.709-3.145a17.208,17.208,0,0,0-.738-5.934,6.686,6.686,0,0,0-.971-1.654A1.029,1.029,0,0,1,22.395-11.58Zm6.508,0q-.861,0-.861-.574a1.823,1.823,0,0,1,.615-1.094,3.727,3.727,0,0,0,1.176-2.475,13.55,13.55,0,0,0-.191-2.229q-.369-2.242-1.271-2.242a.728.728,0,0,0-.567.253,1.531,1.531,0,0,0-.321.547,1.446,1.446,0,0,1-.335.547.778.778,0,0,1-.588.253.8.8,0,0,1-.581-.226.966.966,0,0,1-.287-.54A3.938,3.938,0,0,1,26.776-20.9a2.287,2.287,0,0,1,1.511-.6,2.03,2.03,0,0,1,1.326.424,2.921,2.921,0,0,1,.813,1.066,7.575,7.575,0,0,1,.485,1.5,11.724,11.724,0,0,1,.314,2.488,5.459,5.459,0,0,1-.13,1.463,2.979,2.979,0,0,1-.26.608q-.13.212-.444.663t-.424.615q1.723,1.025,2.229,5.811a17.455,17.455,0,0,1,.109,1.791q0,.752-.027,1.237t-.116,1.142a4.8,4.8,0,0,1-.28,1.135,5.782,5.782,0,0,1-.52.93,2.218,2.218,0,0,1-1.955.9A2.366,2.366,0,0,1,27.85-.157a1.152,1.152,0,0,1-.506-.793.867.867,0,0,1,.075-.458q.075-.1.349-.1a.546.546,0,0,1,.424.164,2.4,2.4,0,0,0,1,.465Q30.9-.875,30.9-4.02a17.208,17.208,0,0,0-.738-5.934,6.686,6.686,0,0,0-.971-1.654A1.029,1.029,0,0,1,28.9-11.58ZM33.127.738Q32.8.738,32.8.123a2.719,2.719,0,0,1,.13-.684q.13-.451,2.386-9.591t2.844-11.081a.262.262,0,0,1,.267-.191.473.473,0,0,1,.355.171.523.523,0,0,1,.157.355q0,.185-.294,1.716T36.313-9.557A78.92,78.92,0,0,1,33.4.424Q33.332.738,33.127.738ZM41.973-15.7l.082,6.727a2.437,2.437,0,0,0-.164.957v.561l-.109,4.457q0,1.928.943,1.928l1.162-.041q1.5,0,1.5.82a.6.6,0,0,1-.26.5,1.2,1.2,0,0,1-.588.239,8.286,8.286,0,0,0-2.5-.328,1.742,1.742,0,0,1-.868.26A.789.789,0,0,1,40.523.1a.978.978,0,0,1-.232-.629q0-2.078.178-6.255t.178-6.255v-.205q-.164-1.75-.164-2.625,0-2.652.971-2.652a.694.694,0,0,1,.5.205.661.661,0,0,1,.212.492ZM48.412-14.6v4.17q1.477-.041,1.477-3.541T48.74-17.609A8.663,8.663,0,0,0,48.412-14.6ZM48.234-2.543l.027.137v1.258a2.072,2.072,0,0,0,1.415-1.114,3.608,3.608,0,0,0,.472-1.668q0-.772-.021-1.224A9.576,9.576,0,0,0,50-6.262a7.623,7.623,0,0,0-.273-1.148,1.824,1.824,0,0,0-1.271-1.381q-.123,1.8-.123,4.238ZM47.045-16.037l-.15-1.449v-.15a1.968,1.968,0,0,1,.185-.93q.185-.342.943-.342a3.056,3.056,0,0,1,1.483.4,3.01,3.01,0,0,1,1.148,1.094,5.865,5.865,0,0,1,.834,3.117,11.677,11.677,0,0,1-.26,2.769,5.73,5.73,0,0,1-.875,1.894A5.156,5.156,0,0,1,51.611-6.18q.027.547.034,1.313a7.855,7.855,0,0,1-.13,1.5,5.774,5.774,0,0,1-.451,1.408,4.668,4.668,0,0,1-.793,1.162A3.635,3.635,0,0,1,47.523.273a.708.708,0,0,1-.752-.52,4.009,4.009,0,0,1-.123-.957l.273-5.961Z" transform="matrix(0.978, 0.208, -0.208, 0.978, 240.64, 95.841)" fill="#ef476f"/>
    </g>
  </g>
</svg>
