<svg xmlns="http://www.w3.org/2000/svg" width="551.386" height="415.652" viewBox="0 0 551.386 415.652">
  <g id="undraw_deliveries_2r4y" transform="translate(-44.818 0)">
    <path id="Path_541" data-name="Path 541" d="M593.229,660.251h-22.2V489.426h18.051a3.307,3.307,0,0,1,3.307,3.291Z" transform="translate(-289.938 -245.504)" fill="#ccc"/>
    <path id="Path_542" data-name="Path 542" d="M548.215,666.432H309.863V544.774H548.215Z" transform="translate(-265.045 -250.779)" fill="#fff"/>
    <path id="Path_543" data-name="Path 543" d="M454.317,666.027H310.363V545.274H547.81v27.258A93.6,93.6,0,0,1,454.317,666.027Z" transform="translate(-265.093 -250.827)" fill="#f2f2f2"/>
    <path id="Path_544" data-name="Path 544" d="M564.817,494.278h0a3.311,3.311,0,0,0-.277.715l-8.219,31.68-8.915,16.884H310.863v-4.2l13.467-12.679,15.71-30.05a13.41,13.41,0,0,1,2.694-3.553h0a13.41,13.41,0,0,1,9.19-3.644H561.893a3.307,3.307,0,0,1,2.925,4.852Z" transform="translate(-265.14 -245.504)" fill="#f2f2f2"/>
    <path id="Path_545" data-name="Path 545" d="M548.215,666.432H309.863V544.774H548.215Zm-236.544-1.809H546.406V546.583H311.672Z" transform="translate(-265.045 -250.779)" fill="#e6e6e6"/>
    <path id="Path_546" data-name="Path 546" d="M281.466,292.9l-4.391,16.188H45.084l7.5-13.474Z" transform="translate(14.106 -27.917)" fill="#ccc"/>
    <rect id="Rectangle_129" data-name="Rectangle 129" width="37.996" height="2.103" transform="translate(53.607 357.744)" fill="#fff"/>
    <rect id="Rectangle_130" data-name="Rectangle 130" width="37.996" height="2.103" transform="translate(53.607 365.104)" fill="#fff"/>
    <rect id="Rectangle_131" data-name="Rectangle 131" width="37.996" height="2.103" transform="translate(53.607 372.463)" fill="#fff"/>
    <path id="Path_547" data-name="Path 547" d="M500.2,511.037H488.591V421.7h9.44a1.73,1.73,0,0,1,1.73,1.721Z" transform="translate(-282.08 -239.049)" fill="#ccc"/>
    <path id="Path_548" data-name="Path 548" d="M476.658,514.269H352.01V450.648H476.658Z" transform="translate(-269.062 -241.808)" fill="#fff"/>
    <path id="Path_549" data-name="Path 549" d="M427.553,514.057H352.272V450.909H476.445v14.255A48.949,48.949,0,0,1,427.553,514.057Z" transform="translate(-269.087 -241.833)" fill="#f2f2f2"/>
    <path id="Path_550" data-name="Path 550" d="M485.339,424.241h0a1.734,1.734,0,0,0-.145.374l-4.3,16.567-4.662,8.83h-123.7v-2.2l7.043-6.63,8.216-15.715a7.011,7.011,0,0,1,1.409-1.858h0a7.013,7.013,0,0,1,4.806-1.906h109.8a1.73,1.73,0,0,1,1.529,2.538Z" transform="translate(-269.112 -239.049)" fill="#f2f2f2"/>
    <path id="Path_551" data-name="Path 551" d="M476.658,514.269H352.01V450.648H476.658Zm-123.7-.946H475.711V451.594H352.956Z" transform="translate(-269.062 -241.808)" fill="#e6e6e6"/>
    <path id="Path_552" data-name="Path 552" d="M203.269,214.071l-2.3,8.465H79.653l3.92-7.047Z" transform="translate(10.811 -20.404)" fill="#ccc"/>
    <rect id="Rectangle_132" data-name="Rectangle 132" width="19.87" height="1.1" transform="translate(87.544 242.178)" fill="#fff"/>
    <rect id="Rectangle_133" data-name="Rectangle 133" width="19.87" height="1.1" transform="translate(87.544 246.027)" fill="#fff"/>
    <rect id="Rectangle_134" data-name="Rectangle 134" width="19.87" height="1.1" transform="translate(87.544 249.875)" fill="#fff"/>
    <circle id="Ellipse_62" data-name="Ellipse 62" cx="7.147" cy="7.147" r="7.147" transform="translate(88.094 215.635)" fill="#fff"/>
    <path id="Path_553" data-name="Path 553" d="M879.459,673.992l-.072-.386a45.328,45.328,0,0,1,9.594-36.884,43.977,43.977,0,0,1,8.081-7.509l.286-.206.125.329c1.491,3.932,3.374,7.87,4.231,9.613l.579-13.011.33-.175a8.6,8.6,0,0,1,9.583.989,8.744,8.744,0,0,1,2.887,9.363c-.45,1.529-.875,3.115-1.286,4.648-1.412,5.27-2.872,10.719-5.7,15.307a27.4,27.4,0,0,1-19.94,12.6Z" transform="translate(-319.259 -258.402)" fill="#f2f2f2"/>
    <path id="Path_555" data-name="Path 555" d="M770.44,374.281l-16.477-2.36c-5.573,9.318-7.553,34.12-7.553,34.12l-16.125,38.327a7.349,7.349,0,1,0,11.456,5.52l26.476-44.611Z" transform="translate(-304.81 -234.304)" fill="#ffb8b8"/>
    <path id="Path_556" data-name="Path 556" d="M769.846,323.945h0a17.562,17.562,0,0,1,13.873,23.2l-3.5,9.911s-1.9,29.841-9.162,38.264L748.787,393.3s4.072-15.055.946-22.339c-1.915-4.461-1.808-19.869.078-32.4a17.517,17.517,0,0,1,20.035-14.615Z" transform="translate(-306.839 -229.711)" fill="#e6e6e6"/>
    <path id="Path_557" data-name="Path 557" d="M550.093,442.384h-9.925L535.446,404.1h14.649Z" transform="translate(-32.633 -38.517)" fill="#ffb6b6"/>
    <path id="Path_558" data-name="Path 558" d="M829.471,675.93H798.95v-.386a11.88,11.88,0,0,1,11.879-11.88h0l5.575-4.229,10.4,4.23h2.664Z" transform="translate(-311.662 -261.708)" fill="#2f2e41"/>
    <path id="Path_559" data-name="Path 559" d="M500.968,390.247l-9.168,3.8-19.027-33.554,13.532-5.611Z" transform="translate(-26.659 -33.825)" fill="#ffb6b6"/>
    <path id="Path_560" data-name="Path 560" d="M786.264,623.008,758.071,634.7l-.148-.357a11.881,11.881,0,0,1,6.423-15.524h0l3.53-6.043L779.1,612.7l2.461-1.021Z" transform="translate(-307.665 -257.157)" fill="#2f2e41"/>
    <path id="Path_561" data-name="Path 561" d="M832.993,425.5l-70.437,7.359-9.422,31.734L720.5,517.032l36.028,66.193,12.688-11.388-12.179-53.452,36.351-39.244,6.893-2.86h0l5.472,145.626,20.238.332L834.85,461.55C839.106,447.354,837.824,435.633,832.993,425.5Z" transform="translate(-304.185 -239.411)" fill="#2f2e41"/>
    <path id="Path_562" data-name="Path 562" d="M809.882,313.081l-11.561-13.018-18.268,2.03-11.7,16.368h0a24.97,24.97,0,0,0-19.008,28.6c4.539,26.135,19.963,51.483,14.87,64.378-7.731,19.575-8.2,27.558,10.3,24.814s80.507-9.071,68.487-21.092-14.661-32.107-14.661-32.107l-.482-45.955a20.424,20.424,0,0,0-17.983-24.02Z" transform="translate(-306.899 -227.455)" fill="#e6e6e6"/>
    <circle id="Ellipse_63" data-name="Ellipse 63" cx="20.279" cy="20.279" r="20.279" transform="translate(460.112 28.719)" fill="#ffb8b8"/>
    <path id="Path_563" data-name="Path 563" d="M813.7,269.883a35.268,35.268,0,0,1-4.823,11.556,7.866,7.866,0,0,1-2.631,2.987,2.876,2.876,0,0,1-3.654-.457l-.493-.4a10.467,10.467,0,0,0,2.558-2.22,3.564,3.564,0,0,0,.685-3.188,2.195,2.195,0,0,0-2.686-1.434c-1.188.466-1.909,2.183-3.152,1.918-1-.219-1.215-1.544-1.215-2.585.036-5.444-2.594-13.182-4.631-12.944a16.426,16.426,0,0,1-6.075-.813,15.915,15.915,0,0,0-6.084-.776c-.146.018-.292.046-.448.073a13.464,13.464,0,0,0-1.352-2.951,15.76,15.76,0,0,1-.164,3.343,31.273,31.273,0,0,1-5.061,1.6c-1.882.265-6.02,5.892-6.212,5.316a13.465,13.465,0,0,0-1.352-2.951,15.757,15.757,0,0,1-.164,3.343c-.009.046-.009.082-.018.128-.914-1.215-1.471-2.695-1.16-1.562-3.06-6.924-1.873-11.884,2.942-17.722a9.257,9.257,0,0,1,3.608-2.9,4.55,4.55,0,0,1,4.44.438,14.937,14.937,0,0,1,14.817-3.161c5.015,1.745,8.879,2.768,9.646,8.03,4.147-.667,8.413,1.69,10.7,5.207A16.859,16.859,0,0,1,813.7,269.883Z" transform="translate(-308.319 -222.088)" fill="#2f2e41"/>
    <path id="Path_564" data-name="Path 564" d="M800.059,453.357h-6.731v-51.8H798.8a1,1,0,0,1,1,1Z" transform="translate(-311.126 -237.129)" fill="#3f3d56"/>
    <path id="Path_565" data-name="Path 565" d="M786.409,455.232H714.13V418.34h72.279Z" transform="translate(-303.577 -238.729)" fill="#fff"/>
    <path id="Path_566" data-name="Path 566" d="M757.935,455.109H714.282V418.492h72v8.266a28.384,28.384,0,0,1-28.351,28.351Z" transform="translate(-303.592 -238.743)" fill="#f2c81f"/>
    <path id="Path_567" data-name="Path 567" d="M791.443,403.028h0a1,1,0,0,0-.084.217l-2.492,9.607-2.7,5.12h-71.73V416.7l4.084-3.845,4.764-9.112a4.067,4.067,0,0,1,.817-1.078h0a4.066,4.066,0,0,1,2.787-1.105h63.671a1,1,0,0,1,.887,1.472Z" transform="translate(-303.606 -237.129)" fill="#3f3d56"/>
    <path id="Path_568" data-name="Path 568" d="M786.409,455.232H714.13V418.34h72.279Zm-71.73-.549H785.86V418.889H714.679Z" transform="translate(-303.577 -238.729)" fill="#3f3d56"/>
    <path id="Path_569" data-name="Path 569" d="M509.963,188.809l-1.331,4.91H438.283l2.273-4.086Z" transform="translate(-23.372 -17.996)" fill="#f2c81f"/>
    <rect id="Rectangle_135" data-name="Rectangle 135" width="11.522" height="0.638" transform="translate(413.218 198.943)" fill="#fff"/>
    <rect id="Rectangle_136" data-name="Rectangle 136" width="11.522" height="0.638" transform="translate(413.218 201.175)" fill="#fff"/>
    <rect id="Rectangle_137" data-name="Rectangle 137" width="11.522" height="0.638" transform="translate(413.218 203.407)" fill="#fff"/>
    <circle id="Ellipse_64" data-name="Ellipse 64" cx="4.144" cy="4.144" r="4.144" transform="translate(413.537 183.552)" fill="#fff"/>
    <path id="Path_570" data-name="Path 570" d="M827.28,369.045l-16.477-2.36c-5.573,9.318-7.553,34.12-7.553,34.12l-16.125,38.327a7.349,7.349,0,1,0,11.456,5.519l26.476-44.611Z" transform="translate(-310.228 -233.805)" fill="#ffb8b8"/>
    <path id="Path_571" data-name="Path 571" d="M820.377,318.71h0a17.562,17.562,0,0,1,13.874,23.2l-3.5,9.911s4.4,29.841-2.854,38.264l-22.274-2.016s4.072-15.055.946-22.339c-1.915-4.461-1.808-19.869.078-32.4C808.091,323.754,810.813,317.228,820.377,318.71Z" transform="translate(-312.256 -229.213)" fill="#e6e6e6"/>
    <path id="Path_573" data-name="Path 573" d="M683.175,283.144a11.062,11.062,0,0,1,.749,22.111,11.06,11.06,0,0,0-4.239-21.42A11.062,11.062,0,0,1,683.175,283.144Z" transform="translate(-300.294 -225.842)" fill="#231f20" opacity="0.2"/>
    <path id="Path_574" data-name="Path 574" d="M713.333,278.986c6.018,16.466-8.4,48.467,1.97,79.95a46.929,46.929,0,0,1-6.7-1.755c-8.448-30.434,4.811-60.845-1-76.755-5.2-14.239-20.8-20.87-35.445-18.451C688.223,256.493,707.44,262.861,713.333,278.986Z" transform="translate(-299.576 -223.641)" fill="#231f20" opacity="0.2"/>
    <path id="Path_576" data-name="Path 576" d="M346.434,472.326a10.25,10.25,0,0,1-8.968,18.435,10.249,10.249,0,0,0,5.81-19.381,10.25,10.25,0,0,1,3.157.946Z" transform="translate(-267.676 -243.784)" fill="#231f20" opacity="0.2"/>
    <path id="Path_578" data-name="Path 578" d="M470.459,302.217a9.01,9.01,0,0,0-8.415,9.334,8.646,8.646,0,0,0,.195,1.416l-26.6,16.755,14.7,6.5,23-16.908a8.985,8.985,0,0,0,6.353-8.943,8.6,8.6,0,0,0-9.006-8.172Q470.576,302.208,470.459,302.217Z" transform="translate(-277.034 -227.658)" fill="#ffb6b6"/>
    <path id="Path_579" data-name="Path 579" d="M441.655,319.834l6.591,13.6L422.185,350.2a12.965,12.965,0,0,1-12.6.844h0a12.422,12.422,0,0,1-6.889-13.249l8.457-48.279a13.394,13.394,0,0,1,14.7-11.09h0A12.7,12.7,0,0,1,437.1,292.439q-.021.2-.049.392a13.01,13.01,0,0,1-.266,1.378l-9.232,34.335Z" transform="translate(-273.877 -225.385)" fill="#f2c81f"/>
    <rect id="Rectangle_138" data-name="Rectangle 138" width="37.271" height="37.271" transform="translate(132.359 115.532)" fill="#ffb8b8"/>
    <path id="Path_580" data-name="Path 580" d="M264.862,248.53l14.234-4.788,7.927,38.746-9.646,3.244Z" transform="translate(-6.842 -23.232)" fill="#ffb6b6"/>
    <path id="Path_581" data-name="Path 581" d="M238.2,245.2l14.119-5.119,8.826,38.55-9.567,3.468Z" transform="translate(-4.3 -22.884)" fill="#ffb6b6"/>
    <path id="Path_582" data-name="Path 582" d="M407.493,396.846c-7.47,49.8,92.01,20.358,92.01,20.358l31.191,43.029,18.261-3.32s-8.217-25.831-22.891-60.459c-6.516-15.378-80.513-11.621-80.513-11.621l-1.536-12.058-42.332-.83Z" transform="translate(-273.797 -234.307)" fill="#2f2e41"/>
    <path id="Path_583" data-name="Path 583" d="M487.536,424.155l23-14.327c16.841,33.628,21.8,48.191,21.8,48.191L516.424,462.5Z" transform="translate(-281.98 -237.917)" fill="#2f2e41"/>
    <path id="Path_584" data-name="Path 584" d="M428.558,279.5l-7.5-9.643-10.7-.464-1.068,9.07-5.3,2.445a142.21,142.21,0,0,0-2.4,61.611h0a5.486,5.486,0,0,1,1.56,5.329l-.344,1.37.032.05a8.028,8.028,0,0,1,1.066,5.993h0l-2.532,4.5a12.778,12.778,0,0,0,6.8,18.276c15.566,5.642,30.157,7.744,40.952-8.089l3.394-55.173Z" transform="translate(-273.57 -224.532)" fill="#f2c81f"/>
    <circle id="Ellipse_65" data-name="Ellipse 65" cx="19.786" cy="19.786" r="19.786" transform="translate(127.343 8.311)" fill="#ffb8b8"/>
    <path id="Path_585" data-name="Path 585" d="M409.814,224.051c-8.378.161-15.022,7.932-14.841,17.357-6.2,6.469-7.7,38.288-2.521,46.752,9.476,1.1,15.24-22.345,23.551-18.955l1.095-5.117,2.482,6.663q3.168,1.46,6.288,3.206c1.495-6.857,1.124-13.521-2.894-19.326-3.569-5.157,5.117-11.28,11.329-10.415h0l-.091-4.737,1.56,4.708c2.421,1.779,5.1,1.135,7.847-.151h0C448.072,220.888,413.587,214.557,409.814,224.051Z" transform="translate(-272.618 -219.805)" fill="#2f2e41"/>
    <path id="Path_586" data-name="Path 586" d="M554.408,514.645l6.342-.828.35-6.135,3.681,5.609,16.82-2.2a3.813,3.813,0,0,0,1.248-7.173L568.206,496.4l-.791-6.053L553.4,493.033Z" transform="translate(-288.257 -245.592)" fill="#2f2e41"/>
    <path id="Path_587" data-name="Path 587" d="M535.178,514.4l5.753-2.794-1.611-5.931,5.268,4.155,15.259-7.409a3.813,3.813,0,0,0-1.087-7.2l-16.272-2.5-2.667-5.492-12.446,6.989Z" transform="translate(-285.777 -245.295)" fill="#2f2e41"/>
    <path id="Path_588" data-name="Path 588" d="M440,365.7h7.055V311.4h-5.738a1.051,1.051,0,0,0-1.051,1.046Z" transform="translate(-277.449 -228.536)" fill="#ccc"/>
    <path id="Path_589" data-name="Path 589" d="M447.067,329h75.76v38.669h-75.76Z" transform="translate(-278.123 -230.213)" fill="#fff"/>
    <path id="Path_590" data-name="Path 590" d="M447.226,337.819v-8.664H522.7v38.381H476.943a29.751,29.751,0,0,1-29.717-29.717Z" transform="translate(-278.138 -230.228)" fill="#f2f2f2"/>
    <path id="Path_591" data-name="Path 591" d="M441.255,312.947h0a1.049,1.049,0,0,1,.088.227l2.612,10.07,2.834,5.367h75.185v-1.337l-4.28-4.03-4.993-9.551a4.259,4.259,0,0,0-.856-1.129h0a4.263,4.263,0,0,0-2.921-1.158H442.184a1.051,1.051,0,0,0-.929,1.542Z" transform="translate(-277.557 -228.536)" fill="#f2f2f2"/>
    <path id="Path_592" data-name="Path 592" d="M447.067,329h75.76v38.669h-75.76Zm75.185,38.094h-74.61V329.571h74.61Z" transform="translate(-278.123 -230.213)" fill="#e6e6e6"/>
    <path id="Path_593" data-name="Path 593" d="M162.045,99l1.4,5.146h73.738L234.8,99.86Z" transform="translate(2.958 -9.436)" fill="#ccc"/>
    <rect id="Rectangle_139" data-name="Rectangle 139" width="12.077" height="0.668" transform="translate(229.834 119.047)" fill="#fff"/>
    <rect id="Rectangle_140" data-name="Rectangle 140" width="12.077" height="0.668" transform="translate(229.834 121.385)" fill="#fff"/>
    <rect id="Rectangle_141" data-name="Rectangle 141" width="12.077" height="0.668" transform="translate(229.834 123.725)" fill="#fff"/>
    <circle id="Ellipse_66" data-name="Ellipse 66" cx="4.344" cy="4.344" r="4.344" transform="translate(232.889 102.914)" fill="#fff"/>
    <path id="Path_595" data-name="Path 595" d="M480.346,279.586a6.281,6.281,0,1,0,5.495,11.3,6.28,6.28,0,0,1-3.56-11.876A6.281,6.281,0,0,0,480.346,279.586Z" transform="translate(-280.958 -225.448)" fill="#231f20" opacity="0.2"/>
    <path id="Path_597" data-name="Path 597" d="M467.413,323.538a9.01,9.01,0,0,0-9.629,8.075,8.639,8.639,0,0,0,0,1.429l-28.664,12.9,13.658,8.481L467.9,340.873a8.985,8.985,0,0,0,7.533-7.974,8.6,8.6,0,0,0-7.784-9.343Q467.531,323.546,467.413,323.538Z" transform="translate(-276.411 -229.69)" fill="#ffb6b6"/>
    <path id="Path_598" data-name="Path 598" d="M435.934,336.782l4.639,14.384-28.138,12.991a12.965,12.965,0,0,1-12.6-.913h0a12.422,12.422,0,0,1-4.983-14.077l15.077-46.637a13.394,13.394,0,0,1,16.1-8.941h0a12.7,12.7,0,0,1,9.193,15.433q-.049.192-.1.382a13.033,13.033,0,0,1-.455,1.328L420.759,343.45Z" transform="translate(-273.091 -226.797)" fill="#f2c81f"/>
  </g>
</svg>
