<svg id="Symbols" xmlns="http://www.w3.org/2000/svg" width="183.786" height="321.625" viewBox="0 0 183.786 321.625">
  <g id="Scene_Home" data-name="Scene/Home">
    <g id="Big-Leaf-Plant" transform="translate(0 0)">
      <g id="Big-Ass-Leaf" transform="translate(31.081 0)">
        <path id="leaf" d="M33.781,1.234a22.858,22.858,0,0,1,11.6,1.222c7.655,3.25,9.831,12.293,9.726,19.644C55,30.011,53.317,38.653,59.332,45.027c2.765,2.931,6.2,5.173,8.919,8.158a38.561,38.561,0,0,1,6.863,10.757c3.095,7.2,4.614,15.662,1.784,23.213-2.492,6.648-8.76,12.648-7.406,20.207,1.413,7.886,9.363,13.914,14.334,19.788,5.625,6.647,10.8,15.143,11.656,23.859.816,8.354-2.82,16.8-8.4,23.118-11.15,12.619-27.911,18.8-44.81,18.766-7.175-.016-15.3-.341-21.491-4.2a11.848,11.848,0,0,1-4.061-4.388,14.3,14.3,0,0,0-3.927-3.931,23.31,23.31,0,0,1-7.48-9.989c-6.132-15.18-1.231-33.958,7.353-47.439,2.034-3.194,3.7-6.267,2.711-10.073C14.344,108.9,11.81,105.32,9.568,101.9c-2.215-3.376-4.744-6.6-6.475-10.246a23.25,23.25,0,0,1-2-12.012c.6-7.86,4-15.114,8.8-21.435,4.627-6.089,10.06-11.915,10.072-19.894.013-8.456-5.64-15.978-3.231-24.575,1-3.56,3-7.212,6.228-9.347C26.053,2.348,30.141,1.679,33.781,1.234Z" transform="translate(-1 -1)" fill="#feefb1" fill-rule="evenodd"/>
        <path id="middle-thing" d="M23.873,11.59a1.949,1.949,0,0,1,2.48-1.52c1.4.39,1.369,1.695,1.332,2.857a38.39,38.39,0,0,0,1.263,10.509c1.784,7.205,5.082,13.844,7.7,20.766s3.836,14.056,2.3,21.374c-1.444,6.9-3.712,13.62-5.189,20.529-1.3,6.089-2.688,12.51-.7,18.583,1.908,5.846,6.127,10.607,9.166,15.89,6.289,10.936,9.08,23.069,9.453,35.554a66.486,66.486,0,0,1-1.328,17.335c-.774,3.274-1.814,7.7-4.62,9.96-1.294,1.043-3.507,1.4-4.6-.141-1.022-1.447-.125-3.689.2-5.232a79.32,79.32,0,0,0,1.352-20.291,73.27,73.27,0,0,0-3.17-19.406,65.68,65.68,0,0,0-8.267-16.148c-3.5-5.191-7.132-10.394-8.577-16.545-1.468-6.247-.275-12.6,1.319-18.733,1.687-6.482,3.9-12.778,6.179-19.084A33.486,33.486,0,0,0,31.95,49.455C29.523,36.748,23.027,24.822,23.873,11.59Z" transform="translate(6.379 2.162)" fill="#e8c94c" fill-rule="evenodd"/>
      </g>
      <g id="Big-Ass-Leaf-2" data-name="Big-Ass-Leaf" transform="translate(43.244 13.514)">
        <path id="leaf-2" data-name="leaf" d="M122.829,2.138c4.79,1.455,9.548,3.8,12.963,7.481,7.261,7.825,5.032,19.652,1.024,28.291-4.314,9.3-10.852,18.643-7.167,29.311,1.694,4.9,4.543,9.346,6.149,14.288A49.8,49.8,0,0,1,138.162,97.8c-.174,10.122-2.866,20.923-10.177,28.38-6.436,6.566-16.96,10.4-19.367,20.045-2.511,10.061,3.628,21.327,6.353,30.858,3.085,10.788,4.669,23.53,1.06,34.281-3.459,10.3-12.189,18.4-22.073,22.969-19.747,9.122-42.675,7.718-62.477-1.119-8.407-3.753-17.764-8.361-22.988-16.142a15.226,15.226,0,0,1-2.444-7.3A18.369,18.369,0,0,0,3.52,203.08,30.053,30.053,0,0,1,.027,187.375c.831-21.142,16.505-40.8,33.7-52.277,4.074-2.719,7.651-5.487,8.5-10.5.891-5.236-.187-10.793-1.011-16-.814-5.145-2.078-10.269-2.179-15.486a30.331,30.331,0,0,1,4-15.248c4.861-8.983,12.675-15.8,21.651-20.773,8.646-4.794,18.1-8.858,22.329-18.287,4.485-9.993,1.831-21.83,9.2-30.744,3.051-3.691,7.331-6.969,12.245-7.814C113.175-.564,118.323.77,122.829,2.138Z" transform="translate(0 0)" fill="#feefb1" fill-rule="evenodd"/>
        <path id="middle-thing-2" data-name="middle-thing" d="M101.8,14.1a2.484,2.484,0,0,1,3.7-.5c1.428,1.194.713,2.724.062,4.081a50.3,50.3,0,0,0-4.027,13.107c-1.687,9.468-1.308,19.059-1.877,28.625s-2.876,18.656-8.5,26.519c-5.3,7.414-11.474,14.184-16.819,21.591-4.712,6.528-9.695,13.406-10.557,21.637-.83,7.923,1.61,15.773,2.4,23.622,1.627,16.247-1.465,32.077-7.567,47.059-2.834,6.957-6.081,13.8-10.632,19.833-2.62,3.473-6.154,8.168-10.619,9.373-2.059.557-4.835-.176-5.3-2.574-.437-2.251,1.786-4.435,2.973-6.093a103.657,103.657,0,0,0,12.208-23.321c3.06-7.951,5.588-16.126,6.456-24.642a85.879,85.879,0,0,0-1.209-23.456c-1.37-7.98-2.9-16.047-1.364-24.089C52.675,116.7,57.4,109.8,62.473,103.374c5.367-6.792,11.247-13.09,17.22-19.361C85.514,77.9,89.482,71.43,91.414,63.17,95.23,46.851,93.88,29.322,101.8,14.1Z" transform="translate(11.244 4.568)" fill="#e8c94c" fill-rule="evenodd"/>
      </g>
      <g id="Big-Ass-Leaf-3" data-name="Big-Ass-Leaf" transform="translate(0 75.676)">
        <path id="leaf-3" data-name="leaf" d="M17.981,0c7.965,0,14.968,4.222,19.794,10.214,5.649,7.014,6.789,15.579,9.083,23.938,1.141,4.16,3.1,8.29,6.545,11.116,3.129,2.57,7.1,3.085,10.846,4.341A25.311,25.311,0,0,1,80.164,65.541c2.912,9-.172,18.073.359,27.192.488,8.375,8.745,13.6,15.389,17.614,6.551,3.959,12.453,7.665,14.426,15.377,2.092,8.18,2.794,17.31-.1,25.39-4.825,13.454-18.945,19.379-32.589,20.3-12.382.834-27.952-.474-37.251-9.462-5.565-5.378-7.58-12.9-7.33-20.385A62.051,62.051,0,0,1,35.333,127.8c.845-3.187,1.986-6.361,2.311-9.655.864-8.763-7.235-10.446-14.129-12.852-8.76-3.058-14.894-8.833-19.158-16.88C.385,80.922-1.281,72.512,1.1,64.263A28.194,28.194,0,0,1,7.512,52.98c1.317-1.431,3.173-2.624,4.361-4.127,1.109-1.4.868-3.222.485-4.866-1.768-7.594-7.275-13.882-9.244-21.462C1.336,15.683,2.387,7.168,8.643,2.754A16.337,16.337,0,0,1,17.981,0Z" transform="translate(0 0)" fill="#e8c94c" fill-rule="evenodd"/>
        <path id="middle-thing-3" data-name="middle-thing" d="M22.51,14.867c8.442,8.993,10.737,21.194,11.411,33.02.377,6.631-.015,13.626,1.933,20.058,1.667,5.505,5.575,9.714,9.6,13.691,8.109,8.007,17.152,16.147,19.524,27.734,1.392,6.8.452,13.824,2.375,20.55A56.521,56.521,0,0,0,75.928,147.2c3.015,4.158,6.943,7.341,10.239,11.215,1.006,1.184,2.446,2.924,2.031,4.595-.486,1.955-2.977,2.574-4.744,2.268-4.121-.716-7.589-4.651-10.284-7.512a64.668,64.668,0,0,1-10.009-13.729,57.706,57.706,0,0,1-6.493-17.84c-1.079-6.523-.542-13.322-3-19.582C49.52,96.082,39.468,89.865,32.2,81.655c-9.055-10.231-7.7-22.963-6.777-35.548.509-6.916,1.016-14.726-2.479-21.04-1.334-2.41-4.308-4.658-4.882-7.4C17.538,15.159,20.405,12.623,22.51,14.867Z" transform="translate(6.325 4.919)" fill="#cfad20" fill-rule="evenodd"/>
      </g>
      <path id="Base" d="M28,181c0,51.43,8.394,78.379,52.7,78.379s52.7-26.949,52.7-78.379Z" transform="translate(9.838 62.246)" fill="#eb5620" fill-rule="evenodd"/>
    </g>
  </g>
</svg>
