<svg xmlns="http://www.w3.org/2000/svg" width="388.188" height="274.999" viewBox="0 0 388.188 274.999">
  <g id="Ñëîé_1" data-name="Ñëîé 1" transform="translate(-14.426 0)">
    <circle id="Ellipse_18" data-name="Ellipse 18" cx="110.023" cy="110.023" r="110.023" transform="translate(54.329 0)" fill="#ffd166"/>
    <path id="Path_175" data-name="Path 175" d="M855.705,576.16s7.756,2.021,8.564,8.484c.407,3.211-5.016,6.39-10.694,10.487-1.14.814-2.289,1.681-3.4,2.585Z" transform="translate(-678.483 -459.841)" fill="#2e4faa"/>
    <path id="Path_177" data-name="Path 177" d="M340.541,435.806a.838.838,0,0,1-.293-.055l-17.119-6.616a.814.814,0,1,1,.586-1.518l17.121,6.616a.814.814,0,0,1-.3,1.573Zm2.566-3.84a.814.814,0,0,1-.611-.287c-4.121-4.839-8.238-9.418-12.235-13.608a.814.814,0,0,1,1.178-1.123c4.017,4.213,8.154,8.814,12.3,13.678a.814.814,0,0,1-.092,1.146.8.8,0,0,1-.54.194ZM306.3,422.574a.836.836,0,0,1-.293-.055L288.889,415.9a.814.814,0,1,1,.586-1.518L306.6,421a.814.814,0,0,1-.3,1.573Zm-34.24-13.228a.793.793,0,0,1-.293-.055l-17.119-6.616a.814.814,0,1,1,.586-1.518l17.121,6.616a.814.814,0,0,1-.3,1.573Zm45.655-3.834a.814.814,0,0,1-.545-.2c-4.715-4.255-9.463-8.14-14.117-11.577a.815.815,0,1,1,.967-1.311c4.7,3.46,9.487,7.387,14.245,11.679a.814.814,0,0,1-.545,1.425Zm-79.89-9.4a.829.829,0,0,1-.293-.055l-17.119-6.616a.815.815,0,0,1,.586-1.52l17.121,6.616a.814.814,0,0,1-.3,1.575Zm50.3-12.162a.8.8,0,0,1-.393-.1,115.442,115.442,0,0,0-16.552-7.55.814.814,0,0,1,.554-1.53,116.723,116.723,0,0,1,16.791,7.65.814.814,0,0,1-.4,1.526Zm-84.549-1.07a.829.829,0,0,1-.293-.055l-17.119-6.616a.814.814,0,0,1,.586-1.518l17.121,6.616a.814.814,0,0,1-.3,1.573Zm-58.449-.291a.776.776,0,0,1-.1,0,77.8,77.8,0,0,1-17.97-4.381.814.814,0,1,1,.568-1.526,76.113,76.113,0,0,0,17.6,4.286.816.816,0,1,1-.1,1.628Zm18.3-.122a.816.816,0,0,1-.1-1.628,81.266,81.266,0,0,0,12.617-2.7c1.728-.513,3.46-1.018,5.112-1.477a.815.815,0,0,1,.44,1.569c-1.655.464-3.368.959-5.088,1.469a82.834,82.834,0,0,1-12.864,2.755.868.868,0,0,1-.114.008Zm35.656-8.608a.814.814,0,0,1-.167-1.61c6.325-1.333,12.44-2.338,18.179-2.99a.814.814,0,1,1,.183,1.618c-5.688.645-11.753,1.642-18.027,2.965a.817.817,0,0,1-.163.017Zm54.664-2.224a.858.858,0,0,1-.142-.012,114.733,114.733,0,0,0-18.112-1.689.814.814,0,0,1,.024-1.628A116.578,116.578,0,0,1,253.9,370.02a.814.814,0,0,1-.142,1.616Zm-142.81-1.518a.815.815,0,0,1-.429-.124A116.66,116.66,0,0,1,95.7,358.968a.814.814,0,0,1,1.068-1.221,115.105,115.105,0,0,0,14.6,10.875.814.814,0,0,1-.431,1.506Zm58.406-.468a.83.83,0,0,1-.293-.055l-17.125-6.616a.814.814,0,0,1,.586-1.518l17.121,6.616a.814.814,0,0,1-.3,1.573ZM135.1,356.421a.788.788,0,0,1-.293-.055l-17.11-6.617a.814.814,0,0,1,.586-1.518l17.121,6.616a.814.814,0,0,1-.3,1.573ZM83.214,346.245a.814.814,0,0,1-.611-.271A179.117,179.117,0,0,1,71.062,331.59a.814.814,0,0,1,1.313-.957A178.247,178.247,0,0,0,83.81,344.88a.814.814,0,0,1-.611,1.355Zm17.652-3.053a.788.788,0,0,1-.293-.055l-17.119-6.614A.816.816,0,1,1,84.04,335l17.121,6.616a.814.814,0,0,1-.3,1.573Z" transform="translate(-56.509 -263.914)" fill="#fff"/>
    <path id="Path_178" data-name="Path 178" d="M1467.88,900.857a.814.814,0,0,1-.647-.32l-5.568-7.271a.815.815,0,0,1,1.288-1c1.831,2.353,3.712,4.8,5.576,7.282a.814.814,0,0,1-.649,1.3Z" transform="translate(-1166.749 -711.813)" fill="#fff"/>
    <path id="Path_179" data-name="Path 179" d="M802.348,130.279s10.989-14.882,26.619-5.452,10.175,31.533,18.271,40.229,15.914,39.2-4.274,43.617-28.586.883-34.189,3.388-22.546,8.252-34.777-8.4-5.735-59.385,6.122-68.079S802.348,130.279,802.348,130.279Z" transform="translate(-612.777 -96.931)" fill="#222"/>
    <path id="Path_180" data-name="Path 180" d="M884.857,429.27c-8.614,3.366-39.714,2.019-31.366-12.251,3.4-5.82,3.482-13.492,2.377-20.532a80.245,80.245,0,0,0-4.013-14.964c-.952-2.582-1.675-4.151-1.675-4.151s25.1-10.118,27.052,2.965a12.566,12.566,0,0,1,.088,2.623c-.48,7.546,1.439,16.392,3.716,23.894a137.879,137.879,0,0,0,6.246,16.626S893.474,425.894,884.857,429.27Z" transform="translate(-678.594 -298.305)" fill="#ffb1a9"/>
    <path id="Path_181" data-name="Path 181" d="M887.591,428.815a37.854,37.854,0,0,1-25.167-10.367,80.231,80.231,0,0,0-4.013-14.964,109.142,109.142,0,0,1,16.4-2.253,36.055,36.055,0,0,1,8.981,1.066,12.566,12.566,0,0,1,.088,2.623C883.394,412.467,885.313,421.314,887.591,428.815Z" transform="translate(-685.119 -320.238)" fill="#ff7c76"/>
    <path id="Path_182" data-name="Path 182" d="M874.223,288.666c-.224,11.521-3.97,37.423-14.349,37.423-13.36,0-25.247-10.021-29.175-30.748-4.135-21.82,6.618-13.149,18.574-10.6a27.079,27.079,0,0,0,4.215.582c13.462.69,18.175-1.964,20.147-2.064C874.064,283.233,874.29,285.353,874.223,288.666Z" transform="translate(-662.347 -224.227)" fill="#ffb1a9"/>
    <path id="Path_183" data-name="Path 183" d="M801.639,365.153s-9.093-4.97-9.485,1.319,5.179,13.9,15.059,11.962,3.893-12.847,3.6-12.847S801.639,365.153,801.639,365.153Z" transform="translate(-632.192 -289.932)" fill="#ffb1a9"/>
    <path id="Path_184" data-name="Path 184" d="M834.652,719.24c-2.989-1.085-6.068-2.194-9.249-3.3-5.918-2.06-12.18-4.111-18.839-5.967a53.547,53.547,0,0,0-14.589-1.856c-15.466.029-31.887,5.4-47.791,9.386a128.59,128.59,0,0,1-23.468,4.1c5.171-10.4,7.153-19.268,7.247-27.16A53.321,53.321,0,0,0,726,679.689a129.655,129.655,0,0,0-6.154-16.594c-4.62-10.953-8.909-21.523-5.749-34.765,5.672-23.739,9.972-40.345,9.972-40.345s2.151-6.1,15.615-6.919c1.111-.065,2.4-.114,3.812-.142q.745-.014,1.536-.024c-.035-.094-.067-.185-.1-.281-.718-2.334-1.482-3.008-.718-4.4.7-1.276,2.011-3.724,2.222-4.119l.029-.055.2-.022c2.332-.232,23.037-2.22,28.912.022h0c.092.035.179.071.267.11,3.732,1.628,3.9,6.184,2.973,9.62,7.434.336,12.809.635,12.809.635l17.231,16.425s2.171,30.583,5.934,57.248c2.312,16.384,5.224,31.287,8.606,36.717a97.059,97.059,0,0,1,11.255,26.44Z" transform="translate(-569.516 -456.821)" fill="#303030"/>
    <path id="Path_185" data-name="Path 185" d="M754.726,1045.14a53.4,53.4,0,0,0-1.964-14.754,129.661,129.661,0,0,0-6.152-16.594,16.984,16.984,0,0,1,6.366-2.336c9.693-1.628,20.532,9.235,20.532,9.235A140.225,140.225,0,0,0,754.726,1045.14Z" transform="translate(-595.881 -807.522)" fill="#222"/>
    <path id="Path_186" data-name="Path 186" d="M691.151,754.63s-.183,50.225,33.668,42.812-51.646,18.78-51.646,18.78l-2.424-28.536Z" transform="translate(-535.463 -602.507)" fill="#222"/>
    <path id="Path_187" data-name="Path 187" d="M863.272,666.59c.14-7.564.155-14.958.081-22.095-.24-22.247-1.355-42.03-2.5-56.888q-.2-2.674-.407-5.134-.128-1.524-.254-2.953-.085-1.028-.175-2-.091-1.042-.185-2.035-.271-2.985-.523-5.456a35.278,35.278,0,0,1,3.651-1.341l.242-.077a52.088,52.088,0,0,1,18.586-1.714,55.939,55.939,0,0,1,9.89,1.569,4.283,4.283,0,0,1,.708.236v.043c.014.372.1,3.211.232,6.982.073,1.927.157,4.095.252,6.309.151,3.337.328,6.769.529,9.583l.039.525c2.715,36.244,10.078,83.234,15.059,112.571-15.467.029-31.887,5.4-47.791,9.386C862.222,698,862.994,681.94,863.272,666.59Z" transform="translate(-685.926 -453.417)" fill="#ececec"/>
    <path id="Path_188" data-name="Path 188" d="M892.852,582.038c-10.959,3.852-24.7,2.019-32.425.438q-.128-1.524-.252-2.953-.086-1.017-.175-2-.092-1.038-.187-2.035c-.181-1.988-.358-3.812-.523-5.456,7.589-3.276,16.026-3.618,22.481-3.13,3.517.421,6.9.94,9.888,1.569a3.957,3.957,0,0,1,.71.236v.041c.012.374.094,3.211.232,6.982C892.673,577.66,892.757,579.83,892.852,582.038Z" transform="translate(-685.84 -452.291)" fill="#fff"/>
    <path id="Path_189" data-name="Path 189" d="M873.285,564.559a40.432,40.432,0,0,1-9.5,4.43.911.911,0,0,1-.1.031c-11.976,3.789-24.4,1.937-32.691-.273a73.952,73.952,0,0,1-7.892-2.568c2.9-1.158,5.45-2.151,7.369-2.888,5.43-2.342,11.291-4.917,16.551-5.029a36.537,36.537,0,0,1,16.529,3.7C864.568,562.235,868.376,563.22,873.285,564.559Z" transform="translate(-657.027 -445.521)" fill="#ffb1a9"/>
    <path id="Path_190" data-name="Path 190" d="M1512.39,621.85a4.985,4.985,0,0,1,.088-1.508,51.033,51.033,0,0,1,2.257-7.092c1.412-3.256,3.008-8.452,2.326-11.3s-1.612-3.889-.134-3.846,4.463,2.564,4.453,4.9-.861,6.854-.2,7.027,3.881-1.374,5.9-1.282,5.291,1.028,5.649,1.689.513,2.336-.336,2.646c0,0,3.6,1.549,1.893,4,0,0,2.884,1.628,1,4.221,0,0,2.479,2.688.189,4.231s-3.46,1.129-4.381,2.473-6.07,3.922-7.045,4.355-4.111.72-6.573,4.5-9.274-5.9-9.258-7.314,1.931-4.182,3.327-6.028C1512.24,622.607,1512.41,622.113,1512.39,621.85Z" transform="translate(-1203.965 -477.428)" fill="#ffb1a9"/>
    <path id="Path_191" data-name="Path 191" d="M969.91,854.134c2.729-4.365,5.061-16.818,8.187-16.669s.893,4.613,0,6.549-3.663,7.982-.979,8.14Z" transform="translate(-774.023 -668.365)" fill="#ffb1a9"/>
    <path id="Path_192" data-name="Path 192" d="M1135.49,617.264c-4.809,6.13-27.365,33.8-47.8,40.612q-1.612.539-3.136.977c-11.148,3.222-18.944,2.751-23.778,1.628a17.7,17.7,0,0,1-6.154-2.454l-9.538-17.546-20.615-37.932-1.587-2.611-.039-.525c-.407-5.58-.712-10.9-.877-15.857-.079-2.43-.124-4.772-.136-7.013V576.5c1.017.265,4.833,1.252,9.742,2.591,9.7,2.646,23.708,6.661,29.044,9.194q.586.279,1.018.531a5,5,0,0,1,.714.509c6.976,5.8,21.079,39.985,21.079,39.985s32.17-15.788,39.8-24.4a1.777,1.777,0,0,1,2.625-.055l9.53,10.1a1.771,1.771,0,0,1,.108,2.309Z" transform="translate(-816.559 -460.42)" fill="#303030"/>
    <path id="Path_193" data-name="Path 193" d="M1032.75,797h-17.908a4.921,4.921,0,0,1-4.9-5.3l2.735-35.589a4.949,4.949,0,0,1,4.911-4.548H1035.5a4.925,4.925,0,0,1,4.911,5.3l-2.745,35.589A4.945,4.945,0,0,1,1032.75,797Zm-15.167-43.811a3.313,3.313,0,0,0-3.287,3.053l-2.727,35.581a3.3,3.3,0,0,0,3.287,3.549h17.909a3.311,3.311,0,0,0,3.286-3.053l2.723-35.581a3.295,3.295,0,0,0-3.287-3.549Z" transform="translate(-806.055 -599.956)" fill="#fff"/>
    <path id="Path_194" data-name="Path 194" d="M1017.38,821.819H999.472a4.113,4.113,0,0,1-4.1-4.426L998.11,781.8a4.113,4.113,0,0,1,4.1-3.8h17.909a4.113,4.113,0,0,1,4.1,4.426l-2.735,35.6a4.113,4.113,0,0,1-4.1,3.793Z" transform="translate(-794.421 -621.053)" fill="#222"/>
    <path id="Path_195" data-name="Path 195" d="M915.556,882.97c2.68.148,8.633-5.656,12.056-6.1s.745,3.629.745,3.629,1.736-.551,2.082.836a1.892,1.892,0,0,1-.346,1.96s1.659.918.845,2.308a3.178,3.178,0,0,1,0,2.959c-.883,1.239-1.779,5.375-10.063,8.5-7.172,2.7-20.837,11.61-25.9,11.213-3.533-.279-4.115-6.215-4.145-9.768a4.048,4.048,0,0,1,2.265-3.663c3.891-1.909,11.8-6.075,13.838-9.331Z" transform="translate(-711.044 -699.867)" fill="#ffb1a9"/>
    <path id="Path_196" data-name="Path 196" d="M1221.86,857.594c-11.148,3.224-18.944,2.751-23.78,1.628-1.583-11.231-2.888-23.159-3.867-33.2C1199.59,835.725,1208.96,849.623,1221.86,857.594Z" transform="translate(-953.118 -659.326)" fill="#222"/>
    <path id="Path_197" data-name="Path 197" d="M660.6,652.068a3.191,3.191,0,0,1,4.223,2.239l3.272,13.476a3.195,3.195,0,0,1-2.442,3.877c-3.6.757-8.889,2.981-18.967,7.918-3.071,1.5-6.589,3.256-10.639,5.3a95.852,95.852,0,0,1-10.106,4.392c-18.393,6.767-35.048,6.374-37.952.049-3.331-7.257,7.8-76.8,13.814-86.529a4.324,4.324,0,0,1,.519-.7,9.244,9.244,0,0,1,.851-.788c5.075-4.178,21.128-10.989,32.174-15.393,2.9-1.158,5.448-2.151,7.369-2.888q.248,2.467.523,5.456.094.985.185,2.035.088.977.175,2l-2.739,10.67c-4.512,3.641-8.448,8.026-8.855,13.643-1.007,13.932-14.74,47.859-14.74,47.859,5.322-1.425,19-2.961,29.5-7.2,6.288-2.54,10.957-4.335,13.838-5.415Z" transform="translate(-468.976 -465.826)" fill="#303030"/>
    <path id="Path_198" data-name="Path 198" d="M458.191,705.892a16.64,16.64,0,0,1,2.627,9.646.645.645,0,0,1-.842.6,14.521,14.521,0,0,1-10.865-15.31.645.645,0,0,1,.842-.6A16.648,16.648,0,0,1,458.191,705.892Z" transform="translate(-358.41 -558.813)" fill="#fff"/>
    <path id="Path_199" data-name="Path 199" d="M475.126,694.034a1.516,1.516,0,0,1-.948-.336,15.4,15.4,0,0,1-5.061-19.174,1.53,1.53,0,0,1,2.373-.627,17.6,17.6,0,0,1,6.028,8.665h0a17.614,17.614,0,0,1-.967,10.511,1.546,1.546,0,0,1-1.425.961Zm-4.477-18.543a13.562,13.562,0,0,0,4.386,16.62,15.622,15.622,0,0,0,.777-9.091h0a15.761,15.761,0,0,0-5.171-7.536Z" transform="translate(-373.255 -537.576)" fill="#222"/>
    <path id="Path_200" data-name="Path 200" d="M1222.97,22.754l.847-6.647a.977.977,0,0,1,1.6-.627l5.141,4.3a.99.99,0,0,0,.5.22l6.657.847a.977.977,0,0,1,.625,1.6l-4.308,5.141a.978.978,0,0,0-.22.5l-.846,6.651a.979.979,0,0,1-1.6.627l-5.141-4.3a.96.96,0,0,0-.5-.22L1219.07,30a.977.977,0,0,1-.625-1.6l4.3-5.141a1,1,0,0,0,.22-.507Z" transform="translate(-972.241 -12.149)" fill="#ffd166"/>
    <ellipse id="Ellipse_19" data-name="Ellipse 19" cx="3.366" cy="2.804" rx="3.366" ry="2.804" transform="matrix(0.98, -0.2, 0.2, 0.98, 163.235, 78.428)" fill="#fff"/>
    <path id="Path_201" data-name="Path 201" d="M814.359,395.663l2.849,10.989a.735.735,0,1,1-1.412.407l-3.431-10.824a1.038,1.038,0,1,1,1.978-.625C814.349,395.626,814.353,395.647,814.359,395.663Z" transform="translate(-648.232 -315.113)" fill="#fff"/>
    <path id="Path_202" data-name="Path 202" d="M1347.79,1055.57a14.652,14.652,0,1,1,10.369-4.289,14.652,14.652,0,0,1-10.369,4.289Zm0-27.553a12.89,12.89,0,1,0,12.89,12.89,12.89,12.89,0,0,0-12.89-12.89Z" transform="translate(-1064.019 -819.451)" fill="#ffd166"/>
    <path id="Path_203" data-name="Path 203" d="M892.9,685.518a.814.814,0,0,1-.611-.265l-5.383-5.863a.814.814,0,0,1,1.2-1.1l5.383,5.863a.814.814,0,0,1-.6,1.366Z" transform="translate(-707.591 -541.073)" fill="#b7b7b7"/>
    <path id="Path_204" data-name="Path 204" d="M1013.2,1217.84a.814.814,0,0,1-.61-.263l-5.381-5.863a.814.814,0,1,1,1.2-1.1l5.385,5.865a.814.814,0,0,1-.61,1.364Z" transform="translate(-803.62 -966.084)" fill="#b7b7b7"/>
    <path id="Path_205" data-name="Path 205" d="M997.537,1054.86a.814.814,0,0,1-.611-.263l-5.385-5.865a.815.815,0,0,1,1.2-1.1l5.383,5.865a.814.814,0,0,1-.6,1.364Z" transform="translate(-791.103 -835.834)" fill="#b7b7b7"/>
    <path id="Path_206" data-name="Path 206" d="M912.754,1137.18a.773.773,0,0,1-.151-.014.814.814,0,0,1-.649-.95l1.471-7.823a.814.814,0,1,1,1.6.3l-1.471,7.823a.814.814,0,0,1-.8.664Z" transform="translate(-727.736 -900.243)" fill="#b7b7b7"/>
    <path id="Path_207" data-name="Path 207" d="M968.564,760.709a.814.814,0,0,1-.757-1.113l2.914-7.408a.815.815,0,1,1,1.516.6l-2.914,7.408a.814.814,0,0,1-.759.513Z" transform="translate(-772.278 -599.862)" fill="#b7b7b7"/>
    <path id="Path_208" data-name="Path 208" d="M908.926,882.8a.814.814,0,0,1-.731-.454l-3.523-7.141a.814.814,0,0,1,1.461-.718l3.519,7.139a.814.814,0,0,1-.727,1.174Z" transform="translate(-721.877 -697.511)" fill="#b7b7b7"/>
    <path id="Path_209" data-name="Path 209" d="M676.468,692.639a.95.95,0,0,1-.238.033.879.879,0,0,1-.843-.639c-4.791-16.956-16.529-17.54-16.647-17.54a.861.861,0,0,1-.49-.171,4.327,4.327,0,0,1,.519-.7,9.212,9.212,0,0,1,.851-.788,17.2,17.2,0,0,1,6.461,2.477c3.541,2.2,8.323,6.8,10.989,16.256a.877.877,0,0,1-.6,1.076Z" transform="translate(-525.336 -536.987)" fill="#b7b7b7"/>
    <path id="Path_210" data-name="Path 210" d="M1176.3,635.458a.873.873,0,0,1-.452.328,12.256,12.256,0,0,0-4.955,3.592c-3.167,3.651-4.616,9.038-4.194,15.576a.873.873,0,0,1-.814.928h-.057a.877.877,0,0,1-.873-.814c-.576-8.922,2.239-14.129,4.693-16.924a14.816,14.816,0,0,1,4.915-3.724q.586.279,1.018.531a5.013,5.013,0,0,1,.719.507Z" transform="translate(-929.621 -506.339)" fill="#b7b7b7"/>
    <path id="Path_211" data-name="Path 211" d="M1224.03,1183.53a.814.814,0,0,1-.716-1.2,4.022,4.022,0,0,0-.574-4.636c-5.468-7.3-9.07-19.13-9.221-19.64a.814.814,0,1,1,1.559-.468c.037.12,3.663,12.066,8.954,19.13a5.6,5.6,0,0,1,.706,6.38.814.814,0,0,1-.708.434Z" transform="translate(-968.415 -923.598)" fill="#b7b7b7"/>
    <ellipse id="Ellipse_20" data-name="Ellipse 20" cx="1.701" cy="3.502" rx="1.701" ry="3.502" transform="translate(181.022 68.503)" fill="#222"/>
    <ellipse id="Ellipse_21" data-name="Ellipse 21" cx="1.701" cy="3.502" rx="1.701" ry="3.502" transform="translate(199.444 68.503)" fill="#222"/>
    <path id="Path_212" data-name="Path 212" d="M885,324.1a.509.509,0,0,1-.32-.906,5.085,5.085,0,0,1,5.544-.442.509.509,0,0,1-.509.881,4.065,4.065,0,0,0-4.4.356A.513.513,0,0,1,885,324.1Z" transform="translate(-705.845 -257.034)" fill="#222"/>
    <path id="Path_213" data-name="Path 213" d="M986.66,326.494a.5.5,0,0,1-.315-.112,4.073,4.073,0,0,0-4.4-.356.509.509,0,0,1-.509-.879,5.081,5.081,0,0,1,5.541.44.509.509,0,0,1-.317.908Z" transform="translate(-783.023 -258.946)" fill="#222"/>
    <path id="Path_214" data-name="Path 214" d="M950.036,366.876l2.607,10.2c.037.142-.122.275-.334.275h-3.635c-.2,0-.35-.116-.338-.25l1.036-10.2C949.393,366.626,949.967,366.605,950.036,366.876Z" transform="translate(-756.785 -292.631)" fill="#ff7c76"/>
    <path id="Path_215" data-name="Path 215" d="M918.564,436.709c1.561.814,5.835,2.823,10.108,2.31a.562.562,0,0,1,.427.983c-1.87,1.591-5.242,3.85-8.344,2.719a4.583,4.583,0,0,1-3.018-5.643.56.56,0,0,1,.826-.368Z" transform="translate(-732.287 -348.444)" fill="#fff"/>
    <path id="Path_216" data-name="Path 216" d="M950.434,297.923a29.624,29.624,0,0,0-8.954-.256c-6.36.672-12.233-1.646-16-3.675a27.088,27.088,0,0,0,4.215.582c13.462.69,18.175-1.964,20.147-2.064C950.275,292.489,950.5,294.61,950.434,297.923Z" transform="translate(-738.63 -233.427)" fill="#ff7c76"/>
    <path id="Path_217" data-name="Path 217" d="M892.322,280.682a.511.511,0,0,1-.476-.326c-.059-.153-1.571-3.81-7.6-4.438-6.64-.694-11.4-9.453-11.584-9.825a.51.51,0,0,1,.9-.478c.045.085,4.681,8.655,10.786,9.292,6.679.7,8.374,4.906,8.443,5.088a.511.511,0,0,1-.291.659A.528.528,0,0,1,892.322,280.682Z" transform="translate(-696.404 -211.753)" fill="#222"/>
    <path id="Path_218" data-name="Path 218" d="M946.307,111.483a.523.523,0,0,1-.136-.018.509.509,0,0,1-.354-.627,27.308,27.308,0,0,1,4.3-8.376c4.07-5.291,9.455-7.4,15.584-6.119,14.587,3.053,17.371,9.721,17.481,10a.509.509,0,1,1-.946.372c-.024-.063-2.76-6.457-16.744-9.382-5.792-1.221-10.688.714-14.551,5.721a26.757,26.757,0,0,0-4.141,8.055.511.511,0,0,1-.488.37Z" transform="translate(-754.904 -76.445)" fill="#222"/>
    <path id="Path_219" data-name="Path 219" d="M1129.84,289.257a.522.522,0,0,1-.1,0,.511.511,0,0,1-.407-.6c.045-.228,4.357-23-6.449-25.955-4.858-1.331-9.374-5.537-13.431-12.5a59.807,59.807,0,0,1-4.589-10.029.509.509,0,1,1,.965-.319c.063.189,6.341,18.845,17.339,21.859,4.884,1.339,7.676,6.5,8.053,14.909a59.043,59.043,0,0,1-.873,12.223A.507.507,0,0,1,1129.84,289.257Z" transform="translate(-881.776 -191.182)" fill="#222"/>
    <path id="Path_220" data-name="Path 220" d="M342.653,1278.12a1.628,1.628,0,0,1-.307-3.226,163.733,163.733,0,0,1,26.02-2.338,1.628,1.628,0,1,1,.051,3.256,164.2,164.2,0,0,0-25.457,2.279A1.59,1.59,0,0,1,342.653,1278.12Z" transform="translate(-272.19 -1015.619)" fill="#ffd166"/>
    <path id="Path_221" data-name="Path 221" d="M788.233,1262.16c-11.618,0-24.27-4.6-39.663-10.2l-2.346-.853c-2.707-.983-5.92-2.141-9.229-3.291-6.984-2.432-12.939-4.318-18.741-5.938a51.4,51.4,0,0,0-14.15-1.8c-12.21.022-25.271,3.5-37.905,6.86-3.118.828-6.341,1.687-9.492,2.477-7.108,1.781-15.493,3.663-23.771,4.146a52.354,52.354,0,0,1-17.705-1.687,107.67,107.67,0,0,0-11.193-2.548,1.628,1.628,0,0,1,.558-3.208,110.359,110.359,0,0,1,11.533,2.628,49.028,49.028,0,0,0,16.614,1.565c8.012-.464,16.207-2.31,23.169-4.054,3.128-.783,6.339-1.628,9.447-2.464,12.841-3.415,26.122-6.936,38.739-6.97h.153a54.668,54.668,0,0,1,14.878,1.915c5.869,1.628,11.887,3.543,18.936,6,3.325,1.154,6.553,2.32,9.27,3.3l2.346.853c17.74,6.451,31.747,11.547,44.265,9.565a1.633,1.633,0,1,1,.509,3.226,39.738,39.738,0,0,1-6.222.473Z" transform="translate(-482.715 -987.161)" fill="#ffd166"/>
    <path id="Path_222" data-name="Path 222" d="M1353.92,302.463l-68.651-14.376a12.577,12.577,0,0,0-14.886,9.74l-5.254,25.094a12.577,12.577,0,0,0,6.976,13.967l-5.792,14.486a2.476,2.476,0,0,0,3.62,3.012l20.961-13.228,52.616,11.018a12.577,12.577,0,0,0,14.888-9.732l5.255-25.094a12.579,12.579,0,0,0-9.733-14.887Z" transform="translate(-1010.133 -229.812)" fill="#fff"/>
    <path id="Path_223" data-name="Path 223" d="M1307.01,309.534a3.385,3.385,0,0,1-3.237-4.3l4.07-14.223a13.4,13.4,0,0,1-8.161-13.818l2.692-25.5a13.478,13.478,0,0,1,14.8-11.982l111.19,7.359a13.464,13.464,0,0,1,11.976,14.8l-2.69,25.5a13.454,13.454,0,0,1-14.8,11.976l-94.541-5.6-19.231,15.059a3.347,3.347,0,0,1-2.063.729Zm8.751-68.117a11.708,11.708,0,0,0-11.618,10.464l-2.69,25.5a11.64,11.64,0,0,0,7.764,12.261.885.885,0,0,1,.56,1.081l-4.292,15a1.589,1.589,0,0,0,2.507,1.689l19.514-15.277a.883.883,0,0,1,.639-.183l94.9,5.641a11.706,11.706,0,0,0,12.854-10.4l2.68-25.5a11.689,11.689,0,0,0-10.4-12.851l-111.194-7.359a11.519,11.519,0,0,0-1.225-.067Z" transform="translate(-1037.801 -191.35)" fill="#222"/>
    <path id="Path_224" data-name="Path 224" d="M1367.11,304.168h-.063a.887.887,0,0,1-.724-.476l-5.075-9.77a.886.886,0,1,1,1.573-.814l4.4,8.484,10.2-14.245a.887.887,0,1,1,1.441,1.034L1367.84,303.8a.883.883,0,0,1-.723.37Z" transform="translate(-1086.294 -229.053)" fill="#222"/>
    <path id="Path_225" data-name="Path 225" d="M1514.64,380.068l1.734-2.424a1.1,1.1,0,0,1,1.948.322l.867,2.849a1.108,1.108,0,0,0,.72.729l2.849.9a1.1,1.1,0,0,1,.3,1.952l-2.442,1.705a1.106,1.106,0,0,0-.47.912l.022,2.977a1.1,1.1,0,0,1-1.764.887l-2.391-1.8a1.1,1.1,0,0,0-1.018-.167l-2.827.94a1.1,1.1,0,0,1-1.388-1.4l.973-2.817a1.1,1.1,0,0,0-.155-1.018l-1.756-2.383a1.1,1.1,0,0,1,.907-1.754l2.977.055a1.107,1.107,0,0,0,.914-.47Z" transform="translate(-1205.083 -301.019)" fill="#ffd166"/>
    <path id="Path_311" data-name="Path 311" d="M1514.64,380.068l1.734-2.424a1.1,1.1,0,0,1,1.948.322l.867,2.849a1.108,1.108,0,0,0,.72.729l2.849.9a1.1,1.1,0,0,1,.3,1.952l-2.442,1.705a1.106,1.106,0,0,0-.47.912l.022,2.977a1.1,1.1,0,0,1-1.764.887l-2.391-1.8a1.1,1.1,0,0,0-1.018-.167l-2.827.94a1.1,1.1,0,0,1-1.388-1.4l.973-2.817a1.1,1.1,0,0,0-.155-1.018l-1.756-2.383a1.1,1.1,0,0,1,.907-1.754l2.977.055a1.107,1.107,0,0,0,.914-.47Z" transform="translate(-1187.553 -299.612)" fill="#ffd166"/>
    <path id="Path_312" data-name="Path 312" d="M1514.64,380.068l1.734-2.424a1.1,1.1,0,0,1,1.948.322l.867,2.849a1.108,1.108,0,0,0,.72.729l2.849.9a1.1,1.1,0,0,1,.3,1.952l-2.442,1.705a1.106,1.106,0,0,0-.47.912l.022,2.977a1.1,1.1,0,0,1-1.764.887l-2.391-1.8a1.1,1.1,0,0,0-1.018-.167l-2.827.94a1.1,1.1,0,0,1-1.388-1.4l.973-2.817a1.1,1.1,0,0,0-.155-1.018l-1.756-2.383a1.1,1.1,0,0,1,.907-1.754l2.977.055a1.107,1.107,0,0,0,.914-.47Z" transform="translate(-1169.732 -299.612)" fill="#ffd166"/>
    <path id="Path_313" data-name="Path 313" d="M1514.64,380.068l1.734-2.424a1.1,1.1,0,0,1,1.948.322l.867,2.849a1.108,1.108,0,0,0,.72.729l2.849.9a1.1,1.1,0,0,1,.3,1.952l-2.442,1.705a1.106,1.106,0,0,0-.47.912l.022,2.977a1.1,1.1,0,0,1-1.764.887l-2.391-1.8a1.1,1.1,0,0,0-1.018-.167l-2.827.94a1.1,1.1,0,0,1-1.388-1.4l.973-2.817a1.1,1.1,0,0,0-.155-1.018l-1.756-2.383a1.1,1.1,0,0,1,.907-1.754l2.977.055a1.107,1.107,0,0,0,.914-.47Z" transform="translate(-1151.912 -297.352)" fill="#ffd166"/>
    <path id="Path_226" data-name="Path 226" d="M1624.8,395.783l1.734-2.422a1.1,1.1,0,0,1,1.948.32l.869,2.849a1.1,1.1,0,0,0,.72.729l2.849.9a1.1,1.1,0,0,1,.3,1.952l-2.442,1.705a1.1,1.1,0,0,0-.47.91l.022,2.979a1.1,1.1,0,0,1-1.764.885l-2.377-1.795a1.1,1.1,0,0,0-1.017-.165l-2.827.94a1.1,1.1,0,0,1-1.388-1.4l.973-2.814a1.1,1.1,0,0,0-.155-1.018l-1.768-2.4a1.1,1.1,0,0,1,.908-1.754l2.977.055a1.1,1.1,0,0,0,.912-.456Z" transform="translate(-1244.251 -312.055)" fill="#ffd166"/>
    <path id="Path_227" data-name="Path 227" d="M272.415,678.321a112.648,112.648,0,0,1-33.758-38.914A111.218,111.218,0,0,1,226,587.7h3.256a108.763,108.763,0,0,0,45.075,87.988Z" transform="translate(-180.014 -469.404)" fill="#ffd166"/>
    <circle id="Ellipse_22" data-name="Ellipse 22" cx="40.233" cy="40.233" r="40.233" transform="translate(55.621 20.583)" fill="#fff"/>
    <path id="Path_228" data-name="Path 228" d="M374.855,158.834s-5.7.676-6.543.981a1.838,1.838,0,0,1-2.133-1.732c-.1-1.191,3-8.523,1.832-11.826s-5.641-4.015-5.6-.185-3.482,9.485-4.827,10.625S351.9,166.96,351.9,166.96l-3.4.509-.1-.684a1.17,1.17,0,0,0-1.329-.983L336.21,167.43a1.168,1.168,0,0,0-.981,1.329l2.865,19.1a1.168,1.168,0,0,0,1.329.983l10.861-1.628a1.168,1.168,0,0,0,.981-1.329l-.077-.521a8.313,8.313,0,0,1,4.088,1.1l20.981-3.138c5.147-.773,2.239-5.33,2.239-5.33,3.144-2.523.222-5.653.222-5.653,4.1-3.022-.244-6.386-.244-6.386C382.147,159.569,374.855,158.834,374.855,158.834Z" transform="translate(-267.576 -114.281)" fill="#b7b7b7"/>
    <path id="Path_230" data-name="Path 230" d="M370.327,892.258a.885.885,0,0,1-.541-1.587l24.233-18.69a.887.887,0,0,1,1.083,1.4l-24.234,18.69A.883.883,0,0,1,370.327,892.258Z" transform="translate(-294.857 -695.804)" fill="#b7b7b7"/>
    <path id="Path_231" data-name="Path 231" d="M299.987,997.814a.885.885,0,0,1-.541-1.587l7.21-5.56a.886.886,0,0,1,1.083,1.4l-7.21,5.562A.888.888,0,0,1,299.987,997.814Z" transform="translate(-238.238 -790.433)" fill="#b7b7b7"/>
    <path id="Path_232" data-name="Path 232" d="M747.581,93.465a8.268,8.268,0,1,1,1.425-.126A8.268,8.268,0,0,1,747.581,93.465Zm.026-14.817a6.594,6.594,0,1,0,5.385,10.379h0a6.59,6.59,0,0,0-5.385-10.379Z" transform="translate(-590.01 -61.273)" fill="#fff"/>
    <path id="Path_233" data-name="Path 233" d="M715.178,157.107a.8.8,0,0,1-.466-.149.814.814,0,0,1-.2-1.134l8.307-11.8a.814.814,0,0,1,1.331.936l-8.3,11.8a.814.814,0,0,1-.667.347Z" transform="translate(-570.089 -114.454)" fill="#fff"/>
    <path id="Path_234" data-name="Path 234" d="M554.412,790.352h-.031a.814.814,0,0,1-.783-.845c.667-17.67,9.768-47.563,9.864-47.863a.814.814,0,0,1,1.557.476c-.092.3-9.135,29.991-9.795,47.449A.814.814,0,0,1,554.412,790.352Z" transform="translate(-441.797 -591.603)" fill="#222"/>
    <path id="Path_235" data-name="Path 235" d="M1433.56,861.637a.814.814,0,0,1-.478-1.475c.2-.151,21.069-15.263,28.523-26.34a.814.814,0,0,1,1.351.91c-7.619,11.323-28.055,26.126-28.922,26.751a.814.814,0,0,1-.474.154Z" transform="translate(-1143.847 -665.233)" fill="#222"/>
    <path id="Path_236" data-name="Path 236" d="M1528.68,768.315a3.217,3.217,0,1,1,3.218-3.215,3.217,3.217,0,0,1-3.218,3.215Zm0-4.8a1.581,1.581,0,1,0,1.125.462,1.589,1.589,0,0,0-1.125-.462Z" transform="translate(-1217.697 -607.998)" fill="#b7b7b7"/>
    <path id="Path_237" data-name="Path 237" d="M929.157,983.935a3.217,3.217,0,1,1,3.217-3.215,3.217,3.217,0,0,1-3.217,3.215Zm0-4.8a1.581,1.581,0,1,0,1.125.462,1.589,1.589,0,0,0-1.125-.462Z" transform="translate(-738.921 -780.067)" fill="#b7b7b7"/>
    <circle id="Ellipse_23" data-name="Ellipse 23" cx="8.346" cy="8.346" r="8.346" transform="translate(79.455 215.146)" fill="#b7b7b7"/>
    <path id="Path_238" data-name="Path 238" d="M417.4,1096.18a9.158,9.158,0,1,1,9.158-9.158,9.158,9.158,0,0,1-9.158,9.158Zm0-16.687a7.53,7.53,0,1,0,7.53,7.53,7.53,7.53,0,0,0-7.53-7.53Z" transform="translate(-325.81 -860.542)" fill="#303030"/>
    <path id="Path_239" data-name="Path 239" d="M1015.65,895.572a.509.509,0,0,1-.181-.985c6.773-2.554,8.437-5.741,9.331-7.452a7.991,7.991,0,0,1,.5-.869,2.672,2.672,0,0,0-.032-2.43.517.517,0,0,1,.014-.49.889.889,0,0,0,.128-.708,1.8,1.8,0,0,0-.779-.9.511.511,0,0,1-.075-.838s.431-.417.175-1.443a.635.635,0,0,0-.307-.446,1.669,1.669,0,0,0-1.131-.029.509.509,0,0,1-.576-.765c.515-.788,1.14-2.177.839-2.646-.12-.2-.519-.262-1.093-.189-1.571.2-3.822,1.693-6,3.132-2.379,1.573-4.622,3.053-6.152,2.973a.51.51,0,1,1,.057-1.017c1.186.061,3.4-1.394,5.533-2.806,2.273-1.5,4.624-3.053,6.429-3.291a1.956,1.956,0,0,1,2.086.657c.5.8.077,2.017-.342,2.863a1.971,1.971,0,0,1,.851.238,1.662,1.662,0,0,1,.8,1.089,2.769,2.769,0,0,1-.134,1.962,2.46,2.46,0,0,1,.814,1.188,1.863,1.863,0,0,1-.106,1.254,3.445,3.445,0,0,1-.161,3.242,7.428,7.428,0,0,0-.423.747c-.957,1.832-2.739,5.242-9.872,7.937a.5.5,0,0,1-.2.018Z" transform="translate(-805.909 -697.819)" fill="#ff7c76"/>
    <path id="Path_240" data-name="Path 240" d="M774.286,930.8a.814.814,0,0,1-.149-1.614c6.974-1.311,14.3-2.871,20.544-5.4,6.421-2.593,11.079-4.379,13.855-5.421a.814.814,0,1,1,.572,1.524c-2.768,1.038-7.412,2.821-13.818,5.407s-13.794,4.162-20.853,5.495a.754.754,0,0,1-.151.009Z" transform="translate(-617.358 -732.868)" fill="#b7b7b7"/>
    <path id="Path_439" data-name="Path 439" d="M145.738,178.194a40.417,40.417,0,1,1,40.416-40.416A40.417,40.417,0,0,1,145.738,178.194Zm0-78.678A38.262,38.262,0,1,0,184,137.778a38.262,38.262,0,0,0-38.262-38.262Z" transform="translate(-55.041 -81.705)"/>
    <path id="Path_177-2" data-name="Path 177" d="M340.541,435.806a.838.838,0,0,1-.293-.055l-17.119-6.616a.814.814,0,1,1,.586-1.518l17.121,6.616a.814.814,0,0,1-.3,1.573Zm2.566-3.84a.814.814,0,0,1-.611-.287c-4.121-4.839-8.238-9.418-12.235-13.608a.814.814,0,0,1,1.178-1.123c4.017,4.213,8.154,8.814,12.3,13.678a.814.814,0,0,1-.092,1.146.8.8,0,0,1-.54.194ZM306.3,422.574a.836.836,0,0,1-.293-.055L288.889,415.9a.814.814,0,1,1,.586-1.518L306.6,421a.814.814,0,0,1-.3,1.573Zm-34.24-13.228a.793.793,0,0,1-.293-.055l-17.119-6.616a.814.814,0,1,1,.586-1.518l17.121,6.616a.814.814,0,0,1-.3,1.573Zm45.655-3.834a.814.814,0,0,1-.545-.2c-4.715-4.255-9.463-8.14-14.117-11.577a.815.815,0,1,1,.967-1.311c4.7,3.46,9.487,7.387,14.245,11.679a.814.814,0,0,1-.545,1.425Zm-79.89-9.4a.829.829,0,0,1-.293-.055l-17.119-6.616a.815.815,0,0,1,.586-1.52l17.121,6.616a.814.814,0,0,1-.3,1.575Zm50.3-12.162a.8.8,0,0,1-.393-.1,115.442,115.442,0,0,0-16.552-7.55.814.814,0,0,1,.554-1.53,116.723,116.723,0,0,1,16.791,7.65.814.814,0,0,1-.4,1.526Zm-84.549-1.07a.829.829,0,0,1-.293-.055l-17.119-6.616a.814.814,0,0,1,.586-1.518l17.121,6.616a.814.814,0,0,1-.3,1.573Zm-58.449-.291a.776.776,0,0,1-.1,0,77.8,77.8,0,0,1-17.97-4.381.814.814,0,1,1,.568-1.526,76.113,76.113,0,0,0,17.6,4.286.816.816,0,1,1-.1,1.628Zm18.3-.122a.816.816,0,0,1-.1-1.628,81.266,81.266,0,0,0,12.617-2.7c1.728-.513,3.46-1.018,5.112-1.477a.815.815,0,0,1,.44,1.569c-1.655.464-3.368.959-5.088,1.469a82.834,82.834,0,0,1-12.864,2.755.868.868,0,0,1-.114.008Zm35.656-8.608a.814.814,0,0,1-.167-1.61c6.325-1.333,12.44-2.338,18.179-2.99a.814.814,0,1,1,.183,1.618c-5.688.645-11.753,1.642-18.027,2.965a.817.817,0,0,1-.163.017Zm54.664-2.224a.858.858,0,0,1-.142-.012,114.733,114.733,0,0,0-18.112-1.689.814.814,0,0,1,.024-1.628A116.578,116.578,0,0,1,253.9,370.02a.814.814,0,0,1-.142,1.616Zm-142.81-1.518a.815.815,0,0,1-.429-.124A116.66,116.66,0,0,1,95.7,358.968a.814.814,0,0,1,1.068-1.221,115.105,115.105,0,0,0,14.6,10.875.814.814,0,0,1-.431,1.506Zm58.406-.468a.83.83,0,0,1-.293-.055l-17.125-6.616a.814.814,0,0,1,.586-1.518l17.121,6.616a.814.814,0,0,1-.3,1.573ZM135.1,356.421a.788.788,0,0,1-.293-.055l-17.11-6.617a.814.814,0,0,1,.586-1.518l17.121,6.616a.814.814,0,0,1-.3,1.573ZM83.214,346.245a.814.814,0,0,1-.611-.271A179.117,179.117,0,0,1,71.062,331.59a.814.814,0,0,1,1.313-.957A178.247,178.247,0,0,0,83.81,344.88a.814.814,0,0,1-.611,1.355Zm17.652-3.053a.788.788,0,0,1-.293-.055l-17.119-6.614A.816.816,0,1,1,84.04,335l17.121,6.616a.814.814,0,0,1-.3,1.573Z" transform="translate(-56.509 -263.914)" fill="#fff"/>
  </g>
</svg>
