<svg xmlns="http://www.w3.org/2000/svg" width="471.438" height="440.374" viewBox="0 0 471.438 440.374">
  <g id="undraw_schedule_re_2vro" transform="translate(-21.125 -82.666)">
    <path id="Path_517" data-name="Path 517" d="M527.465,677.326,514.03,689.7l10.678-17.916c-8.412-15.255-22.171-28.439-22.171-28.439s-28.544,27.347-28.544,48.844,12.779,29,28.544,29,28.544-7.506,28.544-29A37.687,37.687,0,0,0,527.465,677.326Z" transform="translate(-322.636 -198.147)" fill="#f2f2f2"/>
    <path id="Path_518" data-name="Path 518" d="M514.057,690.218v1.06c-.063,12.317-2.14,21.927-6.216,28.693-.058.1-.121.194-.178.294l-.456-.278-.435-.273c4.522-7.307,6.122-17.635,6.179-28.378.005-.346.011-.7.005-1.049-.016-4.548-.294-9.148-.74-13.617-.031-.346-.068-.7-.1-1.049-.619-5.9-1.511-11.53-2.424-16.424-.063-.346-.131-.692-.2-1.033-1.579-8.278-3.189-14.273-3.557-15.6-.042-.163-.068-.252-.073-.273l.5-.142.005-.005.5-.142c.005.021.094.32.241.876.561,2.077,2.02,7.716,3.452,15.154.063.336.131.682.194,1.028.745,3.971,1.474,8.409,2.051,13.067q.22,1.755.393,3.462c.042.352.079.7.11,1.049Q514.031,683.884,514.057,690.218Z" transform="translate(-326.119 -198)" fill="#fff"/>
    <path id="Path_519" data-name="Path 519" d="M509.066,659.7c-.351.047-.708.094-1.07.131a28.975,28.975,0,0,1-2.958.152,28.151,28.151,0,0,1-12.17-2.749l-.666.839a29.19,29.19,0,0,0,12.836,2.958,29.951,29.951,0,0,0,3.158-.168c.357-.037.713-.084,1.065-.136a28.947,28.947,0,0,0,8.367-2.534q-.339-.433-.661-.85a28.053,28.053,0,0,1-7.9,2.355Z" transform="translate(-324.626 -199.665)" fill="#fff"/>
    <path id="Path_520" data-name="Path 520" d="M511,678.225q-.543.032-1.086.031c-.11.005-.226.005-.336.005a28.3,28.3,0,0,1-23.228-12.133c-.209.31-.419.619-.624.934a29.35,29.35,0,0,0,23.852,12.248c.147,0,.294,0,.441-.005.367-.005.729-.016,1.091-.031a29.193,29.193,0,0,0,15.553-5.456c-.168-.309-.336-.619-.509-.928A28.1,28.1,0,0,1,511,678.225Z" transform="translate(-323.918 -200.637)" fill="#fff"/>
    <path id="Path_521" data-name="Path 521" d="M511.36,693.641c-.367.031-.734.052-1.1.068-.393.016-.787.026-1.18.026a28.375,28.375,0,0,1-27.2-20.416c-.236.425-.472.844-.7,1.269a29.415,29.415,0,0,0,27.9,20.2c.393,0,.787-.005,1.175-.026.372-.01.74-.031,1.107-.058a29.329,29.329,0,0,0,19.356-9.447c-.11-.388-.236-.771-.362-1.159A28.283,28.283,0,0,1,511.36,693.641Z" transform="translate(-323.422 -201.423)" fill="#fff"/>
    <rect id="Rectangle_122" data-name="Rectangle 122" width="471.438" height="249.775" transform="translate(21.125 82.666)" fill="#f0f0f0"/>
    <path id="Path_526" data-name="Path 526" d="M799.221,283.087v-2.449H707.451v-44.3H705v44.3H613.231v-44.3h-2.449v44.3H519.011v-44.3h-2.449v44.3H424.791v-44.3h-2.449v44.3H327.783v2.449h94.558v48.945H327.783v2.449h94.558v48.945H327.783v2.449h94.558v48.936H327.783v2.449h94.558v48.847h2.449V437.261h91.771v48.847h2.449V437.261h91.771v48.847h2.449V437.261H705v48.847h2.449V437.261h91.771v-2.449H707.451V385.875h91.771v-2.449H707.451V334.481h91.771v-2.449H707.451V283.087ZM516.561,434.811H424.791V385.875h91.771Zm0-51.385H424.791V334.481h91.771Zm0-51.394H424.791V283.087h91.771Zm94.22,102.78H519.011V385.875h91.771Zm0-51.385H519.011V334.481h91.771Zm0-51.394H519.011V283.087h91.771ZM705,434.811H613.231V385.875H705Zm0-51.385H613.231V334.481H705Zm0-51.394H613.231V283.087H705Z" transform="translate(-306.658 -153.667)" fill="#fff"/>
    <rect id="Rectangle_123" data-name="Rectangle 123" width="31.539" height="30.534" transform="translate(136.389 141.322)" fill="#cacaca"/>
    <rect id="Rectangle_124" data-name="Rectangle 124" width="31.539" height="30.534" transform="translate(426.762 240.192)" fill="#cacaca"/>
    <rect id="Rectangle_125" data-name="Rectangle 125" width="31.539" height="30.534" transform="translate(146.187 290.962)" fill="#cacaca"/>
    <rect id="Rectangle_126" data-name="Rectangle 126" width="31.539" height="30.534" transform="translate(155.508 135.657)" fill="#f2c81f"/>
    <path id="Path_527" data-name="Path 527" d="M370.13,265.985l37.427-33.346L418.6,238.11,373.71,285.191Z" transform="translate(-34.822 -3.403)" fill="#ffb6b6"/>
    <circle id="Ellipse_58" data-name="Ellipse 58" cx="8.907" cy="8.907" r="8.907" transform="translate(368.754 222.882)" fill="#ffb6b6"/>
    <path id="Path_528" data-name="Path 528" d="M329.2,547.665h-8.856l-4.213-34.159H329.2Z" transform="translate(-28.92 -34.097)" fill="#ffb6b6"/>
    <path id="Path_529" data-name="Path 529" d="M640.215,728.333H611.659v-.361a11.115,11.115,0,0,1,11.114-11.114h17.442Z" transform="translate(-337.681 -206.181)" fill="#2f2e41"/>
    <path id="Path_530" data-name="Path 530" d="M293.2,547.665h-8.856l-4.213-34.159H293.2Z" transform="translate(-24.986 -34.097)" fill="#ffb6b6"/>
    <path id="Path_531" data-name="Path 531" d="M604.215,728.333H575.659v-.361a11.115,11.115,0,0,1,11.114-11.114h17.442Z" transform="translate(-333.747 -206.181)" fill="#2f2e41"/>
    <path id="Path_532" data-name="Path 532" d="M640.936,500.884s22.268-1.781,15.142,37.41-21.886,146.4-21.886,146.4l-13.382,1.839L612.9,543.52l-5.981,143.014L589.9,684.695,573.241,531.17s-5.35-12.344,0-20.869S640.936,500.884,640.936,500.884Z" transform="translate(-333.223 -182.577)" fill="#2f2e41"/>
    <path id="Path_533" data-name="Path 533" d="M633.533,391.477l6.182-3.312s15.232-1.3,21.448,16.594l16.486,24.9L704.372,406.5l11.579,8.016L682.274,454.71l-14,1.789-30.284-39.191Z" transform="translate(-340.072 -170.258)" fill="#3f3d56"/>
    <path id="Path_534" data-name="Path 534" d="M604.357,310.753c-25.4,0-32.511,27.9-32.511,43.645s14.556,13.361,32.511,13.361c7.707,0,14.783.435,20.355-.309l2.68-6.544,2.157,5.422c4.574-1.68,7.32-5.1,7.32-11.93C636.868,338.656,630.633,310.753,604.357,310.753Z" transform="translate(-333.33 -161.8)" fill="#2f2e41"/>
    <circle id="Ellipse_59" data-name="Ellipse 59" cx="21.877" cy="21.877" r="21.877" transform="translate(249.042 162.178)" fill="#ffb6b6"/>
    <path id="Path_535" data-name="Path 535" d="M579.846,344.912H588.5l3.817-10.689.763,10.689h4.136l2.227-6.235.445,6.235h30.73a23.159,23.159,0,0,0-23.159-23.159H603a23.159,23.159,0,0,0-23.159,23.159Z" transform="translate(-334.204 -163.002)" fill="#2f2e41"/>
    <rect id="Rectangle_127" data-name="Rectangle 127" width="31.539" height="30.534" transform="translate(360.373 198.007)" fill="#f2c81f"/>
    <path id="Path_536" data-name="Path 536" d="M647.271,479.7c-3.359.043-13.476-59.99-13.476-59.99l-1.515-32.351-11.055-.372v-.728a5.506,5.506,0,0,0-5.505-5.506H594.665a5.5,5.5,0,0,0-5.488,5.155l-8.669-.291-15.014,47.7s13.835,44.322,7.158,63.855c0,0,65.056,5.587,77.51-6.813C650.162,490.36,650.63,479.655,647.271,479.7Z" transform="translate(-332.636 -169.45)" fill="#3f3d56"/>
    <path id="Path_537" data-name="Path 537" d="M581.564,392.09l-3.726-5.943s-12.123-3-17.114,5.036-19.661,51.559-19.661,51.559l15.142,5.344L573.388,424Z" transform="translate(-329.966 -169.98)" fill="#3f3d56"/>
    <rect id="Rectangle_128" data-name="Rectangle 128" width="31.539" height="30.534" transform="translate(257.94 253.232)" fill="#f2c81f"/>
    <path id="Path_538" data-name="Path 538" d="M565.016,440.074l-10.973-1.161h0a10.764,10.764,0,0,0,7.64,15.125L605.1,462.7l-4.529-13.948Z" transform="translate(-331.273 -175.806)" fill="#ffb6b6"/>
    <circle id="Ellipse_60" data-name="Ellipse 60" cx="8.907" cy="8.907" r="8.907" transform="translate(265.049 269.243)" fill="#ffb6b6"/>
    <path id="Path_539" data-name="Path 539" d="M593.659,462.681l-33.076-7.558a14.29,14.29,0,0,1-10.361-9.478l-1.337-4.122,8.584-6.755L596.8,445.76Z" transform="translate(-330.821 -175.353)" fill="#3f3d56"/>
  </g>
</svg>
